<?xml version="1.0" encoding="UTF-8"?>
<svg id="Capa_1" data-name="Capa 1" xmlns="http://www.w3.org/2000/svg" version="1.1" viewBox="0 0 768 1366">
  <defs>
    <style>
      .cls-1 {
        fill: #c7e6ed;
      }

      .cls-1, .cls-2, .cls-3, .cls-4, .cls-5, .cls-6, .cls-7, .cls-8, .cls-9, .cls-10, .cls-11, .cls-12, .cls-13, .cls-14, .cls-15, .cls-16 {
        stroke-width: 0px;
      }

      .cls-2 {
        fill: #8f3625;
      }

      .cls-3 {
        fill: #000;
      }

      .cls-4 {
        fill: #261807;
      }

      .cls-17, .cls-18 {
        stroke: #5b4b36;
      }

      .cls-17, .cls-18, .cls-19, .cls-20, .cls-21 {
        stroke-miterlimit: 10;
      }

      .cls-17, .cls-8, .cls-21 {
        fill: none;
      }

      .cls-5 {
        fill: #1c1c1c;
      }

      .cls-22, .cls-12, .cls-23 {
        isolation: isolate;
      }

      .cls-6 {
        fill: #f4f2f3;
      }

      .cls-7 {
        fill: #a12e34;
      }

      .cls-18, .cls-10 {
        fill: #5b4b36;
      }

      .cls-19 {
        stroke: #b78a58;
      }

      .cls-19, .cls-11 {
        fill: #bb8f50;
      }

      .cls-9 {
        fill: #a48d15;
      }

      .cls-12 {
        opacity: .3;
      }

      .cls-12, .cls-15 {
        fill: #f489a0;
      }

      .cls-23 {
        fill: #0d3524;
        font-family: Boba-Milky, 'Boba Milky';
        font-size: 107.1px;
      }

      .cls-20 {
        stroke: #000;
      }

      .cls-20, .cls-13 {
        fill: #1d150f;
      }

      .cls-14 {
        fill: #fff;
      }

      .cls-21 {
        stroke: #aa814b;
      }

      .cls-16 {
        fill: #030303;
      }
    </style>
  </defs>
  <g>
    <g>
      <path class="cls-11" d="M304,682h46c15.3,0,27.6,12,27.6,26.8v118.2c0,14.8-12.4,26.8-27.6,26.8h-46c-15.3,0-27.6-12-27.6-26.8v-118.2c0-14.8,12.4-26.8,27.6-26.8Z"/>
      <path class="cls-11" d="M304,811.4h46c15.3,0,27.6,12,27.6,26.8v118.2c0,14.8-12.4,26.8-27.6,26.8h-46c-15.3,0-27.6-12-27.6-26.8v-118.2c0-14.8,12.4-26.8,27.6-26.8Z"/>
      <path class="cls-11" d="M416.8,677.5h46c15.3,0,27.6,12,27.6,26.8v118.2c0,14.8-12.4,26.8-27.6,26.8h-46c-15.3,0-27.6-12-27.6-26.8v-118.2c0-14.8,12.4-26.8,27.6-26.8Z"/>
      <path class="cls-11" d="M416.8,806.9h46c15.3,0,27.6,12,27.6,26.8v118.2c0,14.8-12.4,26.8-27.6,26.8h-46c-15.3,0-27.6-12-27.6-26.8v-118.2c0-14.8,12.4-26.8,27.6-26.8Z"/>
      <path class="cls-13" d="M428.8,527.4l-61.2,2.2c-92.8,3.3-172-57.6-176.1-135.4l-2.5-51.3c-3.9-77.9,68.6-144.3,161.6-147.7l61.2-2.2c92.8-3.3,172,57.6,176.1,135.4l2.5,51.3c3.9,77.9-68.6,144.3-161.6,147.7h0Z"/>
      <g>
        <path class="cls-11" d="M449.5,516.5l53.4,51.7c10.3,10,10.3,26.3,0,36.3h0c-10.3,10-27.1,10-37.4,0l-53.4-51.7c-10.3-10-10.3-26.3,0-36.3h0c10.3-10,27.1-10,37.4,0Z"/>
        <path class="cls-11" d="M505.7,571.8l53.4,51.7c10.3,10,10.3,26.3,0,36.3h0c-10.3,10-27.1,10-37.4,0l-53.4-51.7c-10.3-10-10.3-26.3,0-36.3h0c10.3-10,27.1-10,37.4,0Z"/>
        <ellipse class="cls-11" cx="555.2" cy="620.4" rx="15" ry="14.5"/>
        <path class="cls-10" d="M431.5,568c1.6,1.8,3.5,4,5.8,6,1.6,1.6,3.2,2.9,4.8,4,19.3-8.3,32.2-16.5,35.2-19.6,2.3-2.5,4.1-5.1,4.1-5.1,1.2-1.6,1.8-2.9,2.5-4l-2.3-2c-1.4-1.1-2.3-2-2.3-2-1.4-1.1-3.9-3.6-9.7-9.8,0,1.8-.5,4.2-1.4,6.9,0,0-.2,1.1-.7,2-6.7,14.7-29,21.6-35.7,23.6h-.5.2Z"/>
        <path class="cls-2" d="M508.9,610.3c1.6,2.5,3.2,6.2,1.8,7.1,0,0-1.2.4-4.4-1.6-4.4-2.5-6.4-5.4-10.6-11.2,0,0-3.2-4.2-9-12.7-1.6-2.5-2.8-3.8-2.5-4,.2,0,3.5,4.5,9,9.4,7.6,6.7,11.7,6.9,15.4,12.7l.2.2h.1Z"/>
        <path class="cls-10" d="M453.2,589.4c1.6,1.8,3.5,4,5.8,6,1.6,1.6,3.2,2.9,4.8,4,19.1-8.3,32-16.3,34.8-19.4,2.3-2.5,4.1-4.9,4.1-4.9,1.2-1.6,1.8-2.9,2.5-4l-2.3-2c-1.4-1.1-2.3-2-2.3-2-1.2-1.1-3.9-3.6-9.7-10,0,1.8-.5,4-1.4,6.9,0,0-.2.9-.7,2-6.4,14.7-28.5,21.4-35.2,23.2l-.5.2h.1Z"/>
        <path class="cls-2" d="M488.2,589.8c2.1,3.3,2.5,6.5.9,7.4s-4.8-1.1-7.1-4.5-2.5-6.5-.9-7.4,4.8,1.1,7.1,4.5Z"/>
      </g>
      <g>
        <ellipse class="cls-9" cx="226.2" cy="434.6" rx="4.1" ry="5.6"/>
        <ellipse class="cls-9" cx="226.2" cy="445.7" rx="4.1" ry="5.6"/>
        <ellipse class="cls-9" cx="226.2" cy="456.9" rx="4.1" ry="5.6"/>
      </g>
      <path class="cls-11" d="M357.6,510.6h58.9c15.3,0,27.6,12,27.6,26.8v102c0,14.8-12.4,26.8-27.6,26.8h-58.9c-15.3,0-27.6-12-27.6-26.8v-102c0-14.8,12.4-26.8,27.6-26.8h0Z"/>
      <ellipse class="cls-11" cx="386" cy="686" rx="101.1" ry="95.7"/>
      <ellipse class="cls-11" cx="386" cy="342.4" rx="179.3" ry="158.4"/>
      <path class="cls-11" d="M383.2,478.7h7.4c13.6,0,24.6,10.7,24.6,23.9v29.9c0,13.2-11,23.9-24.6,23.9h-7.4c-13.6,0-24.6-10.7-24.6-23.9v-29.9c0-13.2,11-23.9,24.6-23.9Z"/>
      <path class="cls-11" d="M364.8,1023.1l-72.7,4.9c-13.6.9-25.8-7.6-26.9-19.2l-1.4-14.1c-1.2-11.4,9.2-21.6,22.8-22.5l72.7-4.9c13.6-.9,25.8,7.6,26.9,19.2l1.4,14.1c1.2,11.4-9.2,21.6-22.8,22.5Z"/>
      <path class="cls-11" d="M404.8,1023.7l72.7,4.9c13.6.9,25.8-7.6,26.9-19.2l1.4-14.1c1.2-11.4-9.2-21.6-22.8-22.5l-72.7-4.9c-13.6-.9-25.8,7.6-26.9,19.2l-1.4,14.1c-1.2,11.4,9.2,21.6,22.8,22.5h0Z"/>
      <path class="cls-11" d="M240.7,383.2c6.7,16.1,1.6,32.3-11.5,36.1s-29-6.2-35.7-22.3c-6.7-16.1-1.6-32.3,11.5-36.1,13.1-3.8,29,6.2,35.7,22.3Z"/>
      <path class="cls-11" d="M525,389.7c-6.7,16.1-1.6,32.3,11.5,36.1,13.1,3.8,29-6.2,35.7-22.3,6.7-16.1,1.6-32.3-11.5-36.1s-29,6.2-35.7,22.3Z"/>
      <line class="cls-8" x1="429.9" y1="399.1" x2="429.9" y2="397.1"/>
      <line class="cls-8" x1="510.7" y1="397.1" x2="510.7" y2="395.1"/>
      <path class="cls-21" d="M427.6,388.4c6.4,2.9,22.6,9.1,43.7,7.8,18-1.1,30.8-6.9,37.1-10.3"/>
      <path class="cls-21" d="M270.4,384.8c6,3.6,20.9,11.4,42.4,12.3,18,.9,31.8-3.6,38.4-6.2"/>
      <path class="cls-5" d="M522.5,303.1c-6.2-2.7-17.7-6.9-33.2-7.6-15-.7-26.9,2.2-33.4,4.2-1.4,0-2.3-1.1-2.3-2s1.2-2,2.5-1.8c6.4-2,18.2-4.9,33.2-4.2,15.4.7,27.2,4.9,33.4,7.6,1.4,0,2.3,1.1,2.3,2s-1.2,2-2.5,1.8Z"/>
      <path class="cls-15" d="M439.4,416.9c3.9,8.3-21.2,31.9-50,31.9s-53.9-23.6-50-31.9c.7-1.6,3.2-3.8,47.4-4,33.6,0,50.4,0,52.3,4h.3Z"/>
      <path class="cls-5" d="M265.3,298.7c6.2-2.7,17.7-6.9,33.2-7.6,15-.7,26.9,2.2,33.4,4.2,1.4,0,2.3-1.1,2.3-2s-1.2-2-2.5-1.8c-6.4-2-18.2-4.9-33.2-4.2-15.4.7-27.2,4.9-33.4,7.6-1.4,0-2.3,1.1-2.3,2s1.2,2,2.5,1.8Z"/>
      <path class="cls-14" d="M439.1,415.1c3.9,4.2-20.9,15.8-49.5,15.8s-53.4-11.8-49.5-15.8c.7-.7,3.2-2,47.2-2s50,0,51.8,2Z"/>
      <ellipse class="cls-12" cx="488.2" cy="408" rx="39.1" ry="32.8"/>
      <ellipse class="cls-12" cx="295.7" cy="406" rx="39.1" ry="32.8"/>
      <path class="cls-20" d="M560.7,295.6c-7.6,13.8-38.2,6-173.6,6s-168.3,7.8-175.9-6c-14.7-27.2,72.5-116,175.9-115.6,102.4.4,188.3,88.6,173.6,115.6Z"/>
      <ellipse class="cls-19" cx="352.1" cy="568" rx="35" ry="26.3"/>
      <ellipse class="cls-19" cx="421.9" cy="567.5" rx="35" ry="26.3"/>
      <g>
        <g>
          <path class="cls-10" d="M358.6,500.8v4c9.9,1.6,21.9,2.5,35.7,2,7.8-.2,15-1.1,21.4-2v-4c-5.8.9-12.2,1.6-19.1,2-14.7.7-27.6-.4-38-2Z"/>
          <path class="cls-10" d="M358.6,510.6v-6c6,2,15.7,4.2,27.9,4.2s23-2.5,29.2-4.2v6c-1.2,2.2-3.7,6.2-8.7,9.8-1.4.9-9.2,6.2-19.8,6.2s-22.6-6.2-28.5-16.1h-.1Z"/>
        </g>
        <ellipse class="cls-2" cx="387.1" cy="518.2" rx="2.5" ry="5.4"/>
        <path class="cls-2" d="M390.6,549c-.5,2.2-1.4,5.1-2.5,5.1,0,0-.9,0-1.8-2.7-1.2-3.3-.9-6-.2-11.2,0,0,.5-4,1.4-11.4.2-2.2.5-3.6.7-3.6s-.2,4.2.2,9.4c.9,7.1,3.2,8.9,2.3,14.1v.2h-.1Z"/>
      </g>
      <g>
        <path class="cls-10" d="M330,592.3c19.6-1.3,41.2-2.2,64.2-2,17.7,0,34.3.9,50,2v14.1c-13.4-2.9-30.2-5.4-50-6-26.2-.7-48.1,2.5-64.2,6v-14.1Z"/>
        <path class="cls-17" d="M359.5,599.2c-.5,1.3-.7,3.1,0,5.1.5,1.3.9,1.8,1.2,3.1s.2,2.9-.9,5.1"/>
        <path class="cls-17" d="M372.6,614.1c0-.7-.5-1.6,0-2.5s1.2-.9,1.4-1.6c.5-.9-.5-1.6-.9-3.3-.2-1.1-.5-2-.5-2.7-5.1,21.6-10.1,29.9-14,33.2-.9.9-4.6,3.8-7.6,8.9-1.8,3.1-3,6-3.5,7.8"/>
        <line class="cls-17" x1="384.3" y1="597.6" x2="384.3" y2="602.8"/>
        <path class="cls-17" d="M390.6,599.4c-.2.9-.7,2,0,3.3.5.9,1.2,1.1,1.4,1.6.7.9.9,2.7-1.4,6.2"/>
        <path class="cls-17" d="M348,602.3c-.2,2.2,0,4.2.2,5.4.5,2.2,1.4,3.1,1.2,4.9,0,1.6-1.2,2.9-1.8,3.8"/>
        <path class="cls-17" d="M398.4,599.6v5.1c.7,3.8,2.3,5.4,1.6,7.8-.5,1.6-1.6,2.5-2.5,3.1"/>
        <path class="cls-17" d="M408.5,600.1v3.3c.5,1.6,1.2,2.5,1.4,3.3.5,1.3.5,3.1-1.6,6.2"/>
        <path class="cls-17" d="M423.5,601.2c0,.9-.5,2.2,0,4,0,1.6.7,2,.7,3.3s0,2.5-1.4,4.5"/>
        <path class="cls-17" d="M437.8,603.7c0,1.3.2,3.1-.5,5.1-.5,1.6-1.2,2-1.4,3.1-.5,1.3-.7,3.6.9,6.7"/>
        <path class="cls-17" d="M414.3,607.9c0-.7.5-1.6,0-2.5s-1.2-.7-1.4-1.6c-.5-.9.5-1.6.9-3.1.2-.9.5-1.8.5-2.5,3,17,9.4,25.2,15,29.4,1.6,1.3,4.8,3.3,10.1,7.4,6.2,4.7,10.8,8.7,14,11.4"/>
      </g>
      <g>
        <ellipse class="cls-9" cx="531.5" cy="456.4" rx="4.1" ry="5.6"/>
        <ellipse class="cls-9" cx="531.5" cy="467.3" rx="4.1" ry="5.6"/>
        <ellipse class="cls-9" cx="531.5" cy="478.5" rx="4.1" ry="5.6"/>
      </g>
      <polygon class="cls-10" points="486.3 884.5 389.6 884.5 389.6 908.2 487 905.5 486.3 884.5"/>
      <g>
        <line class="cls-17" x1="444.7" y1="904.8" x2="444.7" y2="953.7"/>
        <polygon class="cls-18" points="429.9 951.2 444.7 957.9 459.6 951.2 444.7 944.8 429.9 951.2"/>
        <path class="cls-17" d="M384.8,953.2c34.3-.9,68.6-1.8,102.9-2.7"/>
        <line class="cls-17" x1="444" y1="958.1" x2="444" y2="1014.8"/>
      </g>
      <path class="cls-10" d="M394.7,1006.8l99.9,6.9c5.1.4,9,4.2,8.5,8.5h0c-.5,4.2-5.1,7.6-10.1,7.1l-99.9-6.9c-5.1-.4-9-4.2-8.5-8.5h0c.5-4.2,5.1-7.6,10.1-7.1h0Z"/>
      <polygon class="cls-10" points="285.1 893.9 384.8 893.9 384.8 917.5 284.7 914.6 285.1 893.9"/>
      <g>
        <line class="cls-17" x1="326.8" y1="914" x2="326.8" y2="958.8"/>
        <polygon class="cls-18" points="341.8 956.6 326.8 962.8 311.8 956.6 326.8 950.6 341.8 956.6"/>
        <path class="cls-17" d="M386.9,958.6c-34.3-.9-68.6-1.6-102.9-2.5"/>
        <line class="cls-17" x1="327.5" y1="962.8" x2="327.5" y2="1014.8"/>
      </g>
      <g>
        <path class="cls-1" d="M301.7,637.3c7.4,3.6,40.7,19,89.1,17.4,41.2-1.3,68.4-14.3,76.7-18.5,2.3,4.2,4.4,8.7,6.7,12.9-9.4,1.6-18.9,3.1-28.1,4.9-.9,10-2.1,20.7-3.9,31.9-2.1,12-4.4,23.4-7.1,33.9-2.1,12.9-4.4,26.1-7.1,39.9-2.8,14.3-6,28.1-9.2,41.3-2.8,21.4-4.4,46.4-2.5,74.3,2.3,39.3,10.4,73,19.1,99.7h-38c-5.5.7-11.1,1.3-16.6,2-12,.7-23.7,1.3-35.7,2h-9.4c12.2-38.6,15.9-56.4,16.3-65.4,0-1.1.5-9.4,1.4-20.5.5-4.2.7-8.9,1.4-14.1,2.5-25.2,4.6-32.6,3.7-48.4-.7-12-2.5-22.1-3.9-27.7-3.7-16.3-7.1-19.9-12.9-40.8-2.1-7.6-4.8-14.1-6.2-27-1.6-15.6-7.1-31-5.3-46.6,1.4-12.7,5.3-24.5-6.9-31-9.4-4.9-23.3-3.8-26.5-9.1-2.3-3.6,1.8-7.8,5.8-10.7l-.7-.4h-.2Z"/>
        <path class="cls-1" d="M292,644.3c8.5,3.3,17,6.5,25.6,9.8-30.4,30.8-34.8,51.5-35.2,62v17.8c.2,19,.5,28.3,2.1,36.8,1.8,9.8,5.1,19.2,13.4,37.3,4.1,9.1,8.5,18.5,12.7,27.7-11.3,23.6-12,42.8-10.6,56.2,3,27.4,17,43.5,18.6,80.3.5,10.9-.2,20.1-1.2,26.1-12.9-11.4-30.4-23.9-54.8-35.5-5.5-2.7-11.1-5.1-16.6-7.4-2.8-3.1-6.7-6.7-12.4-10.5-10.8-7.1-23-10.9-30.8-12.9-3,1.3-6.2,2.9-9.4,4.5-6.2,3.1-11.5,6.5-15.9,9.4,20.9-35.2,35-62.7,44.2-81.7,5.8-12,11.5-24.8,22.6-43.1,16.6-27.7,21.2-28.1,26.9-41.3,2.8-6.2,4.1-11.8,4.6-16.7,1.8-17.6-4.6-50.4-4.6-50.4-.7-7.6-.9-17.4,1.6-28.8,3.9-18.1,12.7-31.7,19.1-39.9l.2.2h-.1Z"/>
        <path class="cls-1" d="M470.4,636.2c-6.2,5.8-12.4,11.8-18.6,17.6,28.3,30.6,32.5,51.8,32.9,62v19.9c-.5,16.5-.5,25-2.3,35.9-2.5,14.9-6.9,25.9-10.8,36.4-4.4,11.4-9,21-12.7,27.7,11.3,23.6,12,42.8,10.6,56.2-3,27.4-17,43.5-18.6,80.3-.5,10.9.2,20.1,1.2,26.1,12.9-11.4,30.4-23.9,54.8-35.5,5.5-2.7,11.1-5.1,16.6-7.4,2.8-3.1,6.7-6.7,12.4-10.5,10.8-7.1,23-10.9,30.8-12.9,3,1.3,6.2,2.9,9.4,4.5,6.2,3.1,11.5,6.5,15.9,9.4-20.9-35.2-35-62.7-44.2-81.7-5.8-12-11.5-24.8-22.6-43.1-16.6-27.7-21.2-28.1-26.9-41.3,0,0-3.5-8-4.6-16.7-3.2-25.2.9-47.3.9-47.3,3-16.1.5-41-23.7-79.6h-.5Z"/>
        <g>
          <ellipse class="cls-10" cx="319" cy="658.5" rx="9.2" ry="5.4"/>
          <g>
            <path class="cls-10" d="M278.7,761.6c.9-4.7,1.8-12,1.4-21.2-.2-7.4-1.2-12.5-1.4-13.6-1.4-8.9,4.8-25.7,36.8-60.9-10.6,11.2-23.3,27.4-30.6,48.2-6.9,19-7.4,35.5-6,47.5h-.2,0Z"/>
            <path class="cls-10" d="M491.2,761.6c-.9-4.7-1.8-12-1.4-21.2.2-7.4,1.2-12.5,1.4-13.6,1.4-8.9-4.8-25.7-36.8-60.9,10.6,11.4,23.3,28.1,30.8,49.1,6.7,18.5,7.1,34.6,6,46.6h0Z"/>
            <path class="cls-10" d="M296.9,636.2c14,5.4,32,10.9,53.2,14.7,13.4,2.5,25.8,3.6,36.8,4.2,9.9-.4,20.9-1.6,33.2-3.8,20.5-3.8,37.5-9.6,50.4-15.2,1.6,2.7,3.2,5.4,4.8,8,.7,1.3,1.6,2.7,2.3,4-31.1,7.1-61.9,14.3-93,21.4-30.8-7.1-61.7-14.3-92.5-21.4,0-1.1-.2-2.5,0-4,.7-4,3.5-6.7,4.8-8h0Z"/>
            <polygon class="cls-7" points="384.1 657 377.9 662.1 384.1 667.2 389.9 662.1 384.1 657"/>
            <line class="cls-17" x1="441" y1="657" x2="441.2" y2="673.5"/>
            <line class="cls-17" x1="424.9" y1="660.5" x2="424.9" y2="677.7"/>
            <line class="cls-17" x1="408.1" y1="664.3" x2="408.1" y2="677.7"/>
            <line class="cls-17" x1="394.5" y1="667.2" x2="394.5" y2="681.7"/>
            <line class="cls-17" x1="372.6" y1="667.2" x2="372.6" y2="683.5"/>
            <line class="cls-17" x1="360.6" y1="664.3" x2="360.6" y2="680"/>
            <line class="cls-17" x1="341.5" y1="660.5" x2="341.5" y2="677.7"/>
            <line class="cls-17" x1="329.6" y1="657" x2="329.6" y2="673.5"/>
            <ellipse class="cls-10" cx="454.6" cy="658.5" rx="9.2" ry="5.4"/>
          </g>
        </g>
      </g>
      <path class="cls-10" d="M377,1006.1l-99.9,6.9c-5.1.4-9,4.2-8.5,8.5h0c.5,4.2,5.1,7.6,10.1,7.1l99.9-6.9c5.1-.4,9-4.2,8.5-8.5h0c-.5-4.2-5.1-7.6-10.1-7.1Z"/>
      <g>
        <path class="cls-11" d="M362.8,553l-53.4,51.7c-10.3,10-27.1,10-37.4,0h0c-10.3-10-10.3-26.3,0-36.3l53.4-51.7c10.3-10,27.1-10,37.4,0h0c10.3,10,10.3,26.3,0,36.3Z"/>
        <path class="cls-11" d="M306.9,608.2l-53.4,51.7c-10.3,10-27.1,10-37.4,0h0c-10.3-10-10.3-26.3,0-36.3l53.4-51.7c10.3-10,27.1-10,37.4,0h0c10.3,10,10.3,26.3,0,36.3Z"/>
        <ellipse class="cls-11" cx="219.7" cy="620.4" rx="15" ry="14.5"/>
        <path class="cls-10" d="M343.6,568c-1.6,1.8-3.5,4-5.8,6-1.6,1.6-3.2,2.9-4.8,4-19.3-8.3-32.2-16.5-35.2-19.6-2.3-2.5-4.1-5.1-4.1-5.1-1.2-1.6-1.8-2.9-2.5-4l2.3-2c1.4-1.1,2.3-2,2.3-2,1.4-1.1,3.9-3.6,9.7-9.8,0,1.8.5,4.2,1.4,6.9,0,0,.2,1.1.7,2,6.7,14.7,29,21.6,35.7,23.6h.5-.2Z"/>
        <path class="cls-2" d="M266.3,610.3c-1.6,2.5-3.2,6.2-1.8,7.1,0,0,1.2.4,4.4-1.6,4.4-2.5,6.4-5.4,10.6-11.2,0,0,3.2-4.2,9-12.7,1.6-2.5,2.8-3.8,2.5-4-.2,0-3.5,4.5-9,9.4-7.6,6.7-11.7,6.9-15.4,12.7l-.2.2h-.1Z"/>
        <path class="cls-10" d="M322,589.4c-1.6,1.8-3.5,4-5.8,6-1.6,1.6-3.2,2.9-4.8,4-19.1-8.3-32-16.3-34.8-19.4-2.3-2.5-4.1-4.9-4.1-4.9-1.2-1.6-1.8-2.9-2.5-4l2.3-2c1.4-1.1,2.3-2,2.3-2,1.2-1.1,3.9-3.6,9.7-10,0,1.8.5,4,1.4,6.9,0,0,.2.9.7,2,6.4,14.7,28.5,21.4,35.2,23.2l.5.2h-.1Z"/>
        <path class="cls-2" d="M287,589.8c-2.1,3.3-2.5,6.5-.9,7.4s4.8-1.1,7.1-4.5,2.5-6.5.9-7.4-4.8,1.1-7.1,4.5Z"/>
      </g>
      <path class="cls-1" d="M363.2,510.4l20.3,11.6c-5.5,6.9-12.2,17.2-15.7,30.8-1.2,4.9-1.8,9.4-1.8,13.4-.5,1.6-1.6,5.8.5,10.5,3.2,6.9,11.1,9.4,12.2,9.6h12.7c2.8.7,5.1.2,6.2,0,5.8-1.3,10.1-6.5,11.1-12.9,0-5.1,0-11.8-1.8-19.2-1.2-4.7-2.8-8.9-4.4-12.5-3.2-6.9-6.4-13.8-9.4-21,3-.4,8.3-1.6,13.6-4.7,3.5-2,5.8-4.2,7.4-5.8,2.8,6.5,8.7,17.6,21.9,27.2,5.1,3.8,10.1,6.2,14.5,8.3.7.9,15,19.4,4.4,35.9-3.5,5.4-8.5,8.9-12.2,10.9-3.7-.2-8.5-.7-14.5-1.1-4.6-.2-8.5-.7-13.6-.9s-12.4-.4-21.6-.4-10.4,0-18.2.9c-7.4.7-17.3,1.8-29,4.2-3,.2-7.6.4-12.4-1.1-15.4-5.1-17.3-22.5-17.3-23.6-1.2-12.3,7.1-21,9.4-23.2,3.9-.9,9.4-2.5,15-6,0,0,1.8-1.3,3.9-2.9,12-9.8,17.3-21.2,19.3-27.7l-.2-.2h-.3Z"/>
    </g>
    <g>
      <g>
        <path class="cls-6" d="M411.1,329.3s-8.1,58.9,39.8,57.1c0,0,40.7.7,63.3-11.2,3-4.7,12.2-20.7,6.9-37.9-9-29.4-51.3-32.8-53.6-32.8-19.3-1.1-34.1,6.2-41,10-2.5,2.7-5.1,5.4-7.6,8l-7.8,6.7h0Z"/>
        <path class="cls-16" d="M523.2,317.6s-.7-.4-1.2-1.1c-.7-.2-5.3-3.6-6-4.2-1.6-.9-3-2-4.6-3.1-1.6,0-3-.4-4.6-.7-4.4-.9-8.5-3.1-12.2-5.8-12.7-2.2-22.6-4.7-34.8-4l-8.3.7c-2.3.4-4.6.9-6.9,1.3-3,.7-6,1.3-9,2.2-.5,0-.9.2-1.4.4,0,0-.2.4-1.4.9-3.2,1.8-6.7,3.8-9.9,5.4-.9.4-1.6.9-2.3,1.1-.2,0-.5.4-.9.7-2.1,1.8-4.4,3.6-6.7,5.1l-12,18.5,9.9-6,7.8-6.7s15.7-29.7,74.6-12c0,0,50.6,29.2,16.3,71.4,0,0,18.6-4.2,32-29.7,0,0-3.7-15.4-11.1-28.6-2.8-2-5.5-4.2-7.8-6l.2.2h.3Z"/>
      </g>
      <ellipse class="cls-4" cx="463" cy="345.9" rx="41.7" ry="44.6" transform="translate(86.4 784.3) rotate(-86.1)"/>
      <ellipse class="cls-3" cx="462.4" cy="344.9" rx="35.9" ry="35.5"/>
      <ellipse class="cls-14" cx="473.9" cy="338.6" rx="14" ry="11.4"/>
      <ellipse class="cls-14" cx="464.9" cy="350" rx="10.1" ry="7.6"/>
      <rect class="cls-3" x="516" y="312.1" width="12.9" height="17.6"/>
      <rect class="cls-3" x="523.9" y="322.1" width="15.4" height="20.3"/>
    </g>
    <g>
      <g>
        <path class="cls-6" d="M371.5,328.6s8.1,58.9-39.8,57.1c0,0-40.7.7-63.3-11.2-3-4.7-12.2-20.7-6.9-37.9,9-29.4,51.3-32.8,53.6-32.8,19.3-1.1,34.1,6.2,41,10,2.5,2.7,5.1,5.4,7.6,8l7.8,6.7h0Z"/>
        <path class="cls-16" d="M259.3,317s.7-.4,1.2-1.1c.7-.2,5.3-3.6,6-4.2,1.6-.9,3-2,4.6-3.1,1.6,0,3-.4,4.6-.7,4.4-.9,8.5-3.1,12.2-5.8,12.7-2.2,22.6-4.7,34.8-4l8.3.7c2.3.4,4.6.9,6.9,1.3,3,.7,6,1.3,9,2.2.5,0,.9.2,1.4.4,0,0,.2.4,1.4.9,3.2,1.8,6.7,3.8,9.9,5.4.9.4,1.6.9,2.3,1.1.2,0,.5.4.9.7,2.1,1.8,4.4,3.6,6.7,5.1l12,18.5-9.9-6-7.8-6.7s-15.7-29.7-74.6-12c0,0-50.6,29.2-16.3,71.4,0,0-18.6-4.2-32-29.7,0,0,3.7-15.4,11.1-28.6,2.8-2,5.5-4.2,7.8-6l-.2.2h-.3Z"/>
      </g>
      <ellipse class="cls-4" cx="318.6" cy="345.9" rx="44.6" ry="41.7" transform="translate(-22.8 22.5) rotate(-3.9)"/>
      <ellipse class="cls-3" cx="320.1" cy="344.2" rx="35.9" ry="35.5"/>
      <ellipse class="cls-14" cx="308.6" cy="338" rx="14" ry="11.4"/>
      <ellipse class="cls-14" cx="317.4" cy="349.3" rx="10.1" ry="7.6"/>
      <rect class="cls-3" x="253.4" y="311.4" width="12.9" height="17.6"/>
      <rect class="cls-3" x="243.2" y="321.4" width="15.4" height="20.3"/>
    </g>
  </g>
  <g class="cls-22">
    <g class="cls-22">
      <text class="cls-23" transform="translate(263.5 1124.8)"><tspan x="0" y="0">ALKA</tspan></text>
    </g>
  </g>
</svg>