<?xml version="1.0" encoding="UTF-8"?>
<svg id="Capa_1" data-name="Capa 1" xmlns="http://www.w3.org/2000/svg" version="1.1" xmlns:xlink="http://www.w3.org/1999/xlink" viewBox="0 0 1366 768">
  <defs>
    <style>
      .cls-1 {
        fill: #8e5623;
      }

      .cls-1, .cls-2, .cls-3, .cls-4, .cls-5, .cls-6, .cls-7, .cls-8, .cls-9, .cls-10, .cls-11, .cls-12, .cls-13, .cls-14, .cls-15, .cls-16, .cls-17, .cls-18, .cls-19, .cls-20, .cls-21, .cls-22, .cls-23, .cls-24, .cls-25, .cls-26, .cls-27, .cls-28, .cls-29, .cls-30, .cls-31, .cls-32, .cls-33, .cls-34, .cls-35, .cls-36, .cls-37, .cls-38, .cls-39, .cls-40, .cls-41, .cls-42, .cls-43, .cls-44, .cls-45, .cls-46, .cls-47, .cls-48, .cls-49 {
        stroke-width: 0px;
      }

      .cls-2 {
        fill: #242424;
      }

      .cls-3 {
        fill: #578232;
      }

      .cls-4 {
        fill: #8bd5ee;
      }

      .cls-5 {
        fill: #c2e5f8;
      }

      .cls-6 {
        fill: #7caf50;
      }

      .cls-7 {
        fill: #35612e;
      }

      .cls-8 {
        fill: #80c3de;
      }

      .cls-9 {
        fill: #3f5c24;
      }

      .cls-10 {
        fill: #f45744;
      }

      .cls-11 {
        fill: #66b54a;
      }

      .cls-12 {
        fill: #7f504a;
      }

      .cls-13 {
        fill: #a5d451;
      }

      .cls-14 {
        fill: #539241;
      }

      .cls-15 {
        fill: #96d9ec;
      }

      .cls-16 {
        fill: #a6d451;
      }

      .cls-17 {
        fill: #49793d;
      }

      .cls-18 {
        fill: #8ed6ef;
      }

      .cls-19 {
        fill: #743c1b;
      }

      .cls-20 {
        fill: #b4e7fa;
      }

      .cls-21 {
        fill: #f9d249;
      }

      .cls-22 {
        fill: #6fa32e;
      }

      .cls-23 {
        fill: #567f30;
      }

      .cls-24 {
        fill: #8b4523;
      }

      .cls-25 {
        fill: #539845;
      }

      .cls-26 {
        fill: #59a344;
      }

      .cls-27 {
        fill: #764943;
      }

      .cls-28 {
        fill: #81c6e5;
      }

      .cls-29 {
        fill: #5dba45;
      }

      .cls-30 {
        fill: #529748;
      }

      .cls-31 {
        fill: #8ed5f1;
      }

      .cls-32 {
        fill: #bee8f8;
      }

      .cls-33 {
        fill: #b2e2f6;
      }

      .cls-34 {
        fill: #fde96e;
      }

      .cls-35 {
        fill: #487938;
      }

      .cls-36 {
        fill: #9cdcf5;
      }

      .cls-37 {
        fill: #61b847;
      }

      .cls-38 {
        fill: #58a344;
      }

      .cls-39 {
        fill: #456e36;
      }

      .cls-40 {
        fill: #3d5b1d;
      }

      .cls-41 {
        fill: #423e3e;
      }

      .cls-42 {
        fill: #466229;
      }

      .cls-43 {
        fill: #8ed6ee;
      }

      .cls-44 {
        fill: #f2db97;
      }

      .cls-45 {
        fill: #ce652b;
      }

      .cls-46 {
        fill: #73bf43;
      }

      .cls-47 {
        fill: #3c4145;
      }

      .cls-48 {
        fill: #ecc27a;
      }

      .cls-49 {
        fill: #def2fb;
      }
    </style>
  </defs>
  <path class="cls-49" d="M926.9,109.6s-97.6,7.2,0,27.2c0,0,92.6,11.2,136.3,0,11.2-2.9,125.7-15.8,24.2-27.2,0,0-9.3-27.9-18-13.2,0,0-23.5-31.2-44.1-9.7,0,0-32.9-25.8-44.8,4.3,0,0-47.8-27.2-53.5,18.6Z"/>
  <image width="1390" height="980" transform="translate(-.8 1.5) scale(1 .8)" xlink:href="arboles2-1.png"/>
  <rect class="cls-44" x="-.8" y="599.3" width="1363.9" height="112.6"/>
  <rect class="cls-46" x="-.8" y="446.9" width="1363.9" height="152.4"/>
  <rect class="cls-36" x="-.8" y="1.5" width="1363.9" height="445.4"/>
  <rect class="cls-46" x="-.8" y="711.9" width="1363.9" height="54.8"/>
  <path class="cls-15" d="M1360.1,489.8s-403-35.2-500-10.2c0,0-121,5.4-16.8,31.3,104.2,25.9-6-4.9-6-4.9,0,0-318.7,29.4-45.5,54,0,0,338.7,14.6,568.3,6.4v-76.7Z"/>
  <path class="cls-19" d="M46.6,491.5l16.8,1.5s-1-13.8-3.9-18.1c-2.9-4.4.5-18.8.5-18.8,0,0,5.2-7.1,5.3-13.9,0,0,6-9.5,5-16.2-1-6.8-5.3-.9-5.3-.9,0,0-2.6,19.2-5.2,16.9-2.6-2.3-3.2-14.2-.8-18.2,2.4-4-4.5-4-4.5-4,0,0-2,30.7-6.8,7.2,0,0-3.2-12-5.5-3.5,0,0,5,11,4.8,20.1,0,0-2.6,3.4.7,19.5l-1.7,28.5"/>
  <path class="cls-17" d="M74.7,430.6s4.7-9.6,16.9-4.4c0,0-6.9,15.1-16.9,4.4Z"/>
  <polygon class="cls-37" points="-1.2 460.4 46.6 456.4 46.6 474.4 -.8 476.8 -1.2 460.4"/>
  <path class="cls-37" d="M60,456.1h73.3l-73.3,8.8,17.9,4.8-18.4,5.3s-4-13.1.5-18.8Z"/>
  <path class="cls-37" d="M-.8,560.9l127.8,20.3s45.6-2,46.2,0c.6,2-3.8,4.4-3.8,4.4h13.1v15.1l-183.3-1.4v-38.5Z"/>
  <path class="cls-14" d="M28.4,586.8s10.4,17.1,43.5,0c0,0,20.5,12.4,52.6-6,0,0,26.1,6,19.7-7.6,0,0,28-17.9-18.8-18.3,0,0,3.6-10.8-10.4-8,0,0,25.6-21.1-16.8-17.1,0,0,1.6-28.5-18-.5,0,0-.2-14.8-9.9-6.2,0,0-34.8-28.8-20,8.7,0,0-12.4-5.7-8.9,3.9.2.5.4,1.1.7,1.7,5.7,12-54.6-14.4-21.5,16.1,0,0-18.6-2.2-6.5,9.8,0,0-26.2-4.4-8.3,14.3,0,0-4.8,12.8,22.4,9.2Z"/>
  <path class="cls-38" d="M46.6,557.7s-13.4,25.1,13.7,4.8c0,0,6.4,20.3,15.8,1.6,0,0,12.6,17.9,17.4.8,0,0,8.2,21.6,31,16,0,0,24.5,7.2,19.7-7.6,0,0,29.6-20.7-18.8-18.3-48.3,2.4-2-.2-2-.2,0,0,10.4-5-8.4-7.8,0,0,22.8-23.5-16.8-17.1,0,0,1.3-35.6-18-.5,0,0-.6-18-9.9-6.2,0,0-34.9-30-20.9,6.6.3.7.5,1.4.8,2.1,0,0-17.4-12.8-8.1,9.4,0,0-58.6-13.8-21.5,12.3,0,0,1.7,16.6,23,3.4"/>
  <path class="cls-35" d="M12.1,560.9H-.8l-.4-59.8h6.7s-5.4,32,12.6,10.4c0,0,11.6,24.6,12.8-2.5,0,0,18.4,11.2,9.6-4.4l12.8-6.8s38.3,9.6,12.4,21.3c-2-1.1-14.1-7.6-17.1-4.2-1,1.1-.8,3-.4,6,.8,6.5,3.5,9.8,2.4,10.8-1.4,1.3-7.2-4.3-9.4-2.8-2.4,1.6-2.9,7.3,1.3,12.1-19.7-2.4-30.1-1.8-31.2,1.7-.7,2.3,2.5,5.8,9.7,10.6-2.9,2.5-5.8,4.9-8.7,7.4Z"/>
  <path class="cls-38" d="M-.3,481.2s11.9,1.2,13.1,8c0,0-4.6-18.3,9.9-4,0,0,37.6-17.7,9.3,7.9,0,0,24.8-14.6,21.2,4.9l-12.8,6.8s11.2,18.7-9.6,4.4c0,0,.8,34-12.8,2.5,0,0-18.3,27.8-12.6-10.4H-1.2l.9-19.9Z"/>
  <path class="cls-29" d="M876.1,563.2c-17.6-.2-43.8-.8-75.6-2.7-48.4-3-153.7-9.6-155-27.1-.4-5.6,10.6-13.6,35.6-22.2,144-49.6,3.4,0,3.4,0l47.1-11.3c-9.4-7.2-13.5-13.4-12.5-18.5,4-19.4,84.3-22.9,240.9-10.6-61.6,6.5-87.8,8.3-100,8.7-3.6.1-17.1.5-30.1,2.7-1.9.3-13.2,2.2-13.2,2.2h0s-3.1,1.7-5.3,3.6c-.3.3-3.2,2.9-3.6,4.8-.7,3.7,7.7,9.4,20.4,14-98.5,9.6-119.2,16.4-119.1,20.9.2,9.9,101.1,16,157,19.4,83.6,5.1,162.5,5.9,162.5,4.4,0-1.3-160.7-8.7-160.7-8.7l.4,12.4c2.1-.6,3.4-.2,4.2.2.5.3,1.3.9,2.4.8.6,0,.8-.3,1-.2.5.2.8,1.7,0,7.1Z"/>
  <rect class="cls-18" x="889.5" y="205.9" width="147.9" height="242.3"/>
  <rect class="cls-18" x="994.3" y="176.5" width="103" height="271.8"/>
  <rect class="cls-18" x="1097.4" y="217.4" width="54.2" height="225.3"/>
  <rect class="cls-31" x="769.1" y="245" width="67.1" height="203.3"/>
  <rect class="cls-8" x="726.7" y="280.1" width="42.3" height="168.2"/>
  <rect class="cls-36" x="686" y="192.4" width="40.7" height="255.9"/>
  <rect class="cls-43" x="657.2" y="227.5" width="69.5" height="220.8"/>
  <rect class="cls-28" x="635.7" y="311.8" width="21.6" height="136.4"/>
  <rect class="cls-4" x="544.9" y="271.7" width="90.8" height="176.6"/>
  <rect class="cls-28" x="540.3" y="237.8" width="60.6" height="33.8"/>
  <rect class="cls-28" x="478.3" y="192.4" width="66.6" height="255.9"/>
  <rect class="cls-43" x="325" y="276.1" width="153.3" height="172.2"/>
  <path class="cls-45" d="M275.8,493.3"/>
  <g>
    <path class="cls-47" d="M291.6,589c-.6.4,0,39.7,0,39.7h10l-.8-35.3,6.8.6v12.2l10,.2v-13l219.9.4v12l9.6.2v-12.2l5.6.2-1.2,34.7h11.2v-39.7h-271Z"/>
    <rect class="cls-24" x="287.6" y="584.9" width="281.2" height="4.1"/>
    <path class="cls-45" d="M568.7,584.9h-281.2c1.2-2.1,2.5-4.3,3.7-6.4h273.2c1.4,2.1,2.8,4.3,4.3,6.4Z"/>
    <rect class="cls-24" x="294.2" y="575.9" width="268.3" height="2.7"/>
    <path class="cls-45" d="M562.5,575.9h-268.3c1.3-2,2.7-4.1,4-6.1h259.1c1.8,2,3.5,4.1,5.3,6.1Z"/>
    <rect class="cls-24" x="297.9" y="568.2" width="259.3" height="1.6"/>
    <path class="cls-45" d="M556.2,568.2h-258.3c.5-1.8,1.1-3.5,1.6-5.3h253.2c1.2,1.8,2.3,3.5,3.5,5.3Z"/>
    <rect class="cls-45" x="305.1" y="504.7" width="246.6" height="13"/>
    <rect class="cls-45" x="303" y="522.5" width="248.7" height="13"/>
    <rect class="cls-45" x="299.8" y="541.2" width="253.5" height="12.7"/>
    <path class="cls-47" d="M307.8,562.9v-9l1.6-49.2s12.8-1.1,12.2,0c-.5,1.1-1.9,58.2-1.9,58.2h-12Z"/>
    <path class="cls-47" d="M533.2,562.9v-9l1.6-49.2s12.8-1.1,12.2,0c-.5,1.1-1.9,58.2-1.9,58.2h-12Z"/>
    <rect class="cls-45" x="305.5" y="504.4" width="246.6" height="13"/>
    <rect class="cls-45" x="303.4" y="522.2" width="248.7" height="13"/>
    <rect class="cls-45" x="300.2" y="540.9" width="253.5" height="12.7"/>
  </g>
  <g>
    <path class="cls-47" d="M859.9,590.7c-.6.4,0,39.7,0,39.7h10l-.8-35.3,6.8.6v12.2l10,.2v-13l219.9.4v12l9.6.2v-12.2l5.6.2-1.2,34.7h11.2v-39.7h-271Z"/>
    <rect class="cls-24" x="855.9" y="586.7" width="281.2" height="4.1"/>
    <path class="cls-45" d="M1137,586.7h-281.2c1.2-2.1,2.5-4.3,3.7-6.4h273.2c1.4,2.1,2.8,4.3,4.3,6.4Z"/>
    <rect class="cls-24" x="862.5" y="577.7" width="268.3" height="2.7"/>
    <path class="cls-45" d="M1130.9,577.7h-268.3c1.3-2,2.7-4.1,4-6.1h259.1c1.8,2,3.5,4.1,5.3,6.1Z"/>
    <rect class="cls-24" x="866.3" y="570" width="259.3" height="1.6"/>
    <path class="cls-45" d="M1124.5,570h-258.3c.5-1.8,1.1-3.5,1.6-5.3h253.2c1.2,1.8,2.3,3.5,3.5,5.3Z"/>
    <rect class="cls-45" x="873.4" y="506.4" width="246.6" height="13"/>
    <rect class="cls-45" x="871.3" y="524.2" width="248.7" height="13"/>
    <rect class="cls-45" x="868.1" y="542.9" width="253.5" height="12.7"/>
    <path class="cls-47" d="M876.1,564.6v-9l1.6-49.2s12.8-1.1,12.2,0-1.9,58.2-1.9,58.2h-12Z"/>
    <path class="cls-47" d="M1101.5,564.6v-9l1.6-49.2s12.8-1.1,12.2,0-1.9,58.2-1.9,58.2h-12Z"/>
    <rect class="cls-45" x="873.8" y="506.2" width="246.6" height="13"/>
    <rect class="cls-45" x="871.7" y="524" width="248.7" height="13"/>
    <rect class="cls-45" x="868.5" y="542.7" width="253.5" height="12.7"/>
  </g>
  <ellipse class="cls-48" cx="432.8" cy="617.9" rx="104.2" ry="4"/>
  <ellipse class="cls-48" cx="995.2" cy="617.9" rx="104.2" ry="4"/>
  <rect class="cls-20" x="894.6" y="224.6" width="108.6" height="9"/>
  <rect class="cls-20" x="894.6" y="281.8" width="108.6" height="9"/>
  <rect class="cls-20" x="896.3" y="381.3" width="108.6" height="9"/>
  <rect class="cls-20" x="894.6" y="360.3" width="108.6" height="9"/>
  <rect class="cls-20" x="894.6" y="339.3" width="108.6" height="9"/>
  <rect class="cls-20" x="896.3" y="320.7" width="108.6" height="9"/>
  <rect class="cls-20" x="896.3" y="302.1" width="108.6" height="9"/>
  <rect class="cls-20" x="894.6" y="261.6" width="108.6" height="9"/>
  <rect class="cls-20" x="894.6" y="242.8" width="108.6" height="9"/>
  <rect class="cls-20" x="797.7" y="262.3" width="9.8" height="160.8"/>
  <rect class="cls-20" x="779" y="262.4" width="9.8" height="160.8"/>
  <rect class="cls-20" x="816.4" y="261.5" width="9.8" height="160.8"/>
  <rect class="cls-20" x="668.4" y="264.6" width="47.2" height="12.1"/>
  <rect class="cls-20" x="668.6" y="239.7" width="47.2" height="12.1"/>
  <rect class="cls-20" x="668.4" y="400.7" width="47.2" height="12.1"/>
  <rect class="cls-20" x="668.4" y="380.7" width="47.2" height="12.1"/>
  <rect class="cls-20" x="668.6" y="358.1" width="47.2" height="12.1"/>
  <rect class="cls-20" x="668.4" y="335.6" width="47.2" height="12.1"/>
  <rect class="cls-20" x="668.4" y="311.7" width="47.2" height="12.1"/>
  <rect class="cls-20" x="668.6" y="288.3" width="47.2" height="12.1"/>
  <rect class="cls-20" x="567.6" y="284.7" width="52.5" height="7.9"/>
  <rect class="cls-20" x="568.3" y="378.5" width="52.5" height="7.9"/>
  <rect class="cls-20" x="568.3" y="358.3" width="52.5" height="7.9"/>
  <rect class="cls-20" x="568.3" y="338.6" width="52.5" height="7.9"/>
  <rect class="cls-20" x="568.3" y="320.7" width="52.5" height="7.9"/>
  <rect class="cls-20" x="568.3" y="303.5" width="52.5" height="7.9"/>
  <path class="cls-1" d="M153.8,541.2s4.4-16.7-1.8-28.7c0,0-6-13-3-25.1,0,0-.6-9.6-8.8-20.1,0,0-9.2-12,3.4-20.3s-3.6-22.1-3.6-22.1c0,0-20.2-21.5-33.3-21.5s-14.2-19.1-14.2-19.1h9.6c1.2,3,3.4,7.2,7.6,10.2,4.1,2.8,7.2,2.5,12.2,4.2,5.2,1.8,8.9,5,16.2,11.6,4.7,4.2,10.8,10.2,17.3,18.3,3.1,2.9,5.8,3.8,7.7,4,9.4,1,20.7-10.9,26.6-30.2-3.8-6.7-8.1-13.7-13.1-21-3.9-5.8-7.9-11.2-11.8-16.1l10.4-5s22,43.8,29.2,22.5c7.2-21.3-1-22.5-1-22.5l10.4-10.4c1.1,5.1,2.3,12.5,2.9,21.4.2,2.3.5,7.9.3,12.3-.3,6-2,17.5-12.2,31.7,0,0-5,18.5-28.4,25.7,0,0-.6,12.2-13,20.5,0,0-.2,7.2,6.2,14.5,0,0-1.5,20.5,5.2,22.6,2.3.7,4.1-2,13.3-9.7,9.6-7.9,14.5-12,21.1-14.4,3.6-1.3,11.4-3.7,11.4-3.7h0l27.2-12s26.6,1,23.4-29.3l4.4-1.8s-6.2,20.3,13.6,17.8c0,0,4.8,12.9-7.8,17.2,0,0-60.3,21.4-63.4,38.9,0,.3,0,.6-.1.9-1,17.7-2.4,36.9-2.4,36.9l-9.6,1.8h-52.1Z"/>
  <path class="cls-11" d="M265,405.7s-12-12.5-14.4,7c0,0,14.2,6.3,14.4-7Z"/>
  <g>
    <path class="cls-14" d="M275.6,427.6s-12.2,40.9,48.5,0c0,0,12,21,50.3-10.3,0,0,26.4,10.9,32.7-21.8,0,0,34.3,19.1,10.4-25.5,0,0,38.3,4.8,4.8-20.3l-22.4-6s49.5-12.8-9.6-25.5l-24.8,5.6s23.2-15.1,12.8-27.1c0,0-12.8-15.9-30.4,12,0,0-25.6-10.4-21.6,15.1,0,0-55.9-23.1-40.7,8.8,0,0-43.1-4.8-27.2,17.1,0,0-47.1,3.1-19.2,19.3,0,0-53.7,6.6-8.9,26.6,0,0-31.9,28.9,14.5,19.2,0,0-1.2,22.6,30.6,12.9Z"/>
    <path class="cls-38" d="M277,382.5s-11.2,48.4,26.4,1.6c0,0,3.8,17.3,21.1,0,0,0,28.4,48.4,26.8,0,0,0,26.4,33.7,20.8-7,0,0,32.8,31.1,49.1,0l-3.6-7.2s51.2-.6-6.7-23.4h-14.8s55.7-19.8-5.6-28.4l-24.8,5.6s27.2-51.8-17.6-15.1c0,0-26.4-9.6-21.6,15.1,0,0-52.7-23.1-40.7,8.8,0,0-45.5-6.4-27.2,17.1,0,0-56.7,5.6-19.2,19.3,0,0-42.3,36.1,14.4,9.8,56.7-26.3,4-.8,4-.8,0,0-22.4,41.9,19.2,4.6Z"/>
    <path class="cls-11" d="M311.3,354s-3.4,12.8-21.3,8c0,0,.5-22.3,21.3-8Z"/>
    <path class="cls-11" d="M331.4,342.9s11.1-3.2-4.9-19.1c0,0-9.5,6.4,4.9,19.1Z"/>
    <path class="cls-11" d="M367.2,356.2s7.2,12,20.8,6.9c0,0-2.4-16-20.8-6.9Z"/>
    <path class="cls-11" d="M360.1,405.7s-11.7.8-12,14c0,0,14.6.7,12-14Z"/>
    <path class="cls-14" d="M388,310.2s2.4-8.8,14.4-8c0,0-7.4,15.8-14.4,8Z"/>
    <path class="cls-14" d="M417.6,342.9s11.5-4.8,18.6,3.2c0,0-9.8,10.4-18.6-3.2Z"/>
    <path class="cls-14" d="M303.3,307.3s11.2-17.7,16.8-11.8c5.6,5.9-6.4,16-16.8,11.8Z"/>
    <path class="cls-14" d="M303.3,292.1c-20.6-4.9,13.6-14.6,13.6-14.6,0,0,.8,18-13.6,14.6Z"/>
  </g>
  <path class="cls-14" d="M89.7,393.3s-16.6,53.8,66.3,0c0,0,16.4,27.7,68.8-13.6,0,0,36,14.4,44.7-28.7,0,0,46.9,25.2,14.2-33.6,0,0,52.4,6.3,6.5-26.8l-30.6-7.9s67.7-16.8-13.1-33.6l-33.8,7.4s31.6-20,17.5-35.7c0,0-17.5-21-41.5,15.8,0,0-34.9-13.7-29.5,20,0,0-76.4-30.5-55.7,11.6,0,0-58.9-6.3-37.1,22.6,0,0-64.4,4-26.2,25.4,0,0-73.3,8.8-12.1,35,0,0-43.6,38.1,19.7,25.3,0,0-1.6,29.8,41.7,16.9Z"/>
  <path class="cls-38" d="M76.6,334s-16.3,63.8,38.5,2.1c0,0,5.6,22.8,30.8,0,0,0,41.5,63.8,39.2,0,0,0,38.5,44.4,30.3-9.2,0,0,47.9,41,71.8,0l-5.3-9.5s74.8-.8-9.8-30.8h-21.7s81.4-26.1-8.2-37.4l-36.2,7.4s39.7-68.3-25.7-20c0,0-38.5-12.6-31.5,20,0,0-77-30.5-59.5,11.6,0,0-66.5-8.4-39.7,22.6,0,0-82.8,7.4-28,25.4,0,0-61.8,47.6,21,13,82.8-34.7,5.8-1.1,5.8-1.1,0,0-32.7,55.2,28,6Z"/>
  <path class="cls-11" d="M122.4,299.2s-4.4,15.3-27.5,9.5c0,0,.6-26.7,27.5-9.5Z"/>
  <path class="cls-11" d="M156,281.7s16.2-4.2-7.1-25.2c0,0-13.8,8.4,7.1,25.2Z"/>
  <path class="cls-11" d="M208.4,299.2s10.5,15.8,30.3,9.1c0,0-3.5-21-30.3-9.1Z"/>
  <path class="cls-11" d="M185.5,361s-15.2.9-15.5,16.8c0,0,18.9.8,15.5-16.8Z"/>
  <path class="cls-14" d="M260,285.8s15-5.7,24,3.8c0,0-12.7,12.4-24-3.8Z"/>
  <path class="cls-26" d="M12.4,342.9c-2.4,1.9-5.7,5-8.6,9.6-7.7,12.1-10.7,32.1-1.4,38.6,6.4,4.5,16.3.8,19-.3,0,0,7,18.7,21.5,14.9,0,0,12.1,7.9,19.3-3.9,0,0,20,11.8,27.6-8.4,7.6-20.2-4.4.6-4.4.6,0,0-36.3,10.4-37.3-17.5-10.1-.9-30.7-3.3-31.4-9.2-.2-1.7,1.3-3.8,4.4-8,2.7-3.7,5.4-6.4,7.2-8.2-5.3-2.7-10.5-5.4-15.8-8.2Z"/>
  <path class="cls-7" d="M75.3,438.5s-9.6,22.9-23.6,6.9c0,0-14.4,9.5-19.6-6.9,0,0-16.4,10.4-15.6-8.8,0,0-14.4,4.5-12.8-12.5H-.4s-2.1-20.2,7.8-17.8c10,2.4-5-8.5-5-8.5,0,0,14.6,5.3,19-.3,0,0,7.4,20.3,21.5,14.9,0,0,12.9,7.5,19.3-3.9,0,0,18.8,9.8,27.6-8.4,0,0-5.6,24.6,12.8,23.9,2.3,0,5.6-.1,9.2-1.3,6.6-2,10.8-6,12.8-8.1,2.8,4,5.6,7.9,8.4,11.9,0,0-18,13.7-24.2,7.3,0,0-4.1,10.2-8.6-.4,0,0-.8,17.5-10,14.7,0,0-5.1,10.8-14.8-2.8Z"/>
  <path class="cls-17" d="M3.8,417.3c2.9.9,7.1-2.1,10-7l-2.8,9.5s11.2,1.3,14.8-9.5c0,0,2.4,8.7,5.6,3.9v6.7s9.3,4.2,13.1-8.2c0,0-.3,12.9,8.5,8.2,0,0,7.2,7.7,8.4,3.7,0,0,18,3.4,20.8-3.7,0,0,3.9,5.7,6-2.9,0,0,12,9.1,14.4-.8,0,0-16.3,1.4-12.8-23.9,0,0-4,17-27.6,8.4,0,0-2.9,9.8-19.3,3.9,0,0-9.9,5.4-21.5-14.9-1.7.8-4.4,1.9-7.9,2.2-5.1.4-9.1-1-11.1-1.9l8.3,8.5c-.7,0-5.9-.7-9,2.8-4.2,4.7-2,13.8,2,15Z"/>
  <path class="cls-39" d="M272,428.9s-3.9,30.8-11.3,7.7c0,0-34,35.3-26.8.4,2.5-12.2,3.2-16.2,2.9-16.3,0,0-3.3,13.4-3.9,13.3-.1,0-.2-.6,0-2.6-4.3,5-28.9,33.4-37.6,28.4-5.8-3.4-2.2-20.6.7-31.2,0,0-3.9,20.3-22.3,20.6l2.6-8.8c3.9-1.4,9.7-3.9,15.5-8.8,1.9-1.6,6.6-5.8,12.8-16.6,3.7-6.5,8.5-16.1,12.2-28.8,3.3,2.1,6.7,4.2,10,6.3,2.1,1.1,4.1,2.1,6.2,3.2-11.4,12.7-11.9,16.7-10.9,18.1.8,1.1,2.8.9,10.8.5,5.2-.2,9.6-.3,12.6-.4-.9,3.5-.4,5.8,26.4,14.9Z"/>
  <path class="cls-17" d="M188.6,400.4c.2.3.6.9,1,1.8,4.3,9.8-7.4,28.8-21.7,31.3-1.2.2-8.5,1.5-12.4-2.5-1.9-2-1.1-3.3-3.2-6.4-3-4.5-6.6-4.6-11.2-8.4-2.1-1.7-5-4.7-7.3-9.8,7.4-4.4,14.7-8.7,22.1-13.1,3.6,1.8,8.3,3.6,13.7,4.9,7.4,1.8,14,2.2,18.9,2.1Z"/>
  <path class="cls-1" d="M506.9,465.5s-1.4-13.1.6-22.4c0,0,2-10.1,1-19.6,0,0,.2-7.5,2.9-15.7,0,0,3-9.3-1.1-15.9-4.1-6.5,1.2-17.3,1.2-17.3,0,0,6.6-16.8,10.9-16.8s4.6-14.9,4.6-14.9h-3.1c-.4,2.4-1.1,5.6-2.5,7.9-1.3,2.2-2.4,2-4,3.3-1.7,1.4-2.9,3.9-5.3,9-1.5,3.3-3.5,8-5.7,14.3-1,2.3-1.9,2.9-2.5,3.1-3.1.8-6.8-8.5-8.7-23.6,1.2-5.2,2.7-10.7,4.3-16.4,1.3-4.5,2.6-8.7,3.9-12.6l-3.4-3.9s-7.2,34.2-9.5,17.6c-2.4-16.6.3-17.6.3-17.6l-3.4-8.1c-.3,4-.8,9.7-.9,16.7,0,1.8-.2,6.2-.1,9.6,0,4.7.7,13.6,4,24.7,0,0,1.6,14.5,9.3,20.1,0,0,.2,9.5,4.3,16,0,0,0,5.6-2,11.4,0,0,.5,16-1.7,17.6-.8.6-1.3-1.5-4.4-7.5-3.1-6.2-4.7-9.3-6.9-11.3-1.2-1-3.7-2.9-3.7-2.9h0l-8.9-9.3s-8.7.8-7.7-22.9l-1.4-1.4s2,15.9-4.4,13.9c0,0-1.6,10,2.6,13.5,0,0,19.8,16.7,20.8,30.4,0,.2,0,.5,0,.7.3,13.8.8,28.8.8,28.8l3.1,1.4h17.1Z"/>
  <path class="cls-19" d="M556,454.8l-6.5,1.2s.4-11.5,1.5-15.1-.2-15.7-.2-15.7c0,0-2-5.9-2-11.6,0,0-2.3-7.9-1.9-13.5.4-5.6,2-.7,2-.7,0,0,1,16,2,14.1,1-1.9,1.2-11.9.3-15.2-.9-3.3,1.7-3.3,1.7-3.3,0,0,.8,25.6,2.6,6,0,0,1.2-10,2.1-2.9,0,0-1.9,9.1-1.9,16.8,0,0,1,2.8-.3,16.3l.7,23.8"/>
  <path class="cls-11" d="M471.9,368.9s4.6-7.5,5.6,4.3c0,0-5.5,3.8-5.6-4.3Z"/>
  <g>
    <path class="cls-14" d="M467.8,382.2s4.7,24.8-18.7,0c0,0-4.6,12.7-19.4-6.2,0,0-10.2,6.6-12.6-13.2,0,0-13.3,11.6-4-15.5,0,0-14.8,2.9-1.9-12.3l8.6-3.6s-19.1-7.7,3.7-15.5l9.6,3.4s-8.9-9.2-4.9-16.4c0,0,4.9-9.7,11.7,7.2,0,0,9.9-6.3,8.3,9.2,0,0,21.6-14,15.7,5.3,0,0,16.7-2.9,10.5,10.4,0,0,18.2,1.9,7.4,11.7,0,0,20.7,4,3.4,16.1,0,0,12.3,17.5-5.6,11.7,0,0,.5,13.7-11.8,7.8Z"/>
    <path class="cls-38" d="M467.3,354.9s4.3,29.3-10.2,1c0,0-1.5,10.5-8.1,0,0,0-11,29.3-10.4,0,0,0-10.2,20.4-8-4.2,0,0-12.7,18.8-19,0l1.4-4.3s-19.8-.4,2.6-14.2h5.7s-21.5-12,2.2-17.2l9.6,3.4s-10.5-31.4,6.8-9.2c0,0,10.2-5.8,8.3,9.2,0,0,20.4-14,15.7,5.3,0,0,17.6-3.9,10.5,10.4,0,0,21.9,3.4,7.4,11.7,0,0,16.3,21.9-5.6,6-21.9-15.9-1.5-.5-1.5-.5,0,0,8.6,25.4-7.4,2.8Z"/>
    <path class="cls-11" d="M454,337.6s1.3,7.7,8.2,4.8c0,0-.2-13.5-8.2-4.8Z"/>
    <path class="cls-11" d="M446.3,330.9s-4.3-1.9,1.9-11.6c0,0,3.7,3.9-1.9,11.6Z"/>
    <path class="cls-11" d="M432.5,338.9s-2.8,7.3-8,4.2c0,0,.9-9.7,8-4.2Z"/>
    <path class="cls-11" d="M435.2,368.9s4.5.5,4.6,8.5c0,0-5.6.4-4.6-8.5Z"/>
    <path class="cls-14" d="M424.4,311.1s-.9-5.3-5.6-4.8c0,0,2.9,9.5,5.6,4.8Z"/>
    <path class="cls-14" d="M413,330.9s-4.5-2.9-7.2,1.9c0,0,3.8,6.3,7.2-1.9Z"/>
    <path class="cls-14" d="M457.1,309.3s-4.3-10.7-6.5-7.1c-2.2,3.6,2.5,9.7,6.5,7.1Z"/>
    <path class="cls-14" d="M457.1,300.1c8-3-5.2-8.8-5.2-8.8,0,0-.3,10.9,5.2,8.8Z"/>
  </g>
  <path class="cls-14" d="M539.6,361.4s6.4,32.6-25.6,0c0,0-6.3,16.8-26.5-8.2,0,0-13.9,8.7-17.3-17.4,0,0-18.1,15.3-5.5-20.4,0,0-20.2,3.8-2.5-16.2l11.8-4.8s-26.1-10.2,5.1-20.4l13.1,4.5s-12.2-12.1-6.7-21.6c0,0,6.7-12.7,16,9.5,0,0,13.5-8.3,11.4,12.1,0,0,29.5-18.5,21.5,7,0,0,22.7-3.8,14.3,13.7,0,0,24.9,2.4,10.1,15.4,0,0,28.3,5.3,4.7,21.2,0,0,16.8,23.1-7.6,15.4,0,0,.6,18.1-16.1,10.3Z"/>
  <path class="cls-38" d="M544.7,325.5s6.3,38.7-14.9,1.3c0,0-2.2,13.8-11.9,0,0,0-16,38.7-15.1,0,0,0-14.9,26.9-11.7-5.6,0,0-18.5,24.8-27.7,0l2-5.7s-28.9-.5,3.8-18.7h8.4s-31.4-15.8,3.2-22.7l14,4.5s-15.3-41.4,9.9-12.1c0,0,14.9-7.6,12.2,12.1,0,0,29.7-18.5,23,7,0,0,25.7-5.1,15.3,13.7,0,0,32,4.5,10.8,15.4,0,0,23.9,28.9-8.1,7.8-32-21-2.3-.6-2.3-.6,0,0,12.6,33.4-10.8,3.7Z"/>
  <path class="cls-11" d="M527,304.4s1.7,9.3,10.6,5.8c0,0-.3-16.2-10.6-5.8Z"/>
  <path class="cls-11" d="M514,293.8s-6.3-2.5,2.7-15.3c0,0,5.3,5.1-2.7,15.3Z"/>
  <path class="cls-11" d="M493.8,304.4s-4.1,9.6-11.7,5.5c0,0,1.4-12.8,11.7-5.5Z"/>
  <path class="cls-11" d="M502.6,341.9s5.9.6,6,10.2c0,0-7.3.5-6-10.2Z"/>
  <path class="cls-14" d="M473.9,296.3s-5.8-3.5-9.3,2.3c0,0,4.9,7.5,9.3-2.3Z"/>
  <path class="cls-7" d="M545.2,401.2s3.7,36.3,9.1,10.9c0,0,5.6,15,7.6-10.9,0,0,6.3,16.4,6-13.9,0,0,5.6,7.1,4.9-19.8h1.6s.8-31.9-3-28.2c-3.9,3.8,1.9-13.4,1.9-13.4,0,0-5.6,8.4-7.3-.5,0,0-2.9,32.2-8.3,23.7,0,0-5,11.9-7.4-6.2,0,0-7.3,15.5-10.6-13.3,0,0,2.2,38.9-4.9,37.9-.9,0-2.1-.2-3.5-2-2.5-3.2-4.2-9.5-4.9-12.9-1.1,6.3-2.2,12.5-3.2,18.8,0,0,6.9,21.6,9.3,11.5,0,0,1.6,16.2,3.3-.6,0,0,.3,27.8,3.9,23.3,0,0,2,17,5.7-4.4Z"/>
  <path class="cls-17" d="M545.2,404s-1.8-8-6.5-3.7c0,0,2.7,12.6,6.5,3.7Z"/>
  <path class="cls-39" d="M469.2,383s1.5,18.6,4.4,4.7c0,0,13.1,21.4,10.3.3-1-7.4-1.2-9.8-1.1-9.9,0,0,1.3,8.1,1.5,8.1,0,0,0-.4,0-1.6,1.6,3,11.2,20.2,14.5,17.2,2.3-2,.8-12.5-.3-18.9,0,0,1.5,12.3,8.6,12.5l-1-5.3c-1.5-.8-3.8-2.4-6-5.3-.7-1-2.5-3.5-5-10.1-1.4-3.9-3.3-9.7-4.7-17.4-1.3,1.3-2.6,2.5-3.9,3.8-.8.6-1.6,1.3-2.4,1.9,4.4,7.7,4.6,10.1,4.2,11-.3.7-1.1.5-4.2.3-2-.1-3.7-.2-4.9-.2.4,2.1.1,3.5-10.2,9Z"/>
  <path class="cls-17" d="M501.4,365.7c0,.2-.2.6-.4,1.1-1.7,5.9,2.9,17.5,8.4,19,.5.1,3.3.9,4.8-1.5.7-1.2.4-2,1.2-3.9,1.2-2.7,2.5-2.8,4.3-5.1.8-1.1,1.9-2.9,2.8-5.9-2.8-2.6-5.7-5.3-8.5-7.9-1.4,1.1-3.2,2.2-5.3,3-2.9,1.1-5.4,1.3-7.3,1.3Z"/>
  <g>
    <path class="cls-22" d="M1277.3,370.6c-.2,1.6-1.9,2.9-4.2,3.4h-15.9l-30.7,12.7-12.2-12.3-18.3-.8s-46.6-35.5-3.3-49.9l-11.6-1.3s-2.2-44.9,33.3-34.3c0,0,7.2-4.2-6.1-10.2l11.1-7.6-2.2-3.8,8.7,1.5,10.2-12,9.4,8,5-14.8,12.2,6.8,2.8-3.4,7.2,4.2,10.7-7.6-16.3-7.2,1.7-8.5s-27.2,5.1-21.1-14.8c6.1-19.9-1.6,0-1.6,0l-6.2-1.3,13.9-13.5-8.3-1.7s-8.4-22,12.7-25.8l103.2.4v220.3s.6-15.7-11.2-20.4c-11.8-4.7,0,0,0,0,0,0,7.1-11.6,11.2-12.6,4.2-1,0,0,0,0v-18.6l-23,26.5-2.2-24.5,25.2-31.7-13.6-8.1s5-12.8-3.6-20.4c-8.6-7.6,0,0,0,0l-19.1-5s16.1,0,10,28.8c-6.1,28.8,0,0,0,0l-13.3-14,12.7,28.3-12.7,18.6c.9,8.2,1.8,16.3,2.7,24.5-11.1-2.8-22.2-5.6-33.2-8.4l.6,5.5-2.2.2s-6.1-24.3-4.7-33.8c1.4-9.5,0,0,0,0l-13.9,8,3.3,24.1-33.8-2.4c12,2.1,24,4.2,36,6.2.3.4,1,1.3.9,2.5Z"/>
    <path class="cls-13" d="M1213.5,320.9l6.7,4.7,12.2,1.7,12.7,17.3,6.1,2.5-1.1,5.9-11.4,5.8s4.2,12-14.7,7.7l-36.4-.5s-34-30.3,5-42.4l-11.6-1.3s-3.1-30,19.7-35.6l11.8,13.9,12-7.7,10,16.1,12.7-8.5,27.2.8,18.8,12.7s10,11.4-22.5,26c-32.4,14.6,0,0,0,0l-10.8,2.3,1.1-11.8-20-2.1,19.4-8s-13.9-11-47.1.4Z"/>
    <path class="cls-13" d="M1301.9,289.4l11.1-21.2,13.9,7.2-1.1,22-20.5,17.3s-1.1-14.4-16.1-16.5c-15-2.1-1.1.4-1.1.4,0,0-4.4-22,13.9-9.3Z"/>
    <path class="cls-25" d="M1283.3,249.2s19.8-1.7,29.7,19l-11.1,21.2s-9.5-8-14.7,0c0,0,2.5-20.3-24.6-33.4l2.8-3.4,7.2,4.2,10.7-7.6Z"/>
    <polygon class="cls-25" points="1245.4 264 1243.2 275.5 1226.4 269.7 1216.2 284.4 1208.2 278 1219.3 270.4 1217.1 266.6 1225.8 268 1236 256 1245.4 264"/>
    <path class="cls-16" d="M1268.7,233.6l37.7,2.5,8.3-14.8,3.3,13.1s33.8-10.1,8.9-23.5c0,0,2.7-16.7,11.8,4.4.1.3.3.6.4.9l20.5,10.2,1.7-49.5-103.2-.4s-20.4.8-12.7,25.8l8.3,1.7,13.6-.2s-10.9,13.7-19.3,13.8c0,0-9,19.6,20.7,16Z"/>
    <path class="cls-12" d="M1326.9,259.9s-24.1-23.6-26.9-23.8c-2.8-.2,31,37,31,37,0,0,17.7-8,12.7-33-5-25-1.7-.8-1.7-.8l-3-23.1s-4.9,10.8-9,12.7c0,0,13.1,13.5-3.2,31Z"/>
    <path class="cls-41" d="M1311.4,409.6"/>
    <path class="cls-12" d="M1284.7,332.2l-13.9,8,3.3,24.1-35.5-2.5,37.7,6.3s10.5,31.7,23.8,57.5v55.1s29.9,7.1,55.4,2.5c0,0-21-41-16.3-62.9,0-.3.2-.7.2-1,5.5-21.6,3.9-43.3,21.6-55.1v-18.6l-23,26.5-2.2-24.5,25.2-31.7-13.6-8.1s6.7-20.3-10-22.8c-16.6-2.5-12.7-2.5-12.7-2.5,0,0,8.3,1.3,10.5,8.9l-.6,21.2-13.3-15.2,12.7,28.3-12.7,18.6c1.2,11,1.2,24.9-2.2,40.6-2,9.3-4.9,17.6-8,24.8-12-18.4-16.6-25.9-16.4-26,.2,0,1.9,2.4,2.3,2.3.9-.3-4.5-11.1-7.3-18.4-3.1-8-6.2-19.7-5.3-35.3Z"/>
  </g>
  <g>
    <polygon class="cls-2" points="1215.4 618.2 1241 618.2 1239 527.4 1215.4 527.4 1215.4 618.2"/>
    <path class="cls-2" d="M1221.8,527.4l2.4-224.4h-2.4v-8.4s-9.2.4-12.4-6.4h35.1s-3.6,6.4-13.2,6.4l1.2,7.6h-2l2,225.2h-10.8Z"/>
    <path class="cls-34" d="M1209.5,288.2c-5.5-4.9-8-12.1-6.3-18.8,2.1-8.6,10.5-14.9,20.3-14.5,3.4-.3,10.3-.3,17.6,3.5,1.1.6,2.3,1.2,3.6,2,2.5,1.6,5,3.6,6.3,6.8,2.7,6.3,0,14.6-6.3,21.2h-35.1Z"/>
    <path class="cls-21" d="M1239.2,257.5s14.8,32-35.4,22.4c0,0,2.8,4.8,5.7,8.3h35.1s20.8-16.5-5.4-30.8Z"/>
  </g>
  <g>
    <path class="cls-30" d="M648.3,475.4c-13.7,6.6-27.3,6.2-34.8-1.8-1.5-1.6-3.1-3.8-4.3-7.1-2.4-8.3-5-20-5.4-34.4-.4-16.3,2.3-29.6,4.8-38.5,0,0,10.3-16.5,16.9-56.3,0,0,10-38.7,39.4-49.9,6.6,5.6,14.6,13.9,21.8,25.5,16.2,26.3,17.8,53.5,17.7,65.8v22.5c-.4,11.9-.7,23.7-1.1,35.6-.6,4-2,10.1-5.4,16.6-3.5,6.9-7.8,11.5-10.7,14.2-1.8,1.2-3.6,2.4-5.4,3.6l-33.7,4.1Z"/>
    <path class="cls-42" d="M653.1,398.9c-.2,0-.5-.7-.9-1.4-2.2-3.8-7.2-13.9-7.2-13.9l-3.7,9.3s-34.2,3.6-10.7,28.4c0,0,24.6,22.5,47.1-8.3,0,0,20.3-19-24.6-14.2Z"/>
    <path class="cls-42" d="M673.9,296l-3.1,26.5s-11.8,5.9-1.1,15.4c0,0,4.3,28.4-11.8,26.1,0,0-5.4,8.3,4.3,9.5,0,0,1.3,6.9-5.8,7,0,0-2.1,9.6,7.4,11.1.4,0,.8.1,1.3.1,11,.7,16.3,11.5,39.3,4.9,0,0,9.9-60.8-30.6-100.7Z"/>
    <path class="cls-42" d="M704,400.7s-19.3,51-59.9,60.4l-35.1,4.2s6.1,23.9,38.6,10.4c.3-.1.5-.2.8-.3l34-2.4s27-10.6,21.6-72.3Z"/>
    <polygon class="cls-27" points="650.5 475.2 650.5 549.1 665.4 550 665.4 471.4 650.5 475.2"/>
    <path class="cls-23" d="M705.6,381.8l18.7-1.2s7.5,28.4,17.1,32c9.6,3.6,0,1.3,0,1.3,0,0,15,15.2-1.1,25.9-10.9,7.2-7.5,4.7-4.2,2.2,1.6-1.1,3.1-2.2,3.1-2.2,0,0-2.2,14.2,4.2,15.4,6.4,1.2.8,0,.8,0,0,0,12.7,10.3-8.3,9.5-.3,0-.7,0-1.1,0-22.5-1.2-16.1,10.7-16.1,10.7,0,0-9.6,5.8-22.4,8.3-9.4,1.8-20.6,1.8-31.1-3.7v-8.6s42.3,10.5,39.1-70.1l1.1-20.7v1.2Z"/>
    <path class="cls-40" d="M737,441.5s-33.6-1.1-44.3,40.4v2.8s22.7-2.5,25.8-10.4c0,0-5.2-12.7,23-9.7,0,0,12.2-.6,2-9.4,0,0-6.6-6.7-5.7-13.7"/>
    <polygon class="cls-27" points="683.2 484.7 683.2 548.2 696.3 548.2 697.9 483.9 683.2 484.7"/>
    <path class="cls-9" d="M585.2,583.2l89.9,1.2s0-14.2-15-13c0,0-21-26.5-34.2-11.9-1.1,1.2-18.9,2.6-16.9,11.4,0,0-19.5-4.2-23.7,12.4Z"/>
    <path class="cls-3" d="M637,555.2s25.3-25.3,52,7.9c0,0,19.3,2.4,39.6-5.9,0,0,32.1-9.5,46,7.1,0,0,30-10.7,42.8,9.5,0,0-118.8,15.4-142.3,10.7,0,0-.5-11.3-15-13-14.4-1.8-1.6.6-1.6.6,0,0-8.8-14.5-21.5-16.8Z"/>
    <path class="cls-6" d="M674.3,550s16.1-13.2,30.4-1.8c0,0,49.3-36.8,62.8,10.4,0,0-26.9-5.1-44.4.6,0,0-18.7,8.3-32.6,4.1l-16.3-13.2Z"/>
  </g>
  <g>
    <path class="cls-30" d="M1122,397.7c-7.6,4.6-15.2,4.4-19.4-1.3-.8-1.1-1.7-2.7-2.4-5-1.4-5.8-2.8-14.1-3-24.2-.2-11.5,1.3-20.9,2.7-27.1,0,0,5.7-11.6,9.4-39.6,0,0,5.6-27.2,22-35.1,3.7,4,8.1,9.8,12.1,18,9,18.5,9.9,37.6,9.9,46.3v15.8c-.2,8.3-.4,16.7-.6,25-.4,2.8-1.1,7.1-3,11.7-2,4.9-4.4,8.1-6,10-1,.8-2,1.7-3,2.5l-18.8,2.9Z"/>
    <path class="cls-42" d="M1124.7,343.9c-.1,0-.3-.5-.5-1-1.2-2.7-4-9.7-4-9.7l-2,6.5s-19.1,2.5-6,20c0,0,13.7,15.8,26.3-5.8,0,0,11.3-13.3-13.7-10Z"/>
    <path class="cls-42" d="M1136.3,271.5l-1.7,18.7s-6.6,4.2-.6,10.8c0,0,2.4,20-6.6,18.3,0,0-3,5.8,2.4,6.7,0,0,.7,4.8-3.2,4.9,0,0-1.2,6.8,4.1,7.8s.5,0,.7,0c6.1.5,9.1,8.1,21.9,3.5,0,0,5.5-42.8-17.1-70.8Z"/>
    <path class="cls-42" d="M1153,345.1s-10.7,35.8-33.4,42.5l-19.6,2.9s3.4,16.8,21.5,7.3c.1,0,.3-.2.4-.2l19-1.7s15-7.5,12.1-50.8Z"/>
    <polygon class="cls-27" points="1123.2 397.5 1123.2 449.5 1131.6 450.2 1131.6 394.9 1123.2 397.5"/>
    <path class="cls-23" d="M1153.9,331.8l10.4-.9s4.2,20,9.5,22.5c5.4,2.5,0,.9,0,.9,0,0,8.4,10.7-.6,18.2-6.1,5.1-4.2,3.3-2.3,1.6.9-.8,1.7-1.6,1.7-1.6,0,0-1.2,10,2.4,10.8,3.6.8.5,0,.5,0,0,0,7.1,7.3-4.6,6.7-.2,0-.4,0-.6,0-12.5-.8-9,7.5-9,7.5,0,0-5.3,4.1-12.5,5.8-5.3,1.3-11.5,1.3-17.3-2.6v-6s23.6,7.4,21.8-49.3l.6-14.6v.9Z"/>
    <path class="cls-40" d="M1171.4,373.8s-18.7-.8-24.7,28.4v2s12.7-1.8,14.4-7.3c0,0-2.9-8.9,12.8-6.8,0,0,6.8-.4,1.1-6.6,0,0-3.7-4.7-3.2-9.7"/>
    <polygon class="cls-27" points="1141.4 404.2 1141.4 448.9 1148.8 448.9 1149.7 403.7 1141.4 404.2"/>
    <path class="cls-9" d="M1086.8,473.5l50.1.8s0-10-8.4-9.2c0,0-11.7-18.6-19.1-8.3-.6.8-10.5,1.8-9.4,8,0,0-10.9-3-13.2,8.7Z"/>
    <path class="cls-3" d="M1115.7,453.8s14.1-17.8,29,5.5c0,0,10.7,1.7,22.1-4.2,0,0,17.9-6.7,25.7,5,0,0,16.7-7.5,23.9,6.7,0,0-66.2,10.8-79.4,7.5,0,0-.3-7.9-8.4-9.2-8.1-1.3-.9.4-.9.4,0,0-4.9-10.2-12-11.8Z"/>
    <path class="cls-6" d="M1136.5,450.2s9-9.3,17-1.3c0,0,27.5-25.9,35,7.3,0,0-15-3.6-24.8.4,0,0-10.4,5.9-18.2,2.9l-9.1-9.3Z"/>
  </g>
  <rect class="cls-20" x="942.8" y="317.1" width="52.5" height="7.9"/>
  <path class="cls-1" d="M881.4,479.1s-1.4-13.1.6-22.4c0,0,2-10.1,1-19.6,0,0,.2-7.5,2.9-15.7,0,0,3-9.3-1.1-15.9-4.1-6.5,1.2-17.3,1.2-17.3,0,0,6.6-16.8,10.9-16.8s4.6-14.9,4.6-14.9h-3.1c-.4,2.4-1.1,5.6-2.5,7.9-1.3,2.2-2.4,2-4,3.3-1.7,1.4-2.9,3.9-5.3,9-1.5,3.3-3.5,8-5.7,14.3-1,2.3-1.9,2.9-2.5,3.1-3.1.8-6.8-8.5-8.7-23.6,1.2-5.2,2.7-10.7,4.3-16.4,1.3-4.5,2.6-8.7,3.9-12.6l-3.4-3.9s-7.2,34.2-9.5,17.6c-2.4-16.6.3-17.6.3-17.6l-3.4-8.1c-.3,4-.8,9.7-.9,16.7,0,1.8-.2,6.2-.1,9.6,0,4.7.7,13.6,4,24.7,0,0,1.6,14.5,9.3,20.1,0,0,.2,9.5,4.3,16,0,0,0,5.6-2,11.4,0,0,.5,16-1.7,17.6-.8.6-1.3-1.5-4.4-7.5-3.1-6.2-4.7-9.3-6.9-11.3-1.2-1-3.7-2.9-3.7-2.9h0l-8.9-9.3s-8.7.8-7.7-22.9l-1.4-1.4s2,15.9-4.4,13.9c0,0-1.6,10,2.6,13.5,0,0,19.8,16.7,20.8,30.4,0,.2,0,.5,0,.7.3,13.8.8,28.8.8,28.8l3.1,1.4h17.1Z"/>
  <path class="cls-19" d="M930.5,468.4l-6.5,1.2s.4-11.5,1.5-15.1c1.1-3.7-.2-15.7-.2-15.7,0,0-2-5.9-2-11.6,0,0-2.3-7.9-1.9-13.5.4-5.6,2-.7,2-.7,0,0,1,16,2,14.1,1-1.9,1.2-11.9.3-15.2-.9-3.3,1.7-3.3,1.7-3.3,0,0,.8,25.6,2.6,6,0,0,1.2-10,2.1-2.9,0,0-1.9,9.1-1.9,16.8,0,0,1,2.8-.3,16.3l.7,23.8"/>
  <path class="cls-11" d="M846.4,382.5s4.6-7.5,5.6,4.3c0,0-5.5,3.8-5.6-4.3Z"/>
  <g>
    <path class="cls-14" d="M842.3,395.8s4.7,24.8-18.7,0c0,0-4.6,12.7-19.4-6.2,0,0-10.2,6.6-12.6-13.2,0,0-13.3,11.6-4-15.5,0,0-14.8,2.9-1.9-12.3l8.6-3.6s-19.1-7.7,3.7-15.5l9.6,3.4s-8.9-9.2-4.9-16.4c0,0,4.9-9.7,11.7,7.2,0,0,9.9-6.3,8.3,9.2,0,0,21.6-14,15.7,5.3,0,0,16.7-2.9,10.5,10.4,0,0,18.2,1.9,7.4,11.7,0,0,20.7,4,3.4,16.1,0,0,12.3,17.5-5.6,11.7,0,0,.5,13.7-11.8,7.8Z"/>
    <path class="cls-38" d="M841.8,368.5s4.3,29.3-10.2,1c0,0-1.5,10.5-8.1,0,0,0-11,29.3-10.4,0,0,0-10.2,20.4-8-4.2,0,0-12.7,18.8-19,0l1.4-4.3s-19.8-.4,2.6-14.2h5.7s-21.5-12,2.2-17.2l9.6,3.4s-10.5-31.4,6.8-9.2c0,0,10.2-5.8,8.3,9.2,0,0,20.4-14,15.7,5.3,0,0,17.6-3.9,10.5,10.4,0,0,21.9,3.4,7.4,11.7,0,0,16.3,21.9-5.6,6-21.9-15.9-1.5-.5-1.5-.5,0,0,8.6,25.4-7.4,2.8Z"/>
    <path class="cls-11" d="M828.5,351.2s1.3,7.7,8.2,4.8c0,0-.2-13.5-8.2-4.8Z"/>
    <path class="cls-11" d="M820.8,344.5s-4.3-1.9,1.9-11.6c0,0,3.7,3.9-1.9,11.6Z"/>
    <path class="cls-11" d="M807,352.5s-2.8,7.3-8,4.2c0,0,.9-9.7,8-4.2Z"/>
    <path class="cls-11" d="M809.7,382.5s4.5.5,4.6,8.5c0,0-5.6.4-4.6-8.5Z"/>
    <path class="cls-14" d="M798.9,324.6s-.9-5.3-5.6-4.8c0,0,2.9,9.5,5.6,4.8Z"/>
    <path class="cls-14" d="M787.5,344.5s-4.5-2.9-7.2,1.9c0,0,3.8,6.3,7.2-1.9Z"/>
    <path class="cls-14" d="M831.6,322.9s-4.3-10.7-6.5-7.1c-2.2,3.6,2.5,9.7,6.5,7.1Z"/>
    <path class="cls-14" d="M831.6,313.7c8-3-5.2-8.8-5.2-8.8,0,0-.3,10.9,5.2,8.8Z"/>
  </g>
  <path class="cls-14" d="M914.1,375s6.4,32.6-25.6,0c0,0-6.3,16.8-26.5-8.2,0,0-13.9,8.7-17.3-17.4,0,0-18.1,15.3-5.5-20.4,0,0-20.2,3.8-2.5-16.2l11.8-4.8s-26.1-10.2,5.1-20.4l13.1,4.5s-12.2-12.1-6.7-21.6c0,0,6.7-12.7,16,9.5,0,0,13.5-8.3,11.4,12.1,0,0,29.5-18.5,21.5,7,0,0,22.7-3.8,14.3,13.7,0,0,24.9,2.4,10.1,15.4,0,0,28.3,5.3,4.7,21.2,0,0,16.8,23.1-7.6,15.4,0,0,.6,18.1-16.1,10.3Z"/>
  <path class="cls-38" d="M919.2,339.1s6.3,38.7-14.9,1.3c0,0-2.2,13.8-11.9,0,0,0-16,38.7-15.1,0,0,0-14.9,26.9-11.7-5.6,0,0-18.5,24.8-27.7,0l2-5.7s-28.9-.5,3.8-18.7h8.4s-31.4-15.8,3.2-22.7l14,4.5s-15.3-41.4,9.9-12.1c0,0,14.9-7.6,12.2,12.1,0,0,29.7-18.5,23,7,0,0,25.7-5.1,15.3,13.7,0,0,32,4.5,10.8,15.4,0,0,23.9,28.9-8.1,7.8-32-21-2.3-.6-2.3-.6,0,0,12.6,33.4-10.8,3.7Z"/>
  <path class="cls-11" d="M901.5,318s1.7,9.3,10.6,5.8c0,0-.3-16.2-10.6-5.8Z"/>
  <path class="cls-11" d="M888.5,307.4s-6.3-2.5,2.7-15.3c0,0,5.3,5.1-2.7,15.3Z"/>
  <path class="cls-11" d="M868.3,318s-4.1,9.6-11.7,5.5c0,0,1.4-12.8,11.7-5.5Z"/>
  <path class="cls-11" d="M877.1,355.4s5.9.6,6,10.2c0,0-7.3.5-6-10.2Z"/>
  <path class="cls-7" d="M919.7,414.8s3.7,36.3,9.1,10.9c0,0,5.6,15,7.6-10.9,0,0,6.3,16.4,6-13.9,0,0,5.6,7.1,4.9-19.8h1.6s.8-31.9-3-28.2c-3.9,3.8,1.9-13.4,1.9-13.4,0,0-5.6,8.4-7.3-.5,0,0-2.9,32.2-8.3,23.7,0,0-5,11.9-7.4-6.2,0,0-7.3,15.5-10.6-13.3,0,0,2.2,38.9-4.9,37.9-.9,0-2.1-.2-3.5-2-2.5-3.2-4.2-9.5-4.9-12.9-1.1,6.3-2.2,12.5-3.2,18.8,0,0,6.9,21.6,9.3,11.5,0,0,1.6,16.2,3.3-.6,0,0,.3,27.8,3.9,23.3,0,0,2,17,5.7-4.4Z"/>
  <path class="cls-17" d="M919.7,417.6s-1.8-8-6.5-3.7c0,0,2.7,12.6,6.5,3.7Z"/>
  <path class="cls-39" d="M843.7,396.6s1.5,18.6,4.4,4.7c0,0,13.1,21.4,10.3.3-1-7.4-1.2-9.8-1.1-9.9,0,0,1.3,8.1,1.5,8.1,0,0,0-.4,0-1.6,1.6,3,11.2,20.2,14.5,17.2,2.3-2,.8-12.5-.3-18.9,0,0,1.5,12.3,8.6,12.5l-1-5.3c-1.5-.8-3.8-2.4-6-5.3-.7-1-2.5-3.5-5-10.1-1.4-3.9-3.3-9.7-4.7-17.4-1.3,1.3-2.6,2.5-3.9,3.8-.8.6-1.6,1.3-2.4,1.9,4.4,7.7,4.6,10.1,4.2,11-.3.7-1.1.5-4.2.3-2-.1-3.7-.2-4.9-.2.4,2.1.1,3.5-10.2,9Z"/>
  <path class="cls-17" d="M875.9,379.3c0,.2-.2.6-.4,1.1-1.7,5.9,2.9,17.5,8.4,19,.5.1,3.3.9,4.8-1.5.7-1.2.4-2,1.2-3.9,1.2-2.7,2.5-2.8,4.3-5.1.8-1.1,1.9-2.9,2.8-5.9-2.8-2.6-5.7-5.3-8.5-7.9-1.4,1.1-3.2,2.2-5.3,3-2.9,1.1-5.4,1.3-7.3,1.3Z"/>
  <path class="cls-9" d="M6.3,761.4l107.5,3s0-36.2-17.9-33.2c0,0-25.1-67.5-41-30.2-1.3,3-22.6,6.5-20.2,28.9,0,0-23.3-10.8-28.4,31.4Z"/>
  <g>
    <path class="cls-3" d="M68.2,690.1s30.2-64.5,62.2,20c0,0,23,6,47.4-15.1,0,0,38.4-24.1,55,18.1,0,0,35.8-27.2,51.2,24.1,0,0-142.1,39.2-170.2,27.2,0,0-.6-28.7-17.9-33.2-17.3-4.5-1.9,1.5-1.9,1.5,0,0-10.5-37-25.7-42.7Z"/>
    <path class="cls-6" d="M112.8,676.9s19.3-33.5,36.4-4.7c0,0,58.9-93.8,75.1,26.4,0,0-32.2-13-53.1,1.5,0,0-22.4,21.3-38.9,10.3l-19.4-33.5Z"/>
  </g>
  <g>
    <path class="cls-30" d="M372.3,438.1c-3.9,2.9-7.7,2.7-9.9-.8-.4-.7-.9-1.7-1.2-3.1-.7-3.6-1.4-8.7-1.5-15-.1-7.1.7-12.9,1.4-16.8,0,0,2.9-7.2,4.8-24.5,0,0,2.8-16.9,11.2-21.8,1.9,2.5,4.1,6.1,6.2,11.1,4.6,11.5,5,23.3,5,28.7v9.8c-.1,5.2-.2,10.3-.3,15.5-.2,1.8-.6,4.4-1.5,7.2-1,3-2.2,5-3,6.2-.5.5-1,1-1.5,1.6l-9.6,1.8Z"/>
    <path class="cls-42" d="M373.7,404.8c0,0-.1-.3-.2-.6-.6-1.7-2.1-6-2.1-6l-1,4.1s-9.7,1.6-3,12.4c0,0,7,9.8,13.4-3.6,0,0,5.8-8.3-7-6.2Z"/>
    <path class="cls-42" d="M379.6,359.9l-.9,11.6s-3.3,2.6-.3,6.7c0,0,1.2,12.4-3.3,11.4,0,0-1.5,3.6,1.2,4.1,0,0,.4,3-1.6,3.1,0,0-.6,4.2,2.1,4.8s.2,0,.4,0c3.1.3,4.6,5,11.2,2.2,0,0,2.8-26.5-8.7-43.9Z"/>
    <path class="cls-42" d="M388.1,405.6s-5.5,22.2-17,26.4l-10,1.8s1.7,10.4,11,4.5c0,0,.1,0,.2-.1l9.7-1s7.7-4.6,6.1-31.5Z"/>
    <polygon class="cls-27" points="372.9 438.1 372.9 470.3 377.2 470.7 377.2 436.4 372.9 438.1"/>
    <path class="cls-23" d="M388.6,397.3l5.3-.5s2.1,12.4,4.9,14c2.7,1.6,0,.6,0,.6,0,0,4.3,6.6-.3,11.3-3.1,3.2-2.1,2-1.2,1,.4-.5.9-1,.9-1,0,0-.6,6.2,1.2,6.7,1.8.5.2,0,.2,0,0,0,3.6,4.5-2.4,4.2,0,0-.2,0-.3,0-6.4-.5-4.6,4.7-4.6,4.7,0,0-2.7,2.5-6.4,3.6-2.7.8-5.9.8-8.8-1.6v-3.7s12,4.6,11.1-30.6l.3-9v.5Z"/>
    <path class="cls-40" d="M397.5,423.3s-9.5-.5-12.6,17.6v1.2s6.4-1.1,7.3-4.5c0,0-1.5-5.5,6.5-4.2,0,0,3.5-.2.6-4.1,0,0-1.9-2.9-1.6-6"/>
    <polygon class="cls-27" points="382.2 442.2 382.2 469.9 385.9 469.9 386.4 441.9 382.2 442.2"/>
    <path class="cls-9" d="M354.4,485.1l25.5.5s0-6.2-4.3-5.7c0,0-6-11.6-9.7-5.2-.3.5-5.4,1.1-4.8,4.9,0,0-5.5-1.8-6.7,5.4Z"/>
    <path class="cls-3" d="M369.1,472.9s7.2-11,14.8,3.4c0,0,5.5,1,11.2-2.6,0,0,9.1-4.1,13.1,3.1,0,0,8.5-4.7,12.1,4.1,0,0-33.7,6.7-40.4,4.7,0,0-.2-4.9-4.3-5.7s-.5.3-.5.3c0,0-2.5-6.3-6.1-7.3Z"/>
    <path class="cls-6" d="M379.7,470.7s4.6-5.7,8.6-.8c0,0,14-16.1,17.8,4.5,0,0-7.6-2.2-12.6.3,0,0-5.3,3.6-9.2,1.8l-4.6-5.7Z"/>
  </g>
  <g>
    <path class="cls-3" d="M1123,766.7c8.9-57,29.4-93.7,48.2-93.4,17.4.3,30.7,32.2,35,43.5,0,0,23,6,47.4-15.1,0,0,38.4-24.1,55,18.1,3.6-2.3,15.6-9.4,28.4-6,17.2,4.6,30.2,26.7,26,52.8-19.7-.3-39.8-.3-60.3,0-39.1.5-76.8,2.1-113.1,4.5h0c-9.9-2.3-11.5-4.5-11.5-4.5-.6-.9-1.3-2.4-1.2-5-6.6,2-14.7,4-24,5-11.7,1.3-21.9.9-30,0Z"/>
    <path class="cls-6" d="M1188.7,683.7s19.3-33.5,36.4-4.7c0,0,58.9-93.8,75.1,26.4,0,0-32.2-13-53.1,1.5,0,0-22.4,21.3-38.9,10.3l-19.4-33.5Z"/>
  </g>
  <ellipse class="cls-10" cx="67" cy="310.5" rx="9.1" ry="9.1"/>
  <ellipse class="cls-10" cx="264.9" cy="319.3" rx="9.1" ry="9.1"/>
  <ellipse class="cls-10" cx="298.5" cy="426.3" rx="9.1" ry="9.1"/>
  <ellipse class="cls-10" cx="95.6" cy="374.1" rx="9.1" ry="9.1"/>
  <ellipse class="cls-10" cx="133.9" cy="326" rx="9.1" ry="9.1"/>
  <ellipse class="cls-10" cx="52.9" cy="420.9" rx="9.1" ry="9.1"/>
  <ellipse class="cls-10" cx="238.8" cy="262.4" rx="9.1" ry="9.1"/>
  <ellipse class="cls-10" cx="162.2" cy="404.7" rx="9.1" ry="9.1"/>
  <ellipse class="cls-10" cx="341.2" cy="373.2" rx="9.1" ry="9.1"/>
  <ellipse class="cls-10" cx="238.8" cy="368.9" rx="9.1" ry="9.1"/>
  <path class="cls-49" d="M250.6,93.4s-189.3,46.6,61.8,32.3c0,0,47.8,20.3,92.5-4.8,0,0,56.8,32.9,95.7-7.5,0,0,83.6,20.1,100.2,0,16.6-20.1-50.8-64.3-89-34.4,0,0-13.2-52.4-79-10.1,0,0-24.5-31.8-52.9,13.7,0,0-19.1-4.4-20.2,10.4,0,0-31.1-16.7-65.5-9.2l-43.6,9.6Z"/>
  <path class="cls-32" d="M-3.4,123.3s123.4-22.6,155.8,10.2c0,0,53.3-3.1,60.3,16.1,0,0,153.7,41,11.6,20.3-8.2-1.2-62.8,5.8-62.8,5.8,0,0-96.3,30.1-114.9,9.7,0,0-52.5,0-49.9-9,2.6-8.9,2.1-60.8,2.1-60.8l-2.1,7.6Z"/>
  <path class="cls-5" d="M1127.4,133.5s-69.4,41.1,38.6,43c0,0,66.1,4.9,86.4-22.4,0,0,144.7,13.6,29.8-20.6,0,0-27.2-23.4-43.5-7.8,0,0-26.2-34.7-72.8-20.3,0,0-47.4,7.3-38.6,28.2Z"/>
  <path class="cls-33" d="M603.9,101.9c46.3,9.5,98.6,17.3,156.1,21.4,93.7,6.6,176.6,1.5,245-7.6-60.5,7.9-121,15.8-181.5,23.6-32.7,1.8-65.5,3.6-98.2,5.5-105.3,23.3-135.2,19.3-140.1,9.3-.9-1.9-4.4-11-7.3-10.5-2.1.3-3,5.8-3.4,10.5,0,0-269.2-27-269.1-28,0,0,0,0,.1,0,4.5-.3,127.8-10.3,298.4-24.2Z"/>
  <path class="cls-49" d="M244.2,90.7s-189.3,46.6,61.8,32.3c0,0,47.8,20.3,92.5-4.8,0,0,56.8,32.9,95.7-7.5,0,0,83.6,20.1,100.2,0,16.6-20.1-50.8-64.3-89-34.4,0,0-13.2-52.4-79-10.1,0,0-24.5-31.8-52.9,13.7,0,0-19.1-4.4-20.2,10.4,0,0-31.1-16.7-65.5-9.2l-43.6,9.6Z"/>
  <path class="cls-49" d="M868.4,91.6s-97.6,7.2,0,27.2c0,0,92.6,11.2,136.3,0,11.2-2.9,125.7-15.8,24.2-27.2,0,0-9.3-27.9-18-13.2,0,0-23.5-31.2-44.1-9.7,0,0-32.9-25.8-44.8,4.3,0,0-47.8-27.2-53.5,18.6Z"/>
</svg>