<?xml version="1.0" encoding="UTF-8"?>
<svg id="Capa_1" data-name="Capa 1" xmlns="http://www.w3.org/2000/svg" version="1.1" xmlns:xlink="http://www.w3.org/1999/xlink" viewBox="0 0 1366 768">
  <defs>
    <style>
      .cls-1 {
        fill: #83b5d2;
      }

      .cls-1, .cls-2, .cls-3, .cls-4, .cls-5, .cls-6, .cls-7, .cls-8, .cls-9, .cls-10 {
        stroke-width: 0px;
      }

      .cls-2 {
        fill: #c5e5f1;
      }

      .cls-3 {
        fill: #cedfe5;
      }

      .cls-4 {
        fill: #7093a6;
      }

      .cls-5 {
        fill: #93c3d3;
      }

      .cls-6 {
        fill: #aedbe3;
      }

      .cls-7 {
        fill: #5c676e;
      }

      .cls-8 {
        fill: #84b9d0;
      }

      .cls-9 {
        fill: #fff;
      }

      .cls-10 {
        fill: #aacada;
      }
    </style>
  </defs>
  <g>
    <rect class="cls-6" x=".1" y="1" width="1362.9" height="767"/>
    <image width="1427" height="211" transform="translate(-32 127)" xlink:href="ciudad-1.png"/>
    <g>
      <rect class="cls-2" x="278.1" y="378.1" width="96.7" height="6.3"/>
      <rect class="cls-2" x="278.1" y="394.2" width="96.7" height="6.7"/>
      <rect class="cls-2" x="278.1" y="410.8" width="96.7" height="5.4"/>
      <rect class="cls-2" x="282.3" y="425.9" width="92.5" height="4.9"/>
      <rect class="cls-2" x="278.1" y="442" width="96.7" height="6.3"/>
      <rect class="cls-2" x="282.3" y="457.1" width="86.5" height="6.8"/>
      <rect class="cls-2" x="278.1" y="472.1" width="96.7" height="6.9"/>
      <rect class="cls-2" x="278.1" y="488.7" width="96.7" height="5.8"/>
    </g>
    <g>
      <rect class="cls-2" x="157.7" y="253.6" width="96.7" height="12.6"/>
      <rect class="cls-2" x="157.7" y="285.7" width="96.7" height="13.4"/>
      <rect class="cls-2" x="157.7" y="318.8" width="96.7" height="10.7"/>
      <rect class="cls-2" x="162" y="348.9" width="92.5" height="9.7"/>
      <rect class="cls-2" x="157.7" y="381" width="96.7" height="12.6"/>
      <rect class="cls-2" x="162" y="411.1" width="86.5" height="13.6"/>
      <rect class="cls-2" x="157.7" y="441.1" width="96.7" height="13.8"/>
      <rect class="cls-2" x="157.7" y="474.3" width="96.7" height="11.7"/>
    </g>
    <g>
      <rect class="cls-2" x="19.1" y="335.7" width="96.7" height="7.5"/>
      <rect class="cls-2" x="19.1" y="354.8" width="96.7" height="8"/>
      <rect class="cls-2" x="19.1" y="374.5" width="96.7" height="6.4"/>
      <rect class="cls-2" x="23.3" y="392.5" width="92.5" height="5.8"/>
      <rect class="cls-2" x="19.1" y="411.6" width="96.7" height="7.5"/>
      <rect class="cls-2" x="23.3" y="429.5" width="86.5" height="8.1"/>
      <rect class="cls-2" x="19.1" y="447.4" width="96.7" height="8.2"/>
      <rect class="cls-2" x="19.1" y="467.1" width="96.7" height="6.9"/>
    </g>
    <g>
      <rect class="cls-2" x="398.7" y="388.6" width="96.7" height="6.3"/>
      <rect class="cls-2" x="398.7" y="404.7" width="96.7" height="6.7"/>
      <rect class="cls-2" x="398.7" y="421.3" width="96.7" height="5.4"/>
      <rect class="cls-2" x="403" y="436.4" width="92.5" height="4.9"/>
      <rect class="cls-2" x="398.7" y="452.5" width="96.7" height="6.3"/>
      <rect class="cls-2" x="403" y="467.6" width="86.5" height="6.8"/>
      <rect class="cls-2" x="398.7" y="482.6" width="96.7" height="6.9"/>
      <rect class="cls-2" x="398.7" y="499.3" width="96.7" height="5.8"/>
    </g>
    <g>
      <rect class="cls-2" x="606.9" y="346.5" width="96.7" height="6.3"/>
      <rect class="cls-2" x="606.9" y="362.6" width="96.7" height="6.7"/>
      <rect class="cls-2" x="606.9" y="379.1" width="96.7" height="5.4"/>
      <rect class="cls-2" x="611.1" y="394.2" width="92.5" height="4.9"/>
      <rect class="cls-2" x="606.9" y="410.3" width="96.7" height="6.3"/>
      <rect class="cls-2" x="611.1" y="425.4" width="86.5" height="6.8"/>
      <rect class="cls-2" x="606.9" y="440.5" width="96.7" height="6.9"/>
      <rect class="cls-2" x="606.9" y="457.1" width="96.7" height="5.8"/>
    </g>
    <g>
      <g>
        <path class="cls-4" d="M9,288.6h49.2v-77.3h48.6v-7.2h50.8v46.4l137.4-4.1v13.4l18.1-33,112.1,7.2,10.8,25.8-10.8,78.3h86.8l-9-81.4h9v-25.8l18.1,1v-20.6l72.3,2.1v19.6l18.1-1v63.9l77.7-3.1v-82.5l39.8,3.1v-12.4h57.8l7.2,130.2,63.3-5.5v-82.5s66.9,1,66.9,4.1v22.2h19.9v40.7l126.5-4.1-16.3-95.9,36.2,1v-17.5l45.2-4.1,21.7,95.9,61.5-5.2v-37.1s57.8-5.2,57.8-1v21.6l18.1-29.9h50.6v279.3H9v-224.7Z"/>
        <g>
          <g>
            <rect class="cls-8" x="9" y="319.4" width="116.9" height="214.7"/>
            <path class="cls-8" d="M270.8,532.3h-129.5V241.2c42.4-9.2,84.8-18.4,127.1-27.7.8,106.3,1.6,212.5,2.4,318.8Z"/>
            <rect class="cls-8" x="273.2" y="361.5" width="112.7" height="170.8"/>
            <rect class="cls-10" x="385.9" y="331.9" width="133.8" height="202.1"/>
            <rect class="cls-10" x="399.2" y="305.7" width="102.4" height="20.7"/>
            <rect class="cls-10" x="412.4" y="279.9" width="75.9" height="20.7"/>
            <rect class="cls-3" x="392.5" y="300.6" width="109.1" height="5.2"/>
            <rect class="cls-3" x="382.3" y="326.4" width="137.4" height="5.5"/>
            <rect class="cls-5" x="501.6" y="353" width="106" height="179.3"/>
            <rect class="cls-1" x="583.5" y="329.2" width="143.4" height="202.7"/>
            <rect class="cls-8" x="1241.1" y="323.1" width="98" height="214.7" transform="translate(2580.2 861) rotate(180)"/>
            <path class="cls-8" d="M1119.6,536.1h108.6V244.9c-35.5-9.2-71.1-18.4-106.6-27.7-.7,106.3-1.3,212.5-2,318.8Z"/>
            <rect class="cls-8" x="1023.1" y="365.2" width="94.5" height="170.8" transform="translate(2140.7 901.3) rotate(180)"/>
            <rect class="cls-10" x="911" y="335.7" width="112.1" height="202.1" transform="translate(1934.1 873.5) rotate(180)"/>
            <rect class="cls-5" x="837.2" y="356.7" width="88.9" height="179.3" transform="translate(1763.3 892.8) rotate(180)"/>
            <rect class="cls-1" x="737.2" y="332.9" width="120.2" height="202.7" transform="translate(1594.6 868.6) rotate(180)"/>
          </g>
          <rect class="cls-7" x="9" y="512" width="1345.2" height="255.7"/>
        </g>
      </g>
      <g>
        <rect class="cls-2" x="749" y="351.1" width="96.7" height="7.6"/>
        <rect class="cls-2" x="749" y="370.5" width="96.7" height="8.1"/>
        <rect class="cls-2" x="749" y="390.4" width="96.7" height="6.5"/>
        <rect class="cls-2" x="753.2" y="408.7" width="92.5" height="5.9"/>
        <rect class="cls-2" x="749" y="428" width="96.7" height="7.6"/>
        <rect class="cls-2" x="753.2" y="446.3" width="86.5" height="8.2"/>
        <rect class="cls-2" x="749" y="464.4" width="96.7" height="8.3"/>
        <rect class="cls-2" x="749" y="484.5" width="96.7" height="7.1"/>
      </g>
    </g>
    <rect class="cls-2" x="905.3" y="329.2" width="117.8" height="10.3"/>
    <rect class="cls-2" x="1241.1" y="316.1" width="105.2" height="10.3"/>
    <path class="cls-2" d="M1241.1,250c-43.7-11.7-87.3-23.4-131-35v-8.2c47.8,12.6,95.6,25.2,143.4,37.8-4.1,1.8-8.3,3.7-12.4,5.5Z"/>
    <g>
      <rect class="cls-2" x="1136.7" y="265.6" width="74.3" height="12.6"/>
      <rect class="cls-2" x="1136.7" y="297.7" width="74.3" height="13.4"/>
      <rect class="cls-2" x="1136.7" y="330.8" width="74.3" height="10.7"/>
      <rect class="cls-2" x="1140" y="360.9" width="71" height="9.7"/>
      <rect class="cls-2" x="1136.7" y="393" width="74.3" height="12.6"/>
      <rect class="cls-2" x="1140" y="423.1" width="66.4" height="13.6"/>
      <rect class="cls-2" x="1136.7" y="453.1" width="74.3" height="13.8"/>
      <rect class="cls-2" x="1136.7" y="486.4" width="74.3" height="11.7"/>
    </g>
    <g>
      <rect class="cls-2" x="1167.7" y="421.7" width="165.1" height="4.5" transform="translate(826.3 1674.3) rotate(-90)"/>
      <rect class="cls-2" x="1179.4" y="421.6" width="165.1" height="4.8" transform="translate(837.9 1686) rotate(-90)"/>
      <rect class="cls-2" x="1190.8" y="422.1" width="165.1" height="3.8" transform="translate(849.3 1697.4) rotate(-90)"/>
      <rect class="cls-2" x="1205.1" y="418.6" width="157.9" height="3.5" transform="translate(863.6 1704.4) rotate(-90)"/>
      <rect class="cls-2" x="1213.5" y="421.7" width="165.1" height="4.5" transform="translate(872.1 1720.1) rotate(-90)"/>
      <rect class="cls-2" x="1233.2" y="423" width="147.7" height="4.9" transform="translate(881.6 1732.6) rotate(-90)"/>
      <rect class="cls-2" x="1235.4" y="421.5" width="165.1" height="5" transform="translate(893.9 1741.9) rotate(-90)"/>
      <rect class="cls-2" x="1246.9" y="421.9" width="165.1" height="4.2" transform="translate(905.5 1753.5) rotate(-90)"/>
    </g>
    <g>
      <rect class="cls-2" x="867.1" y="429.1" width="149.7" height="3.3" transform="translate(511.2 1372.7) rotate(-90)"/>
      <rect class="cls-2" x="875.7" y="429" width="149.7" height="3.5" transform="translate(519.8 1381.3) rotate(-90)"/>
      <rect class="cls-2" x="884.1" y="429.3" width="149.7" height="2.8" transform="translate(528.2 1389.7) rotate(-90)"/>
      <rect class="cls-2" x="895.3" y="426.2" width="143.1" height="2.6" transform="translate(539.4 1394.3) rotate(-90)"/>
      <rect class="cls-2" x="900.9" y="429.1" width="149.7" height="3.3" transform="translate(545 1406.5) rotate(-90)"/>
      <rect class="cls-2" x="916.9" y="430.3" width="133.9" height="3.6" transform="translate(551.8 1415.9) rotate(-90)"/>
      <rect class="cls-2" x="917" y="428.9" width="149.7" height="3.6" transform="translate(561.1 1422.5) rotate(-90)"/>
      <rect class="cls-2" x="925.5" y="429.2" width="149.7" height="3.1" transform="translate(569.6 1431.1) rotate(-90)"/>
    </g>
    <g>
      <rect class="cls-2" x="447.2" y="434" width="149.7" height="3.3" transform="translate(86.4 957.8) rotate(-90)"/>
      <rect class="cls-2" x="455.8" y="433.9" width="149.7" height="3.5" transform="translate(95 966.3) rotate(-90)"/>
      <rect class="cls-2" x="464.2" y="434.3" width="149.7" height="2.8" transform="translate(103.4 974.7) rotate(-90)"/>
      <rect class="cls-2" x="475.3" y="431.1" width="143.1" height="2.6" transform="translate(114.5 979.3) rotate(-90)"/>
      <rect class="cls-2" x="480.9" y="434" width="149.7" height="3.3" transform="translate(120.1 991.5) rotate(-90)"/>
      <rect class="cls-2" x="496.9" y="435.2" width="133.9" height="3.6" transform="translate(126.9 1000.9) rotate(-90)"/>
      <rect class="cls-2" x="497" y="433.9" width="149.7" height="3.6" transform="translate(136.2 1007.6) rotate(-90)"/>
      <rect class="cls-2" x="505.5" y="434.1" width="149.7" height="3.1" transform="translate(144.7 1016.1) rotate(-90)"/>
    </g>
    <g>
      <path class="cls-9" d="M1066.2,715.5c-59,.5-118.1.9-177.1,1.4-35.3-50.8-70.7-101.7-106-152.5,29.3-.6,58.6-1.1,87.8-1.7,65.1,50.9,130.2,101.9,195.4,152.8Z"/>
      <path class="cls-9" d="M1349.3,712.6c-59,.5-118.1.9-177.1,1.4-78.7-49.4-157.5-98.8-236.2-148.2,28.1-.8,56.2-1.5,84.3-2.3,109.7,49.7,219.4,99.4,329.1,149.2Z"/>
      <path class="cls-9" d="M308.9,715.5c57.6.5,115.3.9,172.9,1.4,34.5-50.8,69-101.7,103.5-152.5-28.6-.6-57.1-1.1-85.7-1.7-63.6,50.9-127.1,101.9-190.7,152.8Z"/>
      <polygon class="cls-9" points="639.6 563.4 719.1 562.7 783 716.9 599.8 714 639.6 563.4"/>
      <polygon class="cls-9" points="339.5 563.4 429.9 563.4 176.8 716.9 13.8 714 339.5 563.4"/>
    </g>
  </g>
  <rect class="cls-9" x="421.9" y="326.4" width="25.1" height="15.8"/>
</svg>