<?xml version="1.0" encoding="UTF-8"?>
<svg id="Capa_1" data-name="Capa 1" xmlns="http://www.w3.org/2000/svg" version="1.1" viewBox="0 0 1366 768">
  <defs>
    <style>
      .cls-1 {
        fill: #8ec39d;
      }

      .cls-1, .cls-2, .cls-3, .cls-4, .cls-5, .cls-6 {
        stroke-miterlimit: 10;
      }

      .cls-1, .cls-3, .cls-4, .cls-5, .cls-6 {
        stroke: #60ba77;
      }

      .cls-2 {
        stroke: #7fa523;
      }

      .cls-2, .cls-4 {
        fill: none;
      }

      .cls-3 {
        fill: #8ecea1;
      }

      .cls-7 {
        fill: #c8d68a;
      }

      .cls-7, .cls-8, .cls-9, .cls-10, .cls-11, .cls-12, .cls-13 {
        stroke-width: 0px;
      }

      .cls-8 {
        fill: #b0d864;
      }

      .cls-9 {
        fill: #93b746;
      }

      .cls-10 {
        fill: #a5d193;
      }

      .cls-5 {
        fill: #96ce91;
      }

      .cls-11 {
        fill: #f7e8d5;
      }

      .cls-12 {
        fill: #9bea9f;
      }

      .cls-14 {
        opacity: .6;
      }

      .cls-13 {
        fill: #5bcb64;
      }

      .cls-6 {
        fill: #94c18e;
      }
    </style>
  </defs>
  <g class="cls-14">
    <g>
      <g>
        <path class="cls-11" d="M0,355.5v412.5h352.1c46.8-4.6,85.7-32.3,95.9-68,14.3-50.4-27.9-119.4-105-131,35.1-51.6,37.4-118.3,6-170-42.7-70.2-124.2-73.8-130-74-10.1-18.6-32.5-53.9-75-81C82.4,204.7,19.8,209,0,211.1v144.4Z"/>
        <path class="cls-11" d="M308,254.1c8.4-14.6,34.2-22.4,52.4-12.6,14.7,7.9,18.8,24.2,20.6,31.5,5.1,20.4,3.5,56.8-23.6,71.6-30.1,16.4-70.1-2.6-72.9-18.9-2-11.4,15.2-16.6,20.7-41.5,3.5-16.1-2.4-20.9,2.9-30.1Z"/>
        <circle class="cls-11" cx="417.5" cy="333.5" r="21.5"/>
        <ellipse class="cls-11" cx="439.5" cy="260" rx="31.5" ry="26"/>
        <circle class="cls-11" cx="522.5" cy="685.5" r="44.5"/>
      </g>
      <g>
        <path class="cls-13" d="M43.5,606.3c-2.5-1-4-3.4-3.3-5.3,1.8-44.6,9.3-101.3,31.2-163,22.4-62.9,53-111.5,80-146.7,0-.2.6-1.5,2.2-1.9,1.1-.3,2.3-.3,3.6.2,2.5,1,4,3.4,3.3,5.3-27.3,35.5-58.2,84.7-80.6,148.4-21.5,60.9-28.8,117-30.6,161.2-1.2,1.8-3.7,2.5-5.8,1.7Z"/>
        <g>
          <path class="cls-7" d="M191.8,209.6c20.2-7.3,44.4,11.5,45.8,34.3,1.3,21.1-17.4,39.3-33.9,43.1-11.9,2.8-30.1,0-36.9-15.9-8.5-20,4.1-54,24.9-61.5Z"/>
          <path class="cls-7" d="M172.9,226.2c7.9,5,15.9,9.9,23.8,14.9-.8,14.4-1.5,28.8-2.3,43.2-20.5,11.7-41.1,23.3-61.6,35,13.4-31,26.7-62.1,40.1-93.1Z"/>
        </g>
        <g>
          <path class="cls-7" d="M74.4,276.1c12.1-22.2,40.1-27.3,52.3-10.8,11.4,15.3,5.8,44.6-5,61-7.8,11.8-23.4,24.5-36.4,17.8-16.4-8.5-23.4-45.1-10.9-68Z"/>
          <path class="cls-7" d="M68,304.3c8.6-2.6,17.2-5.2,25.8-7.9,6.5,11.8,13,23.5,19.5,35.3-10.2,25.8-20.3,51.6-30.5,77.3-4.9-34.9-9.8-69.8-14.7-104.8Z"/>
        </g>
        <g>
          <path class="cls-7" d="M2.3,403.8c3.8-26.6,27.5-46.4,44-38,15.3,7.8,19.8,37.4,15.2,58.1-3.3,14.9-13.3,34.8-27.3,35.7-17.7,1.1-35.9-28.4-32-55.9Z"/>
          <path class="cls-7" d="M5.7,432.9c7-7,13.9-14,20.9-21,9.7,7.2,19.4,14.4,29.1,21.6-.9,28.9-1.8,57.8-2.6,86.7-15.8-29.1-31.6-58.2-47.4-87.3Z"/>
        </g>
        <g>
          <path class="cls-7" d="M181.7,348.4c20.4,6.5,34.2,38.3,26.6,59-7,19.2-30.2,23-46,15.9-11.4-5.1-26.2-19.3-26-37.3.3-22.8,24.3-44.3,45.3-37.5Z"/>
          <path class="cls-7" d="M158.9,350.8c5,9.4,10,18.8,14.9,28.1-6.2,12-12.4,24-18.6,36.1-22.3-3-44.7-5.9-67-8.9,23.5-18.4,47.1-36.9,70.6-55.3Z"/>
        </g>
        <g>
          <path class="cls-7" d="M156.9,424.2c20.4,6.5,34.2,38.3,26.6,59-7,19.2-30.2,23-46,15.9-11.4-5.1-26.2-19.3-26-37.3.3-22.8,24.3-44.3,45.3-37.5Z"/>
          <path class="cls-7" d="M134.2,426.6c5,9.4,10,18.8,14.9,28.1-6.2,12-12.4,24-18.6,36.1-22.3-3-44.7-5.9-67-8.9,23.5-18.4,47.1-36.9,70.6-55.3Z"/>
        </g>
      </g>
      <g>
        <g>
          <path class="cls-8" d="M114.6,597.7c-4.4,98.4-45.1,182.3-57.9,171.8-6.9-5.7-3.3-37.2-.4-163,3.9-170.1-.5-208.8,7.4-213.9,14-9,55.8,94.6,50.8,205.1Z"/>
          <path class="cls-9" d="M4.4,592.4c.7,98.7,38.2,186.4,51.3,177.2,7.1-5,4.7-36.8,6.5-162.7,2.4-170.2,8.3-208.3.6-214.2-13.6-10.4-59.2,88.9-58.4,199.7Z"/>
        </g>
        <polyline class="cls-2" points="100 463.5 63.1 552.8 26.2 453.1 63.6 503.6 83.9 416.3"/>
        <line class="cls-2" x1="62.3" y1="598.6" x2="10.7" y2="516"/>
        <line class="cls-2" x1="61.6" y1="663.3" x2="115" y2="581.2"/>
        <line class="cls-2" x1="63.6" y1="586.5" x2="109.8" y2="525.2"/>
        <line class="cls-2" x1="56.9" y1="693.1" x2="5.7" y2="622.2"/>
      </g>
      <g>
        <g>
          <path class="cls-6" d="M317.1,666.1c-46.7,78-168.8,117.2-193.5,99.1-13.4-9.8,6.5-33.1,60.1-134.8,72.4-137.5,77-172.7,96.5-171.1,34.6,2.9,89.2,119.3,36.8,206.8Z"/>
          <path class="cls-5" d="M72.9,580.4c-35.2,82,15.6,182.1,48.4,184.2,17.8,1.1,24.2-26.9,75.2-129.5,69-138.7,96.4-165.9,81.4-176.4-26.6-18.6-165.5,29.7-205.1,121.7Z"/>
        </g>
        <line class="cls-4" x1="143.9" y1="735" x2="85.3" y2="557.4"/>
        <line class="cls-4" x1="184" y1="660.5" x2="136.8" y2="504.4"/>
        <line class="cls-4" x1="196.5" y1="635" x2="160.4" y2="488.8"/>
        <line class="cls-4" x1="212" y1="604.4" x2="327.2" y2="518.2"/>
        <line class="cls-4" x1="187.3" y1="653.8" x2="338.5" y2="574.5"/>
        <line class="cls-4" x1="157.3" y1="716.5" x2="323.7" y2="653.8"/>
      </g>
      <g>
        <path class="cls-8" d="M344.1,729c-38.3,37.1-95,47.1-99.7,35.4-2.5-6.3,11.2-16.9,58.3-65.9,63.7-66.2,74.7-84.4,81.7-81.9,12.4,4.5,2.6,70.8-40.3,112.4Z"/>
        <path class="cls-9" d="M273.6,662.5c-35,40.2-41.9,97.5-30,101.4,6.5,2.2,16.3-12.1,62.7-61.8,62.7-67.2,80.3-79.1,77.3-86-5.2-12.2-70.8,1.2-110,46.4Z"/>
      </g>
      <g>
        <path class="cls-10" d="M171.8,524.4c-13.1,13.1-29.4,19.7-36.4,14.7-7-5-2-19.6,11.1-32.7,13.1-13.1,29.4-19.7,36.4-14.7,7,5,2,19.6-11.1,32.7Z"/>
        <path class="cls-10" d="M109.3,530.5c7.8,15.8,7.3,31.1-1.2,34s-21.6-7.5-29.4-23.3c-7.8-15.8-7.3-31.1,1.2-34s21.6,7.5,29.4,23.3Z"/>
        <path class="cls-10" d="M81.1,559.5c7.8,15.8,7.3,31.1-1.2,34-8.4,3-21.6-7.5-29.4-23.3-7.8-15.8-7.3-31.1,1.2-34s21.6,7.5,29.4,23.3Z"/>
        <path class="cls-10" d="M45.5,603c7.8,15.8,7.3,31.1-1.2,34s-21.6-7.5-29.4-23.3c-7.8-15.8-7.3-31.1,1.2-34s21.6,7.5,29.4,23.3Z"/>
        <path class="cls-10" d="M23.4,645.4c-6.3-12.9-16.2-22.2-24.2-23.6,1.1,15.3,3.3,30.6.9,45.8,7.3,9,16,14,22.1,11.8,8.4-3,9-18.2,1.2-34Z"/>
        <path class="cls-10" d="M150.7,554.2c-20.1-2.8-37.5,1.1-39,8.8s13.6,16,33.6,18.8c20.1,2.8,37.5-1.1,39-8.8s-13.6-16-33.6-18.8Z"/>
        <path class="cls-10" d="M120,583.2c-20.1-2.8-37.5,1.1-39,8.8s13.6,16,33.6,18.8c20.1,2.8,37.5-1.1,39-8.8s-13.6-16-33.6-18.8Z"/>
        <path class="cls-10" d="M91.8,626.6c-20.1-2.8-37.5,1.1-39,8.8s13.6,16,33.6,18.8c20.1,2.8,37.5-1.1,39-8.8s-13.6-16-33.6-18.8Z"/>
        <path class="cls-10" d="M68.5,667c-20.1-2.8-37.5,1.1-39,8.8s13.6,16,33.6,18.8c20.1,2.8,37.5-1.1,39-8.8s-13.6-16-33.6-18.8Z"/>
        <path class="cls-10" d="M52.6,703.3c-20.1-2.8-37.5,1.1-39,8.8s13.6,16,33.6,18.8c20.1,2.8,37.5-1.1,39-8.8,1.5-7.6-13.6-16-33.6-18.8Z"/>
        <path class="cls-10" d="M45.2,739.5c-20.1-2.8-37.5,1.1-39,8.8-1.5,7.6,13.6,16,33.6,18.8,20.1,2.8,37.5-1.1,39-8.8s-13.6-16-33.6-18.8Z"/>
        <path class="cls-13" d="M3.5,767.8c-2.4-1-3.7-3-2.9-4.4,5.2-34.3,16.9-77.4,43.5-122.9,27.1-46.4,61.3-81,90.8-105.5.1-.2.7-1.1,2.4-1.3,1.1-.1,2.3,0,3.6.5,2.4,1,3.7,3,2.9,4.4-29.8,24.7-64.4,59.8-91.6,106.8-26,44.9-37.6,87.5-42.8,121.6-1.4,1.3-3.9,1.6-5.9.7Z"/>
      </g>
      <g>
        <path class="cls-8" d="M296.5,680.2c-9.6,52.4-49.9,93.6-60.5,86.7-5.7-3.7-.7-20.3,9.1-87.5,13.3-90.9,11.7-112.1,18.9-114.1,12.8-3.5,43.3,56,32.5,114.9Z"/>
        <path class="cls-9" d="M200.5,667c-5.1,53,22.6,103.6,34.6,99.9,6.5-2,6.2-19.3,15.1-86.7,12-91.1,19.3-111,12.9-114.9-11.3-6.9-56.9,42.1-62.6,101.7Z"/>
      </g>
      <g>
        <path class="cls-13" d="M321.5,765.9c-2.1-1.6-2.9-3.8-1.7-5,13.4-32,35.3-70.9,72.1-108.6,37.6-38.4,79.1-63.6,113.8-80.2.1-.1.9-.9,2.6-.7,1.1.1,2.3.6,3.3,1.4,2.1,1.6,2.9,3.8,1.7,5-35,16.7-77,42.3-114.8,81.3-36.1,37.3-57.8,75.8-71.1,107.5-1.6.9-4.2.6-5.9-.7Z"/>
        <g>
          <path class="cls-7" d="M563.5,521.6c21.9,1.5,40.5,24.4,35.7,42.3-4.5,16.6-27.9,23.8-45.1,21-12.4-2.1-29.6-10.7-31.9-25.1-2.9-18.2,18.8-39.8,41.3-38.2Z"/>
          <path class="cls-7" d="M540.5,527.6c6.4,6.6,12.9,13.2,19.3,19.8-4.7,10.7-9.4,21.4-14,32.1-23.4,1.7-46.8,3.3-70.2,5,21.6-19,43.3-38,64.9-56.9Z"/>
        </g>
        <g>
          <path class="cls-7" d="M430,530.9c17.9-12.7,46.9-6.8,54.4,10.2,7,15.7-6.5,36.1-21.6,44.8-10.9,6.3-29.7,10.5-40.6.7-13.8-12.3-10.6-42.6,7.9-55.7Z"/>
          <path class="cls-7" d="M416,550.2c9.2,1,18.3,2.1,27.5,3.1,3.2,11.3,6.3,22.5,9.5,33.8-17,16.1-34.1,32.2-51.1,48.3,4.7-28.4,9.5-56.8,14.2-85.1Z"/>
        </g>
        <g>
          <path class="cls-7" d="M335.9,604c10.5-18.2,38.1-24.6,51.4-12.9,12.4,10.9,8.8,34-.9,47.6-7,9.8-21.6,21-35.1,16.9-16.9-5.2-26.3-32.8-15.5-51.6Z"/>
          <path class="cls-7" d="M331.4,626.4l25.1-8.3c7.3,8.5,14.5,17.1,21.8,25.6-8.4,20.8-16.8,41.6-25.2,62.5-7.2-26.6-14.5-53.2-21.7-79.8Z"/>
        </g>
        <g>
          <path class="cls-7" d="M515.7,623.9c18.2,12.2,23.1,41.3,10,54.4-12.1,12.2-36,6.9-49.6-4.1-9.8-7.9-20.4-23.9-15.3-37.6,6.5-17.3,36-25.2,54.8-12.7Z"/>
          <path class="cls-7" d="M492.6,617.8c2.3,8.9,4.7,17.8,7,26.8-9.4,7-18.7,14-28.1,21-21.1-10.1-42.3-20.3-63.4-30.4,28.2-5.8,56.4-11.6,84.6-17.3Z"/>
        </g>
        <g>
          <path class="cls-7" d="M470.6,673c18.2,12.2,23.1,41.3,10,54.4-12.1,12.2-36,6.9-49.6-4.1-9.8-7.9-20.4-23.9-15.3-37.6,6.5-17.3,36-25.2,54.8-12.7Z"/>
          <path class="cls-7" d="M447.6,666.9c2.3,8.9,4.7,17.8,7,26.8-9.4,7-18.7,14-28.1,21-21.1-10.1-42.3-20.3-63.4-30.4,28.2-5.8,56.4-11.6,84.6-17.3Z"/>
        </g>
      </g>
      <path class="cls-7" d="M134,202c7.9-12.6,11.3-23.6,13-31,5.1-22.1-.4-34.3,6-56,3.2-10.9,7.9-19,11.1-24,21.8-20.5,48.5-26.2,60.9-17,14.4,10.7,16.6,47.1-11,78-26.7,16.7-53.3,33.3-80,50Z"/>
      <path class="cls-7" d="M172,202.2c7.3-2.5,12.1-5.8,15.1-8.3,8.8-7.3,9.9-14,19.3-20.7,4.7-3.3,9.2-5.1,12.1-6,15.9-1.1,29.8,5.4,32.7,13.2,3.4,9.1-6.4,24.6-28.1,28-17-2.1-34.1-4.1-51.1-6.2Z"/>
    </g>
    <g>
      <g>
        <path class="cls-11" d="M1365,415.5V3h-352.1c-46.8,4.6-85.7,32.3-95.9,68-14.3,50.4,27.9,119.4,105,131-35.1,51.6-37.4,118.3-6,170,42.7,70.2,124.2,73.8,130,74,10.1,18.6,32.5,53.9,75,81,61.6,39.3,124.2,35,144,32.9v-144.4Z"/>
        <path class="cls-11" d="M1057,516.9c-8.4,14.6-34.2,22.4-52.4,12.6-14.7-7.9-18.8-24.2-20.6-31.5-5.1-20.4-3.5-56.8,23.6-71.6,30.1-16.4,70.1,2.6,72.9,18.9,2,11.4-15.2,16.6-20.7,41.5-3.5,16.1,2.4,20.9-2.9,30.1Z"/>
        <circle class="cls-11" cx="947.5" cy="437.5" r="21.5"/>
        <ellipse class="cls-11" cx="925.5" cy="511" rx="31.5" ry="26"/>
        <circle class="cls-11" cx="842.5" cy="85.5" r="44.5"/>
      </g>
      <g>
        <path class="cls-13" d="M1321.5,164.7c2.5,1,4,3.4,3.3,5.3-1.8,44.6-9.3,101.3-31.2,163-22.4,62.9-53,111.5-80,146.7,0,.2-.6,1.5-2.2,1.9-1.1.3-2.3.3-3.6-.2-2.5-1-4-3.4-3.3-5.3,27.3-35.5,58.2-84.7,80.6-148.4,21.5-60.9,28.8-117,30.6-161.2,1.2-1.8,3.7-2.5,5.8-1.7Z"/>
        <g>
          <path class="cls-7" d="M1173.2,561.4c-20.2,7.3-44.4-11.5-45.8-34.3-1.3-21.1,17.4-39.3,33.9-43.1,11.9-2.8,30.1,0,36.9,15.9,8.5,20-4.1,54-24.9,61.5Z"/>
          <path class="cls-7" d="M1192.1,544.8c-7.9-5-15.9-9.9-23.8-14.9.8-14.4,1.5-28.8,2.3-43.2,20.5-11.7,41.1-23.3,61.6-35-13.4,31-26.7,62.1-40.1,93.1Z"/>
        </g>
        <g>
          <path class="cls-7" d="M1290.6,494.9c-12.1,22.2-40.1,27.3-52.3,10.8-11.4-15.3-5.8-44.6,5-61,7.8-11.8,23.4-24.5,36.4-17.8,16.4,8.5,23.4,45.1,10.9,68Z"/>
          <path class="cls-7" d="M1297,466.7c-8.6,2.6-17.2,5.2-25.8,7.9-6.5-11.8-13-23.5-19.5-35.3,10.2-25.8,20.3-51.6,30.5-77.3,4.9,34.9,9.8,69.8,14.7,104.8Z"/>
        </g>
        <g>
          <path class="cls-7" d="M1362.7,367.2c-3.8,26.6-27.5,46.4-44,38-15.3-7.8-19.8-37.4-15.2-58.1,3.3-14.9,13.3-34.8,27.3-35.7,17.7-1.1,35.9,28.4,32,55.9Z"/>
          <path class="cls-7" d="M1359.3,338.1c-7,7-13.9,14-20.9,21-9.7-7.2-19.4-14.4-29.1-21.6.9-28.9,1.8-57.8,2.6-86.7,15.8,29.1,31.6,58.2,47.4,87.3Z"/>
        </g>
        <g>
          <path class="cls-7" d="M1183.3,422.6c-20.4-6.5-34.2-38.3-26.6-59,7-19.2,30.2-23,46-15.9,11.4,5.1,26.2,19.3,26,37.3-.3,22.8-24.3,44.3-45.3,37.5Z"/>
          <path class="cls-7" d="M1206.1,420.2c-5-9.4-10-18.8-14.9-28.1,6.2-12,12.4-24,18.6-36.1,22.3,3,44.7,5.9,67,8.9-23.5,18.4-47.1,36.9-70.6,55.3Z"/>
        </g>
        <g>
          <path class="cls-7" d="M1208.1,346.8c-20.4-6.5-34.2-38.3-26.6-59,7-19.2,30.2-23,46-15.9,11.4,5.1,26.2,19.3,26,37.3-.3,22.8-24.3,44.3-45.3,37.5Z"/>
          <path class="cls-7" d="M1230.8,344.4c-5-9.4-10-18.8-14.9-28.1,6.2-12,12.4-24,18.6-36.1,22.3,3,44.7,5.9,67,8.9-23.5,18.4-47.1,36.9-70.6,55.3Z"/>
        </g>
      </g>
      <g>
        <g>
          <path class="cls-8" d="M1250.4,173.3c4.4-98.4,45.1-182.3,57.9-171.8,6.9,5.7,3.3,37.2.4,163-3.9,170.1.5,208.8-7.4,213.9-14,9-55.8-94.6-50.8-205.1Z"/>
          <path class="cls-9" d="M1360.6,178.6c-.7-98.7-38.2-186.4-51.3-177.2-7.1,5-4.7,36.8-6.5,162.7-2.4,170.2-8.3,208.3-.6,214.2,13.6,10.4,59.2-88.9,58.4-199.7Z"/>
        </g>
        <polyline class="cls-2" points="1265 307.5 1301.9 218.2 1338.8 317.9 1301.4 267.4 1281.1 354.7"/>
        <line class="cls-2" x1="1302.7" y1="172.4" x2="1354.3" y2="255"/>
        <line class="cls-2" x1="1303.4" y1="107.7" x2="1250" y2="189.8"/>
        <line class="cls-2" x1="1301.4" y1="184.5" x2="1255.2" y2="245.8"/>
        <line class="cls-2" x1="1308.1" y1="77.9" x2="1359.3" y2="148.8"/>
      </g>
      <g>
        <g>
          <path class="cls-3" d="M1047.9,104.9c46.7-78,168.8-117.2,193.5-99.1,13.4,9.8-6.5,33.1-60.1,134.8-72.4,137.5-77,172.7-96.5,171.1-34.6-2.9-89.2-119.3-36.8-206.8Z"/>
          <path class="cls-1" d="M1292.1,190.6c35.2-82-15.6-182.1-48.4-184.2-17.8-1.1-24.2,26.9-75.2,129.5-69,138.7-96.4,165.9-81.4,176.4,26.6,18.6,165.5-29.7,205.1-121.7Z"/>
        </g>
        <line class="cls-4" x1="1221.1" y1="36" x2="1279.7" y2="213.6"/>
        <line class="cls-4" x1="1181" y1="110.5" x2="1228.2" y2="266.6"/>
        <line class="cls-4" x1="1168.5" y1="136" x2="1204.6" y2="282.2"/>
        <line class="cls-4" x1="1153" y1="166.6" x2="1037.8" y2="252.8"/>
        <line class="cls-4" x1="1177.7" y1="117.2" x2="1026.5" y2="196.5"/>
        <line class="cls-4" x1="1207.7" y1="54.5" x2="1041.3" y2="117.2"/>
      </g>
      <g>
        <path class="cls-8" d="M1020.9,42c38.3-37.1,95-47.1,99.7-35.4,2.5,6.3-11.2,16.9-58.3,65.9-63.7,66.2-74.7,84.4-81.7,81.9-12.4-4.5-2.6-70.8,40.3-112.4Z"/>
        <path class="cls-9" d="M1091.4,108.5c35-40.2,41.9-97.5,30-101.4-6.5-2.2-16.3,12.1-62.7,61.8-62.7,67.2-80.3,79.1-77.3,86,5.2,12.2,70.8-1.2,110-46.4Z"/>
      </g>
      <g>
        <path class="cls-12" d="M1193.2,246.6c13.1-13.1,29.4-19.7,36.4-14.7,7,5,2,19.6-11.1,32.7-13.1,13.1-29.4,19.7-36.4,14.7-7-5-2-19.6,11.1-32.7Z"/>
        <path class="cls-12" d="M1255.7,240.5c-7.8-15.8-7.3-31.1,1.2-34s21.6,7.5,29.4,23.3c7.8,15.8,7.3,31.1-1.2,34-8.4,3-21.6-7.5-29.4-23.3Z"/>
        <path class="cls-12" d="M1283.9,211.5c-7.8-15.8-7.3-31.1,1.2-34,8.4-3,21.6,7.5,29.4,23.3,7.8,15.8,7.3,31.1-1.2,34s-21.6-7.5-29.4-23.3Z"/>
        <path class="cls-12" d="M1319.5,168c-7.8-15.8-7.3-31.1,1.2-34s21.6,7.5,29.4,23.3c7.8,15.8,7.3,31.1-1.2,34s-21.6-7.5-29.4-23.3Z"/>
        <path class="cls-12" d="M1341.6,125.6c6.3,12.9,16.2,22.2,24.2,23.6-1.1-15.3-3.3-30.6-.9-45.8-7.3-9-16-14-22.1-11.8-8.4,3-9,18.2-1.2,34Z"/>
        <path class="cls-12" d="M1214.3,216.8c20.1,2.8,37.5-1.1,39-8.8s-13.6-16-33.6-18.8c-20.1-2.8-37.5,1.1-39,8.8s13.6,16,33.6,18.8Z"/>
        <path class="cls-12" d="M1245,187.8c20.1,2.8,37.5-1.1,39-8.8s-13.6-16-33.6-18.8c-20.1-2.8-37.5,1.1-39,8.8s13.6,16,33.6,18.8Z"/>
        <path class="cls-12" d="M1273.2,144.4c20.1,2.8,37.5-1.1,39-8.8,1.5-7.6-13.6-16-33.6-18.8-20.1-2.8-37.5,1.1-39,8.8-1.5,7.6,13.6,16,33.6,18.8Z"/>
        <path class="cls-12" d="M1296.5,104c20.1,2.8,37.5-1.1,39-8.8,1.5-7.6-13.6-16-33.6-18.8-20.1-2.8-37.5,1.1-39,8.8s13.6,16,33.6,18.8Z"/>
        <path class="cls-12" d="M1312.4,67.7c20.1,2.8,37.5-1.1,39-8.8s-13.6-16-33.6-18.8c-20.1-2.8-37.5,1.1-39,8.8-1.5,7.6,13.6,16,33.6,18.8Z"/>
        <path class="cls-12" d="M1319.8,31.5c20.1,2.8,37.5-1.1,39-8.8s-13.6-16-33.6-18.8c-20.1-2.8-37.5,1.1-39,8.8s13.6,16,33.6,18.8Z"/>
        <path class="cls-13" d="M1361.5,3.2c2.4,1,3.7,3,2.9,4.4-5.2,34.3-16.9,77.4-43.5,122.9-27.1,46.4-61.3,81-90.8,105.5-.1.2-.7,1.1-2.4,1.3-1.1.1-2.3,0-3.6-.5-2.4-1-3.7-3-2.9-4.4,29.8-24.7,64.4-59.8,91.6-106.8,26-44.9,37.6-87.5,42.8-121.6,1.4-1.3,3.9-1.6,5.9-.7Z"/>
      </g>
      <g>
        <path class="cls-8" d="M1068.5,90.8c9.6-52.4,49.9-93.6,60.5-86.7,5.7,3.7.7,20.3-9.1,87.5-13.3,90.9-11.7,112.1-18.9,114.1-12.8,3.5-43.3-56-32.5-114.9Z"/>
        <path class="cls-9" d="M1164.5,104c5.1-53-22.6-103.6-34.6-99.9-6.5,2-6.2,19.3-15.1,86.7-12,91.1-19.3,111-12.9,114.9,11.3,6.9,56.9-42.1,62.6-101.7Z"/>
      </g>
      <g>
        <path class="cls-13" d="M1043.5,5.1c2.1,1.6,2.9,3.8,1.7,5-13.4,32-35.3,70.9-72.1,108.6-37.6,38.4-79.1,63.6-113.8,80.2-.1.1-.9.9-2.6.7-1.1-.1-2.3-.6-3.3-1.4-2.1-1.6-2.9-3.8-1.7-5,35-16.7,77-42.3,114.8-81.3,36.1-37.3,57.8-75.8,71.1-107.5,1.6-.9,4.2-.6,5.9.7Z"/>
        <g>
          <path class="cls-7" d="M795,244.9c-22.7-1.6-42-25.3-37-43.9,4.7-17.2,28.9-24.7,46.7-21.7,12.9,2.1,30.7,11.1,33.1,26.1,3,18.9-19.4,41.2-42.9,39.6Z"/>
          <path class="cls-7" d="M818.9,238.7c-6.7-6.8-13.3-13.7-20-20.5,4.9-11.1,9.7-22.2,14.6-33.3,24.2-1.7,48.5-3.5,72.7-5.2-22.4,19.7-44.8,39.3-67.2,59Z"/>
        </g>
        <g>
          <path class="cls-7" d="M933.4,235.2c-18.6,13.1-48.6,7-56.4-10.6-7.2-16.3,6.7-37.4,22.4-46.4,11.3-6.5,30.8-10.9,42.1-.8,14.3,12.7,11,44.2-8.1,57.7Z"/>
          <path class="cls-7" d="M947.9,215.2c-9.5-1.1-19-2.1-28.5-3.2-3.3-11.7-6.5-23.3-9.8-35,17.7-16.7,35.3-33.4,53-50-4.9,29.4-9.8,58.8-14.7,88.2Z"/>
        </g>
        <g>
          <path class="cls-7" d="M1029.1,167c-10.5,18.2-38.1,24.6-51.4,12.9-12.4-10.9-8.8-34,.9-47.6,7-9.8,21.6-21,35.1-16.9,16.9,5.2,26.3,32.8,15.5,51.6Z"/>
          <path class="cls-7" d="M1033.6,144.6l-25.1,8.3c-7.3-8.5-14.5-17.1-21.8-25.6,8.4-20.8,16.8-41.6,25.2-62.5,7.2,26.6,14.5,53.2,21.7,79.8Z"/>
        </g>
        <g>
          <path class="cls-7" d="M845.8,146.9c-17.5-11.6-22.2-39.6-9.6-52.1,11.6-11.7,34.5-6.6,47.5,3.9,9.4,7.6,19.6,22.9,14.6,36.1-6.2,16.6-34.5,24.2-52.5,12.1Z"/>
          <path class="cls-7" d="M867.8,152.8c-2.2-8.5-4.5-17.1-6.7-25.6,9-6.7,18-13.4,26.9-20.1,20.2,9.7,40.5,19.4,60.7,29.1-27,5.5-54,11.1-81,16.6Z"/>
        </g>
        <g>
          <path class="cls-7" d="M888.9,99.9c-17.5-11.6-22.2-39.6-9.6-52.1,11.6-11.7,34.5-6.6,47.5,3.9,9.4,7.6,19.6,22.9,14.6,36.1-6.2,16.6-34.5,24.2-52.5,12.1Z"/>
          <path class="cls-7" d="M911,105.8c-2.2-8.5-4.5-17.1-6.7-25.6,9-6.7,18-13.4,26.9-20.1,20.2,9.7,40.5,19.4,60.7,29.1-27,5.5-54,11.1-81,16.6Z"/>
        </g>
      </g>
      <path class="cls-7" d="M1231,569c-7.9,12.6-11.3,23.6-13,31-5.1,22.1.4,34.3-6,56-3.2,10.9-7.9,19-11.1,24-21.8,20.5-48.5,26.2-60.9,17-14.4-10.7-16.6-47.1,11-78,26.7-16.7,53.3-33.3,80-50Z"/>
      <path class="cls-7" d="M1193,568.8c-7.3,2.5-12.1,5.8-15.1,8.3-8.8,7.3-9.9,14-19.3,20.7-4.7,3.3-9.2,5.1-12.1,6-15.9,1.1-29.8-5.4-32.7-13.2-3.4-9.1,6.4-24.6,28.1-28,17,2.1,34.1,4.1,51.1,6.2Z"/>
    </g>
  </g>
</svg>