<?xml version="1.0" encoding="UTF-8"?>
<svg id="Capa_1" data-name="Capa 1" xmlns="http://www.w3.org/2000/svg" version="1.1" viewBox="0 0 1920 1080">
  <defs>
    <style>
      .cls-1 {
        fill: #61b12f;
      }

      .cls-1, .cls-2 {
        stroke-width: 0px;
      }

      .cls-3 {
        stroke: #221e20;
        stroke-miterlimit: 10;
        stroke-width: .8px;
      }

      .cls-3, .cls-2 {
        fill: #2d4999;
      }

      .cls-4 {
        fill: #12110b;
        font-family: BaskOldFace, 'Baskerville Old Face';
        font-size: 153.5px;
      }
    </style>
  </defs>
  <text class="cls-4" transform="translate(723 818.4) scale(1 1)"><tspan x="0" y="0">Fansia</tspan></text>
  <g>
    <path class="cls-3" d="M1307.2,626c15.4-9,64.2-39.9,82.4-99.8,21.8-71.5-8.8-155-77.8-207.5-45.4-21.9-97.9-51.6-152.9-91.5-64.5-46.9-114.9-95.3-152.9-137.2,0,0-232.2,441.2,170.1,603,0,0,92-184.8-69-332.7,0,0,186.2,60.1,200,265.7Z"/>
    <path class="cls-1" d="M1326.2,674.9c12.3-18.6,43.3-60,100.1-86,68.7-31.4,131.3-20.2,152-15.6,12.5.9,28.4.9,46.5-2.3,29-5.1,51.2-16.1,65.2-24.6,0,0-189.2,324.9-393.6,208.8,0,0,197.6-49.7,205.1-95.3,0,0-76.9-15.7-175.2,15Z"/>
    <path class="cls-3" d="M1313,638.1c.6,50.9-17.2,87.5-34.5,124-7.2,15.2-31.5,64-81.2,112.4-23.6,23-46,39.2-62.8,50.1-30.5,18.5-74.2,38.5-129.1,49.4-78,15.5-182.8,12.6-290.1-60.9,0,0-154.8-105.5-163.2-294.2,0,0-23-311.9,293.5-397.4,0,0,29.1-3.9,52.9,10.8-6.4.2-13.3.6-20.7,1.5-10.5,1.3-20,3.2-28.4,5.4,0,0-161.7,38.5-236,183.3-23.8,44.6-33.8,84.7-38.4,111.5-5.7,32.9-13.9,107.1,17.7,191.2,13.9,36.9,31.4,64.9,44.4,83.2,15.4,21.1,39.4,49.4,74.3,76.2,12.6,9.7,36.7,26.9,69.7,42.4,56.1,26.2,109.1,33.9,147.9,35.4,24.7-.8,54-4.8,86.5-12.4,48.4-11.3,107-32.6,148-73.1,32.9-27.4,55-55.1,69-75.5,49.3-71.8,58.7-140.4,60.5-155.6,2.7-22.6,2.3-44.6,2.3-46.2-.5-23.6-3.4-43.6-6.5-59.1,9.8,19.7,23.6,53.9,24.1,97.6Z"/>
    <polygon class="cls-2" points="1309.9 625.6 1325.2 610.9 1292.3 540.1 1309.9 625.6"/>
  </g>
</svg>