<?xml version="1.0" encoding="UTF-8"?>
<svg id="Capa_1" data-name="Capa 1" xmlns="http://www.w3.org/2000/svg" version="1.1" xmlns:xlink="http://www.w3.org/1999/xlink" viewBox="0 0 768 1366">
  <defs>
    <style>
      .cls-1 {
        fill: #5c5747;
      }

      .cls-1, .cls-2, .cls-3, .cls-4, .cls-5, .cls-6, .cls-7, .cls-8, .cls-9, .cls-10, .cls-11, .cls-12, .cls-13, .cls-14, .cls-15, .cls-16 {
        stroke-width: 0px;
      }

      .cls-2, .cls-4, .cls-5 {
        fill: #e7ff00;
      }

      .cls-17 {
        fill: #070707;
        stroke: #000;
      }

      .cls-17, .cls-18, .cls-19 {
        stroke-miterlimit: 10;
      }

      .cls-3 {
        fill: #6d6e6c;
      }

      .cls-4, .cls-20, .cls-5, .cls-7, .cls-11, .cls-16 {
        isolation: isolate;
      }

      .cls-4, .cls-7, .cls-16 {
        opacity: .3;
      }

      .cls-5, .cls-11 {
        opacity: .2;
      }

      .cls-6 {
        fill: #476b0f;
      }

      .cls-7, .cls-9 {
        fill: #cd00ff;
      }

      .cls-8 {
        fill: #54701e;
      }

      .cls-10 {
        fill: #567c14;
      }

      .cls-11, .cls-14 {
        fill: #f60;
      }

      .cls-18 {
        stroke: #00e2e2;
      }

      .cls-18, .cls-19 {
        fill: none;
      }

      .cls-12 {
        fill: #5e752c;
      }

      .cls-19 {
        stroke: #e7ff00;
      }

      .cls-21 {
        opacity: .1;
      }

      .cls-13, .cls-16 {
        fill: #10b6ff;
      }

      .cls-15 {
        fill: #53696b;
      }
    </style>
  </defs>
  <rect class="cls-17" x="-1.9" y="1" width="773.9" height="1366"/>
  <polygon class="cls-15" points="450.1 670.5 -2.4 918.6 -2.4 1367.5 772.6 1367.5 772.6 903.5 528 670.5 450.1 670.5"/>
  <polygon class="cls-1" points="-2.4 839.8 428.7 670.5 450.1 670.5 -2.4 918.6 -2.4 839.8"/>
  <polygon class="cls-1" points="528 670.5 542.8 664.5 771.6 841.3 771.6 912.5 528 670.5"/>
  <g>
    <ellipse class="cls-6" cx="57.1" cy="756" rx="26.2" ry="26"/>
    <ellipse class="cls-6" cx="109.8" cy="728.2" rx="26.2" ry="26"/>
    <ellipse class="cls-6" cx="84.9" cy="699.8" rx="26.2" ry="26"/>
    <path class="cls-6" d="M16.7,656.1c-7.5-1.2-14.6.8-20.3,5,1.1,13.7,2.5,27.4,2.8,41.2v2c2.6,1.5,5.5,2.6,8.8,3.1,14.3,2.4,27.8-7.2,30.1-21.4,2.4-14.2-7.3-27.6-21.6-29.9h.1Z"/>
    <ellipse class="cls-6" cx="54.1" cy="688.6" rx="26.2" ry="26"/>
    <path class="cls-6" d="M28.3,696.5c-12.5-2.1-24.4,5-28.7,16.3.1,6.5.3,13,.3,19.5,3.4,7.9,10.7,14,19.9,15.5,14.3,2.4,27.8-7.2,30.1-21.4,2.4-14.2-7.3-27.6-21.6-29.9h0Z"/>
    <path class="cls-6" d="M-.9,696.9c0,1.8.1,3.6.2,5.3.3,14.9.8,29.8.4,44.7,9.4-2.7,16.7-10.5,18.4-20.7,2.2-13.3-6.1-26-19-29.4h0Z"/>
    <ellipse class="cls-6" cx="74.8" cy="735.6" rx="26.2" ry="26"/>
    <path class="cls-6" d="M16.2,738.1c-5.8-1-11.5,0-16.3,2.6,0,3.2,0,6.5-.2,9.7-.3,8.4-.3,22.7-4.3,33.5,3.4,2.8,7.7,4.8,12.3,5.5,14.3,2.4,27.8-7.2,30.1-21.4,2.3-14.2-7.3-27.6-21.6-29.9h0Z"/>
    <polygon class="cls-6" points="12.8 682.3 89.3 694.9 77.3 766.9 .8 754.4 12.8 682.3"/>
  </g>
  <g>
    <ellipse class="cls-6" cx="429.1" cy="648.3" rx="7.1" ry="8.2" transform="translate(-277.7 972.1) rotate(-81.1)"/>
    <ellipse class="cls-6" cx="445.2" cy="641" rx="7.1" ry="8.2" transform="translate(-256.8 981.9) rotate(-81.1)"/>
    <ellipse class="cls-6" cx="437.3" cy="633.1" rx="7.1" ry="8.2" transform="translate(-255.7 967.3) rotate(-81.1)"/>
    <ellipse class="cls-6" cx="414.6" cy="627.7" rx="7.1" ry="8.2" transform="translate(-269.6 940.4) rotate(-81.1)"/>
    <ellipse class="cls-6" cx="427.7" cy="629.8" rx="7.1" ry="8.2" transform="translate(-260.6 955.1) rotate(-81.1)"/>
    <ellipse class="cls-6" cx="418.5" cy="638.9" rx="7.1" ry="8.2" transform="translate(-277.3 953.7) rotate(-81.1)"/>
    <ellipse class="cls-6" cx="408.5" cy="638.5" rx="7.1" ry="8.2" transform="translate(-285.4 943.5) rotate(-81.1)"/>
    <ellipse class="cls-6" cx="434.4" cy="642.8" rx="7.1" ry="8.2" transform="translate(-267.9 972.7) rotate(-81.1)"/>
    <ellipse class="cls-6" cx="415" cy="650.1" rx="7.1" ry="8.2" transform="translate(-291.4 959.7) rotate(-81.1)"/>
    <polygon class="cls-6" points="414.6 628.4 438.6 632.4 435.3 652.1 411.3 648.2 414.6 628.4"/>
  </g>
  <g>
    <ellipse class="cls-10" cx="73.2" cy="838.5" rx="26.2" ry="26"/>
    <ellipse class="cls-10" cx="120.6" cy="802.5" rx="26.2" ry="26"/>
    <ellipse class="cls-10" cx="91.4" cy="778.5" rx="26.2" ry="26"/>
    <path class="cls-10" d="M16.8,746.5c-7.5,0-14.2,3.1-19,8.1-.1,11.8-.3,23.6-.3,35.4,4.8,5.2,11.7,8.5,19.3,8.5,14.5,0,26.2-11.6,26.2-26s-11.7-26-26.2-26Z"/>
    <ellipse class="cls-10" cx="59.1" cy="772.5" rx="26.2" ry="26"/>
    <ellipse class="cls-10" cx="34.9" cy="810.5" rx="26.2" ry="26"/>
    <path class="cls-10" d="M3.7,789.5c-2.1,0-4.2.3-6.2.8,0,7,0,14.1.3,21.1.3,9.8,1.5,19.9,1.4,29.8,1.5.3,3,.4,4.5.4,14.5,0,26.2-11.6,26.2-26s-11.7-26-26.2-26h0Z"/>
    <ellipse class="cls-10" cx="87.3" cy="815.5" rx="26.2" ry="26"/>
    <ellipse class="cls-10" cx="29.9" cy="853.5" rx="26.2" ry="26"/>
    <rect class="cls-10" x="16.8" y="772.5" width="77.6" height="73"/>
  </g>
  <g>
    <ellipse class="cls-6" cx="187.1" cy="766.5" rx="26.2" ry="26"/>
    <ellipse class="cls-6" cx="234.4" cy="730.5" rx="26.2" ry="26"/>
    <ellipse class="cls-6" cx="205.2" cy="706.5" rx="26.2" ry="26"/>
    <ellipse class="cls-6" cx="130.7" cy="700.5" rx="26.2" ry="26"/>
    <ellipse class="cls-6" cx="173" cy="700.5" rx="26.2" ry="26"/>
    <ellipse class="cls-6" cx="148.8" cy="738.5" rx="26.2" ry="26"/>
    <ellipse class="cls-6" cx="117.6" cy="743.5" rx="26.2" ry="26"/>
    <ellipse class="cls-6" cx="201.2" cy="743.5" rx="26.2" ry="26"/>
    <ellipse class="cls-6" cx="143.8" cy="781.5" rx="26.2" ry="26"/>
    <rect class="cls-6" x="130.7" y="700.5" width="77.6" height="73"/>
  </g>
  <g>
    <ellipse class="cls-8" cx="301.6" cy="729.5" rx="18.1" ry="18.4"/>
    <ellipse class="cls-8" cx="334.2" cy="704.1" rx="18.1" ry="18.4"/>
    <ellipse class="cls-8" cx="314.1" cy="687.1" rx="18.1" ry="18.4"/>
    <ellipse class="cls-8" cx="262.6" cy="682.9" rx="18.1" ry="18.4"/>
    <ellipse class="cls-8" cx="291.8" cy="682.9" rx="18.1" ry="18.4"/>
    <ellipse class="cls-8" cx="275.2" cy="709.7" rx="18.1" ry="18.4"/>
    <ellipse class="cls-8" cx="253.6" cy="713.3" rx="18.1" ry="18.4"/>
    <ellipse class="cls-8" cx="311.3" cy="713.3" rx="18.1" ry="18.4"/>
    <ellipse class="cls-8" cx="271.6" cy="740.1" rx="18.1" ry="18.4"/>
    <rect class="cls-8" x="262.6" y="682.9" width="53.6" height="51.6"/>
  </g>
  <g>
    <ellipse class="cls-10" cx="383.7" cy="697.5" rx="12.2" ry="10.2"/>
    <ellipse class="cls-10" cx="405.7" cy="683.4" rx="12.2" ry="10.2"/>
    <ellipse class="cls-10" cx="392.2" cy="674" rx="12.2" ry="10.2"/>
    <ellipse class="cls-10" cx="357.5" cy="671.7" rx="12.2" ry="10.2"/>
    <ellipse class="cls-10" cx="377.1" cy="671.7" rx="12.2" ry="10.2"/>
    <ellipse class="cls-10" cx="366" cy="686.5" rx="12.2" ry="10.2"/>
    <ellipse class="cls-10" cx="351.4" cy="688.5" rx="12.2" ry="10.2"/>
    <ellipse class="cls-10" cx="390.2" cy="688.5" rx="12.2" ry="10.2"/>
    <ellipse class="cls-10" cx="363.5" cy="703.3" rx="12.2" ry="10.2"/>
    <rect class="cls-10" x="357.5" y="671.7" width="36.1" height="28.5"/>
  </g>
  <g>
    <ellipse class="cls-6" cx="426.1" cy="678.6" rx="8.2" ry="7.1"/>
    <ellipse class="cls-6" cx="440.9" cy="668.8" rx="8.2" ry="7.1"/>
    <ellipse class="cls-6" cx="431.8" cy="662.2" rx="8.2" ry="7.1"/>
    <ellipse class="cls-6" cx="408.5" cy="660.6" rx="8.2" ry="7.1"/>
    <ellipse class="cls-6" cx="421.7" cy="660.6" rx="8.2" ry="7.1"/>
    <ellipse class="cls-6" cx="414.1" cy="671" rx="8.2" ry="7.1"/>
    <ellipse class="cls-6" cx="404.4" cy="672.4" rx="8.2" ry="7.1"/>
    <ellipse class="cls-6" cx="430.6" cy="672.4" rx="8.2" ry="7.1"/>
    <ellipse class="cls-6" cx="412.6" cy="682.7" rx="8.2" ry="7.1"/>
    <rect class="cls-6" x="408.5" y="660.6" width="24.3" height="20"/>
  </g>
  <g>
    <ellipse class="cls-10" cx="599.8" cy="709.5" rx="10.2" ry="12.2" transform="translate(-249.5 1086.1) rotate(-73.7)"/>
    <ellipse class="cls-10" cx="583" cy="689.7" rx="10.2" ry="12.2" transform="translate(-242.6 1055.7) rotate(-73.7)"/>
    <ellipse class="cls-10" cx="598.7" cy="684.7" rx="10.2" ry="12.2" transform="translate(-226.5 1067.2) rotate(-73.7)"/>
    <ellipse class="cls-10" cx="632.5" cy="692.4" rx="10.2" ry="12.2" transform="translate(-209.6 1105.2) rotate(-73.7)"/>
    <ellipse class="cls-10" cx="613.8" cy="686.7" rx="10.2" ry="12.2" transform="translate(-217.6 1083.1) rotate(-73.7)"/>
    <ellipse class="cls-10" cx="620" cy="704.2" rx="10.2" ry="12.2" transform="translate(-229.9 1101.7) rotate(-73.7)"/>
    <ellipse class="cls-10" cx="633.4" cy="710.4" rx="10.2" ry="12.2" transform="translate(-226.2 1119) rotate(-73.7)"/>
    <ellipse class="cls-10" cx="596.1" cy="699.1" rx="10.2" ry="12.2" transform="translate(-242.1 1075.1) rotate(-73.7)"/>
    <ellipse class="cls-10" cx="617.3" cy="721" rx="10.2" ry="12.2" transform="translate(-247.9 1111.2) rotate(-73.7)"/>
    <polygon class="cls-10" points="624.4 719.8 589.9 709.3 598.3 682 632.8 692.5 624.4 719.8"/>
  </g>
  <g>
    <ellipse class="cls-6" cx="564.7" cy="679.2" rx="7.1" ry="8.2" transform="translate(-244.5 1033.4) rotate(-73.9)"/>
    <ellipse class="cls-6" cx="553.5" cy="665.6" rx="7.1" ry="8.2" transform="translate(-239.5 1012.8) rotate(-73.9)"/>
    <ellipse class="cls-6" cx="564.2" cy="661.9" rx="7.1" ry="8.2" transform="translate(-228.2 1020.4) rotate(-73.9)"/>
    <ellipse class="cls-6" cx="587" cy="667.1" rx="7.1" ry="8.2" transform="translate(-216.8 1046.1) rotate(-73.9)"/>
    <ellipse class="cls-6" cx="574.4" cy="663.3" rx="7.1" ry="8.2" transform="translate(-222.2 1031.2) rotate(-73.9)"/>
    <ellipse class="cls-6" cx="578.5" cy="675.4" rx="7.1" ry="8.2" transform="translate(-230.8 1043.9) rotate(-73.9)"/>
    <ellipse class="cls-6" cx="587.4" cy="679.5" rx="7.1" ry="8.2" transform="translate(-228.4 1055.4) rotate(-73.9)"/>
    <ellipse class="cls-6" cx="562.4" cy="671.9" rx="7.1" ry="8.2" transform="translate(-239.1 1025.8) rotate(-73.9)"/>
    <ellipse class="cls-6" cx="576.6" cy="687" rx="7.1" ry="8.2" transform="translate(-243.4 1050.5) rotate(-73.9)"/>
    <polygon class="cls-6" points="581.3 686.2 558 679.2 563.9 660 587.1 667.1 581.3 686.2"/>
  </g>
  <g class="cls-21">
    <image class="cls-20" width="109" height="539" transform="translate(-399 777)" xlink:href="parquesito2-1.png"/>
  </g>
  <g class="cls-21">
    <image class="cls-20" width="369" height="593" transform="translate(-678 671)" xlink:href="parquesito2-2.png"/>
  </g>
  <g class="cls-21">
    <image class="cls-20" width="468" height="524" transform="translate(-803 726)" xlink:href="parquesito2-3.png"/>
  </g>
  <g class="cls-21">
    <image class="cls-20" width="104" height="539" transform="translate(-344 773)" xlink:href="parquesito2-4.png"/>
  </g>
  <g class="cls-21">
    <image class="cls-20" width="325" height="593" transform="translate(-328 667)" xlink:href="parquesito2-5.png"/>
  </g>
  <g class="cls-21">
    <image class="cls-20" width="311" height="371" transform="translate(-305 722)" xlink:href="parquesito2-6.png"/>
  </g>
  <rect class="cls-3" x="132.7" y="436.5" width="7.1" height="194"/>
  <rect class="cls-3" x="290.9" y="499.5" width="5" height="134"/>
  <rect class="cls-3" x="327.2" y="529.5" width="5" height="118"/>
  <rect class="cls-3" x="353.4" y="555.5" width="4" height="106"/>
  <rect class="cls-3" x="652.7" y="452.5" width="6" height="197"/>
  <rect class="cls-3" x="624.4" y="505.5" width="6" height="146"/>
  <rect class="cls-3" x="604.3" y="512.5" width="5" height="131"/>
  <rect class="cls-3" x="583.1" y="584.5" width="6" height="76"/>
  <path class="cls-18" d="M132.2,436c59.5,20.8,147,44.2,255,48,111.7,3.9,203.4-14.6,265-32"/>
  <path class="cls-18" d="M291.4,499c37,13,90.5,27.4,156.2,30,77.2,3.1,139.9-11.3,180.4-24"/>
  <path class="cls-18" d="M606.8,516c-28.4,12.5-74.4,28.6-133,32-63.1,3.7-113.8-8.9-144.1-19"/>
  <path class="cls-18" d="M587.7,588c-24,6.5-62.3,13.7-108.8,9-58.7-6-102-28-125-42"/>
  <rect class="cls-3" x="711.1" y="313.5" width="17.1" height="429"/>
  <rect class="cls-3" x="26.9" y="234.7" width="23.2" height="452.3"/>
  <g>
    <ellipse class="cls-6" cx="729.9" cy="738.8" rx="12.7" ry="12.2" transform="translate(-213.5 1173.1) rotate(-70.1)"/>
    <ellipse class="cls-6" cx="714.1" cy="715.6" rx="12.7" ry="12.2" transform="translate(-202.1 1143) rotate(-70.1)"/>
    <ellipse class="cls-6" cx="730.5" cy="708.3" rx="12.7" ry="12.2" transform="translate(-184.4 1153.6) rotate(-70.1)"/>
    <ellipse class="cls-6" cx="764.4" cy="715.5" rx="12.7" ry="12.2" transform="translate(-168.8 1190.2) rotate(-70.1)"/>
    <ellipse class="cls-6" cx="745.6" cy="709.9" rx="12.7" ry="12.2" transform="translate(-175.9 1168.9) rotate(-70.1)"/>
    <ellipse class="cls-6" cx="750.9" cy="731" rx="12.7" ry="12.2" transform="translate(-192.3 1187.7) rotate(-70.1)"/>
    <ellipse class="cls-6" cx="764" cy="737.5" rx="12.7" ry="12.2" transform="translate(-189.7 1204.3) rotate(-70.1)"/>
    <ellipse class="cls-6" cx="727" cy="726.2" rx="12.7" ry="12.2" transform="translate(-203.5 1162) rotate(-70.1)"/>
    <ellipse class="cls-6" cx="746.9" cy="751.7" rx="12.7" ry="12.2" transform="translate(-214.4 1197.6) rotate(-70.1)"/>
    <polygon class="cls-6" points="754.1 749.7 719.7 739.2 730.3 705 764.7 715.4 754.1 749.7"/>
  </g>
  <g>
    <ellipse class="cls-10" cx="673" cy="716.5" rx="14.8" ry="15.7" transform="translate(-38.6 38.3) rotate(-3.2)"/>
    <ellipse class="cls-10" cx="645.3" cy="696.1" rx="14.8" ry="15.7" transform="translate(-37.5 36.8) rotate(-3.2)"/>
    <ellipse class="cls-10" cx="661" cy="680.9" rx="14.8" ry="15.7" transform="translate(-36.7 37.6) rotate(-3.2)"/>
    <ellipse class="cls-10" cx="702.9" cy="675.2" rx="14.8" ry="15.7" transform="translate(-36.3 39.9) rotate(-3.2)"/>
    <ellipse class="cls-10" cx="679.1" cy="676.5" rx="14.8" ry="15.7" transform="translate(-36.4 38.6) rotate(-3.2)"/>
    <ellipse class="cls-10" cx="693.8" cy="698.6" rx="14.8" ry="15.7" transform="translate(-37.6 39.5) rotate(-3.2)"/>
    <ellipse class="cls-10" cx="711.6" cy="700.8" rx="14.8" ry="15.7" transform="translate(-37.7 40.4) rotate(-3.2)"/>
    <ellipse class="cls-10" cx="664.4" cy="703.1" rx="14.8" ry="15.7" transform="translate(-37.9 37.8) rotate(-3.2)"/>
    <ellipse class="cls-10" cx="697.9" cy="724.4" rx="14.8" ry="15.7" transform="translate(-39 39.7) rotate(-3.2)"/>
    <rect class="cls-10" x="660.7" y="676.3" width="43.8" height="44" transform="translate(-33.1 33.9) rotate(-2.8)"/>
  </g>
  <g>
    <path class="cls-6" d="M770.3,850.2c.5-12.2.4-24.5.9-36.7,0-2.3.2-4.5.3-6.7-12.6-1.9-25.1,5.7-28.9,18.1-4.2,13.7,3.5,28.3,17.4,32.5,3.3,1,6.7,1.3,9.9,1,.1-2.7.3-5.4.4-8.2h0Z"/>
    <ellipse class="cls-6" cx="733" cy="784.3" rx="26.2" ry="26"/>
    <path class="cls-6" d="M771.4,775.5c-.5-5.7-1.4-11.4-.9-17.2.4-4.9,1.3-9.2,1.8-13,0-.4-.1-.7-.1-1.1-12.7-2.1-25.4,5.5-29.2,18.1-4.2,13.7,3.5,28.3,17.4,32.5,3.8,1.2,7.8,1.4,11.6.8.1-6.7,0-13.4-.4-20.1h-.2Z"/>
    <path class="cls-6" d="M771.2,813.5c.4-10.3.9-20.5.6-30.8-1-.5-2.1-.9-3.2-1.2-13.8-4.2-28.5,3.5-32.8,17.3-4.2,13.7,3.5,28.3,17.4,32.5,5.9,1.8,12.1,1.4,17.5-.8,0-5.7.2-11.3.4-17Z"/>
    <path class="cls-6" d="M771.2,813.5c.5-12.7,1.2-25.3.2-38-.3-3.7-.8-7.4-1-11.2l-3.6-1.1-21.5,69.8,25.2,7.6c.2-9.1.2-18.1.6-27.2h.1Z"/>
  </g>
  <g>
    <ellipse class="cls-8" cx="669" cy="764" rx="18.4" ry="18.1" transform="translate(-304.8 1052) rotate(-65.3)"/>
    <ellipse class="cls-8" cx="645.1" cy="730.3" rx="18.4" ry="18.1" transform="translate(-288.1 1010.7) rotate(-65.3)"/>
    <ellipse class="cls-8" cx="669.4" cy="719.8" rx="18.4" ry="18.1" transform="translate(-264.4 1026.7) rotate(-65.3)"/>
    <ellipse class="cls-8" cx="720" cy="730.7" rx="18.4" ry="18.1" transform="translate(-244.9 1079) rotate(-65.3)"/>
    <ellipse class="cls-8" cx="692" cy="722.3" rx="18.4" ry="18.1" transform="translate(-253.5 1048.7) rotate(-65.3)"/>
    <ellipse class="cls-8" cx="700" cy="752.8" rx="18.4" ry="18.1" transform="translate(-276.6 1073.6) rotate(-65.3)"/>
    <ellipse class="cls-8" cx="719.7" cy="762.3" rx="18.4" ry="18.1" transform="translate(-273.8 1097.1) rotate(-65.3)"/>
    <ellipse class="cls-8" cx="664.4" cy="745.6" rx="18.4" ry="18.1" transform="translate(-290.8 1037.2) rotate(-65.3)"/>
    <ellipse class="cls-8" cx="694.4" cy="782.9" rx="18.4" ry="18.1" transform="translate(-307.2 1086.1) rotate(-65.3)"/>
    <polygon class="cls-8" points="705 780 653.7 764.4 668.9 715.1 720.2 730.6 705 780"/>
  </g>
  <g>
    <ellipse class="cls-8" cx="604.6" cy="685.3" rx="15.4" ry="16.6" transform="translate(-216.4 1086.8) rotate(-74.6)"/>
    <ellipse class="cls-8" cx="582.1" cy="656.1" rx="15.4" ry="16.6" transform="translate(-204.8 1043.6) rotate(-74.6)"/>
    <ellipse class="cls-8" cx="604" cy="647.8" rx="15.4" ry="16.6" transform="translate(-180.7 1058.7) rotate(-74.6)"/>
    <ellipse class="cls-8" cx="650.3" cy="658.1" rx="15.4" ry="16.6" transform="translate(-156.6 1110.9) rotate(-74.6)"/>
    <ellipse class="cls-8" cx="624.7" cy="650.4" rx="15.4" ry="16.6" transform="translate(-167.9 1080.5) rotate(-74.6)"/>
    <ellipse class="cls-8" cx="632.7" cy="676.4" rx="15.4" ry="16.6" transform="translate(-187.2 1107.3) rotate(-74.6)"/>
    <ellipse class="cls-8" cx="650.8" cy="685" rx="15.4" ry="16.6" transform="translate(-182.2 1131.1) rotate(-74.6)"/>
    <ellipse class="cls-8" cx="600.1" cy="669.6" rx="15.4" ry="16.6" transform="translate(-204.6 1070.9) rotate(-74.6)"/>
    <ellipse class="cls-8" cx="628.4" cy="701.8" rx="15.4" ry="16.6" transform="translate(-214.8 1121.8) rotate(-74.6)"/>
    <polygon class="cls-8" points="637.8 699.5 590.7 685.2 603.5 643.7 650.6 658 637.8 699.5"/>
  </g>
  <g>
    <ellipse class="cls-10" cx="177.3" cy="709.5" rx="26.2" ry="26"/>
    <ellipse class="cls-10" cx="230" cy="681.7" rx="26.2" ry="26"/>
    <ellipse class="cls-10" cx="205.1" cy="653.3" rx="26.2" ry="26"/>
    <ellipse class="cls-10" cx="132.6" cy="635.2" rx="26.2" ry="26"/>
    <ellipse class="cls-10" cx="174.3" cy="642.1" rx="26.2" ry="26"/>
    <ellipse class="cls-10" cx="144.2" cy="675.7" rx="26.2" ry="26"/>
    <ellipse class="cls-10" cx="112.5" cy="675.5" rx="26.2" ry="26"/>
    <ellipse class="cls-10" cx="195" cy="689.1" rx="26.2" ry="26"/>
    <ellipse class="cls-10" cx="132.1" cy="717.3" rx="26.2" ry="26"/>
    <polygon class="cls-10" points="133 635.9 209.5 648.4 197.5 720.4 121 707.9 133 635.9"/>
  </g>
  <g>
    <ellipse class="cls-12" cx="297.9" cy="687.3" rx="18.4" ry="18.1" transform="translate(-441.5 807.4) rotate(-75.8)"/>
    <ellipse class="cls-12" cx="334.2" cy="667.4" rx="18.4" ry="18.1" transform="translate(-394.8 827.7) rotate(-75.8)"/>
    <ellipse class="cls-12" cx="317.2" cy="647.5" rx="18.4" ry="18.1" transform="translate(-388.4 796.1) rotate(-75.8)"/>
    <ellipse class="cls-12" cx="267" cy="634.9" rx="18.4" ry="18.1" transform="translate(-414 738) rotate(-75.8)"/>
    <ellipse class="cls-12" cx="295.9" cy="639.7" rx="18.4" ry="18.1" transform="translate(-396.8 769.6) rotate(-75.8)"/>
    <ellipse class="cls-12" cx="275" cy="663.4" rx="18.4" ry="18.1" transform="translate(-435.6 767.2) rotate(-75.8)"/>
    <ellipse class="cls-12" cx="253.1" cy="663.4" rx="18.4" ry="18.1" transform="translate(-452.1 746) rotate(-75.8)"/>
    <ellipse class="cls-12" cx="310" cy="672.8" rx="18.4" ry="18.1" transform="translate(-418.2 808.3) rotate(-75.8)"/>
    <ellipse class="cls-12" cx="266.6" cy="692.8" rx="18.4" ry="18.1" transform="translate(-470.4 781.2) rotate(-75.8)"/>
    <polygon class="cls-12" points="267 635.7 319.9 644.4 311.4 695.3 258.5 686.6 267 635.7"/>
  </g>
  <g>
    <ellipse class="cls-10" cx="381" cy="666" rx="10.2" ry="12.2" transform="translate(-336.4 938.2) rotate(-81)"/>
    <ellipse class="cls-10" cx="405" cy="655.7" rx="10.2" ry="12.2" transform="translate(-306 953.2) rotate(-81)"/>
    <ellipse class="cls-10" cx="393.3" cy="644.2" rx="10.2" ry="12.2" transform="translate(-304.5 931.9) rotate(-81)"/>
    <ellipse class="cls-10" cx="359.4" cy="636.3" rx="10.2" ry="12.2" transform="translate(-325.2 891.8) rotate(-81)"/>
    <ellipse class="cls-10" cx="378.9" cy="639.4" rx="10.2" ry="12.2" transform="translate(-312 913.7) rotate(-81)"/>
    <ellipse class="cls-10" cx="365.3" cy="652.3" rx="10.2" ry="12.2" transform="translate(-336 911.1) rotate(-81)"/>
    <ellipse class="cls-10" cx="350.7" cy="651.8" rx="10.2" ry="12.2" transform="translate(-347.9 896.3) rotate(-81)"/>
    <ellipse class="cls-10" cx="388.9" cy="658.1" rx="10.2" ry="12.2" transform="translate(-321.9 939.4) rotate(-81)"/>
    <ellipse class="cls-10" cx="360.3" cy="668.5" rx="10.2" ry="12.2" transform="translate(-356.4 919.9) rotate(-81)"/>
    <polygon class="cls-10" points="359.5 637.1 395.1 643 390.4 671.1 354.8 665.2 359.5 637.1"/>
  </g>
  <path class="cls-18" d="M38.1,234.7c50.4,37.2,165,111.4,330.8,132.3,164.4,20.7,292.8-21.9,351.1-45.2"/>
  <g class="cls-21">
    <image class="cls-20" width="343" height="348" transform="translate(-598 -14)" xlink:href="parquesito2-7.png"/>
  </g>
  <g class="cls-21">
    <image class="cls-20" width="345" height="222" transform="translate(-604 207)" xlink:href="parquesito2-8.png"/>
  </g>
  <g class="cls-21">
    <image class="cls-20" width="332" height="369" transform="translate(-834 -2)" xlink:href="parquesito2-9.png"/>
  </g>
  <g class="cls-21">
    <image class="cls-20" width="333" height="369" transform="translate(-649 31)" xlink:href="parquesito2-10.png"/>
  </g>
  <g>
    <g class="cls-21">
      <image class="cls-20" width="333" height="369" transform="translate(-386 -36)" xlink:href="parquesito2-11.png"/>
    </g>
    <g class="cls-21">
      <image class="cls-20" width="333" height="370" transform="translate(-310 116)" xlink:href="parquesito2-12.png"/>
    </g>
  </g>
  <g class="cls-21">
    <image class="cls-20" width="333" height="369" transform="translate(-860 146)" xlink:href="parquesito2-13.png"/>
  </g>
  <g class="cls-21">
    <image class="cls-20" width="333" height="370" transform="translate(-731 265)" xlink:href="parquesito2-14.png"/>
  </g>
  <g class="cls-21">
    <image class="cls-20" width="333" height="370" transform="translate(-639 338)" xlink:href="parquesito2-15.png"/>
  </g>
  <g class="cls-21">
    <image class="cls-20" width="355" height="286" transform="translate(-415 294)" xlink:href="parquesito2-16.png"/>
  </g>
  <g class="cls-21">
    <image class="cls-20" width="344" height="237" transform="translate(-484 493)" xlink:href="parquesito2-17.png"/>
  </g>
  <ellipse class="cls-2" cx="105.5" cy="288" rx="4" ry="11.5"/>
  <ellipse class="cls-2" cx="415.8" cy="380" rx="4" ry="11.5"/>
  <ellipse class="cls-2" cx="699" cy="339" rx="4" ry="11.5"/>
  <ellipse class="cls-2" cx="576.1" cy="373" rx="4" ry="11.5"/>
  <ellipse class="cls-2" cx="234.4" cy="347" rx="4" ry="11.5"/>
  <ellipse class="cls-2" cx="503.5" cy="385" rx="4" ry="11.5"/>
  <ellipse class="cls-2" cx="639.6" cy="362" rx="4" ry="11.5"/>
  <ellipse class="cls-2" cx="327.2" cy="369" rx="4" ry="11.5"/>
  <ellipse class="cls-2" cx="157.9" cy="317" rx="4" ry="11.5"/>
  <ellipse class="cls-14" cx="153.3" cy="451.5" rx="3.5" ry="9"/>
  <ellipse class="cls-14" cx="427.4" cy="492.5" rx="3.5" ry="9"/>
  <ellipse class="cls-14" cx="628" cy="466.5" rx="3.5" ry="9"/>
  <ellipse class="cls-14" cx="533.2" cy="484.5" rx="3.5" ry="9"/>
  <ellipse class="cls-14" cx="289.4" cy="483.5" rx="3.5" ry="9"/>
  <ellipse class="cls-14" cx="366" cy="490.5" rx="3.5" ry="9"/>
  <ellipse class="cls-14" cx="485.9" cy="489.5" rx="3.5" ry="9"/>
  <ellipse class="cls-14" cx="587.7" cy="478.5" rx="3.5" ry="9"/>
  <ellipse class="cls-14" cx="232.9" cy="471.5" rx="3.5" ry="9"/>
  <ellipse class="cls-9" cx="459.7" cy="535.5" rx="1.5" ry="6"/>
  <ellipse class="cls-9" cx="613.9" cy="514.5" rx="1.5" ry="6"/>
  <ellipse class="cls-9" cx="300.5" cy="508.5" rx="1.5" ry="6"/>
  <ellipse class="cls-9" cx="552.4" cy="529.5" rx="1.5" ry="6"/>
  <ellipse class="cls-9" cx="365" cy="525.5" rx="1.5" ry="6"/>
  <ellipse class="cls-9" cx="586.7" cy="521.5" rx="1.5" ry="6"/>
  <ellipse class="cls-9" cx="508.1" cy="533.5" rx="1.5" ry="6"/>
  <ellipse class="cls-9" cx="414.3" cy="532.5" rx="1.5" ry="6"/>
  <ellipse class="cls-9" cx="334.7" cy="518.5" rx="1.5" ry="6"/>
  <ellipse class="cls-2" cx="364.4" cy="564.5" rx="1" ry="4"/>
  <ellipse class="cls-2" cx="472.3" cy="599.5" rx="1" ry="4"/>
  <ellipse class="cls-2" cx="584.1" cy="592.5" rx="1" ry="4"/>
  <ellipse class="cls-2" cx="524.7" cy="602.5" rx="1" ry="4"/>
  <ellipse class="cls-2" cx="408.8" cy="584.5" rx="1" ry="4"/>
  <ellipse class="cls-2" cx="440" cy="593.5" rx="1" ry="4"/>
  <ellipse class="cls-2" cx="496.5" cy="601.5" rx="1" ry="4"/>
  <ellipse class="cls-2" cx="558.9" cy="598.5" rx="1" ry="4"/>
  <ellipse class="cls-2" cx="382.6" cy="574.5" rx="1" ry="4"/>
  <ellipse class="cls-5" cx="699" cy="345.5" rx="21.2" ry="21"/>
  <ellipse class="cls-5" cx="640.6" cy="366.5" rx="21.2" ry="21"/>
  <ellipse class="cls-5" cx="101.4" cy="293.5" rx="21.2" ry="21"/>
  <ellipse class="cls-5" cx="153.8" cy="322.5" rx="21.2" ry="21"/>
  <ellipse class="cls-5" cx="236.5" cy="353.5" rx="21.2" ry="21"/>
  <ellipse class="cls-5" cx="327.2" cy="370.5" rx="21.2" ry="21"/>
  <ellipse class="cls-5" cx="416.9" cy="384.5" rx="21.2" ry="21"/>
  <ellipse class="cls-5" cx="505.5" cy="386.5" rx="21.2" ry="21"/>
  <ellipse class="cls-5" cx="578.1" cy="380.5" rx="21.2" ry="21"/>
  <ellipse class="cls-11" cx="630.5" cy="467.5" rx="15.1" ry="16"/>
  <ellipse class="cls-11" cx="232.4" cy="473.5" rx="15.1" ry="16"/>
  <ellipse class="cls-11" cx="288.9" cy="485.5" rx="15.1" ry="16"/>
  <ellipse class="cls-11" cx="364.4" cy="493.5" rx="15.1" ry="16"/>
  <ellipse class="cls-11" cx="427.9" cy="496.5" rx="15.1" ry="16"/>
  <ellipse class="cls-11" cx="485.4" cy="491.5" rx="15.1" ry="16"/>
  <ellipse class="cls-11" cx="532.7" cy="487.5" rx="15.1" ry="16"/>
  <ellipse class="cls-11" cx="591.2" cy="478.5" rx="15.1" ry="16"/>
  <ellipse class="cls-11" cx="150.8" cy="456.5" rx="15.1" ry="16"/>
  <ellipse class="cls-7" cx="614.9" cy="515" rx="8.6" ry="9.5"/>
  <ellipse class="cls-7" cx="586.7" cy="522" rx="8.6" ry="9.5"/>
  <ellipse class="cls-7" cx="552.4" cy="529" rx="8.6" ry="9.5"/>
  <ellipse class="cls-7" cx="509.1" cy="535" rx="8.6" ry="9.5"/>
  <ellipse class="cls-7" cx="459.7" cy="537" rx="8.6" ry="9.5"/>
  <ellipse class="cls-7" cx="414.3" cy="535" rx="8.6" ry="9.5"/>
  <ellipse class="cls-7" cx="366" cy="527" rx="8.6" ry="9.5"/>
  <ellipse class="cls-7" cx="335.7" cy="519" rx="8.6" ry="9.5"/>
  <ellipse class="cls-7" cx="300.5" cy="508" rx="8.6" ry="9.5"/>
  <ellipse class="cls-13" cx="571.5" cy="535" rx="1.5" ry="5.5"/>
  <ellipse class="cls-13" cx="528.2" cy="546" rx="1.5" ry="5.5"/>
  <ellipse class="cls-13" cx="485.9" cy="553" rx="1.5" ry="5.5"/>
  <ellipse class="cls-13" cx="435.5" cy="553" rx="1.5" ry="5.5"/>
  <ellipse class="cls-13" cx="385.1" cy="548" rx="1.5" ry="5.5"/>
  <ellipse class="cls-16" cx="386.1" cy="550" rx="11.6" ry="11.5"/>
  <ellipse class="cls-16" cx="434" cy="554.5" rx="10.1" ry="10"/>
  <ellipse class="cls-16" cx="484.4" cy="554.5" rx="10.1" ry="10"/>
  <ellipse class="cls-16" cx="526.7" cy="547.5" rx="10.1" ry="10"/>
  <ellipse class="cls-16" cx="572" cy="537.5" rx="10.1" ry="10"/>
  <ellipse class="cls-4" cx="497.5" cy="602.5" rx="7.1" ry="8"/>
  <ellipse class="cls-4" cx="524.7" cy="604.5" rx="7.1" ry="8"/>
  <ellipse class="cls-4" cx="557.9" cy="598.5" rx="7.1" ry="8"/>
  <ellipse class="cls-4" cx="365.5" cy="567.5" rx="7.1" ry="8"/>
  <ellipse class="cls-4" cx="409.8" cy="586.5" rx="7.1" ry="8"/>
  <ellipse class="cls-4" cx="472.3" cy="601.5" rx="7.1" ry="8"/>
  <ellipse class="cls-4" cx="440" cy="593.5" rx="7.1" ry="8"/>
  <ellipse class="cls-4" cx="584.1" cy="592.5" rx="7.1" ry="8"/>
  <ellipse class="cls-4" cx="382.6" cy="576.5" rx="7.1" ry="8"/>
  <g>
    <g>
      <g>
        <rect class="cls-19" x="129" y="409" width="88.7" height="84.9"/>
        <polygon class="cls-19" points="168.8 511.8 109.6 448.6 177.2 390.5 236.5 453.6 168.8 511.8"/>
      </g>
      <rect class="cls-19" x="129" y="409" width="88.7" height="84.9"/>
      <rect class="cls-19" x="129" y="409" width="88.7" height="84.9"/>
      <polygon class="cls-19" points="170.1 511.4 110.8 448.3 176.7 391.5 236.1 454.7 170.1 511.4"/>
    </g>
    <line class="cls-19" x1="183.6" y1="315" x2="176.5" y2="392"/>
  </g>
  <g>
    <g>
      <g>
        <polygon class="cls-19" points="495.4 497.9 425.8 502.8 420.6 441.5 490.1 436.5 495.4 497.9"/>
        <polygon class="cls-19" points="458.2 513.5 407.8 471.2 457.2 425.4 507.5 467.7 458.2 513.5"/>
      </g>
      <polygon class="cls-19" points="495.4 497.9 425.8 502.8 420.6 441.5 490.1 436.5 495.4 497.9"/>
      <polygon class="cls-19" points="495.4 497.9 425.8 502.8 420.6 441.5 490.1 436.5 495.4 497.9"/>
      <polygon class="cls-19" points="459.1 513.2 408.7 470.9 456.9 426.2 507.2 468.5 459.1 513.2"/>
    </g>
    <line class="cls-19" x1="457.6" y1="370.5" x2="456.8" y2="426.5"/>
  </g>
  <g>
    <g>
      <g>
        <polygon class="cls-19" points="587.1 598.4 551.7 601.4 549.1 564.4 584.3 561.4 587.1 598.4"/>
        <polygon class="cls-19" points="568.1 607.8 542.5 582.3 567.6 554.6 593.2 580.2 568.1 607.8"/>
      </g>
      <polygon class="cls-19" points="587.1 598.4 551.7 601.4 549.1 564.4 584.3 561.4 587.1 598.4"/>
      <polygon class="cls-19" points="587.1 598.4 551.7 601.4 549.1 564.4 584.3 561.4 587.1 598.4"/>
      <polygon class="cls-19" points="568.6 607.6 543 582.1 567.5 555.1 593.1 580.7 568.6 607.6"/>
    </g>
    <line class="cls-19" x1="567.8" y1="521.5" x2="567.4" y2="555.3"/>
  </g>
  <g>
    <g>
      <g>
        <polygon class="cls-19" points="526.9 638.6 505.3 640.1 503.7 620.8 525.3 619.3 526.9 638.6"/>
        <polygon class="cls-19" points="515.4 643.5 499.7 630.2 515.1 615.8 530.7 629.1 515.4 643.5"/>
      </g>
      <polygon class="cls-19" points="526.9 638.6 505.3 640.1 503.7 620.8 525.3 619.3 526.9 638.6"/>
      <polygon class="cls-19" points="526.9 638.6 505.3 640.1 503.7 620.8 525.3 619.3 526.9 638.6"/>
      <polygon class="cls-19" points="515.6 643.4 500 630.1 515 616 530.6 629.3 515.6 643.4"/>
    </g>
    <line class="cls-19" x1="515.2" y1="598.5" x2="514.9" y2="616.1"/>
  </g>
</svg>