<?xml version="1.0" encoding="UTF-8"?>
<svg id="Capa_1" data-name="Capa 1" xmlns="http://www.w3.org/2000/svg" version="1.1" viewBox="0 0 595.3 841.9">
  <defs>
    <style>
      .cls-1 {
        fill: #059cd4;
      }

      .cls-1, .cls-2, .cls-3, .cls-4, .cls-5, .cls-6, .cls-7, .cls-8, .cls-9, .cls-10, .cls-11, .cls-12, .cls-13, .cls-14, .cls-15, .cls-16, .cls-17 {
        stroke-width: 0px;
      }

      .cls-2 {
        fill: #36322d;
      }

      .cls-3 {
        fill: #c3c1c2;
      }

      .cls-4 {
        fill: #080a10;
      }

      .cls-5 {
        fill: #030304;
      }

      .cls-6 {
        fill: none;
      }

      .cls-7 {
        fill: #1e1e1c;
      }

      .cls-8 {
        fill: #fffbf7;
      }

      .cls-9 {
        fill: #b79177;
      }

      .cls-10 {
        fill: #a67249;
      }

      .cls-11 {
        fill: #d25e66;
      }

      .cls-12 {
        fill: #f5f0f4;
      }

      .cls-13 {
        fill: #fdc90f;
      }

      .cls-14 {
        fill: #cea386;
      }

      .cls-15 {
        fill: #ef7c79;
      }

      .cls-16 {
        fill: #f5f3f4;
      }

      .cls-17 {
        fill: #e8f5f7;
      }
    </style>
  </defs>
  <path class="cls-9" d="M266.3,434.9s1.8,18.4,2.8,23"/>
  <rect class="cls-14" x="288.7" y="526.8" width="14.1" height="49.6" rx="7" ry="7"/>
  <rect class="cls-14" x="269.6" y="474.4" width="28" height="32.2" rx="12" ry="12"/>
  <ellipse class="cls-14" cx="283.4" cy="503.7" rx="15.5" ry="19.8"/>
  <ellipse class="cls-14" cx="283.5" cy="406.9" rx="67.5" ry="61.1"/>
  <rect class="cls-14" x="273.2" y="459.6" width="21.3" height="30" rx="10.7" ry="10.7"/>
  <ellipse class="cls-14" cx="346.2" cy="422.3" rx="9.3" ry="17.7" transform="translate(-3.7 3) rotate(-.5)"/>
  <line class="cls-6" x1="300" y1="428.8" x2="300" y2="428"/>
  <line class="cls-6" x1="330.4" y1="428" x2="330.4" y2="427.3"/>
  <rect class="cls-14" x="265.3" y="526.3" width="16.5" height="49.6" rx="8.2" ry="8.2"/>
  <g>
    <path class="cls-11" d="M277.2,445.5s10.7-.6,13.5.6c0,0,3.4,1.2-2.3,3.5,0,0-6.2,2.6-11.9-1.5,0,0-2.8-2.6.6-2.6Z"/>
    <path class="cls-8" d="M277.2,445.5c1.3,1.4,4,2.2,6.8,2.1,3.5-.1,5.3-1.7,5.5-1.8-1.4-.2-3.3-.5-5.5-.5-2.8,0-5.1,0-6.8.3Z"/>
    <path class="cls-15" d="M277.8,448.7s6.2-2,12.4,0c0,0-5.6,3.5-12.4,0Z"/>
  </g>
  <ellipse class="cls-14" cx="220.8" cy="423.9" rx="9.3" ry="17.7" transform="translate(-3.7 1.9) rotate(-.5)"/>
  <g>
    <path class="cls-17" d="M283.2,508.9s-1.4-1-2.6.3l-4.3,33.8s7.4,10.1,13.7,0l-6.8-34.1Z"/>
    <path class="cls-17" d="M286.9,526.4c1.3,1.9,3,4,5.4,6.1,5.2,4.6,10.8,7,14.4,8.2-.5-2.7-1-5.5-1.7-8.4-.1-.4-.2-.8-.3-1.1-.5-1.8-.8-3.2-.9-3.6-.8-3-1.4-5.8-1.4-5.8-.4-2.2-.5-3.3-1.2-5.6,0,0-.2-.7-.5-1.5-1-2.9-2.4-5.7-3.6-7.9-1.7.4-3.6.8-5.5,1.1-3.1.5-6,.8-8.7,1l3.9,17.6Z"/>
    <path class="cls-17" d="M278.3,527.1c-1.7,1.9-3.8,3.8-6.2,5.8-4.1,3.3-8.1,5.8-11.6,7.6.2-3.8.6-8,1.4-12.5,1.4-7.8,3.7-14.4,6-19.8,1.8.2,3.6.4,5.5.6,2.4.2,4.7.3,6.9.4-.7,6-1.4,11.9-2,17.9Z"/>
    <path class="cls-17" d="M278.2,527l-2,16.2s-8.6,7-16,6.1c0,0-.6-4.8.3-8.6,4-2.1,8.6-5,13.1-9.1,1.7-1.5,3.3-3.1,4.6-4.6Z"/>
    <path class="cls-17" d="M286.8,526.3c1,5.6,2.1,11.3,3.1,16.9,1.1,1,2.6,2,4.4,2.9,4.3,2.2,8.5,2.7,11,2.7,0,0,.7-4.8-.3-8.7-4-2.1-8.7-5.1-13.3-9.1-.8-.7-1.6-1.4-1.6-1.4-1.4-1.3-2.5-2.4-3.3-3.4Z"/>
    <path class="cls-17" d="M274.9,518.8s-1.3,4.1-13.1,9.6"/>
    <path class="cls-17" d="M291.3,518.4s1.2,4.1,11.8,9.6"/>
  </g>
  <path class="cls-2" d="M238,414.3s-11.2-12.2,19.5-15.1l-4.6,2.7c4.9-.6,7.5-1.3,9-1.9,2.5-1.1,2.8-2.1,6.3-2.6,1.7-.2,3.4-.3,4.6-.2l-8.7,4.1c4.5-.2,7.5-.6,9.4-1,2.8-.6,3.2-1,7.8-2.1,3.3-.8,5-1.2,7.2-1.3,3.9-.1,7.7.6,7.6.8,0,0-1.1,0-1.8,0-2.4,0-6,.3-11.2,1.8,2,0,5,0,8.5.3,5.2.4,5.9.8,8.6.7,3.4-.1,4.4-.8,9.5-2,3.2-.7,6.2-1.2,8.2-1.4,1.7.3,4.3.8,6.2,1.7.9.4,2,1.1,2.8,2.6.9,1.9,0,2.4.3,3.4.8,3.1,6.5,5.9,6.5,5.9h0c.6-.9,1.6-2,3.3-3.2,3.9-2.7,9.6-4.6,14-5.7-4.2-2.7-8.1-5.9-10.7-9.6-.8-1.1-1.3-2.2-1.8-3.3,1,0,2.1,0,2.8-.2.8-.3.9-.7.1-1-1.4-.8-3.8-2-7.7-3-11-3.1-26.4-3.2-43.6-3.4-8.8,0-17.6-.2-29,.6-12.7.9-22.3,2.4-28.2,3.5-.2,2-1.9,3.6-3.2,4.6,0,0-3.7,2.8-11.3,5-2.8.8-4.2,1.3-4.6,1.3-.3,0-.9.1-1.3.4-.4.3,0,.6.3.8,2.9-.4,5.9-.8,8.8-1.2-1.1,1-2.3,2.3-2.4,4,0,2.3,2,4.1,3.5,5.2,5,2.9,9.9,5.8,14.9,8.7Z"/>
  <path class="cls-7" d="M222.5,396.8s56.2-31.2,116.5-1.7c0,0,3.3-26.7-69.9-27.3,0,0-53.1,4.4-46.6,29Z"/>
  <g>
    <g>
      <g>
        <path class="cls-1" d="M195,349.8s35.4-44,60.9-47.3c25.5-3.4,61.5-13.5,108.7,43.3,0,0,42.6,95.4,26.2,99.4,0,0-44.3,14.6-46.4,34.6,0,.2,0,.4,0,.6-1.3,20.3,3.3,29.8-23.6,43.3l-17.3-11.2-1.3-48s20.6-9.2,28.3-28.6c0,0,19.5,8.3,22.1-14.7,0,0,5.2-22.3-13.4-13.9.7-2.8,1.4-7.3.2-12.5-3-12.9-15.3-18.3-16.9-19-24.7-.3-49.4-.6-74.1-.9,0,0-26.8-.5-24.5,31.9,0,0-17.3-2.2-10.1,24.9,0,0,4.8,7.6,16.1,4.2,0,0,9.4,20.4,31,28.8l-1.3,46.2-15.7,12.2s-25.5-4.1-25.5-48.7c0,0,6.5-12.8-46.5-33.1,0,0-6.5-3.4.7-25.7,7.5-22,15.1-44,22.6-65.9Z"/>
        <polygon class="cls-13" points="218.6 484.7 260.3 485.9 260.8 473.4 218.3 471.9 218.6 484.7"/>
        <path class="cls-13" d="M253.2,461.5l-43.8-1c-4.7-2.9-9.4-5.9-14-8.8,15.4.3,30.8.7,46.2,1l11.7,8.8Z"/>
        <path class="cls-13" d="M233.3,442.1l-60.9-.3s-4.3-1.5-3.5-9.1.1-4.1.1-4.1l44.2.7s.5,10.2,16.5,6.7l3.6,6.1Z"/>
        <path class="cls-13" d="M172.4,415.8l39.9.8s0-8.9,10.8-9.9l-47.5-1-3.3,10.8v-.7Z"/>
        <path class="cls-13" d="M180.3,392.1c14.8.2,29.7.5,44.5.7.5-1.7,1.3-3.8,2.6-6.1,2.1-3.7,4.7-6,6.5-7.4-16.1-.2-32.3-.4-48.4-.6l-5.3,13.5Z"/>
        <path class="cls-13" d="M195.8,348.5c27.8,8.9,55.6,17.8,83.3,26.7-9.4-23.9-18.8-47.8-28.2-71.7-6.1,2.9-12.7,6.5-19.5,11.1-16.4,11.1-27.9,23.7-35.7,33.9Z"/>
        <path class="cls-13" d="M304,302.1c-8.1,24.4-16.1,48.7-24.2,73.1,28-10,56-20,84-30.1,0,0-31.1-39.1-59.9-43.1Z"/>
        <path class="cls-13" d="M327.6,378.6c16.8-.5,33.6-.9,50.4-1.4l4.3,13.4c-14.6.7-29.1,1.4-43.7,2.1-.8-1.8-1.9-3.9-3.4-6.1-2.6-3.8-5.4-6.4-7.6-8.1Z"/>
        <path class="cls-13" d="M339.7,405.2l47.1-1.7,3.6,11.4h-37.4c0,0-.7-14.1-14.1-7.7l.7-2.1Z"/>
        <path class="cls-13" d="M349.4,431l44.5.3s2.5,8.1-2.2,13.5l-66.5.3,5-9.4s13.8,4.8,19.1-4.8Z"/>
        <path class="cls-13" d="M319.3,452.2c17.8.2,35.6.5,53.4.7-2.3,1-4.8,2.2-7.4,3.7-2.6,1.5-5,3.1-6.9,4.6l-50.6-.2s10.5-6.9,11.6-8.9Z"/>
        <path class="cls-13" d="M302.3,475.8l43.2-.3s-2.1,4.2-1.5,12.5l-41.3-.5-.4-11.6Z"/>
      </g>
      <path class="cls-13" d="M226.1,511l33.1.7.3-12-38.1-1s2.7,8.9,4.6,12.4Z"/>
    </g>
    <path class="cls-13" d="M302.7,501.4l40.5.3s-1.6,8-5.4,11.4c-11.6-.3-23.3-.5-34.9-.8,0-3.7-.1-7.3-.2-11Z"/>
  </g>
  <g>
    <path class="cls-16" d="M294,418.4s-2.1,18.8,11.8,18.4c0,0,11.8.3,18.3-3.3,0,0-9.2-29.5-27.1-13.7l-.7-3.5-2.3,2.1Z"/>
    <path class="cls-3" d="M296.2,416.2s5.8-10.9,23.3-2.8c0,0,12.3,10.4,4.6,20,0,0-6.7-29-27.1-13.7l-.7-3.5Z"/>
    <path class="cls-5" d="M322.9,435.5s5.4-1.3,9.2-9.3c0,0-3.5-15.6-10.2-15l7.5,3.4s-8.5-12-31.4-6.2l-6,5.6,3.8-1.9-4.7,8.1,2.9-1.9,2.3-2.1s4.5-9.5,21.6-3.6c0,0,14.8,9.5,5,22.9Z"/>
    <path class="cls-5" d="M313.5,417.2s2.3,12.8-7.7,13.1c0,0-8.6.6-6.5-12.5,0,0,9.4-5.7,14.2-.6Z"/>
    <path class="cls-10" d="M312.7,417.3s2.1,12-6.7,12.2c0,0-7.6.5-5.8-11.7,0,0,8.3-5.2,12.5-.4Z"/>
    <path class="cls-12" d="M305.8,419.2c.2,2,1.9,3.3,3.8,2.8,1.9-.4,3.3-2.4,3.1-4.3s-1.9-3.3-3.8-2.8-3.3,2.4-3.1,4.3Z"/>
    <path class="cls-4" d="M304.5,424.3c.2,1.6,1.3,2.6,2.5,2.3s2.1-1.7,1.9-3.3-1.3-2.6-2.5-2.3-2.1,1.7-1.9,3.3Z"/>
    <path class="cls-4" d="M331.2,397.2c-4.8-.2-9.9,0-15.2.4-10.5.9-19.9,2.9-28.2,5.4,3.6-3.3,9.7-8,18-9.9,11.8-2.7,21.2,1.8,25.4,4.2Z"/>
    <path class="cls-4" d="M232.7,398c4.8-.2,9.9,0,15.2.4,10.5.9,19.9,2.9,28.2,5.4-3.6-3.3-9.7-8-18-9.9-11.8-2.7-21.2,1.8-25.4,4.2Z"/>
  </g>
  <g>
    <path class="cls-16" d="M269,418.1s2,18.8-11.2,18.4c0,0-11.2.3-17.4-3.3,0,0,8.7-29.5,25.8-13.7l.7-3.5,2.2,2.1Z"/>
    <path class="cls-3" d="M266.8,416s-5.5-10.9-22.1-2.8c0,0-11.7,10.4-4.4,20,0,0,6.4-29,25.8-13.7l.7-3.5Z"/>
    <path class="cls-5" d="M241.5,435.3s-5.1-1.3-8.8-9.3c0,0,3.3-15.6,9.7-15l-7.1,3.4s8.1-12,29.9-6.2l5.7,5.6-3.6-1.9,4.5,8.1-2.7-1.9-2.2-2.1s-4.2-9.5-20.5-3.6c0,0-14,9.5-4.8,22.9Z"/>
    <path class="cls-5" d="M250.4,417s-2.2,12.8,7.3,13.1c0,0,8.2.6,6.2-12.5,0,0-9-5.7-13.5-.6Z"/>
    <path class="cls-10" d="M251.2,417.1s-2,12,6.4,12.2c0,0,7.3.5,5.5-11.7,0,0-7.9-5.2-11.9-.4Z"/>
    <path class="cls-12" d="M257.7,419c-.2,2-1.8,3.3-3.6,2.8-1.8-.4-3.1-2.4-2.9-4.3s1.8-3.3,3.6-2.8,3.1,2.4,2.9,4.3Z"/>
    <path class="cls-4" d="M259,424.1c-.1,1.6-1.2,2.6-2.3,2.3s-2-1.7-1.8-3.3,1.2-2.6,2.3-2.3,2,1.7,1.8,3.3Z"/>
  </g>
  <path class="cls-9" d="M277.7,429.8s3.3-6.9,8,0"/>
  <path class="cls-9" d="M284.3,505.5s-.6,5.5-.5,6.9"/>
  <path class="cls-9" d="M295.2,502.1s3.3,4.8-8.5,5.1"/>
  <path class="cls-9" d="M272.2,502s-3,4.4,5.7,4.5l3.4-.3"/>
  <path class="cls-9" d="M297.6,508.8s-3.6,5-11.1,4.7"/>
  <path class="cls-9" d="M282.9,513.2s-7.4.6-11.4-4.3"/>
  <g>
    <path class="cls-14" d="M252,500.9l-4.3-5.9c-1.6-2.2-1-5.3,1.4-6.8l21-13.4c2.4-1.5,5.6-.9,7.3,1.3l4.3,5.9c1.6,2.2,1,5.3-1.4,6.8l-21,13.4c-2.4,1.5-5.6.9-7.3-1.3Z"/>
    <path class="cls-14" d="M254.7,503.6c-.2,1-.8,2-1.9,2.7l-3.4,2.1c-2,1.3-4.8.8-6.2-1.1l-5.2-7.1c-1.4-1.9-.9-4.5,1.2-5.8l3.4-2.1c1-.6,2.2-.8,3.3-.7.3,1.4.9,3.6,2.3,5.8,2.1,3.4,5,5.2,6.5,6.1Z"/>
  </g>
  <g>
    <path class="cls-14" d="M323.9,492.7l-3.5,6.4c-1.3,2.4-4.5,3.3-7,2.1l-22.7-10.8c-2.6-1.2-3.6-4.2-2.3-6.6l3.5-6.4c1.3-2.4,4.5-3.3,7-2.1l22.7,10.8c2.6,1.2,3.6,4.2,2.3,6.6Z"/>
    <path class="cls-14" d="M325.1,489.2c1.1-.3,2.3-.3,3.4.2l3.6,1.7c2.2,1,3,3.5,1.9,5.6l-4.2,7.7c-1.1,2-3.8,2.8-6,1.8l-3.6-1.7c-1.1-.5-1.9-1.4-2.2-2.4,1.2-.9,3-2.4,4.4-4.7,2.2-3.3,2.6-6.6,2.6-8.2Z"/>
  </g>
</svg>