<?xml version="1.0" encoding="UTF-8"?>
<svg xmlns="http://www.w3.org/2000/svg" version="1.1" viewBox="0 0 1920 1080">
  <defs>
    <style>
      .cls-1 {
        fill: #c7e6ed;
      }

      .cls-1, .cls-2, .cls-3, .cls-4, .cls-5, .cls-6, .cls-7, .cls-8, .cls-9, .cls-10, .cls-11, .cls-12, .cls-13 {
        stroke-width: 0px;
      }

      .cls-2 {
        fill: #8f3625;
      }

      .cls-14, .cls-15, .cls-16, .cls-17, .cls-18, .cls-19, .cls-20 {
        stroke-miterlimit: 10;
      }

      .cls-14, .cls-16 {
        stroke: #5b4b36;
      }

      .cls-14, .cls-6, .cls-20 {
        fill: none;
      }

      .cls-15, .cls-18 {
        stroke: #000;
      }

      .cls-15, .cls-12 {
        fill: #fff;
      }

      .cls-3 {
        fill: #1c1c1c;
      }

      .cls-4 {
        opacity: .3;
      }

      .cls-4, .cls-13 {
        fill: #f489a0;
      }

      .cls-5 {
        fill: #a12e34;
      }

      .cls-16, .cls-8 {
        fill: #5b4b36;
      }

      .cls-17 {
        stroke: #b78a58;
      }

      .cls-17, .cls-9, .cls-19 {
        fill: #bb8f50;
      }

      .cls-7 {
        fill: #a48d15;
      }

      .cls-10 {
        fill: #070707;
      }

      .cls-18, .cls-11 {
        fill: #1d150f;
      }

      .cls-19 {
        stroke: #d1a162;
      }

      .cls-20 {
        stroke: #aa814b;
      }
    </style>
  </defs>
  <g id="Capa_1" data-name="Capa 1">
    <rect class="cls-19" x="966.9" y="670.5" width="74.9" height="245.1" rx="12" ry="12"/>
    <rect class="cls-9" x="893.8" y="670.5" width="74.9" height="245.1" rx="12" ry="12"/>
    <path class="cls-11" d="M999.2,543.7l-44.9,1.8c-68,2.7-126.1-46-129-108.2l-1.9-41c-2.9-62.2,50.3-115.3,118.4-117.9l44.9-1.8c68-2.7,126.1,46,129,108.2l1.9,41c2.9,62.2-50.3,115.3-118.4,117.9Z"/>
    <g>
      <ellipse class="cls-7" cx="850.7" cy="469.6" rx="3" ry="4.5"/>
      <ellipse class="cls-7" cx="850.7" cy="478.5" rx="3" ry="4.5"/>
      <ellipse class="cls-7" cx="850.7" cy="487.4" rx="3" ry="4.5"/>
    </g>
    <rect class="cls-9" x="926.9" y="530.4" width="83.6" height="124.2" rx="12" ry="12"/>
    <ellipse class="cls-9" cx="967.8" cy="670.5" rx="74" ry="76.4"/>
    <ellipse class="cls-9" cx="967.8" cy="395.9" rx="131.5" ry="126.6"/>
    <rect class="cls-9" x="947.8" y="504.9" width="41.5" height="62.1" rx="11.9" ry="11.9"/>
    <path class="cls-9" d="M952.2,939.7l-53.2,4c-10,.7-18.9-6.1-19.7-15.3l-1-11.2c-.8-9.2,6.7-17.3,16.7-18l53.2-4c10-.7,18.9,6.1,19.7,15.3l1,11.2c.8,9.2-6.7,17.3-16.7,18Z"/>
    <path class="cls-9" d="M981.7,940.3l53.2,4c10,.7,18.9-6.1,19.7-15.3l1-11.2c.8-9.2-6.7-17.3-16.7-18l-53.2-4c-10-.7-18.9,6.1-19.7,15.3l-1,11.2c-.8,9.2,6.7,17.3,16.7,18Z"/>
    <path class="cls-9" d="M861.4,428.6c4.9,12.9,1.2,25.8-8.4,28.8s-21.2-4.9-26.2-17.8c-4.9-12.9-1.2-25.8,8.4-28.8,9.5-3,21.2,4.9,26.2,17.8Z"/>
    <path class="cls-9" d="M1069.6,433.7c-4.9,12.9-1.2,25.8,8.4,28.8,9.5,3,21.2-4.9,26.2-17.8,4.9-12.9,1.2-25.8-8.4-28.8-9.5-3-21.2,4.9-26.2,17.8Z"/>
    <line class="cls-6" x1="1000" y1="441.3" x2="1000" y2="439.7"/>
    <line class="cls-6" x1="1059.2" y1="439.7" x2="1059.2" y2="438.1"/>
    <path class="cls-20" d="M998.3,432.7c4.8,2.3,16.5,7.3,32.1,6.3,13.1-.9,22.6-5.5,27.2-8.2"/>
    <path class="cls-20" d="M883.1,429.9c4.4,2.9,15.4,9.1,31,9.9,13.1.6,23.2-2.9,28.1-5"/>
    <path class="cls-3" d="M1067.8,364.6c-4.6-2.2-13-5.5-24.2-6.1-11-.6-19.7,1.8-24.4,3.4-1,0-1.7-.8-1.6-1.7,0-.9.9-1.5,1.8-1.5,4.8-1.7,13.4-4,24.2-3.4,11.3.6,19.9,3.9,24.4,6.1,1,0,1.7.8,1.6,1.7,0,.9-.9,1.5-1.8,1.5Z"/>
    <path class="cls-13" d="M1007,455.6c2.9,6.6-15.4,25.5-36.6,25.5-21.2,0-39.5-18.9-36.6-25.5.6-1.2,2.3-3.1,34.8-3.2,24.6,0,36.9,0,38.3,3.2Z"/>
    <path class="cls-3" d="M879.4,361c4.6-2.2,13-5.5,24.2-6.1,11-.6,19.7,1.8,24.4,3.4,1,0,1.7-.8,1.6-1.7,0-.9-.9-1.5-1.8-1.5-4.8-1.7-13.4-4-24.2-3.4-11.3.6-19.9,3.9-24.4,6.1-1,0-1.7.8-1.6,1.7,0,.9.9,1.5,1.8,1.5Z"/>
    <path class="cls-12" d="M1006.7,454c2.9,3.3-15.3,12.7-36.3,12.7-21,0-39.2-9.4-36.3-12.7.5-.6,2.3-1.5,34.5-1.6,24.4,0,36.6,0,38,1.6Z"/>
    <ellipse class="cls-4" cx="1042.7" cy="448.4" rx="28.7" ry="26.3"/>
    <g>
      <path class="cls-10" d="M1041.8,433.3c2.6-2.4,5.2-4.7,7.8-7.1,3.4-2.1,6.8-4.2,10.2-6.3l2,10.1-20,3.3Z"/>
      <path class="cls-10" d="M1051.4,370.5c-3.6-.7-7.3-1.5-10.9-2.2-3.4-1.4-6.7-2.9-10.1-4.3l14.1-6.3,6.9,12.9Z"/>
      <path class="cls-10" d="M1053.1,431.1c-2.6-11.9-5.2-23.9-7.9-35.8-2.3-11.7-4.6-23.4-7-35.1l46.9,35.7-32.1,35.1Z"/>
      <ellipse class="cls-15" cx="1024.4" cy="399.9" rx="43.5" ry="35"/>
      <ellipse class="cls-10" cx="1021.8" cy="399.9" rx="37.4" ry="35"/>
      <path class="cls-10" d="M1072.8,390.7c-3.1-2-6.2-4.1-9.3-6.1-2.4-2.5-4.9-5-7.3-7.4l17.4.8-.7,12.7Z"/>
      <ellipse class="cls-12" cx="1021.8" cy="389.5" rx="16.5" ry="15.1"/>
      <ellipse class="cls-12" cx="1028.7" cy="407" rx="9.6" ry="8.8"/>
    </g>
    <ellipse class="cls-4" cx="901.6" cy="446.8" rx="28.7" ry="26.3"/>
    <g>
      <path class="cls-10" d="M900.2,434.9c-2.6-2.4-5.2-4.7-7.8-7.1-3.4-2.1-6.8-4.2-10.2-6.3l-2,10.1,20,3.3Z"/>
      <path class="cls-10" d="M890.6,372.1c3.6-.7,7.3-1.5,10.9-2.2,3.4-1.4,6.7-2.9,10.1-4.3l-14.1-6.3-6.9,12.9Z"/>
      <path class="cls-10" d="M888.9,432.7c2.6-11.9,5.2-23.9,7.9-35.8,2.3-11.7,4.6-23.4,7-35.1l-46.9,35.7,32.1,35.1Z"/>
      <ellipse class="cls-15" cx="917.7" cy="401.5" rx="43.5" ry="35"/>
      <ellipse class="cls-10" cx="920.3" cy="401.5" rx="37.4" ry="35"/>
      <path class="cls-10" d="M869.3,392.3c3.1-2,6.2-4.1,9.3-6.1,2.4-2.5,4.9-5,7.3-7.4l-17.4.8.7,12.7Z"/>
      <ellipse class="cls-12" cx="920.3" cy="391.1" rx="16.5" ry="15.1"/>
      <ellipse class="cls-12" cx="913.3" cy="408.6" rx="9.6" ry="8.8"/>
    </g>
    <path class="cls-18" d="M1095.8,358.5c-5.6,11-28,4.8-127.1,4.8-100.5,0-123.3,6.3-128.9-4.8-10.9-21.7,53.1-92.7,128.9-92.3,75.1.4,138,70.7,127.1,92.3Z"/>
    <ellipse class="cls-17" cx="943" cy="576.2" rx="25.7" ry="21.1"/>
    <ellipse class="cls-17" cx="994.1" cy="575.8" rx="25.7" ry="21.1"/>
    <g>
      <g>
        <path class="cls-8" d="M947.8,522.5v3.2c7.2,1.2,16,2,26.1,1.6,5.8-.2,11-.8,15.7-1.6v-3.2c-4.2.7-8.9,1.3-13.9,1.6-10.8.6-20.3-.3-27.9-1.6Z"/>
        <path class="cls-8" d="M947.8,530.4v-4.8c4.5,1.5,11.5,3.4,20.4,3.5,9.4,0,16.8-1.9,21.3-3.5v4.8c-.9,1.8-2.7,5-6.4,7.8-.9.7-6.7,5-14.5,5.1-8.5,0-16.6-5.1-20.9-12.9Z"/>
      </g>
      <ellipse class="cls-2" cx="968.6" cy="536.4" rx="1.9" ry="4.2"/>
      <path class="cls-2" d="M971.1,561.1c-.3,1.7-1.1,4.2-1.9,4.2-.1,0-.7,0-1.3-2.1-.8-2.6-.6-4.8-.2-8.9,0,0,.3-3.1,1.1-9.1.2-1.7.4-2.8.5-2.8.2,0-.2,3.3.2,7.4.7,5.7,2.4,7.1,1.7,11.3Z"/>
    </g>
    <g>
      <path class="cls-8" d="M926.9,595.7c14.4-1.1,30.1-1.8,47-1.6,12.9.1,25.1.7,36.6,1.6v11.1c-9.8-2.3-22.1-4.4-36.6-4.8-19.2-.5-35.3,2-47,4.8v-11.1Z"/>
      <path class="cls-14" d="M948.4,601.2c-.3,1.1-.5,2.5-.1,4.1.3,1.1.7,1.5.9,2.5.2,1,.2,2.4-.7,4.2"/>
      <path class="cls-14" d="M958,613.1c-.2-.5-.3-1.3,0-2,.3-.7.8-.6,1-1.2.3-.7-.3-1.3-.7-2.7-.2-.8-.3-1.5-.3-2.1-3.7,17.2-7.5,23.8-10.3,26.6-.7.6-3.3,3.1-5.5,7.1-1.4,2.6-2.2,4.9-2.6,6.3"/>
      <line class="cls-14" x1="966.5" y1="599.9" x2="966.5" y2="604"/>
      <path class="cls-14" d="M971.1,601.4c-.2.7-.4,1.7,0,2.6.3.7.8.9,1.1,1.3.5.7.6,2.1-1.1,4.9"/>
      <path class="cls-14" d="M939.9,603.5c-.2,1.9,0,3.3.2,4.3.4,1.8,1,2.6.9,4-.1,1.3-.8,2.3-1.4,3"/>
      <path class="cls-14" d="M976.8,601.5c-.2,1.6,0,2.9.2,4,.5,3,1.8,4.3,1.2,6.2-.3,1.2-1.2,2-1.8,2.5"/>
      <path class="cls-14" d="M984.3,601.9c0,.6,0,1.5.2,2.6.3,1.3.8,1.9,1.1,2.7.3,1,.4,2.6-1.2,5"/>
      <path class="cls-14" d="M995.2,602.8c-.2.7-.3,1.9-.1,3.2.2,1.2.5,1.7.5,2.7,0,.8-.1,2-1.1,3.5"/>
      <path class="cls-14" d="M1005.7,604.8c.1,1,.2,2.5-.4,4.2-.4,1.2-.8,1.6-1.1,2.5-.4,1.1-.5,2.9.7,5.4"/>
      <path class="cls-14" d="M988.6,608c.2-.5.3-1.3,0-2-.3-.6-.8-.6-1-1.2-.3-.7.3-1.2.7-2.6.2-.8.3-1.5.3-2,2.1,13.6,6.9,20.1,11,23.4,1.2,1,3.5,2.6,7.4,5.9,4.5,3.7,8,6.9,10.3,9"/>
    </g>
    <g>
      <ellipse class="cls-7" cx="1074.4" cy="487" rx="3" ry="4.5"/>
      <ellipse class="cls-7" cx="1074.4" cy="495.8" rx="3" ry="4.5"/>
      <ellipse class="cls-7" cx="1074.4" cy="504.8" rx="3" ry="4.5"/>
    </g>
    <polygon class="cls-8" points="1041.4 829.1 970.4 829.1 970.4 848 1041.8 845.7 1041.4 829.1"/>
    <g>
      <line class="cls-14" x1="1010.9" y1="845.2" x2="1010.9" y2="884.4"/>
      <polygon class="cls-16" points="1000 882.4 1010.9 887.7 1021.8 882.4 1010.9 877.1 1000 882.4"/>
      <path class="cls-14" d="M966.9,884c25.2-.7,50.3-1.4,75.5-2.2"/>
      <line class="cls-14" x1="1010.3" y1="887.8" x2="1010.3" y2="933.1"/>
    </g>
    <path class="cls-8" d="M974.3,926.7l73.2,5.5c3.8.3,6.6,3.3,6.3,6.8h0c-.3,3.4-3.6,6-7.4,5.8l-73.2-5.5c-3.8-.3-6.6-3.3-6.3-6.8h0c.3-3.4,3.6-6,7.4-5.8Z"/>
    <polygon class="cls-8" points="894 836.5 966.9 836.5 966.9 855.4 893.5 853.2 894 836.5"/>
    <g>
      <line class="cls-14" x1="924.4" y1="852.7" x2="924.4" y2="888.5"/>
      <polygon class="cls-16" points="935.4 886.7 924.4 891.6 913.5 886.7 924.4 881.9 935.4 886.7"/>
      <path class="cls-14" d="M968.4,888.2c-25.2-.7-50.3-1.3-75.5-2"/>
      <line class="cls-14" x1="925" y1="891.7" x2="925" y2="933.1"/>
    </g>
    <g>
      <path class="cls-1" d="M906,631.6c5.5,2.9,29.8,15.1,65.2,13.9,30.2-1.1,50.1-11.4,56.2-14.8,1.6,3.5,3.2,6.9,4.8,10.4-6.9,1.3-13.8,2.6-20.6,3.9-.6,8-1.6,16.6-2.9,25.5-1.5,9.6-3.3,18.7-5.2,27.1-1.5,10.3-3.2,20.9-5.2,31.8-2.1,11.4-4.4,22.4-6.8,33-2.1,17.2-3.1,37.1-1.9,59.3,1.7,31.3,7.5,58.2,13.9,79.6h-27.9c-4.1.5-8.1,1.1-12.2,1.6-8.7.5-17.4,1.1-26.1,1.6h-7c9-30.7,11.6-45.1,12-52.3,0-.9.4-7.4,1-16.4.3-3.4.6-7.1.9-11.2,1.9-20.2,3.4-26,2.8-38.7-.5-9.6-1.9-17.6-2.9-22.2-2.8-13-5.3-15.8-9.5-32.6-1.5-6.1-3.5-11.2-4.5-21.5-1.2-12.4-5.2-24.8-3.9-37.3,1-10.1,3.8-19.6-5-24.7-6.9-4-17-3.1-19.4-7.3-1.6-2.9,1.4-6.3,4.2-8.6Z"/>
      <path class="cls-1" d="M899,637.1c6.3,2.6,12.5,5.2,18.8,7.8-22.2,24.6-25.4,41.3-25.7,49.5-.1,2.8,0,9.7,0,14.3.2,15.1.3,22.6,1.5,29.5,1.3,7.9,3.7,15.4,9.8,29.8,3.1,7.4,6.2,14.7,9.3,22.1-8.2,18.9-8.8,34.2-7.7,44.8,2.2,21.9,12.5,34.8,13.7,64.2.4,8.8-.2,16-.8,20.8-9.4-9-22.3-19.1-40.1-28.4-4.1-2.1-8.2-4.1-12.2-5.9-2-2.5-4.9-5.4-9-8.4-8-5.7-16.9-8.7-22.5-10.3-2.3,1.1-4.6,2.3-7,3.6-4.5,2.6-8.4,5.1-11.6,7.5,15.4-28.2,25.7-50.1,32.4-65.2,4.3-9.7,8.5-19.8,16.6-34.5,12.2-22.1,15.5-22.5,19.7-33,2-5.1,3-9.4,3.4-13.5,1.3-14-3.4-40.2-3.4-40.2-.6-6.1-.6-14,1.2-23,2.9-14.5,9.3-25.3,13.9-31.8Z"/>
      <path class="cls-1" d="M1029.6,630.7c-4.6,4.7-9.1,9.4-13.7,14.2,20.8,24.5,23.8,41.4,24.1,49.5.1,3.2.1,10.4,0,15.9-.3,13.2-.4,20-1.7,28.7-1.9,11.9-5,20.7-8,29.1-3.3,9.2-6.6,16.7-9.3,22.1,8.2,18.9,8.8,34.2,7.7,44.8-2.2,21.9-12.5,34.8-13.7,64.2-.4,8.8.2,16,.8,20.8,9.4-9,22.3-19.1,40.1-28.4,4.1-2.1,8.2-4.1,12.2-5.9,2-2.5,4.9-5.4,9-8.4,8-5.7,16.9-8.7,22.5-10.3,2.3,1.1,4.6,2.3,7,3.6,4.5,2.6,8.4,5.1,11.6,7.5-15.4-28.2-25.7-50.1-32.4-65.2-4.3-9.7-8.5-19.8-16.6-34.5-12.2-22.1-15.5-22.5-19.7-33,0,0-2.6-6.4-3.4-13.5-2.4-20.1.6-37.8.6-37.8,2.2-12.8.4-32.7-17.4-63.7Z"/>
      <g>
        <ellipse class="cls-8" cx="918.7" cy="648.5" rx="6.7" ry="4.3"/>
        <g>
          <path class="cls-8" d="M889.1,730.9c.6-3.8,1.3-9.7,1-16.9-.2-5.8-.9-10.1-1-10.9-1-7,3.5-20.5,26.9-48.6-7.7,8.9-17,21.9-22.5,38.5-5,15.1-5.3,28.3-4.4,37.9Z"/>
          <path class="cls-8" d="M1044.9,730.9c-.6-3.8-1.3-9.7-1-16.9.2-5.8.9-10.1,1-10.9,1-7-3.5-20.5-26.9-48.6,7.8,9.1,17,22.4,22.5,39.2,4.8,14.8,5.2,27.6,4.4,37.2Z"/>
          <path class="cls-8" d="M902.5,630.7c10.4,4.3,23.4,8.7,38.9,11.7,9.8,1.9,18.9,2.9,26.9,3.4,7.2-.4,15.4-1.3,24.3-3.1,15.1-3,27.5-7.7,37-12,1.2,2.1,2.3,4.2,3.5,6.4.6,1.1,1.2,2.1,1.7,3.2-22.7,5.7-45.4,11.4-68.1,17.1-22.6-5.7-45.2-11.4-67.8-17.1-.1-.9-.2-2,0-3.2.5-3.3,2.5-5.4,3.5-6.4Z"/>
          <polygon class="cls-5" points="966.5 647.2 961.9 651.3 966.5 655.5 970.7 651.4 966.5 647.2"/>
          <line class="cls-14" x1="1008.1" y1="647.2" x2="1008.2" y2="660.4"/>
          <line class="cls-14" x1="996.3" y1="650.1" x2="996.3" y2="663.9"/>
          <line class="cls-14" x1="983.9" y1="653.1" x2="983.9" y2="663.9"/>
          <line class="cls-14" x1="974.1" y1="655.5" x2="974.1" y2="667.1"/>
          <line class="cls-14" x1="958" y1="655.5" x2="958" y2="668.6"/>
          <line class="cls-14" x1="949.2" y1="653.1" x2="949.2" y2="665.6"/>
          <line class="cls-14" x1="935.2" y1="650.1" x2="935.2" y2="663.9"/>
          <line class="cls-14" x1="926.4" y1="647.2" x2="926.4" y2="660.4"/>
          <ellipse class="cls-8" cx="1018" cy="648.5" rx="6.7" ry="4.3"/>
        </g>
      </g>
    </g>
    <path class="cls-8" d="M961.2,926.3l-73.2,5.5c-3.8.3-6.6,3.3-6.3,6.8h0c.3,3.4,3.6,6,7.4,5.8l73.2-5.5c3.8-.3,6.6-3.3,6.3-6.8h0c-.3-3.4-3.6-6-7.4-5.8Z"/>
  </g>
  <g id="Capa_2" data-name="Capa 2">
    <g>
      <path class="cls-9" d="M818.6,668.9h0c-8-6.3-8.9-17.4-2.1-24.7l100.5-107.2c6.9-7.3,19-8.2,27-1.9h0c8,6.3,8.9,17.4,2.1,24.7l-100.5,107.2c-6.9,7.3-19,8.2-27,1.9Z"/>
      <ellipse class="cls-9" cx="821.5" cy="641" rx="11.3" ry="11.9"/>
      <path class="cls-8" d="M923.8,584.5c-1.1,1.5-2.5,3.2-4.1,4.9-1.2,1.2-2.4,2.3-3.5,3.2-13.8-6.4-22.9-12.8-25-15.2-1.6-1.9-2.9-3.9-2.9-3.9-.8-1.2-1.3-2.3-1.7-3.2,0,0,1.7-1.6,1.7-1.6,1-.9,1.7-1.6,1.7-1.6.9-.8,2.8-2.9,7-8,0,1.3.2,3.3.9,5.5,0,0,.2.8.5,1.6,4.6,11.7,20.4,16.9,25.3,18.3Z"/>
      <path class="cls-2" d="M866.6,613.6c-1.1,2-2.3,5.1-1.4,5.7.1.1.8.4,3.2-1.2,3.1-2,4.7-4.4,7.8-8.9,0,0,2.3-3.4,6.5-10.1,1.2-1.9,2-3.1,1.8-3.2-.2-.1-2.5,3.6-6.5,7.4-5.5,5.3-8.7,5.5-11.4,10.2Z"/>
      <path class="cls-8" d="M908.4,600c-1.1,1.5-2.5,3.2-4.1,4.9-1.2,1.2-2.4,2.3-3.5,3.2-13.8-6.4-22.9-12.8-25-15.2-1.6-1.9-2.9-3.9-2.9-3.9-.8-1.2-1.3-2.3-1.7-3.2,0,0,1.7-1.6,1.7-1.6,1-.9,1.7-1.6,1.7-1.6.9-.8,2.8-2.9,7-8,0,1.3.2,3.3.9,5.5,0,0,.2.8.5,1.6,4.6,11.7,20.4,16.9,25.3,18.3Z"/>
      <ellipse class="cls-2" cx="885.7" cy="594.8" rx="5.5" ry="2.5" transform="translate(-94.1 1017.1) rotate(-57.2)"/>
    </g>
  </g>
  <g id="Capa_3" data-name="Capa 3">
    <g>
      <path class="cls-9" d="M1116.5,669.1h0c8-6.3,8.9-17.4,2.1-24.7l-100.5-107.2c-6.9-7.3-19-8.2-27-1.9h0c-8,6.3-8.9,17.4-2.1,24.7l100.5,107.2c6.9,7.3,19,8.2,27,1.9Z"/>
      <ellipse class="cls-9" cx="1112.3" cy="641" rx="11.3" ry="11.9"/>
      <path class="cls-8" d="M1015,587.6c1.1,1.5,2.5,3.2,4.1,4.9,1.2,1.2,2.4,2.3,3.5,3.2,13.8-6.4,22.9-12.8,25-15.2,1.6-1.9,2.9-3.9,2.9-3.9.8-1.2,1.3-2.3,1.7-3.2,0,0-1.7-1.6-1.7-1.6-1-.9-1.7-1.6-1.7-1.6-.9-.8-2.8-2.9-7-8,0,1.3-.2,3.3-.9,5.5,0,0-.2.8-.5,1.6-4.6,11.7-20.4,16.9-25.3,18.3Z"/>
      <path class="cls-2" d="M1072.2,616.8c1.1,2,2.3,5.1,1.4,5.7-.1.1-.8.4-3.2-1.2-3.1-2-4.7-4.4-7.8-8.9,0,0-2.3-3.4-6.5-10.1-1.2-1.9-2-3.1-1.8-3.2.2-.1,2.5,3.6,6.5,7.4,5.5,5.3,8.7,5.5,11.4,10.2Z"/>
      <path class="cls-8" d="M1030.3,603.2c1.1,1.5,2.5,3.2,4.1,4.9,1.2,1.2,2.4,2.3,3.5,3.2,13.8-6.4,22.9-12.8,25-15.2,1.6-1.9,2.9-3.9,2.9-3.9.8-1.2,1.3-2.3,1.7-3.2,0,0-1.7-1.6-1.7-1.6-1-.9-1.7-1.6-1.7-1.6-.9-.8-2.8-2.9-7-8,0,1.3-.2,3.3-.9,5.5,0,0-.2.8-.5,1.6-4.6,11.7-20.4,16.9-25.3,18.3Z"/>
      <ellipse class="cls-2" cx="1053.1" cy="598" rx="2.5" ry="5.5" transform="translate(-156.1 665.8) rotate(-32.8)"/>
    </g>
  </g>
  <g id="Capa_4" data-name="Capa 4">
    <path class="cls-1" d="M951.2,530.2l14.9,9.3c-4,5.4-9,13.7-11.5,24.7-.9,3.9-1.3,7.4-1.4,10.7-.4,1.2-1.2,4.6.4,8.3,2.3,5.6,8,7.4,8.9,7.7h9.2c2.1.5,3.6.2,4.6,0,4.2-1.1,7.4-5.1,8.2-10.3.2-4.1,0-9.4-1.4-15.3-.9-3.8-2-7.2-3.2-10-2.3-5.6-4.7-11.1-7-16.7,2.2-.3,6-1.2,9.9-3.7,2.5-1.6,4.2-3.3,5.3-4.7,2,5.2,6.4,14.1,16,21.7,3.7,2.9,7.4,5.1,10.6,6.6.5.8,10.9,15.5,3.2,28.6-2.5,4.3-6.2,7.1-9,8.7-2.6-.3-6.3-.6-10.6-.9-3.4-.3-6.3-.5-9.9-.7-3.6-.2-9.1-.4-15.9-.3-2.9,0-7.5.1-13.3.6-5.4.5-12.7,1.4-21.3,3.4-2.2.3-5.5.4-9.1-1-11.3-4.1-12.6-18-12.7-18.9-.8-9.7,5.3-16.7,7-18.5,2.8-.7,6.9-2,11-4.9,0,0,1.4-1.1,2.8-2.4,8.8-7.9,12.6-16.9,14.2-22.1Z"/>
  </g>
</svg>