<?xml version="1.0" encoding="UTF-8"?>
<svg id="Capa_1" data-name="Capa 1" xmlns="http://www.w3.org/2000/svg" version="1.1" viewBox="0 0 1366 768">
  <defs>
    <style>
      .cls-1 {
        fill: #61b12f;
      }

      .cls-1, .cls-2, .cls-3 {
        stroke-width: 0px;
      }

      .cls-4 {
        opacity: .5;
      }

      .cls-5 {
        font-family: ArialMT, Arial;
        font-size: 53.4px;
      }

      .cls-5, .cls-3 {
        fill: #657f4c;
      }

      .cls-5, .cls-6 {
        isolation: isolate;
      }

      .cls-7 {
        stroke: #221e20;
        stroke-miterlimit: 10;
        stroke-width: .8px;
      }

      .cls-7, .cls-2 {
        fill: #2d4999;
      }

      .cls-3 {
        opacity: .6;
      }

      .cls-6 {
        opacity: .5;
      }
    </style>
  </defs>
  <g class="cls-6">
    <text class="cls-5" transform="translate(160.3 516) rotate(-90) scale(.9 1)"><tspan x="0" y="0">PARQUES DEL RIO</tspan></text>
  </g>
  <g class="cls-4">
    <g>
      <path class="cls-7" d="M848.1,320.3c7.6-4.5,31.7-19.8,40.6-49.6,10.8-35.5-4.4-77-38.4-103.1-22.4-10.9-48.3-25.6-75.4-45.5-31.8-23.3-56.7-47.4-75.4-68.1,0,0-114.5,219.2,83.9,299.6,0,0,45.3-91.9-34-165.3,0,0,91.9,29.8,98.7,132h0Z"/>
      <path class="cls-1" d="M857.5,344.6c6.1-9.2,21.4-29.8,49.4-42.7,33.9-15.6,64.8-10,75-7.8,6.2.5,14,.4,22.9-1.1,14.3-2.5,25.2-8,32.2-12.2,0,0-93.3,161.5-194.3,103.7,0,0,97.5-24.7,101.2-47.4,0,0-38-7.8-86.5,7.4h0Z"/>
      <path class="cls-7" d="M850.9,326.3c.3,25.2-8.5,43.5-17,61.6-3.5,7.5-15.6,31.8-40.1,55.9-11.6,11.4-22.8,19.5-31,24.9-15.1,9.2-36.6,19.1-63.7,24.6-38.5,7.7-90.2,6.2-143.1-30.3,0,0-76.4-52.4-80.6-146.2,0,0-11.4-154.9,144.8-197.4,0,0,14.4-1.9,26.1,5.3-3.2,0-6.6.3-10.2.8-5.2.7-9.8,1.6-14,2.7,0,0-79.8,19.2-116.4,91-11.7,22.2-16.7,42.1-19,55.4-2.8,16.3-6.8,53.2,8.7,95,6.8,18.3,15.5,32.3,21.9,41.3,7.6,10.5,19.4,24.6,36.7,37.9,6.2,4.8,18.1,13.3,34.4,21,27.6,13,53.9,16.8,73,17.6,12.1-.4,26.6-2.4,42.7-6.2,23.9-5.6,52.8-16.2,73.1-36.3,16.3-13.6,27.1-27.4,34-37.5,24.3-35.7,29-69.7,29.9-77.3,1.4-11.2,1.1-22.1,1.1-23-.3-11.7-1.7-21.7-3.3-29.4,4.9,9.8,11.6,26.8,11.9,48.5h.2Z"/>
      <polygon class="cls-2" points="849.5 320.2 857 312.8 840.8 277.7 849.5 320.2"/>
    </g>
  </g>
  <rect class="cls-3" y="23" width="1366" height="23"/>
</svg>