<?xml version="1.0" encoding="UTF-8"?>
<svg id="Capa_1" data-name="Capa 1" xmlns="http://www.w3.org/2000/svg" version="1.1" xmlns:xlink="http://www.w3.org/1999/xlink" viewBox="0 0 1366 768">
  <defs>
    <style>
      .cls-1 {
        fill: #9b8779;
      }

      .cls-1, .cls-2, .cls-3, .cls-4, .cls-5, .cls-6, .cls-7, .cls-8, .cls-9, .cls-10, .cls-11, .cls-12, .cls-13, .cls-14, .cls-15 {
        stroke-width: 0px;
      }

      .cls-2, .cls-11 {
        fill: #967e6e;
      }

      .cls-3 {
        fill: #5b5856;
      }

      .cls-16 {
        fill: #234f20;
      }

      .cls-16, .cls-17 {
        stroke: #234f20;
      }

      .cls-16, .cls-17, .cls-18, .cls-19, .cls-20 {
        stroke-miterlimit: 10;
      }

      .cls-17, .cls-18, .cls-19, .cls-20 {
        fill: none;
      }

      .cls-18 {
        stroke: #60422d;
      }

      .cls-4 {
        fill: #5b5325;
      }

      .cls-5 {
        fill: #755033;
      }

      .cls-6 {
        fill: #88b793;
      }

      .cls-7 {
        fill: #c9885b;
      }

      .cls-21 {
        opacity: .4;
      }

      .cls-8 {
        fill: #756256;
      }

      .cls-19 {
        stroke: #fff;
      }

      .cls-9 {
        fill: #7a7a7a;
      }

      .cls-10 {
        fill: #a5e9ef;
      }

      .cls-11 {
        opacity: .8;
      }

      .cls-22 {
        opacity: .2;
      }

      .cls-20 {
        stroke: #e0eadf;
      }

      .cls-12 {
        fill: #a89b79;
      }

      .cls-13 {
        fill: #f4e919;
      }

      .cls-14 {
        fill: #89877d;
      }

      .cls-15 {
        fill: #997156;
      }
    </style>
  </defs>
  <rect class="cls-10" x="-1" y="1.6" width="1366" height="764"/>
  <path class="cls-5" d="M147.7,1.6h31.7l-31.7,24-8.3,24L230.3,1.6h61.9c-22,4.2-60.2,13.6-97.7,34.7-34.5,19.4-53.5,40.4-63.3,53.4,2,38.1,2.6,77.8,1.4,119.2-.9,31.9-2.8,62.7-5.5,92.5-2.7,18.5-5,37.5-6.9,56.9-3.6,37-5.3,72.6-5.5,106.8-38.5,4.2-77.1,8.3-115.6,12.5v-116.6c9.8-33.4,15-60.4,17.9-77.4,12-71.3,5.3-104.3,19.3-173.5,5.7-28.1,12.4-50.5,16.5-63.2-4.6-4.9-9.3-10.3-13.8-16C30.8,20.6,24.5,10.7,19.6,1.6c5.5.3,11,.6,16.5.9,6.4,4.7,12.8,9.5,19.3,14.2-.6-1.4-1.9-4.8,0-8.9,1.4-3.1,4-5.2,5.5-6.2h86.7Z"/>
  <path class="cls-4" d="M461.2,1.6h-19.3l19.3,20.6,5,20.6L410.8,1.6h-37.8c13.4,3.6,36.8,11.7,59.7,29.8,21,16.7,32.7,34.7,38.7,45.9-1.2,32.7-1.6,66.9-.8,102.4.6,27.4,1.7,53.9,3.4,79.5,1.6,15.9,3.1,32.2,4.2,48.9,2.2,31.8,3.2,62.4,3.4,91.7,23.5,3.6,47.1,7.1,70.6,10.7v-100.2c-6-28.7-9.2-51.9-10.9-66.5-7.3-61.3-3.2-89.6-11.8-149.1-3.5-24.2-7.6-43.4-10.1-54.3,2.8-4.2,5.7-8.8,8.4-13.8,5-8.9,8.8-17.5,11.8-25.2-3.4.3-6.7.5-10.1.8-3.9,4.1-7.8,8.2-11.8,12.2.4-1.2,1.1-4.2,0-7.6-.9-2.7-2.4-4.4-3.4-5.4h-52.9Z"/>
  <path class="cls-4" d="M225.3,1.6h-11.4l11.4,19.2,3,19.2L195.4,1.6h-22.4c7.9,3.4,21.8,10.8,35.3,27.7,12.5,15.5,19.3,32.3,22.9,42.6-.7,30.4-.9,62.1-.5,95.2.3,25.4,1,50.1,2,73.9,1,14.8,1.8,30,2.5,45.5,1.3,29.5,1.9,58,2,85.2,13.9,3.3,27.9,6.6,41.8,9.9v-93.1c-3.5-26.7-5.4-48.3-6.5-61.8-4.3-56.9-1.9-83.3-7-138.5-2.1-22.5-4.5-40.3-6-50.4,1.7-3.9,3.3-8.2,5-12.8,2.9-8.3,5.2-16.2,7-23.4-2,.2-4,.5-6,.7-2.3,3.8-4.6,7.6-7,11.4.2-1.1.7-3.9,0-7.1-.5-2.5-1.4-4.1-2-5h-31.4Z"/>
  <path class="cls-4" d="M619,1.6h-23l23,21.3,6,21.3L559,1.6h-45c16,3.7,43.7,12,71,30.8,25,17.2,38.9,35.8,46,47.3-1.4,33.7-1.9,69-1,105.7.7,28.2,2,55.6,4,82,2,16.4,3.6,33.3,5,50.5,2.6,32.8,3.8,64.4,4,94.7,28,3.7,56,7.4,84,11v-103.3c-7.1-29.7-10.9-53.6-13-68.6-8.7-63.2-3.8-92.5-14-153.8-4.1-24.9-9-44.8-12-56,3.4-4.4,6.7-9.1,10-14.2,5.9-9.2,10.5-18,14-26-4,.3-8,.5-12,.8-4.7,4.2-9.3,8.4-14,12.6.5-1.3,1.3-4.3,0-7.9-1-2.7-2.9-4.6-4-5.5h-63Z"/>
  <path class="cls-14" d="M896.5,2.6h-15.7l15.7,21.6,4.1,21.6-44.9-43.2h-30.6c10.9,3.8,29.8,12.2,48.3,31.2,17,17.5,26.5,36.3,31.3,48-1,34.2-1.3,70-.7,107.2.4,28.6,1.4,56.4,2.7,83.2,1.3,16.7,2.5,33.7,3.4,51.2,1.8,33.3,2.6,65.3,2.7,96,19.1,3.7,38.1,7.5,57.2,11.2v-104.8c-4.8-30.1-7.4-54.4-8.8-69.6-5.9-64.1-2.6-93.8-9.5-156-2.8-25.3-6.1-45.4-8.2-56.8,2.3-4.4,4.6-9.2,6.8-14.4,4-9.4,7.1-18.3,9.5-26.4-2.7.3-5.4.5-8.2.8-3.2,4.3-6.4,8.5-9.5,12.8.3-1.3.9-4.4,0-8-.7-2.8-2-4.6-2.7-5.6h-42.9Z"/>
  <path class="cls-5" d="M362,1.6h-23l23,20,6,20L302,1.6h-45c16,3.5,43.7,11.3,71,28.9,25,16.2,38.9,33.6,46,44.4-1.4,31.7-1.9,64.8-1,99.2.7,26.5,2,52.2,4,77,2,15.4,3.6,31.2,5,47.4,2.6,30.8,3.8,60.4,4,88.8,28,3.5,56,6.9,84,10.4v-97c-7.1-27.8-10.9-50.3-13-64.4-8.7-59.3-3.8-86.8-14-144.3-4.1-23.4-9-42-12-52.6,3.4-4.1,6.7-8.5,10-13.3,5.9-8.7,10.5-16.9,14-24.4-4,.2-8,.5-12,.7-4.7,3.9-9.3,7.9-14,11.8.5-1.2,1.3-4,0-7.4-1-2.6-2.9-4.3-4-5.2h-63Z"/>
  <path class="cls-1" d="M1031,1.6h-23l23,21.6,6,21.6L971,1.6h-45c16,3.8,43.7,12.2,71,31.2,25,17.5,38.9,36.3,46,48-1.4,34.2-1.9,70-1,107.2.7,28.6,2,56.4,4,83.2,2,16.7,3.6,33.7,5,51.2,2.6,33.3,3.8,65.3,4,96,28,3.7,56,7.5,84,11.2v-104.8c-7.1-30.1-10.9-54.4-13-69.6-8.7-64.1-3.8-93.8-14-156-4.1-25.3-9-45.4-12-56.8,3.4-4.4,6.7-9.2,10-14.4,5.9-9.4,10.5-18.3,14-26.4-4,.3-8,.5-12,.8-4.7,4.3-9.3,8.5-14,12.8.5-1.3,1.3-4.4,0-8-1-2.8-2.9-4.6-4-5.6h-63Z"/>
  <path class="cls-1" d="M789.2-.4h-23l23,21.6,6,21.6L729.2-.4h-45c16,3.8,43.7,12.2,71,31.2,25,17.5,38.9,36.3,46,48-1.4,34.2-1.9,70-1,107.2.7,28.6,2,56.4,4,83.2,2,16.7,3.6,33.7,5,51.2,2.6,33.3,3.8,65.3,4,96,28,3.7,56,7.5,84,11.2v-104.8c-7.1-30.1-10.9-54.4-13-69.6-8.7-64.1-3.8-93.8-14-156-4.1-25.3-9-45.4-12-56.8,3.4-4.4,6.7-9.2,10-14.4,5.9-9.4,10.5-18.3,14-26.4-4,.3-8,.5-12,.8-4.7,4.3-9.3,8.5-14,12.8.5-1.3,1.3-4.4,0-8-1-2.8-2.9-4.6-4-5.6h-63Z"/>
  <path class="cls-12" d="M551.9-1.4h-6.8l6.8,20.1,1.8,20.1-19.6-40.3h-13.4c4.7,3.5,13,11.4,21.1,29.1,7.4,16.3,11.6,33.9,13.7,44.7-.4,31.9-.6,65.2-.3,99.9.2,26.7.6,52.6,1.2,77.6.6,15.5,1.1,31.4,1.5,47.7.8,31,1.1,60.9,1.2,89.5,8.3,3.5,16.7,7,25,10.4v-97.7c-2.1-28-3.2-50.7-3.9-64.9-2.6-59.8-1.1-87.4-4.2-145.4-1.2-23.6-2.7-42.3-3.6-53,1-4.1,2-8.6,3-13.4,1.8-8.7,3.1-17,4.2-24.6-1.2.2-2.4.5-3.6.7-1.4,4-2.8,8-4.2,11.9.1-1.2.4-4.1,0-7.5-.3-2.6-.9-4.3-1.2-5.2h-18.7Z"/>
  <path class="cls-6" d="M-1,576.6c235.8,5.4,424.7,1.5,554.6-3.2,174.5-6.3,277.8-15.2,443.2-10.5,158.9,4.5,285.8,19,368.1,30.6v172.1H-1v-189Z"/>
  <g class="cls-22">
    <image width="1438" height="667" transform="translate(-37 -36.2)" xlink:href="foodo-1.png"/>
  </g>
  <path class="cls-5" d="M1257,1.6h-23l23,22.7,6,22.7L1197,1.6h-45c16,4,43.7,12.8,71,32.7,25,18.3,38.9,38.1,46,50.4-1.4,35.9-1.9,73.4-1,112.5.7,30.1,2,59.2,4,87.3,2,17.5,3.6,35.4,5,53.7,2.6,34.9,3.8,68.5,4,100.7,28,3.9,56,7.8,84,11.7v-109.9c-7.1-31.6-10.9-57-13-73-8.7-67.3-3.8-98.4-14-163.7-4.1-26.5-9-47.6-12-59.6,3.4-4.6,6.7-9.7,10-15.1,5.9-9.8,10.5-19.2,14-27.7-4,.3-8,.6-12,.8-4.7,4.5-9.3,9-14,13.4.5-1.3,1.3-4.6,0-8.4-1-2.9-2.9-4.9-4-5.9h-63Z"/>
  <line class="cls-18" x1="1307.5" y1="31" x2="1364.5" y2="472.7"/>
  <line class="cls-18" x1="1284.5" y1="30" x2="1364.5" y2="534.4"/>
  <line class="cls-18" x1="1335.5" y1="527.4" x2="1267.5" y2="3.1"/>
  <line class="cls-18" x1="1284.5" y1="30" x2="1280.5" y2="3.1"/>
  <line class="cls-18" x1="1282.5" y1="119.5" x2="1305.5" y2="524.4"/>
  <g>
    <path class="cls-17" d="M1024.5,694.9c3.1,2.6,7.3,6.8,10,12.9,4.1,9.3,2.2,17,2,28.8-.1,7.1.3,17.3,3,29.8"/>
    <path class="cls-16" d="M1031.5,697.9c.8,2.2,1.2,5.3,0,6-1.8,1-6.2-4.1-7-5-1.9-2.1-6.2-7.6-5-9,1.3-1.4,9.6,1.8,12,8Z"/>
    <path class="cls-16" d="M1039.8,709.3c-1.2,1.1-3.1,2.1-3.8,1.3-1.1-1.1,1-5.5,1.4-6.3.9-1.9,3.3-6.3,4.5-5.7,1.3.6,1.3,7.5-2,10.7Z"/>
    <path class="cls-16" d="M1041.3,735.1c-1.2,1.1-3.1,2.1-3.8,1.3-1.1-1.1,1-5.5,1.4-6.3.9-1.9,3.3-6.3,4.5-5.7,1.3.6,1.3,7.5-2,10.7Z"/>
    <path class="cls-16" d="M1043.3,759.9c-1.2,1.1-3.1,2.1-3.8,1.3-1.1-1.1,1-5.5,1.4-6.3.9-1.9,3.3-6.3,4.5-5.7,1.3.6,1.3,7.5-2,10.7Z"/>
    <path class="cls-16" d="M1036.5,768.3c1.2.3,2.8,0,2.8-1,0-1.5-3.5-3.9-4.2-4.4-1.5-1-5.2-3.3-5.5-2.2-.3,1.2,3.3,6.8,6.9,7.6Z"/>
    <path class="cls-16" d="M1034.6,744.5c1.2.3,2.8,0,2.8-1,0-1.5-3.5-3.9-4.2-4.4-1.5-1-5.2-3.3-5.5-2.2-.3,1.2,3.3,6.8,6.9,7.6Z"/>
    <path class="cls-16" d="M1033.6,720.6c1.2.3,2.8,0,2.8-1,0-1.5-3.5-3.9-4.2-4.4-1.5-1-5.2-3.3-5.5-2.2-.3,1.2,3.3,6.8,6.9,7.6Z"/>
  </g>
  <g>
    <path class="cls-17" d="M951.4,624.2c3.5,7.4,7.3,18.8,5.1,32-3.4,19.8-18.1,31-34.8,50.9-10,11.8-23,29.6-33.9,53.6"/>
    <path class="cls-16" d="M963.2,636.3c-1.1,4.5-4.6,10.2-8.1,10.1-5.3-.1-8.6-13.2-9.1-15.5-1.4-5.5-3.6-19.2.9-20.2,4.9-1.1,19.5,12.7,16.4,25.6Z"/>
    <path class="cls-16" d="M966.6,663.9c-4.2.7-9.9.3-10.6-1.6-1-2.9,9.8-8.3,11.8-9.3,4.6-2.3,16.1-7.3,18-5.2,2,2.4-7.2,14.1-19.1,16Z"/>
    <path class="cls-16" d="M934.8,709.1c-4.2.7-9.9.3-10.6-1.6-1-2.9,9.8-8.3,11.8-9.3,4.6-2.3,16.1-7.3,18-5.2,2,2.4-7.2,14.1-19.1,16Z"/>
    <path class="cls-16" d="M905.4,753.3c-4.2.7-9.9.3-10.6-1.6-1-2.9,9.8-8.3,11.8-9.3,4.6-2.3,16.1-7.3,18-5.2,2,2.4-7.2,14.1-19.1,16Z"/>
    <path class="cls-16" d="M878.6,760.6c2.5,1.7,6.4,2.8,7.7,1.2,2-2.5-2.7-10.2-3.5-11.6-2-3.3-7.3-10.9-9.5-9.3-2.4,1.7-1.7,14.9,5.3,19.7Z"/>
    <path class="cls-16" d="M906.6,718.3c2.5,1.7,6.4,2.8,7.7,1.2,2-2.5-2.7-10.2-3.5-11.6-2-3.3-7.3-10.9-9.5-9.3-2.4,1.7-1.7,14.9,5.3,19.7Z"/>
    <path class="cls-16" d="M937,676.8c2.5,1.7,6.4,2.8,7.7,1.2,2-2.5-2.7-10.2-3.5-11.6-2-3.3-7.3-10.9-9.5-9.3-2.4,1.7-1.7,14.9,5.3,19.7Z"/>
  </g>
  <g>
    <path class="cls-17" d="M1255.7,585.9c3.1,2.6,7.3,6.8,10,12.9,4.1,9.3,2.2,17,2,28.8-.1,7.1.3,17.3,3,29.8"/>
    <path class="cls-16" d="M1262.7,588.9c.8,2.2,1.2,5.3,0,6-1.8,1-6.2-4.1-7-5-1.9-2.1-6.2-7.6-5-9,1.3-1.4,9.6,1.8,12,8Z"/>
    <path class="cls-16" d="M1271.1,600.3c-1.2,1.1-3.1,2.1-3.8,1.3-1.1-1.1,1-5.5,1.4-6.3.9-1.9,3.3-6.3,4.5-5.7,1.3.6,1.3,7.5-2,10.7Z"/>
    <path class="cls-16" d="M1272.6,626.1c-1.2,1.1-3.1,2.1-3.8,1.3-1.1-1.1,1-5.5,1.4-6.3.9-1.9,3.3-6.3,4.5-5.7,1.3.6,1.3,7.5-2,10.7Z"/>
    <path class="cls-16" d="M1274.6,650.9c-1.2,1.1-3.1,2.1-3.8,1.3-1.1-1.1,1-5.5,1.4-6.3.9-1.9,3.3-6.3,4.5-5.7,1.3.6,1.3,7.5-2,10.7Z"/>
    <path class="cls-16" d="M1267.8,659.3c1.2.3,2.8,0,2.8-1,0-1.5-3.5-3.9-4.2-4.4-1.5-1-5.2-3.3-5.5-2.2-.3,1.2,3.3,6.8,6.9,7.6Z"/>
    <path class="cls-16" d="M1265.8,635.5c1.2.3,2.8,0,2.8-1,0-1.5-3.5-3.9-4.2-4.4-1.5-1-5.2-3.3-5.5-2.2-.3,1.2,3.3,6.8,6.9,7.6Z"/>
    <path class="cls-16" d="M1264.8,611.6c1.2.3,2.8,0,2.8-1,0-1.5-3.5-3.9-4.2-4.4-1.5-1-5.2-3.3-5.5-2.2-.3,1.2,3.3,6.8,6.9,7.6Z"/>
  </g>
  <g>
    <path class="cls-17" d="M1301.2,601.5c1.3,3.8,2.8,9.5,1.9,16.2-1.3,10.1-6.8,15.7-13.2,25.8-3.8,6-8.7,15-12.8,27.2"/>
    <path class="cls-16" d="M1305.7,607.6c-.4,2.3-1.7,5.2-3.1,5.1-2,0-3.2-6.7-3.4-7.8-.5-2.8-1.4-9.7.3-10.2,1.9-.6,7.3,6.4,6.2,13Z"/>
    <path class="cls-16" d="M1307,621.6c-1.6.3-3.7.2-4-.8-.4-1.5,3.7-4.2,4.4-4.7,1.7-1.1,6.1-3.7,6.8-2.6.8,1.2-2.7,7.1-7.2,8.1Z"/>
    <path class="cls-16" d="M1295,644.5c-1.6.3-3.7.2-4-.8-.4-1.5,3.7-4.2,4.4-4.7,1.7-1.1,6.1-3.7,6.8-2.6.8,1.2-2.7,7.1-7.2,8.1Z"/>
    <path class="cls-16" d="M1283.9,666.9c-1.6.3-3.7.2-4-.8-.4-1.5,3.7-4.2,4.4-4.7,1.7-1.1,6.1-3.7,6.8-2.6.8,1.2-2.7,7.1-7.2,8.1Z"/>
    <path class="cls-16" d="M1273.7,670.6c.9.9,2.4,1.4,2.9.6.8-1.2-1-5.2-1.3-5.9-.7-1.7-2.8-5.5-3.6-4.7-.9.9-.7,7.6,2,10Z"/>
    <path class="cls-16" d="M1284.3,649.2c.9.9,2.4,1.4,2.9.6.8-1.2-1-5.2-1.3-5.9-.7-1.7-2.8-5.5-3.6-4.7-.9.9-.7,7.6,2,10Z"/>
    <path class="cls-16" d="M1295.8,628.1c.9.9,2.4,1.4,2.9.6.8-1.2-1-5.2-1.3-5.9-.7-1.7-2.8-5.5-3.6-4.7-.9.9-.7,7.6,2,10Z"/>
  </g>
  <g>
    <path class="cls-17" d="M1252.7,432.7c3.1,2.6,7.3,6.8,10,12.9,4.1,9.3,2.2,17,2,28.8-.1,7.1.3,17.3,3,29.8"/>
    <path class="cls-16" d="M1259.7,435.7c.8,2.2,1.2,5.3,0,6-1.8,1-6.2-4.1-7-5-1.9-2.1-6.2-7.6-5-9,1.3-1.4,9.6,1.8,12,8Z"/>
    <path class="cls-16" d="M1268.1,447.1c-1.2,1.1-3.1,2.1-3.8,1.3-1.1-1.1,1-5.5,1.4-6.3.9-1.9,3.3-6.3,4.5-5.7,1.3.6,1.3,7.5-2,10.7Z"/>
    <path class="cls-16" d="M1269.6,472.9c-1.2,1.1-3.1,2.1-3.8,1.3-1.1-1.1,1-5.5,1.4-6.3.9-1.9,3.3-6.3,4.5-5.7,1.3.6,1.3,7.5-2,10.7Z"/>
    <path class="cls-16" d="M1271.6,497.7c-1.2,1.1-3.1,2.1-3.8,1.3-1.1-1.1,1-5.5,1.4-6.3.9-1.9,3.3-6.3,4.5-5.7,1.3.6,1.3,7.5-2,10.7Z"/>
    <path class="cls-16" d="M1264.8,506.1c1.2.3,2.8,0,2.8-1,0-1.5-3.5-3.9-4.2-4.4-1.5-1-5.2-3.3-5.5-2.2-.3,1.2,3.3,6.8,6.9,7.6Z"/>
    <path class="cls-16" d="M1262.8,482.3c1.2.3,2.8,0,2.8-1,0-1.5-3.5-3.9-4.2-4.4-1.5-1-5.2-3.3-5.5-2.2-.3,1.2,3.3,6.8,6.9,7.6Z"/>
    <path class="cls-16" d="M1261.8,458.4c1.2.3,2.8,0,2.8-1,0-1.5-3.5-3.9-4.2-4.4-1.5-1-5.2-3.3-5.5-2.2-.3,1.2,3.3,6.8,6.9,7.6Z"/>
  </g>
  <g>
    <path class="cls-17" d="M1298.2,448.3c1.3,3.8,2.8,9.5,1.9,16.2-1.3,10.1-6.8,15.7-13.2,25.8-3.8,6-8.7,15-12.8,27.2"/>
    <path class="cls-16" d="M1302.7,454.4c-.4,2.3-1.7,5.2-3.1,5.1-2,0-3.2-6.7-3.4-7.8-.5-2.8-1.4-9.7.3-10.2,1.9-.6,7.3,6.4,6.2,13Z"/>
    <path class="cls-16" d="M1304,468.4c-1.6.3-3.7.2-4-.8-.4-1.5,3.7-4.2,4.4-4.7,1.7-1.1,6.1-3.7,6.8-2.6.8,1.2-2.7,7.1-7.2,8.1Z"/>
    <path class="cls-16" d="M1292,491.3c-1.6.3-3.7.2-4-.8-.4-1.5,3.7-4.2,4.4-4.7,1.7-1.1,6.1-3.7,6.8-2.6.8,1.2-2.7,7.1-7.2,8.1Z"/>
    <path class="cls-16" d="M1280.9,513.7c-1.6.3-3.7.2-4-.8-.4-1.5,3.7-4.2,4.4-4.7,1.7-1.1,6.1-3.7,6.8-2.6.8,1.2-2.7,7.1-7.2,8.1Z"/>
    <path class="cls-16" d="M1270.7,517.4c.9.9,2.4,1.4,2.9.6.8-1.2-1-5.2-1.3-5.9-.7-1.7-2.8-5.5-3.6-4.7-.9.9-.7,7.6,2,10Z"/>
    <path class="cls-16" d="M1281.3,495.9c.9.9,2.4,1.4,2.9.6.8-1.2-1-5.2-1.3-5.9-.7-1.7-2.8-5.5-3.6-4.7-.9.9-.7,7.6,2,10Z"/>
    <path class="cls-16" d="M1292.8,474.9c.9.9,2.4,1.4,2.9.6.8-1.2-1-5.2-1.3-5.9-.7-1.7-2.8-5.5-3.6-4.7-.9.9-.7,7.6,2,10Z"/>
  </g>
  <g>
    <path class="cls-17" d="M636.8,581.6c5.5,5.3,12.9,13.9,17.8,26.7,7.3,19.1,4,35,3.6,59.5-.2,14.6.5,35.6,5.3,61.5"/>
    <path class="cls-16" d="M649.3,587.8c1.5,4.5,2.1,11,0,12.3-3.1,2-11.1-8.4-12.5-10.3-3.3-4.4-11-15.7-8.9-18.5,2.3-3,17.1,3.7,21.4,16.4Z"/>
    <path class="cls-16" d="M664.1,611.2c-2.1,2.3-5.6,4.2-6.8,2.8-1.9-2.2,1.8-11.4,2.5-13,1.6-3.8,5.9-13,8-11.7,2.3,1.3,2.4,15.5-3.6,22Z"/>
    <path class="cls-16" d="M666.7,664.3c-2.1,2.3-5.6,4.2-6.8,2.8-1.9-2.2,1.8-11.4,2.5-13,1.6-3.8,5.9-13,8-11.7,2.3,1.3,2.4,15.5-3.6,22Z"/>
    <path class="cls-16" d="M670.3,715.6c-2.1,2.3-5.6,4.2-6.8,2.8-1.9-2.2,1.8-11.4,2.5-13,1.6-3.8,5.9-13,8-11.7,2.3,1.3,2.4,15.5-3.6,22Z"/>
    <path class="cls-16" d="M658.2,732.8c2.2.5,5,0,5-2,0-3-6.3-8.1-7.4-9-2.7-2.1-9.3-6.9-9.8-4.6-.6,2.5,5.9,14.1,12.2,15.6Z"/>
    <path class="cls-16" d="M654.7,683.7c2.2.5,5,0,5-2,0-3-6.3-8.1-7.4-9-2.7-2.1-9.3-6.9-9.8-4.6-.6,2.5,5.9,14.1,12.2,15.6Z"/>
    <path class="cls-16" d="M653,634.5c2.2.5,5,0,5-2,0-3-6.3-8.1-7.4-9-2.7-2.1-9.3-6.9-9.8-4.6-.6,2.5,5.9,14.1,12.2,15.6Z"/>
  </g>
  <g>
    <path class="cls-17" d="M717.7,613.6c2.4,7.8,4.9,19.6,3.4,33.4-2.3,20.7-12.2,32.4-23.4,53.2-6.7,12.4-15.4,30.9-22.8,56"/>
    <path class="cls-16" d="M725.7,626.3c-.7,4.7-3.1,10.6-5.5,10.6-3.6-.1-5.7-13.8-6.1-16.2-.9-5.7-2.4-20,.6-21.1,3.3-1.2,13.1,13.3,11,26.7Z"/>
    <path class="cls-16" d="M728,655.2c-2.8.7-6.7.3-7.1-1.7-.7-3,6.6-8.7,7.9-9.7,3.1-2.4,10.8-7.6,12.1-5.4,1.4,2.5-4.8,14.7-12.9,16.7Z"/>
    <path class="cls-16" d="M706.6,702.4c-2.8.7-6.7.3-7.1-1.7-.7-3,6.6-8.7,7.9-9.7,3.1-2.4,10.8-7.6,12.1-5.4,1.4,2.5-4.8,14.7-12.9,16.7Z"/>
    <path class="cls-16" d="M686.9,748.5c-2.8.7-6.7.3-7.1-1.7-.7-3,6.6-8.7,7.9-9.7,3.1-2.4,10.8-7.6,12.1-5.4,1.4,2.5-4.8,14.7-12.9,16.7Z"/>
    <path class="cls-16" d="M668.8,756.1c1.7,1.8,4.3,2.9,5.2,1.2,1.3-2.6-1.8-10.7-2.4-12.1-1.3-3.4-4.9-11.4-6.4-9.8-1.6,1.8-1.2,15.6,3.5,20.6Z"/>
    <path class="cls-16" d="M687.7,711.9c1.7,1.8,4.3,2.9,5.2,1.2,1.3-2.6-1.8-10.7-2.4-12.1-1.3-3.4-4.9-11.4-6.4-9.8-1.6,1.8-1.2,15.6,3.5,20.6Z"/>
    <path class="cls-16" d="M708.1,668.6c1.7,1.8,4.3,2.9,5.2,1.2,1.3-2.6-1.8-10.7-2.4-12.1-1.3-3.4-4.9-11.4-6.4-9.8-1.6,1.8-1.2,15.6,3.5,20.6Z"/>
  </g>
  <g>
    <path class="cls-17" d="M1339.1,619.4c2.4,7.8,4.9,19.6,3.4,33.4-2.3,20.7-12.2,32.4-23.4,53.2-6.7,12.4-15.4,30.9-22.8,56"/>
    <path class="cls-16" d="M1347,632.1c-.7,4.7-3.1,10.6-5.5,10.6-3.6-.1-5.7-13.8-6.1-16.2-.9-5.7-2.4-20,.6-21.1,3.3-1.2,13.1,13.3,11,26.7Z"/>
    <path class="cls-16" d="M1349.3,661c-2.8.7-6.7.3-7.1-1.7-.7-3,6.6-8.7,7.9-9.7,3.1-2.4,10.8-7.6,12.1-5.4,1.4,2.5-4.8,14.7-12.9,16.7Z"/>
    <path class="cls-16" d="M1328,708.1c-2.8.7-6.7.3-7.1-1.7-.7-3,6.6-8.7,7.9-9.7,3.1-2.4,10.8-7.6,12.1-5.4,1.4,2.5-4.8,14.7-12.9,16.7Z"/>
    <path class="cls-16" d="M1308.2,754.3c-2.8.7-6.7.3-7.1-1.7-.7-3,6.6-8.7,7.9-9.7,3.1-2.4,10.8-7.6,12.1-5.4,1.4,2.5-4.8,14.7-12.9,16.7Z"/>
    <path class="cls-16" d="M1290.2,761.8c1.7,1.8,4.3,2.9,5.2,1.2,1.3-2.6-1.8-10.7-2.4-12.1-1.3-3.4-4.9-11.4-6.4-9.8-1.6,1.8-1.2,15.6,3.5,20.6Z"/>
    <path class="cls-16" d="M1309,717.7c1.7,1.8,4.3,2.9,5.2,1.2,1.3-2.6-1.8-10.7-2.4-12.1-1.3-3.4-4.9-11.4-6.4-9.8-1.6,1.8-1.2,15.6,3.5,20.6Z"/>
    <path class="cls-16" d="M1329.4,674.4c1.7,1.8,4.3,2.9,5.2,1.2,1.3-2.6-1.8-10.7-2.4-12.1-1.3-3.4-4.9-11.4-6.4-9.8-1.6,1.8-1.2,15.6,3.5,20.6Z"/>
  </g>
  <g>
    <path class="cls-17" d="M67.9,619.4c-2.8,7.8-5.9,19.6-4.1,33.4,2.7,20.7,14.6,32.4,28.1,53.2,8,12.4,18.5,30.9,27.3,56"/>
    <path class="cls-16" d="M58.3,632.1c.9,4.7,3.7,10.6,6.6,10.6,4.3-.1,6.9-13.8,7.3-16.2,1.1-5.7,2.9-20-.7-21.1-4-1.2-15.7,13.3-13.2,26.7Z"/>
    <path class="cls-16" d="M55.6,661c3.4.7,8,.3,8.5-1.7.8-3-7.9-8.7-9.5-9.7-3.7-2.4-13-7.6-14.5-5.4-1.6,2.5,5.8,14.7,15.4,16.7Z"/>
    <path class="cls-16" d="M81.2,708.1c3.4.7,8,.3,8.5-1.7.8-3-7.9-8.7-9.5-9.7-3.7-2.4-13-7.6-14.5-5.4-1.6,2.5,5.8,14.7,15.4,16.7Z"/>
    <path class="cls-16" d="M104.9,754.3c3.4.7,8,.3,8.5-1.7.8-3-7.9-8.7-9.5-9.7-3.7-2.4-13-7.6-14.5-5.4-1.6,2.5,5.8,14.7,15.4,16.7Z"/>
    <path class="cls-16" d="M126.5,761.8c-2,1.8-5.2,2.9-6.2,1.2-1.6-2.6,2.2-10.7,2.8-12.1,1.6-3.4,5.9-11.4,7.7-9.8,2,1.8,1.4,15.6-4.3,20.6Z"/>
    <path class="cls-16" d="M103.9,717.7c-2,1.8-5.2,2.9-6.2,1.2-1.6-2.6,2.2-10.7,2.8-12.1,1.6-3.4,5.9-11.4,7.7-9.8,2,1.8,1.4,15.6-4.3,20.6Z"/>
    <path class="cls-16" d="M79.5,674.4c-2,1.8-5.2,2.9-6.2,1.2-1.6-2.6,2.2-10.7,2.8-12.1,1.6-3.4,5.9-11.4,7.7-9.8,2,1.8,1.4,15.6-4.3,20.6Z"/>
  </g>
  <g>
    <path class="cls-17" d="M353.5,621.1c3.3,2.2,7.9,5.9,10.9,11.4,4.4,8.2,2.4,14.9,2.2,25.4-.1,6.2.3,15.2,3.3,26.2"/>
    <path class="cls-16" d="M361.1,623.8c.9,1.9,1.3,4.7,0,5.2-1.9.9-6.7-3.6-7.6-4.4-2-1.9-6.7-6.7-5.4-7.9,1.4-1.3,10.5,1.6,13,7Z"/>
    <path class="cls-16" d="M370.1,633.8c-1.3,1-3.4,1.8-4.2,1.2-1.2-.9,1.1-4.8,1.5-5.5,1-1.6,3.6-5.5,4.9-5,1.4.6,1.5,6.6-2.2,9.4Z"/>
    <path class="cls-16" d="M371.7,656.4c-1.3,1-3.4,1.8-4.2,1.2-1.2-.9,1.1-4.8,1.5-5.5,1-1.6,3.6-5.5,4.9-5,1.4.6,1.5,6.6-2.2,9.4Z"/>
    <path class="cls-16" d="M373.9,678.3c-1.3,1-3.4,1.8-4.2,1.2-1.2-.9,1.1-4.8,1.5-5.5,1-1.6,3.6-5.5,4.9-5,1.4.6,1.5,6.6-2.2,9.4Z"/>
    <path class="cls-16" d="M366.5,685.6c1.3.2,3.1,0,3.1-.9,0-1.3-3.8-3.5-4.5-3.8-1.6-.9-5.7-2.9-6-2-.4,1.1,3.6,6,7.5,6.7Z"/>
    <path class="cls-16" d="M364.4,664.7c1.3.2,3.1,0,3.1-.9,0-1.3-3.8-3.5-4.5-3.8-1.6-.9-5.7-2.9-6-2-.4,1.1,3.6,6,7.5,6.7Z"/>
    <path class="cls-16" d="M363.3,643.7c1.3.2,3.1,0,3.1-.9,0-1.3-3.8-3.5-4.5-3.8-1.6-.9-5.7-2.9-6-2-.4,1.1,3.6,6,7.5,6.7Z"/>
  </g>
  <g>
    <path class="cls-17" d="M446.8,648.8c1.4,3.3,3,8.4,2.1,14.2-1.4,8.8-7.4,13.8-14.3,22.7-4.1,5.3-9.4,13.2-13.9,23.9"/>
    <path class="cls-16" d="M451.7,654.2c-.4,2-1.9,4.5-3.3,4.5-2.2,0-3.5-5.9-3.7-6.9-.6-2.4-1.5-8.5.3-9,2-.5,8,5.7,6.7,11.4Z"/>
    <path class="cls-16" d="M453,666.5c-1.7.3-4.1.1-4.3-.7-.4-1.3,4-3.7,4.8-4.1,1.9-1,6.6-3.3,7.4-2.3.8,1.1-3,6.3-7.8,7.1Z"/>
    <path class="cls-16" d="M440,686.6c-1.7.3-4.1.1-4.3-.7-.4-1.3,4-3.7,4.8-4.1,1.9-1,6.6-3.3,7.4-2.3.8,1.1-3,6.3-7.8,7.1Z"/>
    <path class="cls-16" d="M428,706.3c-1.7.3-4.1.1-4.3-.7-.4-1.3,4-3.7,4.8-4.1,1.9-1,6.6-3.3,7.4-2.3.8,1.1-3,6.3-7.8,7.1Z"/>
    <path class="cls-16" d="M417,709.5c1,.8,2.6,1.3,3.2.5.8-1.1-1.1-4.5-1.4-5.2-.8-1.5-3-4.8-3.9-4.2-1,.8-.7,6.7,2.2,8.8Z"/>
    <path class="cls-16" d="M428.5,690.7c1,.8,2.6,1.3,3.2.5.8-1.1-1.1-4.5-1.4-5.2-.8-1.5-3-4.8-3.9-4.2-1,.8-.7,6.7,2.2,8.8Z"/>
    <path class="cls-16" d="M440.9,672.2c1,.8,2.6,1.3,3.2.5.8-1.1-1.1-4.5-1.4-5.2-.8-1.5-3-4.8-3.9-4.2-1,.8-.7,6.7,2.2,8.8Z"/>
  </g>
  <g>
    <path class="cls-20" d="M245.1,587.5c5.5,5.3,12.9,13.9,17.8,26.7,7.3,19.1,4,35,3.6,59.5-.2,14.6.5,35.6,5.3,61.5"/>
    <path class="cls-20" d="M257.5,593.6c1.5,4.5,2.1,11,0,12.3-3.1,2-11.1-8.4-12.5-10.3-3.3-4.4-11-15.7-8.9-18.5,2.3-3,17.1,3.7,21.4,16.4Z"/>
    <path class="cls-20" d="M272.3,617.1c-2.1,2.3-5.6,4.2-6.8,2.8-1.9-2.2,1.8-11.4,2.5-13,1.6-3.8,5.9-13,8-11.7,2.3,1.3,2.4,15.5-3.6,22Z"/>
    <path class="cls-20" d="M275,670.2c-2.1,2.3-5.6,4.2-6.8,2.8-1.9-2.2,1.8-11.4,2.5-13,1.6-3.8,5.9-13,8-11.7,2.3,1.3,2.4,15.5-3.6,22Z"/>
    <path class="cls-20" d="M278.6,721.5c-2.1,2.3-5.6,4.2-6.8,2.8-1.9-2.2,1.8-11.4,2.5-13,1.6-3.8,5.9-13,8-11.7,2.3,1.3,2.4,15.5-3.6,22Z"/>
    <path class="cls-20" d="M266.5,738.7c2.2.5,5,0,5-2,0-3-6.3-8.1-7.4-9-2.7-2.1-9.3-6.9-9.8-4.6-.6,2.5,5.9,14.1,12.2,15.6Z"/>
    <path class="cls-20" d="M263,689.6c2.2.5,5,0,5-2,0-3-6.3-8.1-7.4-9-2.7-2.1-9.3-6.9-9.8-4.6-.6,2.5,5.9,14.1,12.2,15.6Z"/>
    <path class="cls-20" d="M261.2,640.4c2.2.5,5,0,5-2,0-3-6.3-8.1-7.4-9-2.7-2.1-9.3-6.9-9.8-4.6-.6,2.5,5.9,14.1,12.2,15.6Z"/>
  </g>
  <g>
    <path class="cls-20" d="M703.1,611.5c2.4,7.8,4.9,19.6,3.4,33.4-2.3,20.7-12.2,32.4-23.4,53.2-6.7,12.4-15.4,30.9-22.8,56"/>
    <path class="cls-20" d="M711,624.1c-.7,4.7-3.1,10.6-5.5,10.6-3.6-.1-5.7-13.8-6.1-16.2-.9-5.7-2.4-20,.6-21.1,3.3-1.2,13.1,13.3,11,26.7Z"/>
    <path class="cls-20" d="M713.3,653c-2.8.7-6.7.3-7.1-1.7-.7-3,6.6-8.7,7.9-9.7,3.1-2.4,10.8-7.6,12.1-5.4,1.4,2.5-4.8,14.7-12.9,16.7Z"/>
    <path class="cls-20" d="M692,700.2c-2.8.7-6.7.3-7.1-1.7-.7-3,6.6-8.7,7.9-9.7,3.1-2.4,10.8-7.6,12.1-5.4,1.4,2.5-4.8,14.7-12.9,16.7Z"/>
    <path class="cls-20" d="M672.2,746.3c-2.8.7-6.7.3-7.1-1.7-.7-3,6.6-8.7,7.9-9.7,3.1-2.4,10.8-7.6,12.1-5.4,1.4,2.5-4.8,14.7-12.9,16.7Z"/>
    <path class="cls-20" d="M654.2,753.9c1.7,1.8,4.3,2.9,5.2,1.2,1.3-2.6-1.8-10.7-2.4-12.1-1.3-3.4-4.9-11.4-6.4-9.8-1.6,1.8-1.2,15.6,3.5,20.6Z"/>
    <path class="cls-20" d="M673,709.7c1.7,1.8,4.3,2.9,5.2,1.2,1.3-2.6-1.8-10.7-2.4-12.1-1.3-3.4-4.9-11.4-6.4-9.8-1.6,1.8-1.2,15.6,3.5,20.6Z"/>
    <path class="cls-20" d="M693.4,666.4c1.7,1.8,4.3,2.9,5.2,1.2,1.3-2.6-1.8-10.7-2.4-12.1-1.3-3.4-4.9-11.4-6.4-9.8-1.6,1.8-1.2,15.6,3.5,20.6Z"/>
  </g>
  <g>
    <path class="cls-20" d="M1103.5,617.6c3.7,8.2,7.7,20.7,5.4,35.3-3.5,21.9-19.1,34.2-36.8,56.2-10.5,13.1-24.2,32.6-35.8,59.1"/>
    <path class="cls-20" d="M1116,630.9c-1.1,5-4.9,11.2-8.6,11.2-5.6-.1-9-14.5-9.6-17.1-1.4-6.1-3.8-21.2.9-22.3,5.2-1.2,20.5,14,17.3,28.2Z"/>
    <path class="cls-20" d="M1119.5,661.4c-4.4.7-10.5.4-11.2-1.8-1-3.2,10.4-9.2,12.4-10.2,4.8-2.5,17-8.1,18.9-5.7,2.1,2.6-7.6,15.6-20.2,17.7Z"/>
    <path class="cls-20" d="M1086,711.3c-4.4.7-10.5.4-11.2-1.8-1-3.2,10.4-9.2,12.4-10.2,4.8-2.5,17-8.1,18.9-5.7,2.1,2.6-7.6,15.6-20.2,17.7Z"/>
    <path class="cls-20" d="M1055,760c-4.4.7-10.5.4-11.2-1.8-1-3.2,10.4-9.2,12.4-10.2,4.8-2.5,17-8.1,18.9-5.7,2.1,2.6-7.6,15.6-20.2,17.7Z"/>
    <path class="cls-20" d="M1026.7,768c2.6,1.9,6.8,3.1,8.2,1.3,2.1-2.7-2.8-11.3-3.7-12.8-2.1-3.6-7.7-12-10-10.3-2.6,1.9-1.8,16.5,5.6,21.8Z"/>
    <path class="cls-20" d="M1056.3,721.4c2.6,1.9,6.8,3.1,8.2,1.3,2.1-2.7-2.8-11.3-3.7-12.8-2.1-3.6-7.7-12-10-10.3-2.6,1.9-1.8,16.5,5.6,21.8Z"/>
    <path class="cls-20" d="M1088.3,675.6c2.6,1.9,6.8,3.1,8.2,1.3,2.1-2.7-2.8-11.3-3.7-12.8-2.1-3.6-7.7-12-10-10.3-2.6,1.9-1.8,16.5,5.6,21.8Z"/>
  </g>
  <g>
    <path class="cls-20" d="M1295.1,616.5c2.4,7.8,4.9,19.6,3.4,33.4-2.3,20.7-12.2,32.4-23.4,53.2-6.7,12.4-15.4,30.9-22.8,56"/>
    <path class="cls-20" d="M1303,629.1c-.7,4.7-3.1,10.6-5.5,10.6-3.6-.1-5.7-13.8-6.1-16.2-.9-5.7-2.4-20,.6-21.1,3.3-1.2,13.1,13.3,11,26.7Z"/>
    <path class="cls-20" d="M1305.3,658c-2.8.7-6.7.3-7.1-1.7-.7-3,6.6-8.7,7.9-9.7,3.1-2.4,10.8-7.6,12.1-5.4,1.4,2.5-4.8,14.7-12.9,16.7Z"/>
    <path class="cls-20" d="M1284,705.2c-2.8.7-6.7.3-7.1-1.7-.7-3,6.6-8.7,7.9-9.7,3.1-2.4,10.8-7.6,12.1-5.4,1.4,2.5-4.8,14.7-12.9,16.7Z"/>
    <path class="cls-20" d="M1264.2,751.3c-2.8.7-6.7.3-7.1-1.7-.7-3,6.6-8.7,7.9-9.7,3.1-2.4,10.8-7.6,12.1-5.4,1.4,2.5-4.8,14.7-12.9,16.7Z"/>
    <path class="cls-20" d="M1246.2,758.9c1.7,1.8,4.3,2.9,5.2,1.2,1.3-2.6-1.8-10.7-2.4-12.1-1.3-3.4-4.9-11.4-6.4-9.8-1.6,1.8-1.2,15.6,3.5,20.6Z"/>
    <path class="cls-20" d="M1265,714.7c1.7,1.8,4.3,2.9,5.2,1.2,1.3-2.6-1.8-10.7-2.4-12.1-1.3-3.4-4.9-11.4-6.4-9.8-1.6,1.8-1.2,15.6,3.5,20.6Z"/>
    <path class="cls-20" d="M1285.4,671.4c1.7,1.8,4.3,2.9,5.2,1.2,1.3-2.6-1.8-10.7-2.4-12.1-1.3-3.4-4.9-11.4-6.4-9.8-1.6,1.8-1.2,15.6,3.5,20.6Z"/>
  </g>
  <g>
    <path class="cls-20" d="M38.7,611.5c-2.3,7.8-4.8,19.6-3.3,33.4,2.2,20.7,11.9,32.4,22.9,53.2,6.5,12.4,15.1,30.9,22.3,56"/>
    <path class="cls-20" d="M30.9,624.1c.7,4.7,3,10.6,5.3,10.6,3.5-.1,5.6-13.8,6-16.2.9-5.7,2.4-20-.6-21.1-3.2-1.2-12.8,13.3-10.8,26.7Z"/>
    <path class="cls-20" d="M28.7,653c2.8.7,6.5.3,6.9-1.7.7-3-6.5-8.7-7.7-9.7-3-2.4-10.6-7.6-11.8-5.4-1.3,2.5,4.7,14.7,12.6,16.7Z"/>
    <path class="cls-20" d="M49.6,700.2c2.8.7,6.5.3,6.9-1.7.7-3-6.5-8.7-7.7-9.7-3-2.4-10.6-7.6-11.8-5.4-1.3,2.5,4.7,14.7,12.6,16.7Z"/>
    <path class="cls-20" d="M68.9,746.3c2.8.7,6.5.3,6.9-1.7.7-3-6.5-8.7-7.7-9.7-3-2.4-10.6-7.6-11.8-5.4-1.3,2.5,4.7,14.7,12.6,16.7Z"/>
    <path class="cls-20" d="M86.5,753.9c-1.6,1.8-4.2,2.9-5.1,1.2-1.3-2.6,1.8-10.7,2.3-12.1,1.3-3.4,4.8-11.4,6.2-9.8,1.6,1.8,1.1,15.6-3.5,20.6Z"/>
    <path class="cls-20" d="M68.1,709.7c-1.6,1.8-4.2,2.9-5.1,1.2-1.3-2.6,1.8-10.7,2.3-12.1,1.3-3.4,4.8-11.4,6.2-9.8,1.6,1.8,1.1,15.6-3.5,20.6Z"/>
    <path class="cls-20" d="M48.2,666.4c-1.6,1.8-4.2,2.9-5.1,1.2-1.3-2.6,1.8-10.7,2.3-12.1,1.3-3.4,4.8-11.4,6.2-9.8,1.6,1.8,1.1,15.6-3.5,20.6Z"/>
  </g>
  <g class="cls-21">
    <image width="102" height="107" transform="translate(150 131.6)" xlink:href="foodo-2.png"/>
  </g>
  <g class="cls-21">
    <image width="102" height="107" transform="translate(463 339.6)" xlink:href="foodo-3.png"/>
  </g>
  <g class="cls-21">
    <image width="102" height="108" transform="translate(1270 228.6)" xlink:href="foodo-4.png"/>
  </g>
  <g class="cls-21">
    <image width="102" height="108" transform="translate(426 221.6)" xlink:href="foodo-5.png"/>
  </g>
  <g class="cls-21">
    <image width="102" height="108" transform="translate(478 490.6)" xlink:href="foodo-6.png"/>
  </g>
  <g class="cls-21">
    <image width="102" height="108" transform="translate(597 304.6)" xlink:href="foodo-7.png"/>
  </g>
  <g class="cls-21">
    <image width="102" height="108" transform="translate(853 563.6)" xlink:href="foodo-8.png"/>
  </g>
  <g class="cls-21">
    <image width="102" height="108" transform="translate(740 464.6)" xlink:href="foodo-9.png"/>
  </g>
  <g class="cls-21">
    <image width="102" height="108" transform="translate(725 114.6)" xlink:href="foodo-10.png"/>
  </g>
  <g class="cls-21">
    <image width="102" height="107" transform="translate(1022 329.6)" xlink:href="foodo-11.png"/>
  </g>
  <g class="cls-21">
    <image width="102" height="107" transform="translate(1007 149.6)" xlink:href="foodo-12.png"/>
  </g>
  <ellipse class="cls-13" cx="1321" cy="282.2" rx="5" ry="5"/>
  <ellipse class="cls-13" cx="1058" cy="202.6" rx="5" ry="5"/>
  <ellipse class="cls-13" cx="1073" cy="383.6" rx="5" ry="5"/>
  <ellipse class="cls-13" cx="904" cy="619.4" rx="5" ry="5"/>
  <ellipse class="cls-13" cx="791" cy="517.9" rx="5" ry="5"/>
  <ellipse class="cls-13" cx="776" cy="167.8" rx="5" ry="5"/>
  <ellipse class="cls-13" cx="648" cy="360.8" rx="5" ry="5"/>
  <ellipse class="cls-13" cx="514" cy="392.6" rx="5" ry="5"/>
  <ellipse class="cls-13" cx="529" cy="543.8" rx="5" ry="5"/>
  <ellipse class="cls-13" cx="477" cy="277.2" rx="5" ry="5"/>
  <ellipse class="cls-13" cx="201" cy="185.7" rx="5" ry="5"/>
  <g>
    <path class="cls-19" d="M101.8,579.9c4.4,10.1,9.1,25.4,6.3,43.2-4.2,26.8-22.6,41.9-43.5,68.8-12.4,16-28.7,40-42.4,72.5"/>
    <path class="cls-19" d="M116.6,596.3c-1.3,6.1-5.8,13.8-10.2,13.7-6.6-.1-10.7-17.8-11.4-20.9-1.7-7.4-4.6-25.9,1.1-27.3,6.2-1.5,24.3,17.2,20.5,34.6Z"/>
    <path class="cls-19" d="M120.8,633.7c-5.2.9-12.4.4-13.2-2.2-1.2-3.9,12.3-11.2,14.7-12.5,5.7-3.1,20.1-9.9,22.4-7,2.5,3.2-9,19.1-23.9,21.7Z"/>
    <path class="cls-19" d="M81.1,694.8c-5.2.9-12.4.4-13.2-2.2-1.2-3.9,12.3-11.2,14.7-12.5,5.7-3.1,20.1-9.9,22.4-7,2.5,3.2-9,19.1-23.9,21.7Z"/>
    <path class="cls-19" d="M44.4,754.5c-5.2.9-12.4.4-13.2-2.2-1.2-3.9,12.3-11.2,14.7-12.5,5.7-3.1,20.1-9.9,22.4-7,2.5,3.2-9,19.1-23.9,21.7Z"/>
    <path class="cls-19" d="M10.9,764.3c3.1,2.3,8,3.8,9.7,1.6,2.5-3.3-3.4-13.8-4.4-15.7-2.5-4.4-9.1-14.7-11.9-12.6-3,2.3-2.2,20.2,6.6,26.7Z"/>
    <path class="cls-19" d="M45.9,707.2c3.1,2.3,8,3.8,9.7,1.6,2.5-3.3-3.4-13.8-4.4-15.7-2.5-4.4-9.1-14.7-11.9-12.6-3,2.3-2.2,20.2,6.6,26.7Z"/>
    <path class="cls-19" d="M83.8,651.1c3.1,2.3,8,3.8,9.7,1.6,2.5-3.3-3.4-13.8-4.4-15.7-2.5-4.4-9.1-14.7-11.9-12.6-3,2.3-2.2,20.2,6.6,26.7Z"/>
  </g>
  <g>
    <path class="cls-17" d="M903.2,225.3c2,4.2,4.2,10.6,2.9,18-1.9,11.2-10.3,17.5-19.9,28.6-5.7,6.7-13.1,16.6-19.4,30.2"/>
    <path class="cls-16" d="M910,232.1c-.6,2.5-2.6,5.7-4.6,5.7-3,0-4.9-7.4-5.2-8.7-.8-3.1-2.1-10.8.5-11.4,2.8-.6,11.1,7.2,9.4,14.4Z"/>
    <path class="cls-16" d="M911.9,247.6c-2.4.4-5.7.2-6-.9-.6-1.6,5.6-4.7,6.7-5.2,2.6-1.3,9.2-4.1,10.2-2.9,1.1,1.3-4.1,7.9-10.9,9Z"/>
    <path class="cls-16" d="M893.8,273.1c-2.4.4-5.7.2-6-.9-.6-1.6,5.6-4.7,6.7-5.2,2.6-1.3,9.2-4.1,10.2-2.9,1.1,1.3-4.1,7.9-10.9,9Z"/>
    <path class="cls-16" d="M877,297.9c-2.4.4-5.7.2-6-.9-.6-1.6,5.6-4.7,6.7-5.2,2.6-1.3,9.2-4.1,10.2-2.9,1.1,1.3-4.1,7.9-10.9,9Z"/>
    <path class="cls-16" d="M861.7,302c1.4,1,3.7,1.6,4.4.7,1.1-1.4-1.5-5.8-2-6.5-1.1-1.8-4.2-6.1-5.4-5.3-1.4,1-1,8.4,3,11.1Z"/>
    <path class="cls-16" d="M877.7,278.2c1.4,1,3.7,1.6,4.4.7,1.1-1.4-1.5-5.8-2-6.5-1.1-1.8-4.2-6.1-5.4-5.3-1.4,1-1,8.4,3,11.1Z"/>
    <path class="cls-16" d="M895,254.9c1.4,1,3.7,1.6,4.4.7,1.1-1.4-1.5-5.8-2-6.5-1.1-1.8-4.2-6.1-5.4-5.3-1.4,1-1,8.4,3,11.1Z"/>
  </g>
  <g>
    <path class="cls-17" d="M837,220c-1.2,4.2-2.5,10.6-1.8,18,1.2,11.2,6.3,17.5,12.1,28.6,3.5,6.7,8,16.6,11.8,30.2"/>
    <path class="cls-16" d="M832.9,226.8c.4,2.5,1.6,5.7,2.8,5.7,1.8,0,3-7.4,3.2-8.7.5-3.1,1.3-10.8-.3-11.4-1.7-.6-6.8,7.2-5.7,14.4Z"/>
    <path class="cls-16" d="M831.7,242.4c1.5.4,3.4.2,3.7-.9.3-1.6-3.4-4.7-4.1-5.2-1.6-1.3-5.6-4.1-6.2-2.9-.7,1.3,2.5,7.9,6.6,9Z"/>
    <path class="cls-16" d="M842.8,267.8c1.5.4,3.4.2,3.7-.9.3-1.6-3.4-4.7-4.1-5.2-1.6-1.3-5.6-4.1-6.2-2.9-.7,1.3,2.5,7.9,6.6,9Z"/>
    <path class="cls-16" d="M853,292.6c1.5.4,3.4.2,3.7-.9.3-1.6-3.4-4.7-4.1-5.2-1.6-1.3-5.6-4.1-6.2-2.9-.7,1.3,2.5,7.9,6.6,9Z"/>
    <path class="cls-16" d="M862.3,296.7c-.9,1-2.2,1.6-2.7.7-.7-1.4.9-5.8,1.2-6.5.7-1.8,2.5-6.1,3.3-5.3.8,1,.6,8.4-1.8,11.1Z"/>
    <path class="cls-16" d="M852.6,272.9c-.9,1-2.2,1.6-2.7.7-.7-1.4.9-5.8,1.2-6.5.7-1.8,2.5-6.1,3.3-5.3.8,1,.6,8.4-1.8,11.1Z"/>
    <path class="cls-16" d="M842,249.6c-.9,1-2.2,1.6-2.7.7-.7-1.4.9-5.8,1.2-6.5.7-1.8,2.5-6.1,3.3-5.3.8,1,.6,8.4-1.8,11.1Z"/>
  </g>
  <g>
    <path class="cls-17" d="M743.8,258c2,4.2,4.2,10.6,2.9,18-1.9,11.2-10.3,17.5-19.9,28.6-5.7,6.7-13.1,16.6-19.4,30.2"/>
    <path class="cls-16" d="M750.6,264.8c-.6,2.5-2.6,5.7-4.6,5.7-3,0-4.9-7.4-5.2-8.7-.8-3.1-2.1-10.8.5-11.4,2.8-.6,11.1,7.2,9.4,14.4Z"/>
    <path class="cls-16" d="M752.5,280.4c-2.4.4-5.7.2-6-.9-.6-1.6,5.6-4.7,6.7-5.2,2.6-1.3,9.2-4.1,10.2-2.9,1.1,1.3-4.1,7.9-10.9,9Z"/>
    <path class="cls-16" d="M734.4,305.8c-2.4.4-5.7.2-6-.9-.6-1.6,5.6-4.7,6.7-5.2,2.6-1.3,9.2-4.1,10.2-2.9,1.1,1.3-4.1,7.9-10.9,9Z"/>
    <path class="cls-16" d="M717.6,330.6c-2.4.4-5.7.2-6-.9-.6-1.6,5.6-4.7,6.7-5.2,2.6-1.3,9.2-4.1,10.2-2.9,1.1,1.3-4.1,7.9-10.9,9Z"/>
    <path class="cls-16" d="M702.3,334.7c1.4,1,3.7,1.6,4.4.7,1.1-1.4-1.5-5.8-2-6.5-1.1-1.8-4.2-6.1-5.4-5.3-1.4,1-1,8.4,3,11.1Z"/>
    <path class="cls-16" d="M718.3,310.9c1.4,1,3.7,1.6,4.4.7,1.1-1.4-1.5-5.8-2-6.5-1.1-1.8-4.2-6.1-5.4-5.3-1.4,1-1,8.4,3,11.1Z"/>
    <path class="cls-16" d="M735.6,287.6c1.4,1,3.7,1.6,4.4.7,1.1-1.4-1.5-5.8-2-6.5-1.1-1.8-4.2-6.1-5.4-5.3-1.4,1-1,8.4,3,11.1Z"/>
  </g>
  <g>
    <path class="cls-17" d="M1139.8,206c2,4.2,4.2,10.6,2.9,18-1.9,11.2-10.3,17.5-19.9,28.6-5.7,6.7-13.1,16.6-19.4,30.2"/>
    <path class="cls-16" d="M1146.6,212.8c-.6,2.5-2.6,5.7-4.6,5.7-3,0-4.9-7.4-5.2-8.7-.8-3.1-2.1-10.8.5-11.4,2.8-.6,11.1,7.2,9.4,14.4Z"/>
    <path class="cls-16" d="M1148.5,228.4c-2.4.4-5.7.2-6-.9-.6-1.6,5.6-4.7,6.7-5.2,2.6-1.3,9.2-4.1,10.2-2.9,1.1,1.3-4.1,7.9-10.9,9Z"/>
    <path class="cls-16" d="M1130.4,253.8c-2.4.4-5.7.2-6-.9-.6-1.6,5.6-4.7,6.7-5.2,2.6-1.3,9.2-4.1,10.2-2.9,1.1,1.3-4.1,7.9-10.9,9Z"/>
    <path class="cls-16" d="M1113.6,278.6c-2.4.4-5.7.2-6-.9-.6-1.6,5.6-4.7,6.7-5.2,2.6-1.3,9.2-4.1,10.2-2.9,1.1,1.3-4.1,7.9-10.9,9Z"/>
    <path class="cls-16" d="M1098.3,282.7c1.4,1,3.7,1.6,4.4.7,1.1-1.4-1.5-5.8-2-6.5-1.1-1.8-4.2-6.1-5.4-5.3-1.4,1-1,8.4,3,11.1Z"/>
    <path class="cls-16" d="M1114.3,258.9c1.4,1,3.7,1.6,4.4.7,1.1-1.4-1.5-5.8-2-6.5-1.1-1.8-4.2-6.1-5.4-5.3-1.4,1-1,8.4,3,11.1Z"/>
    <path class="cls-16" d="M1131.6,235.6c1.4,1,3.7,1.6,4.4.7,1.1-1.4-1.5-5.8-2-6.5-1.1-1.8-4.2-6.1-5.4-5.3-1.4,1-1,8.4,3,11.1Z"/>
  </g>
  <g>
    <path class="cls-6" d="M-3,313.9c56.4-30.4,145.9-68.5,257-69.3,127.6-.9,157.2,48.4,297.6,67,179.2,23.8,238.1-42.3,450.4-44.4,81.5-.8,206,7.6,361,58.6v121.7c-88.4,6.2-219.6,11.3-377,.7-195.9-13.1-280.8-40.2-420-52.3-133-11.6-324.4-10.3-569,51.6v-133.6Z"/>
    <path class="cls-15" d="M-4,429.2c186.6-39.3,337.6-46.7,438-46.7,215.1,0,327.8,34.1,628,46.7,129.6,5.4,235.1,4.3,300.3,2.8.2,5.2.4,10.4.7,15.6-61.7,3.6-158.9,7.7-278,5.7-262.9-4.5-380-34.8-569-41.7-118.5-4.3-294.2-.6-514,43.1-2-8.5-4-17-6-25.5Z"/>
  </g>
  <path class="cls-7" d="M178,2.6l-70.3,79,6.4-39.5L138.6,2.6H47c-1.2,1.7-3.2,5.2-4.3,10.2-1.4,6.7-.5,12.3,0,14.6-5-7.8-9.9-15.6-14.9-23.4-4.3-.5-8.5-1-12.8-1.5,3.8,14.9,8.6,31.2,14.9,48.3,3.5,9.5,7.1,18.2,10.7,26.3-3.2,20.9-8.4,57.6-12.8,103.9-10.8,113.8-5.6,168-14.9,285.4-2.2,27.9-6.3,72.3-13.9,127.3v170.4c1,.3,1.9.5,2.9.8,11.9,0,23.7-.1,35.6,0,13.5.2,27,1.7,40.5,2.3,3.5-.8,7-1.6,10.5-2.4.2-56.1,1.5-114.7,4.3-175.6,1.5-32,3.2-63.2,5.3-93.7,2.1-49,3.6-99.8,4.3-152.2.9-68.1.5-133.5-1.1-196.1,7.6-21.3,22.3-55.9,49-87.8C179.4,24.9,209,9.6,226,2.6h-48Z"/>
  <line class="cls-18" x1="105.5" y1="2.1" x2="66.5" y2="767.1"/>
  <line class="cls-18" x1="46.5" y1="765.2" x2="85.5" y2="3.1"/>
  <line class="cls-18" x1="65.5" y1="3.1" x2="41.5" y2="767.1"/>
  <line class="cls-18" x1="17.5" y1="765.2" x2="46.5" y2="3.1"/>
  <image width="399" height="305" transform="translate(352 317)" xlink:href="foodo-13.png"/>
  <polygon class="cls-8" points="686 360.3 676.1 358.8 677.9 333.4 687.8 335 686 360.3"/>
  <rect class="cls-8" x="412.3" y="340.5" width="10" height="93.4"/>
  <rect class="cls-8" x="503.3" y="306.6" width="10" height="63.7"/>
  <rect class="cls-8" x="610.1" y="308.7" width="10" height="31.8"/>
  <g>
    <path class="cls-9" d="M377.8,592.7c-19.2,8.7-36.6,4.8-48.5,0,25.1-54.6,74.2-145.5,152.7-206.7,43.7-34,83.9-49,114.5-55.9,37.2,13.7,74.5,27.4,111.7,41.1-41.4,5.3-118.8,21.1-190.7,76.3-32.9,25.3-49.3,37.9-68.3,61.6-30.5,38.1-42.5,70.4-71.5,83.6Z"/>
    <path class="cls-3" d="M277.1,584.3c29.9-58.4,77.3-135.8,145.1-194.6,31.4-27.2,61-45.1,86.8-57.1,21.8-10.5,58.5-22.5,102.4-7.8,23.6,7.9,43,21.4,57.8,34.2-29.5-10.5-103.1-29.4-187.2,30.7-87.3,62.4-135,173.5-152.2,218-17.5-7.8-35.1-15.6-52.6-23.4Z"/>
  </g>
  <rect class="cls-8" x="299.6" y="428.6" width="16.4" height="131.6"/>
  <path class="cls-11" d="M667,371.6c-29.1,9-69.1,24.2-113,50-13.5,8-38.7,22.9-66.6,46.4-26.3,22.2-65.7,61-99.9,122.2l206.6-4.7c3.4-25.1,11.5-61.5,31.9-100.9,27.8-53.8,65-87.2,87.6-104.7-15.5-2.8-31.1-5.5-46.6-8.3Z"/>
  <g>
    <path class="cls-9" d="M649,599.6c-1.2.2-9.8.4-26.9.8-9.7.2-17.8.3-23.2.3,5.6-24.9,16-59.4,36.1-97.1,8-14.9,32.2-57.9,78.1-101.3,32.8-31,65.9-52.1,93.2-66.3,33.3,22.7,66.5,45.4,99.8,68.2-90.9-14.3-140.2,26-158,43.2-34,32.8-53.4,63-53.4,63-21,40.9-23,84.7-45.6,89.2Z"/>
    <path class="cls-3" d="M553.9,602.7c21-53.8,55.4-126.4,108.6-187.1,24.6-28.1,48.4-48.1,69.5-62.5,23.8-16.3,52.1-31.2,86.5-24.2,46.3,9.4,76.3,55.8,87.5,75.2-19.4-15.8-70.4-51.9-132.3-34-5.2,1.5-30.2,9.1-60.3,35.1-68.6,59.2-100.2,158.9-112.9,207.7-15.5-3.5-31-6.9-46.5-10.4Z"/>
  </g>
  <path class="cls-8" d="M585.8,555c-6.3-7.9-12.5-15.7-18.8-23.6,20-52,73-169.7,178-209.9,45.4-17.4,87.8-15.4,120-9,5.4,7.5,10.7,14.9,16.1,22.4-30.6-10.3-96.4-25.6-164.3,16.9-84.7,53.1-119.8,162.9-130.9,203.3Z"/>
  <rect class="cls-8" x="614.3" y="444.5" width="10" height="72.2"/>
  <rect class="cls-8" x="711.1" y="344.8" width="10" height="53.1"/>
  <path class="cls-2" d="M285.7,478.5c-5.2-9.9-10.4-19.8-15.7-29.7,39.1-45.6,137-146.3,274.6-152.8,59.6-2.8,109.8,12.9,146.6,29.7,4.3,9.2,8.5,18.4,12.8,27.6-33.7-20.2-108.2-56.8-202-36.1-117,25.8-191.1,124.5-216.3,161.3Z"/>
</svg>