<?xml version="1.0" encoding="UTF-8"?>
<svg id="Capa_1" data-name="Capa 1" xmlns="http://www.w3.org/2000/svg" version="1.1" viewBox="0 0 1366 768">
  <defs>
    <style>
      .cls-1 {
        fill: #fef3f6;
      }

      .cls-1, .cls-2, .cls-3, .cls-4, .cls-5, .cls-6, .cls-7, .cls-8, .cls-9, .cls-10 {
        stroke-width: 0px;
      }

      .cls-2 {
        fill: #54bdb2;
      }

      .cls-3 {
        fill: #0f1a22;
      }

      .cls-4 {
        fill: #f5fffd;
      }

      .cls-5 {
        fill: #5dbfbb;
      }

      .cls-6 {
        fill: #2a6c7a;
      }

      .cls-7 {
        fill: #286977;
      }

      .cls-8 {
        fill: #5dbeb6;
      }

      .cls-9 {
        fill: #fff;
      }

      .cls-10 {
        fill: #192c40;
      }
    </style>
  </defs>
  <path class="cls-5" d="M536,273c-10.6-38.4,5.6-78.6,38-97,27.2-15.5,61.9-13.5,89,5,4.1.6,10,1.8,17,4,11.6,3.7,18.2,5.8,20,10,3,7.1-7.9,20-25.5,32,1.3,2.5,3.4,6.1,6.5,10,5.8,7.2,9,7.4,10,11,2,7.1-7,17.5-17,22-8.2,3.7-12.4,1.4-22,3-7.4,1.3-18,4.9-30,16,3.3,8.6,9.2,20.9,20,33,6.2,7,12.6,12.2,18,16,1.7,1,25.9,15.9,23,26-.1.5-.6,2-2,3-7.2,5.1-26.6-12.7-28-14-7.7-10-15.3-20-23-30h-4l21,55c.8,7.3,1.2,18.7-2,32-3.2,13.6-8.9,23.8-13,30-4.4,15.7-12.6,40.7-20,40-2.6-.2-7.3-3.7-11-29-5.4-6.3-18.4-23.4-21-49-3.3-31.8,11.7-54.9,16-61-.2,1.9-2.7,18.8-17,26-5.4,2.7-10.6,3.1-14,3-4.7,1.8-9.3-.9-10-4-.7-3.1,2.1-7.5,7-8,7.6-5.8,17-14.2,26-26,11.2-14.6,17.5-28.8,21-39-5.6,2-20.2,6.4-38,2-19.8-4.9-31.3-17.6-35-22Z"/>
  <g>
    <g>
      <g>
        <g>
          <g>
            <g>
              <path class="cls-6" d="M660,215c8.9,34.3-26.1,74.1-64,75-24.3.6-51.3-14.7-58-38-9.9-34.8,28.3-78.4,68-77,23,.8,48,16.7,54,40Z"/>
              <path class="cls-6" d="M686,208c-1.2,11.4-12.1,21.3-24,20-10.2-1.1-17.8-10.1-19-19.5-1.5-11.9,7.2-24.3,19-25.5,13.2-1.4,25.4,11.5,24,25Z"/>
              <path class="cls-6" d="M656,243c.7-.4,5.8-3.2,11-1,1.9.8,3.2,2.1,4,3,.3.4,3.3,5.4,1,11-2.1,5-6.9,6.6-7.5,6.8-1.1.2-3.6.5-6.5-.8-3.9-1.7-5.5-5-5.9-5.9,1.3-4.4,2.6-8.7,3.9-13.1Z"/>
            </g>
            <path class="cls-4" d="M577,206c-9.4,8.3-15.4,13.6-18,12-3-1.9-1.2-13.3,5-21,9.4-11.7,28-13.7,30-10,1.4,2.7-5.6,8.9-17,19Z"/>
            <path class="cls-4" d="M549,211c.3,1,.7,2,1,3,.2.9,1,4.4-1,8-1.3,2.3-3.1,3.5-4,4-.8.6-1.7.4-2,0-.2-.4,0-.9,0-1,0-1.6.2-3.7,1-6,1.3-4,3.6-6.6,5-8Z"/>
          </g>
          <path class="cls-3" d="M603,256c-3.7-6.9-2.9-15.3,2-21,6.5-7.5,16.4-6.1,17-6,.8,1.1,3.8,5.7,3,12-.7,5.5-4,9-5,10-1.6,1.2-4.3,2.9-8,4-3.7,1.1-7,1.1-9,1Z"/>
          <path class="cls-3" d="M565,265c.1-1.1.7-7.5-4-13-4.6-5.4-10.9-5.9-12-6-.3.9-2.5,7.1,1,13,2.3,3.8,5.7,5.4,7,6h8Z"/>
        </g>
        <path class="cls-10" d="M614,231c-1.7,1-6.7,4.4-9,11-1.3,3.7-1.2,7-1,9,3.3-1,6.7-2,10-3,4.2-1.7,6.7-5.9,6-10-.5-3.2-2.8-5.8-6-7Z"/>
        <path class="cls-10" d="M563,258c-.5.1-3.9,1.1-7-1-2-1.4-2.7-3.3-3-4v-6.5c1.3.4,3.7,1.3,6,3.5,3.1,3.1,3.8,6.7,4,8Z"/>
      </g>
      <circle class="cls-1" cx="608.5" cy="242.5" r="3.5"/>
      <circle class="cls-1" cx="556.5" cy="252.5" r="2.5"/>
    </g>
    <path class="cls-6" d="M615,308c.9,7.5,1.8,23.3-7,39-2.5,4.4-5.3,8.1-8,11-13.2,16.7-13.4,35.4-5,43,4.6,4.2,13.3,6.4,21,3,10.4-4.6,11.9-16.4,12-17,.4-6.8.5-14.1,0-22-1.4-23.2-7.2-42.5-13-57Z"/>
  </g>
  <path class="cls-7" d="M601,451c-2.7-3.7-5.3-7.3-8-11,.9-.5,2-1.1,3-2,3.3-2.9,4.3-6.5,4.7-8.2-.6,3.6-1,8.1-.7,13.2.2,2.9.5,5.6,1,8Z"/>
  <path class="cls-7" d="M584.7,363.2l11.3-22.2c-2.7,6-5.3,12-8,18l-3.3,4.2Z"/>
  <g>
    <g>
      <path class="cls-7" d="M547,508c3.1,2.2,8.9,5.7,17,7,12.1,1.9,21.6-2.3,25-4,2.4-4,9.7-14.8,18-14,2.8.3,4.8,1.8,15,11,4.7,4.3,8.8,8,12,11,.9.9,6.9,6.7,16,6,7.2-.5,11.8-4.8,13-6-1.6,7.4-4.5,18-10,30-5.1,11.3-7.6,13.2-9,14-13.5,7.8-38.9-15.1-41-17-21.3-3.3-27.5-.9-29,2-.4.8-1.1,2.7-3,4-2.6,1.8-5.8,1.5-8,1-5.3-15-10.7-30-16-45Z"/>
      <path class="cls-8" d="M538,505c-1.6-3.7-.7-7.2,1-8,1.7-.8,5.4.8,7,5,6.6,12.7,18.3,18.1,26,15,1.1-.5,5.3-2.4,8-9-3.7-16-7.3-32-11-48,.3-4.6,2.4-8.4,5-9,3.4-.8,8.8,3.3,10,11-.8,2.8-1.5,5.8-2,9-2.5,17.2,2.9,31.7,7,40,3.4,1.9,13.8,7.3,27,5,6.8-1.2,11.9-3.9,15-6,9.7,11.8,23.2,12.8,28,8,3.9-4,3.4-13.4-2-22,7.1-13.3,15.3-21.5,19-20,3.7,1.5,4.1,13.2,0,28-7,15.3-14,30.7-21,46-3.2,11.2-12.7,19.5-24,21-12.2,1.7-24.3-4.8-30-16-1.1,7.1-3.5,7.9-4,8-3.1.7-7.6-4.8-11.5-13.9-1.2-.9-14.9-11.3-18.5-8.1-2.2,2,.4,8.5,2,12,3.7,2.3,7.3,4.7,11,7,1.4,1.7,1.8,3.8,1,5-1,1.5-4.4,2-7-.4-6.6-4.8-17.6-14.2-26-29.6-6.4-11.8-8.9-22.7-10-30Z"/>
      <path class="cls-8" d="M630,513.5c.7-9,4-12.7,7.3-14.2,2.6-1.3,4.8-1,9.6-1.8,6.9-1.1,12.3-3.3,16.1-5.2,1.7,1.8,3.4,3.5,5.1,5.3-3.1.7-8.8,2.3-14.3,6.1-8.4,5.7-11,12.6-11.7,14.9-4-1.7-8-3.4-12-5.1Z"/>
    </g>
    <path class="cls-6" d="M632,552c-.4,4.8-7.4,9.2-13.5,9-10.1-.4-14.1-13.1-14.5-14.5-.8-2.7-2.5-8.3,0-10.5,5.3-4.8,28.7,6.8,28,16Z"/>
  </g>
  <g>
    <circle class="cls-2" cx="688" cy="396" r="12"/>
    <path class="cls-9" d="M683,390c-1.1,2.7-3.2,6.3-4,6-.7-.3-.3-3.4,1-6,1.3-2.4,3.5-4.4,4-4,.5.3-.5,2.9-1,4Z"/>
  </g>
  <g>
    <ellipse class="cls-2" cx="532.5" cy="413" rx="7.5" ry="10"/>
    <path class="cls-9" d="M529,408c-1.2,2.7-.6,4.9-1,5-.4,0-1.9-2.6-1-5,.9-2.3,3.7-3.3,4-3,.2.2-1.1,1-2,3Z"/>
  </g>
</svg>