<?xml version="1.0" encoding="UTF-8"?>
<svg id="Capa_1" data-name="Capa 1" xmlns="http://www.w3.org/2000/svg" version="1.1" xmlns:xlink="http://www.w3.org/1999/xlink" viewBox="0 0 1920 1080">
  <defs>
    <style>
      .cls-1 {
        fill: url(#Degradado_sin_nombre_46);
      }

      .cls-1, .cls-2, .cls-3, .cls-4 {
        stroke-width: 0px;
      }

      .cls-2 {
        fill: #f9f9f9;
      }

      .cls-3 {
        fill: #fff;
        opacity: .6;
      }

      .cls-4 {
        fill: #e6e6e6;
      }
    </style>
    <radialGradient id="Degradado_sin_nombre_46" data-name="Degradado sin nombre 46" cx="778.7" cy="678.3" fx="778.7" fy="678.3" r="130.1" gradientTransform="translate(-1530.6 66.3) scale(3.2 .8)" gradientUnits="userSpaceOnUse">
      <stop offset="0" stop-color="#a7c192"/>
      <stop offset="1" stop-color="#3d6a00"/>
    </radialGradient>
  </defs>
  <path class="cls-2" d="M0-619.6"/>
  <path class="cls-3" d="M65.9,475.5c-19.5,15.8-76.3,65.5-.7,129.8s10.4,5,14.3-.2,2.3-7.7-3.2-13.4c-14.7-15.1-60.5-48.4-3.8-97.6,0,0,16.8-9.7,6.3-18.6s-9.1-3-12.9,0Z"/>
  <path class="cls-3" d="M1837.9,512.8c19.5,15.8,76.3,65.5.7,129.8-5.2,4.4-10.4,5-14.3-.2-2.3-3.1-2.3-7.7,3.2-13.4,14.7-15.1,60.5-48.4,3.8-97.6,0,0-16.8-9.7-6.3-18.6s9.1-3,12.9,0Z"/>
  <g>
    <rect class="cls-1" x="559.4" y="510.5" width="803.7" height="229.7" rx="21.5" ry="21.5"/>
    <g>
      <path class="cls-4" d="M690,651.9c0-7.1,1.2-64.3,3.7-69.3,1.1-2.2,3.1-3.8,5.2-3.8,3.4,0,6.3,3.4,6.3,7.7s-.7,8-1,11.8c-1.2,14-1.8,38.5-1.8,52.6s-12.4,9.9-12.4.9Z"/>
      <path class="cls-4" d="M753.2,587.6c0,9.1-1.3,18.6-1.8,27.7-.6,11.4-1.4,22.7-1.9,34.1-.3,11-9.6,14.4-14.7,5.1-4.5-7.9-10.2-24.4-11.9-29.1.5,8.4.6,17.2.6,25.8s-10.7,10.4-11.8,3.2c-1-2-2-61.4-2-67.6s2.8-8,6.2-8,5.2,3.2,7.1,6.1c4.4,7.3,10.9,35.1,15.3,45.6.4-6.9,2.1-44.3,3.5-47,3.2-6.2,11.5-4.1,11.5,4.3Z"/>
      <path class="cls-4" d="M770.4,641.5c4.1,5.7,13.7-2.6,5.9-9.2-9.2-7.6-19.1-15.6-19.1-31.4s16.7-26.9,29.8-17.9c4.1,2.9,7.4,6.6,7.4,10.9s-2.6,8-6.1,8-3.9-1.7-5.6-3.9c-4.4-4.8-13.2-7.6-13.2,3,0,16.4,22.7,14.7,22.7,36.7s-9.1,21.5-18.7,21.5-16.3-8.4-16.3-19.2,2.9-7.8,6.2-7.8c5.7,0,4.3,5.9,7,9.4Z"/>
      <path class="cls-4" d="M824.8,652.4c-.5,4-2.3,7.7-6.1,7.7s-6.3-3.4-6.3-7.8c0-11.8,1-25.9,1-37.7v-18.7c-5.1-.3-15.6.5-15.6-8.9s2.6-7.7,5.8-7.7c8,0,20.1.1,29.1.1s6.2,3.8,6.2,8.1c0,8.3-8.7,8.2-13.3,8.1,0,6.8.6,45-.7,56.7Z"/>
      <path class="cls-4" d="M879.5,659.3c-5.9,0-10.9-19.8-12.9-25.4-2.5.7-5,1-7.5,1.2,0,5.4.6,10.9.6,16.4s-2.9,7.8-6.3,7.8-6-3.6-6-7.8c-.2-16.9-.5-34.4-2-51.1-.4-4.8-2.5-10.3-2.5-14.8s1.2-5.3,3.1-6.8c4.7-3.3,9.1,1.5,9.7,7.2,3.8-4.4,8.5-6.9,13.6-6.9,8.7,0,16.2,5.9,19.4,17.2,3.5,13,0,27.2-10,32.7,1.6,4.8,7.5,18.3,7.5,22.5s-2.8,7.8-6.3,7.8ZM872.5,614.9c10.4-7.9,1.6-25.9-8-18-5.2,4.4-7.1,15.8-6,22.3,4-.3,10-1.2,14.1-4.3Z"/>
      <path class="cls-4" d="M913.2,659.1c-15.7,0-19.3-22.5-19.3-38.1s.4-26.9,2.2-35.7c1.7-8.6,12.3-6.9,12.3,2.2s-2.1,24.2-2.1,33.6.2,11.1,2,16.6c2.4,7.6,9.2,7.2,12.2,0,1.8-4.4,2.2-10.6,2.2-15.3,0-10-1.1-25.8-1.1-35.6s9-10.8,11.8-3.2c1,2.6,1.6,33.4,1.6,38.4,0,16.9-5.9,37-21.8,37Z"/>
      <path class="cls-4" d="M986.7,638.2c0,13.2-12.4,21.1-21,21.1-29.4,0-30.4-57.4-11.5-74.6,6.7-6,16.4-6.8,23,.6,4.8,5.5,7.5,14.2,7.5,22.8s-6.3,10-9.6,6.6c-2.3-2.3-2.8-7.2-3.8-11.7-2.3-11.5-10.2-7.3-14,.6-2.6,5.5-3.8,12.7-3.8,18,0,7.8,1.5,19.6,8.8,22.5,4.2,1.6,9.1.1,11.6-6,1.6-3.7,1.9-7.9,6.5-7.9s6.3,3.6,6.3,8Z"/>
      <path class="cls-4" d="M1038.1,638.2c0,13.2-12.4,21.1-21,21.1-29.4,0-30.4-57.4-11.5-74.6,6.7-6,16.4-6.8,23,.6,4.8,5.5,7.5,14.2,7.5,22.8s-6.3,10-9.6,6.6c-2.3-2.3-2.8-7.2-3.8-11.7-2.3-11.5-10.2-7.3-14,.6-2.6,5.5-3.8,12.7-3.8,18,0,7.8,1.5,19.6,8.8,22.5,4.2,1.6,9.1.1,11.6-6,1.6-3.7,1.9-7.9,6.5-7.9s6.3,3.6,6.3,8Z"/>
      <path class="cls-4" d="M1043.9,651.9c0-7.1,1.2-64.3,3.7-69.3,1.1-2.2,3.1-3.8,5.2-3.8,3.4,0,6.3,3.4,6.3,7.7s-.7,8-1,11.8c-1.2,14-1.8,38.5-1.8,52.6s-12.4,9.9-12.4.9Z"/>
      <path class="cls-4" d="M1100,586.1c12.8,15.2,13.3,49.2.6,65.8-3.2,4.2-7.2,6.9-12.2,6.9-17.8,0-24.3-20.9-24.3-40.7s3.3-24,9.7-31.9c7.3-9,18.6-9.4,26.2-.1ZM1094.2,604.2c-3.5-10-10.2-10.2-14.4.1-1.8,4.6-2.5,10.1-2.5,15.1,0,7.4,2.2,22.4,10,22.4,12.4,0,9.9-29.1,6.9-37.6Z"/>
      <path class="cls-4" d="M1158.9,587.6c0,9.1-1.3,18.6-1.8,27.7-.6,11.4-1.4,22.7-1.9,34.1-.3,11-9.6,14.4-14.7,5.1-4.5-7.9-10.2-24.4-11.9-29.1.5,8.4.6,17.2.6,25.8s-10.7,10.4-11.8,3.2c-1-2-2-61.4-2-67.6s2.8-8,6.2-8,5.2,3.2,7.1,6.1c4.4,7.3,10.9,35.1,15.3,45.6.4-6.9,2.1-44.3,3.5-47,3.2-6.2,11.5-4.1,11.5,4.3Z"/>
      <path class="cls-4" d="M1207.4,646.8c0,8.6-14.9,12.3-20.2,12.3-12.5,0-18.8-14.1-19.6-28.7-2.6-.8-4.9-3.7-4.9-7.5s1.4-5.7,4.2-7.3c0-16.1,1.4-36.9,17.7-36.9s11.3.5,16.4,2.5c2.6,1,4.5,4,4.5,7.6s-3,7.7-6.5,7.7-9.5-2.2-15.1-2.2c-2.2.8-2.6,2.1-3,3.7-1.3,4.9-2,12.5-1.7,17.6,5,0,9.9-1.8,14.6-1.8s6.2,3.1,6.2,7.3c0,10.5-14,10-19.8,10.2.9,6.4,1.7,12.2,8,12.2s8.8-4.7,13.3-4.7,6.1,3.7,6.1,8Z"/>
      <path class="cls-4" d="M1225.7,641.5c4.1,5.7,13.7-2.6,5.9-9.2-9.2-7.6-19.1-15.6-19.1-31.4s16.7-26.9,29.8-17.9c4.1,2.9,7.4,6.6,7.4,10.9s-2.6,8-6.1,8-3.9-1.7-5.6-3.9c-4.4-4.8-13.2-7.6-13.2,3,0,16.4,22.7,14.7,22.7,36.7s-9.1,21.5-18.7,21.5-16.3-8.4-16.3-19.2,2.9-7.8,6.2-7.8c5.7,0,4.3,5.9,7,9.4Z"/>
    </g>
  </g>
</svg>