<?xml version="1.0" encoding="UTF-8"?>
<svg id="Capa_1" data-name="Capa 1" xmlns="http://www.w3.org/2000/svg" version="1.1" xmlns:xlink="http://www.w3.org/1999/xlink" viewBox="0 0 1366 768">
  <defs>
    <style>
      .cls-1 {
        fill: #cf7fe2;
      }

      .cls-1, .cls-2, .cls-3, .cls-4, .cls-5, .cls-6, .cls-7, .cls-8, .cls-9, .cls-10, .cls-11, .cls-12, .cls-13, .cls-14, .cls-15, .cls-16, .cls-17, .cls-18, .cls-19, .cls-20, .cls-21, .cls-22, .cls-23, .cls-24, .cls-25, .cls-26, .cls-27, .cls-28, .cls-29, .cls-30, .cls-31, .cls-32, .cls-33, .cls-34, .cls-35, .cls-36, .cls-37, .cls-38, .cls-39, .cls-40, .cls-41, .cls-42, .cls-43, .cls-44, .cls-45, .cls-46, .cls-47, .cls-48, .cls-49, .cls-50, .cls-51, .cls-52, .cls-53 {
        stroke-width: 0px;
      }

      .cls-2 {
        fill: #e3bc71;
      }

      .cls-3 {
        fill: #d49f53;
      }

      .cls-4 {
        fill: #4f4641;
      }

      .cls-5 {
        fill: #ffaa46;
      }

      .cls-6 {
        fill: #5b5240;
      }

      .cls-7 {
        fill: #784a1b;
      }

      .cls-8 {
        fill: #8e8e8e;
      }

      .cls-9, .cls-54 {
        fill: #f6e89a;
      }

      .cls-10 {
        fill: #232222;
      }

      .cls-55 {
        opacity: .5;
      }

      .cls-11 {
        fill: #b27bbf;
      }

      .cls-12 {
        fill: #756443;
      }

      .cls-56 {
        opacity: .6;
      }

      .cls-57 {
        opacity: .3;
      }

      .cls-13 {
        fill: #89764e;
      }

      .cls-14 {
        fill: #6a624d;
      }

      .cls-15 {
        fill: #717171;
      }

      .cls-58 {
        mask: url(#mask-2);
      }

      .cls-59 {
        opacity: .5;
      }

      .cls-60 {
        clip-path: url(#clippath-2);
      }

      .cls-16 {
        fill: #f9c06e;
      }

      .cls-17 {
        fill: #634423;
      }

      .cls-18 {
        fill: #99c768;
      }

      .cls-19 {
        fill: #64894c;
      }

      .cls-20 {
        fill: #93824d;
      }

      .cls-61 {
        mask: url(#mask-3);
      }

      .cls-62 {
        opacity: .4;
      }

      .cls-21 {
        fill: #f1abff;
      }

      .cls-22 {
        fill: none;
      }

      .cls-23 {
        fill: #99702d;
      }

      .cls-24 {
        fill: #7b4987;
      }

      .cls-25 {
        fill: #975ba5;
      }

      .cls-63 {
        clip-path: url(#clippath-1);
      }

      .cls-64 {
        opacity: .4;
      }

      .cls-65 {
        clip-path: url(#clippath-4);
      }

      .cls-66 {
        opacity: .5;
      }

      .cls-67 {
        opacity: .6;
      }

      .cls-26 {
        fill: #695a39;
      }

      .cls-27 {
        fill: #826e51;
      }

      .cls-28 {
        fill: #d786ea;
      }

      .cls-68 {
        mask: url(#mask-5);
      }

      .cls-29 {
        fill: #ffe089;
      }

      .cls-69 {
        fill: #83cdff;
      }

      .cls-69, .cls-54, .cls-70, .cls-71, .cls-72 {
        stroke-miterlimit: 10;
      }

      .cls-69, .cls-54, .cls-70, .cls-72 {
        stroke: #000;
      }

      .cls-30 {
        fill: #9d65aa;
      }

      .cls-31 {
        fill: #51442b;
      }

      .cls-73 {
        opacity: .4;
      }

      .cls-32 {
        fill: #8c6425;
      }

      .cls-74 {
        opacity: .8;
      }

      .cls-33 {
        fill: #bc8a31;
      }

      .cls-70 {
        fill: #c3e6fc;
      }

      .cls-75 {
        opacity: .4;
      }

      .cls-34 {
        fill: #424141;
      }

      .cls-35 {
        fill: #e692f7;
      }

      .cls-36 {
        fill: #725630;
      }

      .cls-76 {
        opacity: .8;
      }

      .cls-37 {
        fill: #de9c46;
      }

      .cls-71 {
        fill: #eae5c5;
        stroke: #bfb99b;
      }

      .cls-77 {
        mask: url(#mask-4);
      }

      .cls-38 {
        fill: #594023;
      }

      .cls-39 {
        fill: #d8ba3d;
      }

      .cls-78 {
        clip-path: url(#clippath);
      }

      .cls-40 {
        fill: #c8c8c8;
      }

      .cls-41 {
        fill: #484848;
      }

      .cls-79 {
        clip-path: url(#clippath-3);
      }

      .cls-42 {
        fill: #d8cb8f;
      }

      .cls-43 {
        fill: #b977c9;
      }

      .cls-44 {
        fill: #fdd782;
      }

      .cls-45 {
        fill: #827352;
      }

      .cls-80 {
        opacity: .4;
      }

      .cls-46 {
        fill: #ffecad;
      }

      .cls-81 {
        mask: url(#mask-1);
      }

      .cls-47 {
        fill: #535353;
      }

      .cls-82 {
        mask: url(#mask);
      }

      .cls-48 {
        fill: #775f39;
      }

      .cls-49 {
        fill: #dac291;
      }

      .cls-50 {
        fill: #4c4b4b;
      }

      .cls-72 {
        fill: #bb965b;
      }

      .cls-51 {
        fill: #626262;
      }

      .cls-52 {
        fill: #e4a2f4;
      }

      .cls-83 {
        opacity: .6;
      }

      .cls-84 {
        opacity: .2;
      }

      .cls-85 {
        opacity: .6;
      }

      .cls-53 {
        fill: #9c8e6c;
      }
    </style>
    <mask id="mask" x="-9.9" y="-9.9" width="1379.5" height="786.1" maskUnits="userSpaceOnUse">
      <image width="563" height="384" transform="translate(2087.2 2.8) scale(2.4 2)" xlink:href="534edf188a52bc2d12725d4918db8237.jpg"/>
    </mask>
    <clipPath id="clippath">
      <polygon class="cls-22" points="1372.8 269.7 1417.8 451.2 1149.5 483.5 1104.5 301.9 1372.8 269.7"/>
    </clipPath>
    <mask id="mask-1" x="1104.5" y="269.7" width="313.3" height="213.8" maskUnits="userSpaceOnUse">
      <path class="cls-24" d="M1275.4,459.2c-.5.3-4.4,3.1-9.8,1.2-6.3-2.2-8.5-8.9-8.6-9.1-6.7,8.1-18.1,9.1-26.2,3.4-8.6-6-9.8-16.9-9.9-17.8-3.3,1.5-7.4.4-9.9-2.4-2.8-3.2-2.1-7.2-2-7.5-1.2,1.9-3.4,2.6-5.4,1.9-2.6-.9-4.7-4.2-4.1-7.3-.5,0-6.8,0-10.9-5.3-3.6-4.6-4-11.1-.8-15.7-6.1-4.8-9.7-12.3-9.2-19.4.7-10,9-13.8,9.6-14.1.5-1.5,1.9-5.3,5.9-7.5,1.9-1.1,3.8-1.4,5.2-1.6-.7-6.7,2.2-12.6,7.4-15,5.4-2.5,11.1-.1,12.2.4-3.5-4.8-3.9-10.7-1.1-14.2,3.1-3.9,8.5-3.1,9-3,0-1-.5-9.8,5.8-14.1,2.6-1.8,5.4-2.1,7.1-2.1.3-.9,1.6-4.8,5.8-6.7,4-1.9,7.9-.7,8.9-.4.1-.2,2.6-4.8,8-4.4,5.1.4,8.2,4.8,8.4,5.1.5-.5,3.5-3.6,8.7-3,5.5.7,8.9,5.2,9.3,5.8,4.1.2,8.1,2.5,10.4,6.1,2.2,3.5,1.9,7,1.8,7.9,1.9-3.2,5.5-4.7,8.9-3.7,2.7.8,4.4,2.8,5,3.6.4-.4,3.5-3,7.6-1.8,4.3,1.3,7.9,6.2,7.9,11.9,9.8,1.8,17.6,9.8,18.6,18.1,1.1,8.4-5.1,13.5-5.8,14.1,1.3,1.8,3.2,5,4.1,9.2,1.8,7.9-1.2,13.6-2.1,15.2,1.3,1.8,4.1,5.9,5,11.7,1.1,6.8-1,11.7-1.8,13.4,4,2.9,6.1,7.6,5.4,11.6-.8,4.6-5,6.2-5.5,6.4-.6,1.7-2.6,6.3-7.7,8.8-8.4,4-17.7-1.5-18.5-2-1.2,3.9-4.4,12.4-12.8,18.4-14,9.9-30.9,4.9-33.7,4.1Z"/>
    </mask>
    <clipPath id="clippath-1">
      <polygon class="cls-22" points="650.7 310.8 680.6 411.3 502.2 429.2 472.2 328.7 650.7 310.8"/>
    </clipPath>
    <mask id="mask-2" x="472.2" y="310.8" width="208.3" height="118.4" maskUnits="userSpaceOnUse">
      <path class="cls-24" d="M585.9,415.8c-.3.2-2.9,1.7-6.5.7-4.2-1.2-5.7-4.9-5.7-5.1-4.4,4.5-12,5.1-17.4,1.9-5.7-3.3-6.5-9.4-6.6-9.9-2.2.8-4.9.2-6.6-1.3-1.8-1.8-1.4-4-1.4-4.2-.8,1-2.3,1.5-3.6,1.1-1.8-.5-3.1-2.3-2.7-4.1-.3,0-4.5,0-7.2-2.9-2.4-2.5-2.7-6.1-.5-8.7-4.1-2.6-6.4-6.8-6.1-10.7.4-5.5,6-7.6,6.4-7.8.3-.8,1.3-2.9,3.9-4.2,1.3-.6,2.6-.8,3.5-.9-.5-3.7,1.5-7,4.9-8.3,3.6-1.4,7.4,0,8.1.2-2.3-2.6-2.6-5.9-.7-7.9,2-2.2,5.6-1.7,6-1.7,0-.6-.4-5.4,3.9-7.8,1.7-1,3.6-1.1,4.8-1.2.2-.5,1.1-2.7,3.8-3.7,2.6-1,5.2-.4,5.9-.2,0-.1,1.7-2.7,5.3-2.4,3.4.2,5.4,2.6,5.6,2.8.3-.3,2.3-2,5.8-1.6,3.7.4,5.9,2.9,6.2,3.2,2.7,0,5.4,1.4,6.9,3.4,1.5,2,1.3,3.9,1.2,4.4,1.3-1.8,3.6-2.6,5.9-2.1,1.8.4,2.9,1.6,3.3,2,.3-.2,2.3-1.6,5-1,2.8.7,5.2,3.5,5.2,6.6,6.5,1,11.7,5.4,12.4,10,.7,4.6-3.4,7.5-3.9,7.8.9,1,2.1,2.8,2.8,5.1,1.2,4.3-.8,7.5-1.4,8.4.9,1,2.7,3.3,3.4,6.5.8,3.8-.7,6.5-1.2,7.4,2.6,1.6,4.1,4.2,3.6,6.4-.6,2.6-3.3,3.4-3.7,3.5-.4.9-1.7,3.5-5.1,4.8-5.6,2.2-11.7-.8-12.3-1.1-.8,2.1-2.9,6.9-8.5,10.2-9.3,5.5-20.5,2.7-22.4,2.3Z"/>
    </mask>
    <clipPath id="clippath-2">
      <polygon class="cls-22" points="546.8 241.8 596.2 430.7 301.3 464.3 251.8 275.4 546.8 241.8"/>
    </clipPath>
    <mask id="mask-3" x="251.8" y="241.8" width="344.4" height="222.5" maskUnits="userSpaceOnUse">
      <path class="cls-24" d="M439.7,439c-.5.4-4.8,3.3-10.7,1.3-6.9-2.3-9.4-9.2-9.5-9.5-7.3,8.4-19.9,9.5-28.8,3.6-9.5-6.3-10.8-17.6-10.9-18.6-3.7,1.6-8.2.5-10.9-2.5-3-3.4-2.3-7.5-2.2-7.8-1.3,2-3.8,2.8-6,2-2.9-.9-5.1-4.3-4.5-7.6-.6,0-7.4,0-12-5.5-4-4.7-4.4-11.6-.8-16.3-6.7-5-10.6-12.8-10.1-20.2.7-10.4,9.9-14.3,10.6-14.6.5-1.5,2.1-5.5,6.5-7.8,2.1-1.1,4.2-1.5,5.7-1.6-.8-7,2.4-13.1,8.1-15.6,5.9-2.6,12.2-.1,13.4.4-3.9-5-4.3-11.1-1.2-14.8,3.4-4.1,9.3-3.2,9.9-3.1,0-1.1-.6-10.2,6.4-14.7,2.9-1.8,6-2.2,7.9-2.2.3-1,1.8-5,6.3-7,4.3-1.9,8.7-.8,9.8-.4.1-.2,2.8-5,8.8-4.6,5.6.4,9,5,9.3,5.3.5-.5,3.9-3.8,9.5-3.1,6.1.8,9.7,5.4,10.2,6,4.5.2,8.9,2.6,11.4,6.3,2.4,3.7,2.1,7.3,2,8.2,2.1-3.4,6-4.9,9.7-3.9,2.9.8,4.8,2.9,5.5,3.7.5-.4,3.9-3.1,8.3-1.8,4.7,1.3,8.6,6.5,8.6,12.3,10.8,1.9,19.3,10.2,20.5,18.8,1.2,8.7-5.6,14.1-6.4,14.7,1.4,1.9,3.5,5.2,4.6,9.5,1.9,8.2-1.3,14.1-2.3,15.8,1.5,1.9,4.5,6.2,5.6,12.1,1.2,7.1-1.1,12.1-2,13.9,4.4,3,6.7,7.9,5.9,12.1-.9,4.8-5.5,6.4-6,6.6-.7,1.7-2.9,6.6-8.5,9.1-9.3,4.2-19.4-1.6-20.3-2.1-1.3,4-4.8,12.9-14.1,19.1-15.3,10.3-34,5.1-37.1,4.2Z"/>
    </mask>
    <clipPath id="clippath-3">
      <polygon class="cls-22" points="315.8 277.7 390.2 525.3 -53.5 569.3 -127.9 321.7 315.8 277.7"/>
    </clipPath>
    <mask id="mask-4" x="-127.9" y="277.7" width="518.1" height="291.5" maskUnits="userSpaceOnUse">
      <path class="cls-24" d="M154.7,536.1c-.8.5-7.3,4.3-16.1,1.7-10.4-3.1-14.1-12.1-14.3-12.5-11.1,11-29.9,12.4-43.4,4.7-14.3-8.2-16.2-23-16.4-24.3-5.5,2.1-12.3.6-16.4-3.3-4.6-4.4-3.5-9.8-3.4-10.3-2,2.6-5.6,3.6-9,2.7-4.4-1.2-7.7-5.7-6.7-10-.8,0-11.2,0-18-7.2-6-6.2-6.7-15.1-1.3-21.4-10.1-6.5-16-16.7-15.2-26.4,1.1-13.6,14.9-18.8,16-19.2.8-2,3.2-7.2,9.8-10.2,3.2-1.5,6.4-2,8.6-2.1-1.1-9.2,3.6-17.2,12.2-20.4,8.9-3.4,18.3-.1,20.2.5-5.8-6.5-6.4-14.6-1.9-19.4,5.1-5.3,14-4.2,14.9-4.1-.1-1.4-.9-13.4,9.6-19.2,4.3-2.4,9-2.8,11.8-2.9.5-1.3,2.6-6.5,9.5-9.2,6.5-2.5,13-1,14.7-.6.2-.3,4.3-6.5,13.3-6,8.4.5,13.5,6.5,13.9,7,.7-.7,5.8-5,14.4-4,9.1,1,14.7,7.1,15.3,7.9,6.8.2,13.4,3.4,17.1,8.3,3.7,4.8,3.1,9.5,2.9,10.8,3.2-4.4,9-6.4,14.6-5.1,4.4,1.1,7.2,3.8,8.2,4.9.7-.5,5.8-4.1,12.5-2.4,7,1.7,13,8.5,13,16.2,16.2,2.4,29,13.4,30.8,24.7,1.8,11.4-8.5,18.5-9.6,19.2,2.1,2.5,5.3,6.8,6.9,12.5,2.9,10.7-2,18.5-3.5,20.8,2.2,2.4,6.8,8.1,8.4,15.9,1.9,9.3-1.6,15.9-3,18.2,6.6,3.9,10.1,10.3,8.9,15.9-1.4,6.3-8.3,8.4-9.1,8.7-1,2.3-4.3,8.6-12.8,11.9-13.9,5.5-29.2-2.1-30.5-2.8-1.9,5.3-7.2,16.9-21.2,25.1-23.1,13.5-51.1,6.7-55.7,5.6Z"/>
    </mask>
    <clipPath id="clippath-4">
      <polygon class="cls-22" points="547.1 -49.3 657.5 349 -.6 419.8 -111 21.5 547.1 -49.3"/>
    </clipPath>
    <mask id="mask-5" x="-111" y="-49.3" width="768.5" height="469.1" maskUnits="userSpaceOnUse">
      <path class="cls-24" d="M308.2,366.5c-1.2.8-10.8,6.9-24,2.7-15.5-4.9-21-19.4-21.2-20.1-16.4,17.8-44.3,20-64.4,7.5-21.2-13.2-24.1-37.1-24.3-39.1-8.2,3.3-18.3,1-24.3-5.3-6.8-7.1-5.2-15.7-5-16.5-2.9,4.1-8.4,5.8-13.4,4.3-6.5-2-11.4-9.2-10-16.1-1.3,0-16.6-.1-26.7-11.6-8.8-10-9.9-24.4-1.9-34.5-15-10.5-23.7-26.9-22.6-42.5,1.6-22,22-30.2,23.7-30.9,1.2-3.2,4.8-11.6,14.5-16.4,4.8-2.4,9.4-3.2,12.7-3.4-1.7-14.8,5.4-27.6,18.1-32.8,13.2-5.4,27.2-.2,29.9.9-8.7-10.4-9.5-23.4-2.8-31.2,7.5-8.6,20.8-6.8,22.1-6.6-.2-2.2-1.3-21.6,14.3-30.9,6.4-3.8,13.3-4.5,17.5-4.6.7-2.1,3.9-10.5,14.1-14.8,9.7-4.1,19.3-1.6,21.8-.9.3-.5,6.3-10.5,19.7-9.6,12.5.8,20.1,10.5,20.7,11.2,1.1-1.1,8.6-8,21.3-6.5,13.6,1.6,21.7,11.5,22.7,12.7,10.1.3,19.9,5.4,25.4,13.3,5.4,7.7,4.7,15.3,4.4,17.4,4.8-7.1,13.4-10.3,21.7-8.2,6.5,1.7,10.7,6.2,12.2,7.9,1-.8,8.6-6.5,18.6-3.9,10.4,2.8,19.3,13.7,19.3,26,24.1,3.9,43,21.5,45.7,39.7,2.7,18.4-12.6,29.7-14.3,30.9,3.2,4,7.9,11,10.2,20.1,4.3,17.2-2.9,29.8-5.2,33.4,3.3,3.9,10,13,12.4,25.6,2.8,14.9-2.4,25.6-4.5,29.3,9.7,6.3,15,16.6,13.2,25.5-2,10.2-12.3,13.6-13.5,13.9-1.5,3.7-6.4,13.8-18.9,19.2-20.6,8.8-43.3-3.4-45.3-4.5-2.9,8.5-10.7,27.2-31.5,40.3-34.2,21.7-75.8,10.8-82.7,8.9Z"/>
    </mask>
    <image id="image" width="564" height="1001" xlink:href="a9c24fbb46b6e6bf6bfeae507719d09f.jpg"/>
  </defs>
  <rect class="cls-70" x="-.5" y="-.5" width="1365" height="766"/>
  <g>
    <g class="cls-82">
      <rect class="cls-69" x="-.8" y="-9.4" width="1369.9" height="766.8"/>
    </g>
    <g>
      <path class="cls-37" d="M450.3,489.6c120.6-157.2,241.2-314.3,361.8-471.5,15.6,25.2,36.8,60.4,60.8,103.9,27.9,50.5,48.3,91.6,68.1,132.3,29.3,60.1,73.7,153.1,129.7,277.2-31.3-6.6-80.7-18.2-140.9-37.6-98.4-31.7-116.5-49.1-177.3-56.8-61.7-7.8-110.4,1.5-162,11.3-57,10.9-104.6,27-140.1,41.2Z"/>
      <path class="cls-44" d="M812.1,18.1l410.2,508.4s-121.5,20.2-151.6,4.9L812.1,18.1Z"/>
      <path class="cls-3" d="M308.3,461.1l220.1-301.6,68.3,139.3-129.5,173.1s-82.1-39.3-158.9-10.8Z"/>
      <polygon class="cls-29" points="528.4 159.5 620.9 267.2 596.7 298.8 528.4 159.5"/>
      <path class="cls-2" d="M1107.4,384.1l99.3-124.8,100.5,212.6s-119.6,11.8-131.1-2.6l-68.7-85.1Z"/>
      <polygon class="cls-46" points="1206.7 259.3 1366.8 463.8 1307.2 471.9 1206.7 259.3"/>
    </g>
    <path class="cls-18" d="M1173,467.2c-.4,5.3-.2,13.1,4.6,19.3,4.7,6,11.6,7.6,11.2,9.7-.6,3.2-16.5,2.5-16.6,2.5-25.9-1.1-52,.7-77.9-.8-4-.2-1.5,0-62.4,0-19.5,0-48,0-83,0-114.1-27.3-228.2-54.7-342.3-82L-5.7,432.2v333.5h998.7c21.2-.5,42.4-.9,63.5,0h25c1.2-.5,2.6-.8,4-.8s.5,0,.8,0c.3,0,.5,0,.8,0,1.4,0,2.7.3,4,.8h273.9v-292.6c-64-2-128-4-192-5.9Z"/>
    <g class="cls-75">
      <image width="630" height="196" transform="translate(348 377)" xlink:href="cap1-1.png"/>
    </g>
    <g>
      <g>
        <path class="cls-50" d="M1135.2,696.8c-4,3.1-28.7,1.8-39.4.9-21.6-1.8-30.7-5.9-42.9-4-7.4,1.2-7.5,3.3-16.9,4.7-9.8,1.5-19.1.5-23.2.2-39.9-3.6-81,1.5-87.1-4.1-5.1-4.7,19.2-12.8,50.5-23.1,18.8-6.2,25.9-7.2,32-7.7,12.3-.9,26,.1,56,7.5,22.3,5.5,77.7,20.4,70.9,25.6Z"/>
        <g>
          <path class="cls-50" d="M961,668.5c5.4,6.2-47.3,23.5-105.1,25.2-3.2,0,0,0-58.8-1.6-43.8-1.2-60.2-1.5-61.6-3.9-1.1-1.9,8.2-3.1,25.9-9.1,26.9-9.2,26.2-13.6,41.7-15,12.4-1.1,16.6,1.4,36.1,0,11.5-.8,12.3-1.9,22.2-2.9,9.4-1,19.3-1.1,64.4,3,22.8,2.1,34.2,3.2,35.2,4.3Z"/>
          <path class="cls-34" d="M735.2,688.8c4.7.7,12,1.6,21.2,2.1,6.5.4,10.7.4,22.9.7,7.9.2,15.8.4,23.7.6,11.1.3,28,.7,53,1.5,6-.2,12.6-.5,19.8-1.2,4-.3,7.7-.7,11.2-1.2,14.4-2,36.2-6,55.9-13.9,7.7-3.1,13.6-6.2,18.2-8.9.4.1,3.6.9,4.2,2.5.5,1.6-2.1,2.7-2.5,2.9-4.2,1.9-8.8,3.9-13.9,5.8-20.7,8-42.5,13.6-61.4,17.4-4.5.8-11,1.7-19,2.1-8.2.4-15.1.2-20,0-23.3-.2-48.2-.7-74.5-1.8-13.3-.5-26.1-1.2-38.5-1.9-.8-.6-2.1-1.7-2.2-3.2-.1-1.7,1.2-2.9,2-3.5Z"/>
        </g>
        <path class="cls-10" d="M925.2,693.2c1.6.8,4.4,1.9,8.5,2.8,1.5.3,5.8,1.1,18.8,1.4,4.3,0,10.2.1,17.3-.1,6.1-.4,14.6-.8,24.7-.3,6.2.3,11.5.9,15.8,1.5,2.8.4,10.8,1.5,20.5.6,7.3-.7,12.2-2.2,14.5-3,2-.8,7-2.6,14.7-3.1,14.8-1,25.6,3.5,26.4,3.8,4.6.7,11.7,1.6,20.7,1.7,13.4.2,23.6-1.5,28.7-2.5.4.2,2.5,1.3,2.1,2.7-.4,1.2-2.2,2-2.7,2.2-3.3.4-7.2.8-11.5,1-15.7.8-28.7-1-35.8-2.3-3.3-.8-9.9-2-18.8-2.3-10.7-.3-18.7,1.1-22.2,1.8-2.2.9-6.2,2.2-12,3-10.2,1.4-19.3.4-22.2,0-5.6-.7-12.9-1.3-21.6-1.6-9.3-.2-17.2,0-23.2.5-6.8.3-16.7.4-28.1-.6-6.2-.6-11.5-1.4-15.7-2.1-.6-.3-1.6-1-1.9-1.9-.4-1.8,2.7-3,3.2-3.2Z"/>
        <g>
          <path class="cls-50" d="M730.9,719.3c-8,2.4-16.2,3.7-25.5,4.7-36.6,3.8-90.1,3.6-93.1-1.4-4.8-8.3,125.2-31.2,141.7-22.9,7.2,3.6-5,14.1-23.2,19.7Z"/>
          <path class="cls-10" d="M612.3,722.5c3.6,1.3,9.2,2.9,16.7,3.6,11.2,1,19.9-.6,29.6-1.6,9.8-1,23.9-1.8,42.7-.7,6.4-.6,22-2.5,35.6-8.1,13.9-5.7,17.8-12,18.9-14.5,2,.6,5.2,1.6,7,3.4,2.9,2.9.8,6.3-5.1,8.9-3.6,2-8.1,4.1-13.9,6.3-14.6,5.4-30.2,8.1-40.8,9.5-4.5-.4-11.2-.8-19.5-.7-13.7.2-21,1.8-31,2.7-8.6.7-21.4,1.1-38.5-.8-1.1-.5-3.3-1.5-4.1-3.1-1.3-2.4,1.6-4.4,2.3-4.8Z"/>
        </g>
        <g>
          <path class="cls-50" d="M924.9,724.7c-2.9,6.4-26.3,9.2-35.7,10.4-5.2.6-14.6,1.6-42.6,1.1-27.9-.5-49.1-1.9-57.4-2.5-40.6-2.9-62.6-4.5-63.5-7.7-.8-3.2,20.2-3.7,56-14.1,10.8-3.1,15.5-5,25.9-6.3,7.5-.9,14.8-1.1,41.2.4,28.6,1.6,43.1,2.4,51.4,4.5,2.8.7,27.9,7.1,24.5,14.3Z"/>
          <path class="cls-10" d="M725.8,725.9c25.6,3.8,60.4,7.8,102.4,8.9,20.9.6,39.9.4,56.5-.2,2.7,0,15.2.3,26.2-3.2,12.7-4,13.3-9.8,13.4-10.7,5.3,1.7,7.7,4.3,6.3,6.7-1.5,2.4-6.2,3.6-7.4,3.9-1.1,1.3-3.7,3.7-9.7,5.7-9.8,3.4-21.6,3.4-24.5,3.4-21.2.9-48.2,1.4-79.2.2-33.1-1.3-60.7-4.2-81.8-7-1.1-.3-3.7-1.3-4.9-2.8-1.9-2.6,2.3-4.8,2.8-5Z"/>
        </g>
        <g>
          <path class="cls-50" d="M1166.2,737.7c-2.5,3.4-30.7,3.6-49.9,2.7-28.3-1.3-34.2-5-53.8-4.1-17,.8-18.7,3.8-35.7,6.1-41.3,5.5-92.8-4.4-92.6-10.2,0-1.7,4.6-2,15.7-7.3,9.7-4.7,10.5-6.5,14.8-8.6,6.2-2.9,16.6-4.7,80.1-4.7,46.5,0,52.8,1,57.4,2,11.7,2.3,10,3.8,41.2,14.7,17.5,6.1,24,7.7,22.7,9.5Z"/>
          <path class="cls-10" d="M934.2,732.2c6.3,2.4,21.5,7.5,45.4,9.7,24.7,2.3,44.8.2,53.2-.9,4.4-1.4,15.7-4.7,32.5-5.4,22.2-1,38.4,3.2,42.5,4.3,6.8.8,18.6,1.7,32.9.9,11.2-.6,19.9-2,25.5-3.1,1.1,1.1,2.5,3,1.9,5.4-.3,1.1-1,2.1-1.7,2.9-7.5,1-19.6,2.2-34.4,1.8-9.4-.2-17.3-1-23.2-1.8-5-1.2-18.4-4.1-37.1-3.9-18.3.2-31.2,3.2-36.1,4.5-12.4,1-33.1,2.1-57.9.2-17.8-1.4-31.7-3.8-41.2-5.9-1.1-.8-2.5-1.9-3.2-3.4-1.1-2.3.1-4.2.9-5.2Z"/>
        </g>
        <g>
          <path class="cls-50" d="M1210.9,720.9c1.1,0,2.3,0,3.4,0,.6,0,1.5-.2,1.4-.2,1.5-.3,2.9-.8,4.4-1.3.1,0,.2,0,.3,0,.1,0,.2-.1.4-.2.9-.4,1.8-.9,2.7-1.4,1.5-.8,2.9-1.7,4.4-2.6,6.3-3.9,12.3-8.4,19.1-11.4,1.3-.6,2.6-1.1,3.8-1.5-3.9,0-8.1,0-12.7,0-35.6-.5-44.8-3.9-58.8-.7-14.4,3.3-22.8,11.1-17.1,15,1.7,1.2,10.6,2.5,28.3,5,6.9,1,11,1.5,13.8,1.9,1.8-1.6,4.2-2.6,6.8-2.6Z"/>
          <path class="cls-10" d="M1204.4,723.3c-10.7-.5-18.9-2-22.4-2.7-11-2.1-17.9-5-21.7-6.8-.8,1.7-1.6,3.3-2.3,5,4.5,2.1,16,6.7,34.7,8.5,3,.3,5.9.5,8.6.6.7-1.8,1.8-3.3,3.2-4.5Z"/>
        </g>
        <g>
          <path class="cls-50" d="M1303.5,679.1c-2.1,3.9-25.5,4.1-41.4,3.1-23.5-1.5-28.3-5.8-44.6-4.7-14.1.9-15.5,4.4-29.6,7-34.2,6.3-77-5-76.8-11.7,0-2,3.8-2.3,13.1-8.4,8-5.4,8.7-7.5,12.3-9.8,5.2-3.4,13.7-5.4,66.4-5.3,38.6,0,43.8,1.2,47.6,2.3,9.7,2.7,8.3,4.4,34.2,16.8,14.5,7,19.9,8.9,18.8,10.9Z"/>
          <path class="cls-10" d="M1111.1,672.8c5.2,2.7,17.8,8.5,37.6,11.1,20.5,2.6,37.2.2,44.1-1,3.7-1.6,13-5.4,27-6.2,18.4-1.1,31.8,3.6,35.2,4.9,5.6.9,15.4,2,27.3,1.1,9.2-.7,16.5-2.3,21.2-3.6.9,1.3,2,3.5,1.5,6.2-.2,1.3-.8,2.4-1.4,3.3-6.2,1.1-16.2,2.5-28.6,2.1-7.8-.3-14.3-1.2-19.2-2.1-4.2-1.4-15.3-4.7-30.7-4.5-15.2.2-25.9,3.6-30,5.1-10.3,1.2-27.5,2.4-48,.2-14.7-1.6-26.3-4.4-34.2-6.8-.9-.9-2.1-2.2-2.7-3.9-.9-2.7,0-4.8.8-5.9Z"/>
        </g>
        <g>
          <path class="cls-50" d="M1058.1,652.6c-3,1.7-6.3,3.5-12.7,4.5-9,1.5-12.9-.5-28.6.1-10.9.4-12.2,1.5-21.1,1.3-2.9,0-5.3-.3-17.1-1.8-15.2-2-22.8-3-24.2-4-4.8-3.1,2.3-9.3,14.7-11.9,12-2.5,19.9.2,50.5.6,28.3.3,40.3-1.8,45.3.8,6,3.2-5.4,9.6-6.8,10.3Z"/>
          <path class="cls-10" d="M952.9,650.5c3.2,1.4,9.2,3.7,18.6,5.4,4.1.7,15.7,2.8,29.8,2.1,9.2-.4,11.1-1.6,20.3-1.7,8.1-.1,14.8.7,19,1.4,3.5-.4,11-1.5,17.2-4.2,8.7-3.7,8.9-7.9,8.9-9,.9,1.1,3.9,5.1-1.7,9.2-2.6,1.9-6.2,3.2-8.7,4-5.7,1.3-11.4,2.7-17.1,4h-40.1c-4.7.2-11.1.1-18.3-.5-16-1.4-25.8-5.1-29.7-6.7.7-1.3,1.3-2.6,2-3.9Z"/>
        </g>
        <g>
          <path class="cls-50" d="M925.9,654c-2.5,1.4-5.2,3-10.5,3.9-7.4,1.2-10.6-.4-23.5.1-9,.4-10.1,1.3-17.3,1.1-2.3,0-4.3-.2-14.1-1.6-12.5-1.7-18.8-2.6-19.9-3.4-4-2.6,1.9-7.9,12.1-10.1,9.9-2.2,16.4.2,41.5.5,23.3.3,33.2-1.5,37.3.7,4.9,2.7-4.5,8.2-5.6,8.8Z"/>
          <path class="cls-10" d="M839.4,652.2c2.6,1.2,7.6,3.1,15.3,4.6,3.3.6,12.9,2.4,24.5,1.8,7.5-.4,9.1-1.3,16.7-1.4,6.7,0,12.1.6,15.6,1.2,2.9-.4,9-1.3,14.1-3.6,7.1-3.2,7.3-6.7,7.3-7.7.8,1,3.2,4.3-1.4,7.8-2.2,1.6-5.1,2.7-7.2,3.4-4.7,1.1-9.4,2.3-14.1,3.4h-33c-3.9.1-9.1.1-15-.4-13.2-1.2-21.3-4.3-24.4-5.7.6-1.1,1.1-2.2,1.7-3.3Z"/>
        </g>
        <g>
          <path class="cls-50" d="M1193.5,638.6c-2.4,2.3-24.7,1.9-39.8.9-22.2-1.5-26.4-4.1-42.1-3.9-13.5.2-15.2,2.3-28.9,3.5-33.2,3-72.9-4.8-72.1-8.8.2-1.2,3.9-1.3,13.3-4.8,8.2-3,9-4.3,12.7-5.7,5.3-1.9,13.6-3,63.9-1.7,36.8.9,41.6,1.7,45.2,2.5,9,1.8,7.5,2.8,30.9,10.9,13.2,4.6,18.1,5.8,16.9,7Z"/>
          <path class="cls-34" d="M1010.7,630.3c4.7,1.8,16.2,5.6,34.8,7.5,19.3,2,35.4,1,42.1.4,3.7-.9,13-2.9,26.3-3.1,17.6-.2,30,2.9,33.1,3.8,5.3.7,14.5,1.5,25.9,1.3,8.9-.2,15.9-1,20.5-1.7.7.8,1.6,2.1.9,3.7-.4.8-1,1.4-1.7,1.9-6,.5-15.7,1.1-27.4.6-7.4-.3-13.5-1-18.1-1.7-3.8-.9-14.1-3.2-28.9-3.4-14.5-.2-25,1.6-29.1,2.4-9.9.5-26.4.8-45.8-1-13.9-1.3-24.6-3.3-31.9-4.9-.8-.5-1.8-1.4-2.2-2.4-.6-1.6.6-2.9,1.3-3.6Z"/>
        </g>
        <g>
          <path class="cls-50" d="M1128.1,599.2c3.1,3.6-26.9,13.5-59.9,14.5-1.8,0,0,0-33.5-.9-24.9-.7-34.3-.8-35.1-2.3-.6-1.1,4.7-1.8,14.8-5.2,15.3-5.3,14.9-7.8,23.7-8.6,7.1-.6,9.4.8,20.6,0,6.5-.5,7-1.1,12.7-1.6,5.4-.5,11-.6,36.7,1.7,13,1.2,19.5,1.8,20,2.5Z"/>
          <path class="cls-34" d="M999.5,610.8c2.7.4,6.8.9,12,1.2,3.7.2,6.1.3,13,.4,4.5.1,9,.3,13.5.4,6.3.2,15.9.4,30.2.8,3.4-.1,7.2-.3,11.3-.7,2.3-.2,4.4-.4,6.4-.7,8.2-1.2,20.6-3.5,31.9-8,4.4-1.8,7.8-3.5,10.4-5.1.2,0,2.1.5,2.4,1.4.3.9-1.2,1.6-1.4,1.6-2.4,1.1-5,2.2-7.9,3.4-11.8,4.6-24.2,7.8-35,10-2.6.4-6.2,1-10.8,1.2-4.6.2-8.6.1-11.4,0-13.3,0-27.5-.4-42.4-1-7.6-.3-14.9-.7-21.9-1.1-.5-.3-1.2-1-1.3-1.8,0-1,.7-1.7,1.1-2Z"/>
        </g>
        <g>
          <path class="cls-50" d="M1000.9,631.9c-2.5,1.4-5.2,3-10.5,3.9-7.4,1.2-10.6-.4-23.5.1-9,.4-10.1,1.3-17.3,1.1-2.3,0-4.3-.2-14.1-1.6-12.5-1.7-18.8-2.6-19.9-3.4-4-2.6,1.9-7.9,12.1-10.1,9.9-2.2,16.4.2,41.5.5,23.3.3,33.2-1.5,37.3.7,4.9,2.7-4.5,8.2-5.6,8.8Z"/>
          <path class="cls-34" d="M914.4,630.1c2.6,1.2,7.6,3.1,15.3,4.6,3.3.6,12.9,2.4,24.5,1.8,7.5-.4,9.1-1.3,16.7-1.4,6.7,0,12.1.6,15.6,1.2,2.9-.4,9-1.3,14.1-3.6,7.1-3.2,7.3-6.7,7.3-7.7.8,1,3.2,4.3-1.4,7.8-2.2,1.6-5.1,2.7-7.2,3.4-4.7,1.1-9.4,2.3-14.1,3.4h-33c-3.9.1-9.1.1-15-.4-13.2-1.2-21.3-4.3-24.4-5.7.6-1.1,1.1-2.2,1.7-3.3Z"/>
        </g>
        <g>
          <path class="cls-50" d="M1319.1,633.3c-1.8,4.1-16.3,6-22.1,6.7-3.2.4-9,1-26.4.7-17.3-.3-30.4-1.2-35.6-1.6-25.1-1.9-38.8-2.9-39.3-5-.5-2.1,12.5-2.4,34.7-9.1,6.7-2,9.6-3.2,16.1-4,4.6-.6,9.1-.7,25.5.2,17.7,1,26.7,1.6,31.8,2.9,1.7.5,17.3,4.6,15.2,9.3Z"/>
          <path class="cls-34" d="M1195.7,634.1c15.8,2.5,37.4,5,63.4,5.8,12.9.4,24.7.3,35-.1,1.7,0,9.4.2,16.2-2.1,7.8-2.6,8.3-6.3,8.3-6.9,3.3,1.1,4.8,2.8,3.9,4.3-.9,1.5-3.8,2.4-4.6,2.5-.7.8-2.3,2.4-6,3.7-6.1,2.2-13.4,2.2-15.2,2.2-13.1.6-29.9.9-49.1.1-20.5-.9-37.6-2.7-50.6-4.6-.7-.2-2.3-.8-3-1.8-1.2-1.7,1.4-3.1,1.7-3.2Z"/>
        </g>
        <g>
          <path class="cls-50" d="M1209.9,612.6c-.9,1.9-11.1,2.1-18,1.5-10.2-.8-12.3-2.9-19.4-2.4-6.1.5-6.8,2.2-12.8,3.5-14.9,3.1-33.4-2.5-33.4-5.8,0-1,1.7-1.1,5.7-4.2,3.5-2.7,3.8-3.7,5.3-4.9,2.2-1.7,6-2.7,28.9-2.7,16.8,0,19,.6,20.7,1.1,4.2,1.3,3.6,2.2,14.8,8.4,6.3,3.5,8.6,4.4,8.2,5.4Z"/>
          <path class="cls-34" d="M1126.3,609.5c2.3,1.4,7.7,4.3,16.4,5.5,8.9,1.3,16.2.1,19.1-.5,1.6-.8,5.7-2.7,11.7-3.1,8-.5,13.8,1.8,15.3,2.5,2.4.4,6.7,1,11.9.5,4-.3,7.2-1.1,9.2-1.8.4.6.9,1.7.7,3.1-.1.7-.4,1.2-.6,1.6-2.7.6-7.1,1.2-12.4,1-3.4-.1-6.2-.6-8.3-1-1.8-.7-6.6-2.3-13.3-2.3-6.6,0-11.2,1.8-13,2.6-4.5.6-11.9,1.2-20.9.1-6.4-.8-11.4-2.2-14.8-3.4-.4-.4-.9-1.1-1.2-1.9-.4-1.3,0-2.4.3-3Z"/>
        </g>
        <g>
          <path class="cls-50" d="M1298.8,605.7c-2.5,1.4-5.2,3-10.5,3.9-7.4,1.2-10.6-.4-23.5.1-9,.4-10.1,1.3-17.3,1.1-2.3,0-4.3-.2-14.1-1.6-12.5-1.7-18.8-2.6-19.9-3.4-4-2.6,1.9-7.9,12.1-10.1,9.9-2.2,16.4.2,41.5.5,23.3.3,33.2-1.5,37.3.7,4.9,2.7-4.5,8.2-5.6,8.8Z"/>
          <path class="cls-50" d="M1212.3,603.9c2.6,1.2,7.6,3.1,15.3,4.6,3.3.6,12.9,2.4,24.5,1.8,7.5-.4,9.1-1.3,16.7-1.4,6.7,0,12.1.6,15.6,1.2,2.9-.4,9-1.3,14.1-3.6,7.1-3.2,7.3-6.7,7.3-7.7.8,1,3.2,4.3-1.4,7.8-2.2,1.6-5.1,2.7-7.2,3.4-4.7,1.1-9.4,2.3-14.1,3.4h-33c-3.9.1-9.1.1-15-.4-13.2-1.2-21.3-4.3-24.4-5.7.6-1.1,1.1-2.2,1.7-3.3Z"/>
        </g>
        <g>
          <path class="cls-50" d="M1218.7,582.1c-1.8,3.2-16.3,4.6-22,5.2-3.2.3-9,.8-26.3.5-17.3-.2-30.4-1-35.5-1.3-25.1-1.5-38.7-2.2-39.2-3.9-.5-1.6,12.5-1.9,34.6-7.1,6.7-1.6,9.6-2.5,16-3.1,4.6-.4,9.1-.6,25.5.2,17.7.8,26.6,1.2,31.8,2.2,1.7.4,17.2,3.6,15.2,7.2Z"/>
          <path class="cls-50" d="M1095.6,582.7c15.8,1.9,37.3,3.9,63.3,4.5,12.9.3,24.7.2,34.9,0,1.7,0,9.4.2,16.2-1.6,7.8-2,8.2-4.9,8.3-5.4,3.3.9,4.8,2.2,3.9,3.4-.9,1.2-3.8,1.8-4.6,2-.7.6-2.3,1.8-6,2.9-6.1,1.7-13.3,1.7-15.2,1.7-13.1.5-29.8.7-49,0-20.4-.7-37.6-2.1-50.5-3.5-.7-.2-2.3-.6-3-1.4-1.2-1.3,1.4-2.4,1.7-2.5Z"/>
        </g>
        <g>
          <path class="cls-50" d="M1312.2,582.5c-2.4,1.3-5.1,2.8-10.2,3.6-7.2,1.2-10.3-.4-22.8.1-8.7.3-9.8,1.2-16.8,1-2.3,0-4.2-.2-13.6-1.5-12.1-1.6-18.2-2.4-19.4-3.1-3.9-2.4,1.8-7.3,11.7-9.4,9.6-2,15.9.2,40.3.4,22.6.3,32.2-1.4,36.2.7,4.8,2.5-4.3,7.6-5.4,8.1Z"/>
          <path class="cls-50" d="M1228.1,580.9c2.6,1.1,7.3,2.9,14.8,4.2,3.3.6,12.5,2.2,23.8,1.7,7.3-.3,8.9-1.2,16.2-1.3,6.5,0,11.8.6,15.2,1.1,2.8-.3,8.8-1.2,13.7-3.3,6.9-2.9,7.1-6.2,7.1-7.1.8.9,3.1,4-1.4,7.3-2.1,1.5-4.9,2.5-7,3.1-4.5,1.1-9.1,2.1-13.6,3.2h-32.1c-3.8.1-8.8.1-14.6-.4-12.8-1.1-20.6-4-23.7-5.3.5-1,1.1-2.1,1.6-3.1Z"/>
        </g>
        <g>
          <path class="cls-50" d="M1288.2,566.2c-.9,1.9-10.6,2-17.3,1.5-9.8-.7-11.8-2.8-18.7-2.3-5.9.4-6.5,2.1-12.4,3.4-14.3,3-32.2-2.4-32.1-5.6,0-1,1.6-1.1,5.5-4.1,3.4-2.6,3.6-3.6,5.1-4.8,2.2-1.6,5.7-2.6,27.8-2.6,16.1,0,18.3.6,19.9,1.1,4,1.3,3.5,2.1,14.3,8.1,6.1,3.4,8.3,4.3,7.9,5.2Z"/>
          <path class="cls-50" d="M1207.8,563.1c2.2,1.3,7.5,4.1,15.7,5.3,8.6,1.3,15.5.1,18.4-.5,1.5-.8,5.5-2.6,11.3-3,7.7-.5,13.3,1.8,14.7,2.4,2.4.4,6.4.9,11.4.5,3.9-.3,6.9-1.1,8.8-1.7.4.6.8,1.7.6,3-.1.6-.3,1.2-.6,1.6-2.6.5-6.8,1.2-11.9,1-3.3-.1-6-.6-8-1-1.7-.7-6.4-2.3-12.8-2.2-6.3,0-10.8,1.8-12.5,2.5-4.3.6-11.5,1.2-20.1,0-6.2-.8-11-2.1-14.3-3.3-.4-.4-.9-1.1-1.1-1.9-.4-1.3,0-2.3.3-2.9Z"/>
        </g>
        <g>
          <path class="cls-50" d="M1174.4,566.6c-1.4,1-3,2.2-6,2.8-4.3.9-6.1-.3-13.6,0-5.2.3-5.8.9-10,.8-1.4,0-2.5-.2-8.1-1.1-7.2-1.3-10.8-1.9-11.5-2.5-2.3-1.9,1.1-5.8,7-7.4,5.7-1.6,9.4.1,23.9.4,13.4.2,19.1-1.1,21.5.5,2.8,2-2.6,6-3.2,6.4Z"/>
          <path class="cls-50" d="M1124.5,565.3c1.5.9,4.4,2.3,8.8,3.3,1.9.5,7.4,1.7,14.1,1.3,4.3-.3,5.3-1,9.6-1.1,3.8,0,7,.4,9,.8,1.7-.3,5.2-1,8.1-2.6,4.1-2.3,4.2-4.9,4.2-5.6.4.7,1.8,3.2-.8,5.7-1.2,1.2-2.9,2-4.1,2.5-2.7.8-5.4,1.7-8.1,2.5h-19c-2.2,0-5.2,0-8.7-.3-7.6-.9-12.2-3.2-14.1-4.2.3-.8.6-1.6,1-2.4Z"/>
        </g>
        <g>
          <path class="cls-50" d="M1205.2,547c-1.7.8-3.5,1.7-7,2.2-5,.7-7.1-.2-15.8,0-6,.2-6.8.7-11.6.6-1.6,0-2.9-.1-9.4-.9-8.4-1-12.6-1.5-13.4-1.9-2.7-1.5,1.3-4.5,8.1-5.8,6.6-1.2,11,0,27.8.3,15.6.2,22.3-.9,25,.4,3.3,1.5-3,4.7-3.7,5Z"/>
          <path class="cls-50" d="M1147.2,545.9c1.8.7,5.1,1.8,10.3,2.6,2.2.4,8.7,1.3,16.4,1,5.1-.2,6.1-.8,11.2-.8,4.5,0,8.1.3,10.5.7,1.9-.2,6-.7,9.5-2,4.8-1.8,4.9-3.8,4.9-4.4.5.5,2.1,2.5-.9,4.5-1.4.9-3.4,1.6-4.8,1.9-3.1.7-6.3,1.3-9.4,2h-22.1c-2.6,0-6.1,0-10.1-.2-8.8-.7-14.3-2.5-16.4-3.3.4-.6.7-1.3,1.1-1.9Z"/>
        </g>
        <g>
          <path class="cls-50" d="M1274,539.2c-1.1.9-2.2,2-5.2,2.8-4.2,1.1-6.9.4-14.8,1.5-5.6.8-5.9,1.3-10.6,1.7-1.5.1-2.8.1-9.5,0-8.5-.2-12.8-.3-13.8-.6-3.5-1.2-1.6-4.5,4-6.3,5.5-1.8,10.4-.9,26.4-2.3,14.8-1.3,20.4-2.9,23.8-1.9,4.1,1.2.1,4.8-.4,5.2Z"/>
          <path class="cls-50" d="M1218.6,543.5c2.1.5,5.9,1.3,11.3,1.6,2.3.1,9,.5,16.2-.5,4.6-.7,5.3-1.3,10-1.8,4.2-.5,7.9-.4,10.3-.3,1.7-.4,5.2-1.3,7.7-2.8,3.4-2.2,2.2-4.2,1.8-4.7.8.5,3.6,2.2,1.9,4.4-.8,1-2.2,1.8-3.3,2.3-2.6.9-5.1,1.8-7.7,2.8l-20.9,2c-2.4.3-5.7.6-9.7.7-8.8.1-15-1.1-17.5-1.7,0-.6-.1-1.3-.2-1.9Z"/>
        </g>
        <g>
          <path class="cls-50" d="M1252,525.6c-1.1.9-2.2,2-5.2,2.8-4.2,1.1-6.9.4-14.8,1.5-5.6.8-5.9,1.3-10.6,1.7-1.5.1-2.8.1-9.5,0-8.5-.2-12.8-.3-13.8-.6-3.5-1.2-1.6-4.5,4-6.3,5.5-1.8,10.4-.9,26.4-2.3,14.8-1.3,20.4-2.9,23.8-1.9,4.1,1.2.1,4.8-.4,5.2Z"/>
          <path class="cls-50" d="M1196.6,529.9c2.1.5,5.9,1.3,11.3,1.6,2.3.1,9,.5,16.2-.5,4.6-.7,5.3-1.3,10-1.8,4.2-.5,7.9-.4,10.3-.3,1.7-.4,5.2-1.3,7.7-2.8,3.4-2.2,2.2-4.2,1.8-4.7.8.5,3.6,2.2,1.9,4.4-.8,1-2.2,1.8-3.3,2.3-2.6.9-5.1,1.8-7.7,2.8l-20.9,2c-2.4.3-5.7.6-9.7.7-8.8.1-15-1.1-17.5-1.7,0-.6-.1-1.3-.2-1.9Z"/>
        </g>
        <g>
          <path class="cls-50" d="M1204.8,512.1c-1.1.9-2.2,2-5.2,2.8-4.2,1.1-6.9.4-14.8,1.5-5.6.8-5.9,1.3-10.6,1.7-1.5.1-2.8.1-9.5,0-8.5-.2-12.8-.3-13.8-.6-3.5-1.2-1.6-4.5,4-6.3,5.5-1.8,10.4-.9,26.4-2.3,14.8-1.3,20.4-2.9,23.8-1.9,4.1,1.2.1,4.8-.4,5.2Z"/>
          <path class="cls-50" d="M1149.5,516.4c2.1.5,5.9,1.3,11.3,1.6,2.3.1,9,.5,16.2-.5,4.6-.7,5.3-1.3,10-1.8,4.2-.5,7.9-.4,10.3-.3,1.7-.4,5.2-1.3,7.7-2.8,3.4-2.2,2.2-4.2,1.8-4.7.8.5,3.6,2.2,1.9,4.4-.8,1-2.2,1.8-3.3,2.3-2.6.9-5.1,1.8-7.7,2.8l-20.9,2c-2.4.3-5.7.6-9.7.7-8.8.1-15-1.1-17.5-1.7,0-.6-.1-1.3-.2-1.9Z"/>
        </g>
        <g>
          <path class="cls-50" d="M1183.6,532.3c-1.1.9-2.2,2-5.2,2.8-4.2,1.1-6.9.4-14.8,1.5-5.6.8-5.9,1.3-10.6,1.7-1.5.1-2.8.1-9.5,0-8.5-.2-12.8-.3-13.8-.6-3.5-1.2-1.6-4.5,4-6.3,5.5-1.8,10.4-.9,26.4-2.3,14.8-1.3,20.4-2.9,23.8-1.9,4.1,1.2.1,4.8-.4,5.2Z"/>
          <path class="cls-50" d="M1128.2,536.6c2.1.5,5.9,1.3,11.3,1.6,2.3.1,9,.5,16.2-.5,4.6-.7,5.3-1.3,10-1.8,4.2-.5,7.9-.4,10.3-.3,1.7-.4,5.2-1.3,7.7-2.8,3.4-2.2,2.2-4.2,1.8-4.7.8.5,3.6,2.2,1.9,4.4-.8,1-2.2,1.8-3.3,2.3-2.6.9-5.1,1.8-7.7,2.8l-20.9,2c-2.4.3-5.7.6-9.7.7-8.8.1-15-1.1-17.5-1.7,0-.6-.1-1.3-.2-1.9Z"/>
        </g>
        <g>
          <path class="cls-50" d="M1144.7,523.2c-2.5.4-5.2.8-8.8.5-5.1-.4-5.6-1.6-13.2-3.1-5.3-1-6.6-.7-10.5-1.8-1.3-.3-2.2-.7-6.6-2.6-5.6-2.5-8.4-3.7-8.5-4.3-.2-1.8,7.2-3.6,14.6-3.3,7.2.3,9,2.2,22.7,5.7,12.7,3.2,19.6,3.7,20.1,5.3.6,2-8.8,3.4-9.9,3.5Z"/>
          <path class="cls-50" d="M1098.1,510.8c.5.9,1.8,2.5,4.9,4.2,1.4.7,5.3,2.8,12.2,4.1,4.5.8,6.1.6,10.4,1.5,3.8.8,6.3,1.9,7.8,2.6,1.9.2,6,.6,10.6.1,6.4-.6,9.3-2.3,10-2.8-.3.6-1.6,2.5-6.9,3.6-2.5.5-4.9.6-6.6.7-3.5,0-7-.1-10.5-.2l-18.3-4.4c-2.2-.4-5.2-1.1-8-2.2-6.4-2.3-8.5-4.9-9.2-6,1.2-.5,2.3-.9,3.5-1.4Z"/>
        </g>
        <g>
          <path class="cls-50" d="M1104,498.6c2.1-.5,4.5-1.1,8.1-1.1,5.1,0,6.4,1,14.7,1.8,5.7.5,6.8.1,11.2.8,1.4.2,2.6.4,8.1,1.9,7,1.8,10.6,2.7,11,3.2,1.4,1.6-4.4,3.8-11.7,4.1-7,.3-10.1-1.3-25.6-3.4-14.3-1.9-21.2-1.8-22.8-3.2-2-1.7,6.1-3.7,7.1-3.9Z"/>
          <path class="cls-50" d="M1157,506.1c-1.1-.8-3.4-2.1-7.6-3.4-1.8-.6-7-2.2-14.5-2.8-4.8-.4-6.2,0-10.9-.6-4.2-.5-7.3-1.2-9.2-1.8-1.9,0-6.1,0-10.2.7-5.7,1-7.3,2.8-7.7,3.3,0-.5-.2-2.4,4.1-3.8,2-.6,4.3-1,5.8-1.1,3.4-.2,6.8-.4,10.1-.6l20.5,2.5c2.5.2,5.7.6,9.2,1.4,7.7,1.6,11.4,3.8,12.8,4.7-.8.5-1.6,1-2.4,1.5Z"/>
        </g>
        <g>
          <path class="cls-50" d="M1089.1,501.5c-2,.7-4.2,1.4-7.8,1.6-5.1.3-6.7-.8-15.1-1.1-5.9-.2-6.8.2-11.4-.2-1.5-.2-2.7-.3-8.5-1.6-7.5-1.6-11.2-2.4-11.8-2.9-1.8-1.7,3.5-4.3,10.6-5.1,6.9-.7,10.4.9,26.4,2.3,14.8,1.3,21.7.8,23.6,2.2,2.4,1.8-5.2,4.4-6.1,4.6Z"/>
          <path class="cls-50" d="M1034.3,496.2c1.3.8,3.9,2.1,8.5,3.3,2,.5,7.6,2,15.2,2.2,4.9.2,6.2-.3,11.1,0,4.3.3,7.6.9,9.7,1.4,1.9,0,6.1-.3,10.1-1.3,5.5-1.4,6.6-3.4,6.9-4,.2.6.8,2.6-3.2,4.3-1.8.8-4,1.3-5.6,1.5-3.3.4-6.7.8-10,1.2l-21.1-1.6c-2.5-.1-5.9-.4-9.5-1-8.1-1.3-12.4-3.5-14-4.4.7-.6,1.3-1.2,2-1.8Z"/>
        </g>
      </g>
      <g>
        <g>
          <path class="cls-19" d="M972,767.6c21-.5,42-1.2,62.9-1,.5-13.2-1.5-27-6.9-37.7-7.1-14.3-22.4-28.1-37.4-20.3-14.9,7.7-20.7,32.3-19.7,50.1.2,3,.5,6,1.1,8.9Z"/>
          <path class="cls-19" d="M982,767.3c-6.9-5.9-11.7-8.2-16.5-5.9-2.5,1.2-4.6,3.5-6.3,6.3,7.6-.1,15.2-.3,22.8-.5Z"/>
          <path class="cls-19" d="M1058.5,767.2c0-.5-.2-1-.3-1.6-2.3-9.5-12.5-12.7-19.5-11.2-5.7,1.3-10.8,6-14.8,12,11.5,0,23.1.1,34.6.7Z"/>
          <path class="cls-19" d="M1073,768.2c.6-2.4.9-5,.2-7.6-1.6-6.8-8.3-9.6-13-8.8-5.8,1-10.8,7.7-13.7,15,8.8.2,17.7.7,26.5,1.4Z"/>
          <path class="cls-19" d="M1084.3,766.3c.3,0,.5,0,.8,0,.3,0,.6,0,.8,0,.4,0,.9,0,1.3,0,.2-.3.4-.6.7-.9,1.5-2.1,9.9-13.8,7.1-25.3-2.2-9.3-10.5-13.7-16.6-12.9-12.6,1.6-22.4,25.9-22,39.9,7.2.3,14.4.8,21.5,1.5,1.8-1.5,4.1-2.4,6.5-2.4Z"/>
          <path class="cls-19" d="M1133.9,732.3c-.4-14.3-17.5-31.8-32.2-25.7-9,3.8-17.1,16.5-17.2,27.9,0,2.3.3,2.4,1.3,11.5,1.7,15.6.9,17.6,2,19.4.3.5.7.9,1.2,1.3.7.2,1.4.6,2.1,1,11.4,2.9,43.4-15.3,42.8-35.4Z"/>
        </g>
        <g>
          <path class="cls-19" d="M1206,674.3c11.7,17.9,5.6,48.1-9.2,54.5-15.2,6.6-39.2-12.3-40.9-34.6-.9-11.9,4.3-28.3,17.3-33.4,13.1-5.2,26.5,4,32.8,13.5Z"/>
          <path class="cls-19" d="M1175.8,707.2c11,8.1,17.7,13,17.2,18.6-.2,2.2-1.6,5-26.5,16.1-17.6,7.8-20.5,8-23.1,6.4-7.5-4.9-5.3-21.8-4.7-26.3.8-5.8,2.9-22.2,12.5-25.8,6.3-2.3,12.4,2.1,24.6,11.1Z"/>
          <path class="cls-19" d="M1152.2,733.6c1.8,5.6-3.6,12.8-12.2,16.2-8.6,3.4-17,1.6-18.8-3.9-1.8-5.6,3.6-12.8,12.2-16.2,8.6-3.4,17-1.6,18.8,3.9Z"/>
          <path class="cls-19" d="M1232.5,698.9c2.6,8.1-8,17-8.8,17.7-9.3,7.7-24.4,9-27.7,2.9-3.8-6.9,6.1-25.9,19.4-28.1,6.1-1,15.1,1.1,17.1,7.5Z"/>
          <path class="cls-19" d="M1220.5,711.3c2.6,4.2,13.5,2.7,19.9-3.3.9-.8,7.1-6.8,5.3-12.5-1.4-4.5-7.3-6.4-11.4-5.9-9.7,1.2-17,16.6-13.8,21.7Z"/>
          <path class="cls-19" d="M1264.7,681.9c2.5,7.7-4.9,15.5-6.2,16.9-8.1,8.6-22.7,11.1-26.5,5.5-4.8-7,5-29.7,18.1-31,5.4-.5,12.6,2.4,14.6,8.6Z"/>
          <path class="cls-19" d="M1256.8,685.8c1.5,10.4.8,11.7,1.7,13,5,6.6,41-7,40.4-22.1-.4-9.6-15.4-21.2-28.2-17.1-7.9,2.5-15,11-15.1,18.6,0,1.6.3,1.6,1.1,7.6Z"/>
          <path class="cls-19" d="M1266.1,691c-2,2.3-4.5,2.9-6.5,1.5-2.1-1.4-3-4.8-2.4-8.2-1.6-1.9-1.3-5.3.1-7.2,1.2-1.5,3.1-1.8,4.4-.4.2-2.9,1.5-5.7,3.4-7.3,2.2-1.8,5-1.6,6.7.6,2.3,0,4.6-.2,6.9-.2.6-.9,1.9-2.9,3.9-4,3.5-1.9,6.3,0,6.8.3.9.5,7,3.6,6.5,6.1-.4,1.9-4.6,2.9-10.3,3,0,3.1-1.3,6.1-3.3,7.6-2.3,1.7-5,1.1-6.4-1.6-3.3,3.3-6.5,6.7-9.8,10Z"/>
        </g>
        <path class="cls-19" d="M1324,623.4c8.6-17.7,26.4-28.4,31.9-20,8,12.2-8.3,68-22.5,67.4-7.1-.3-11.4-7.3-11.4-7.3-1.5-2.5-2.7-5.6-3.5-9.4-2.7-13.8,3.9-27.3,5.5-30.6Z"/>
        <path class="cls-19" d="M1302,646.7c3.4-2,7.5-3.2,14.3-4.5,11.5-2.2,23.1-4.3,24.4.4.3.9.2,2.4-13.7,20.3,0,0-8,10.4-22.5,24.5-.1.1-.3.3-.6.5-5,3.3-10.4-5.6-11.9-8-1.9-3.1-7.2-11.7-4.5-20.2,1.8-5.6,6-8.1,14.6-13.1Z"/>
        <path class="cls-19" d="M1301.1,670.9c2.8,1.5,2.7,8.6,0,15.9-2.8,7.3-7.4,12.1-10.2,10.7-2.8-1.5-2.7-8.6,0-15.9,2.8-7.3,7.4-12.1,10.2-10.7Z"/>
        <path class="cls-19" d="M1326.7,600.6c4,2.2,2.2,13.5,2,14.4-1.7,9.9-8.3,20.6-12,19.9-4.2-.8-6.1-16.5-.6-26.5,2.5-4.6,7.5-9.5,10.6-7.8Z"/>
        <path class="cls-19" d="M1332.2,619.1c1.3-5.3,4.9-8.3,9-7.7,4.3.7,8.4,5.3,10.1,11.5,3.9,1.8,6.2,7.6,5.4,11.8-.7,3.4-3.4,5.4-6.5,4.3,1.9,5,2.1,10.6.4,14.6-2.1,4.8-6.5,6.6-11,4.4-3.5,2-7.1,4-10.6,6-.2,2-.7,6.2-3,9.7-3.9,6-9.8,5.1-10.8,4.9-1.7,0-13.7-.3-14.8-4.7-.8-3.4,4.9-8.5,13.7-13.1-2.4-5-2.6-10.9-.7-15,2.2-4.6,7-5.8,11.2-2.5,2.5-8.1,5-16.1,7.5-24.2Z"/>
        <g>
          <path class="cls-19" d="M1335.5,609.8c4-4.7,4.7-4.5,5-5.7,1.3-6.5-15.1-32.5-21.4-27-3.9,3.5-4.4,20,1.1,29.6,3.4,5.9,9.1,9.1,12.4,6.7.7-.5.6-.8,2.9-3.5Z"/>
          <path class="cls-19" d="M1338.2,598.3c1.7,1,2.8,3.2,2.8,5.5,0,2.4-1.2,4.5-3,5.2-.4,2.1-2,3.2-3.4,2.5-1.1-.6-1.8-2.2-1.6-3.9-1.4.9-3.1.7-4.5-.5-1.6-1.4-2.4-4-1.9-6.5-.8-2.1-1.6-4.2-2.4-6.3-.6-.2-1.9-.7-3.1-2.2-2-2.5-2.1-5.8-2-6.4,0-1-.6-7.8.7-8.2,1-.3,2.9,3.2,4.7,8.5,1.4-1.1,3.2-1,4.6.3,1.5,1.5,2.1,4.3,1.3,6.5,2.6,1.8,5.2,3.7,7.8,5.5Z"/>
        </g>
        <g>
          <path class="cls-19" d="M1316.5,585.5c.8-4.1,1.2-4.3,1-5-.9-3.6-14.4-7.5-16.1-2-1.1,3.5,2.5,11.3,7.2,13,2.9,1,6.3-.2,7.3-2.9.2-.6.1-.6.6-3Z"/>
          <path class="cls-19" d="M1315.2,579c1-.4,2,.1,2.6,1.2.6,1.1.5,2.7-.2,3.8.3,1.1-.2,2.4-1,2.8-.6.3-1.3-.1-1.6-1-.5,1.1-1.3,1.8-2.2,1.9-1.1.1-2-.7-2.4-2-.8-.6-1.7-1.2-2.5-1.8-.3.2-1.1.6-2,.5-1.5-.2-2.3-1.7-2.4-1.9-.3-.4-2-3.3-1.5-4.1.4-.6,2.1,0,4.1,1.6.4-1.2,1.3-2,2.2-2,1.1,0,2,.9,2.1,2.3,1.6-.4,3.3-.8,4.9-1.3Z"/>
        </g>
      </g>
      <g>
        <g>
          <path class="cls-19" d="M657,641.7c19.2,26.8,9.1,72.1-15.2,81.7-25,9.8-64.6-18.4-67.4-51.9-1.4-17.8,7.1-42.4,28.5-50.1,21.6-7.8,43.7,6,54,20.3Z"/>
          <path class="cls-19" d="M607.3,690.9c18.2,12.1,29.2,19.5,28.3,27.9-.4,3.3-2.7,7.5-43.7,24.1-29,11.7-33.8,12-38,9.5-12.3-7.3-8.7-32.6-7.7-39.4,1.3-8.8,4.8-33.3,20.5-38.7,10.3-3.5,20.4,3.2,40.6,16.6Z"/>
          <ellipse class="cls-19" cx="543" cy="739.7" rx="27.1" ry="16" transform="translate(-218.8 228.1) rotate(-19.8)"/>
          <path class="cls-19" d="M700.7,678.5c4.3,12.1-13.1,25.5-14.5,26.5-15.3,11.5-40.1,13.5-45.7,4.4-6.3-10.4,10.1-38.7,32-42.1,10.1-1.5,24.8,1.7,28.1,11.2Z"/>
          <path class="cls-19" d="M680.9,697.1c4.4,6.3,22.3,4.1,32.7-5,1.4-1.2,11.8-10.2,8.8-18.7-2.4-6.8-12-9.6-18.7-8.8-16.1,1.8-28,24.9-22.8,32.5Z"/>
          <path class="cls-19" d="M753.7,653c4,11.5-8,23.2-10.2,25.3-13.3,12.9-37.4,16.6-43.7,8.2-7.8-10.4,8.3-44.5,29.9-46.4,8.8-.8,20.8,3.7,24,12.9Z"/>
          <path class="cls-19" d="M740.7,658.9c2.4,15.6,1.3,17.6,2.9,19.4,8.3,9.9,67.5-10.5,66.6-33.1-.6-14.3-25.3-31.8-46.5-25.7-13,3.8-24.8,16.5-24.8,27.9,0,2.3.5,2.4,1.9,11.5Z"/>
        </g>
        <g>
          <path class="cls-19" d="M914.3,587.2c16.9,17.9,8,48.1-13.4,54.5-22,6.6-56.7-12.3-59.1-34.6-1.3-11.9,6.2-28.3,25-33.4,19-5.2,38.4,4,47.4,13.5Z"/>
          <path class="cls-19" d="M870.6,620c15.9,8.1,25.6,13,24.8,18.6-.3,2.2-2.4,5-38.3,16.1-25.4,7.8-29.7,8-33.4,6.4-10.8-4.9-7.6-21.8-6.8-26.3,1.1-5.8,4.2-22.2,18-25.8,9.1-2.3,17.9,2.1,35.6,11.1Z"/>
          <path class="cls-19" d="M836.6,646.4c2.6,5.6-5.2,12.8-17.6,16.2-12.4,3.4-24.5,1.6-27.2-3.9-2.6-5.6,5.2-12.8,17.6-16.2,12.4-3.4,24.5-1.6,27.2,3.9Z"/>
          <path class="cls-19" d="M952.6,611.7c3.7,8.1-11.5,17-12.7,17.7-13.4,7.7-35.2,9-40.1,2.9-5.6-6.9,8.8-25.9,28.1-28.1,8.9-1,21.8,1.1,24.7,7.5Z"/>
          <path class="cls-19" d="M935.2,624.2c3.8,4.2,19.6,2.7,28.7-3.3,1.2-.8,10.3-6.8,7.7-12.5-2.1-4.5-10.5-6.4-16.4-5.9-14.1,1.2-24.6,16.6-20,21.7Z"/>
          <path class="cls-19" d="M999.2,594.7c3.5,7.7-7,15.5-9,16.9-11.7,8.6-32.9,11.1-38.4,5.5-6.9-7,7.3-29.7,26.2-31,7.7-.5,18.2,2.4,21.1,8.6Z"/>
          <path class="cls-19" d="M987.7,598.6c2.1,10.4,1.1,11.7,2.5,13,7.3,6.6,59.3-7,58.4-22.1-.5-9.6-22.2-21.2-40.8-17.1-11.4,2.5-21.7,11-21.8,18.6,0,1.6.4,1.6,1.6,7.6Z"/>
          <path class="cls-19" d="M1001.2,603.9c-2.8,2.3-6.6,2.9-9.4,1.5-3-1.4-4.4-4.8-3.5-8.2-2.3-1.9-1.9-5.3.2-7.2,1.7-1.5,4.4-1.8,6.4-.4.3-2.9,2.2-5.7,4.9-7.3,3.2-1.8,7.2-1.6,9.7.6,3.3,0,6.7-.2,10-.2.8-.9,2.7-2.9,5.7-4,5-1.9,9.1,0,9.8.3,1.3.5,10.1,3.6,9.3,6.1-.6,1.9-6.7,2.9-14.9,3,0,3.1-1.9,6.1-4.8,7.6-3.3,1.7-7.2,1.1-9.3-1.6-4.7,3.3-9.4,6.7-14.2,10Z"/>
        </g>
        <path class="cls-19" d="M1084.9,536.2c12.4-17.7,38.2-28.4,46.2-20,11.6,12.2-11.9,68-32.6,67.4-10.3-.3-16.5-7.3-16.5-7.3-2.1-2.5-3.9-5.6-5-9.4-4-13.8,5.6-27.3,8-30.6Z"/>
        <path class="cls-19" d="M1053.1,559.5c5-2,10.8-3.2,20.6-4.5,16.7-2.2,33.3-4.3,35.2.4.4.9.3,2.4-19.8,20.3,0,0-11.6,10.4-32.6,24.5-.2.1-.5.3-.9.5-7.2,3.3-15.1-5.6-17.2-8-2.7-3.1-10.3-11.7-6.4-20.2,2.6-5.6,8.7-8.1,21.1-13.1Z"/>
        <path class="cls-19" d="M1051.8,583.7c4,1.5,4,8.6-.1,15.9-4.1,7.3-10.7,12.1-14.7,10.7-4-1.5-4-8.6.1-15.9,4.1-7.3,10.7-12.1,14.7-10.7Z"/>
        <path class="cls-19" d="M1088.8,513.4c5.8,2.2,3.1,13.5,2.9,14.4-2.4,9.9-12,20.6-17.3,19.9-6.1-.8-8.8-16.5-.9-26.5,3.6-4.6,10.8-9.5,15.3-7.8Z"/>
        <path class="cls-19" d="M1096.8,531.9c1.9-5.3,7-8.3,12.9-7.7,6.3.7,12.2,5.3,14.6,11.5,5.6,1.8,9,7.6,7.8,11.8-1,3.4-4.9,5.4-9.4,4.3,2.8,5,3,10.6.5,14.6-3,4.8-9.4,6.6-15.8,4.4-5.1,2-10.2,4-15.3,6-.2,2-1,6.2-4.4,9.7-5.7,6-14.1,5.1-15.6,4.9-2.5,0-19.8-.3-21.3-4.7-1.2-3.4,7.1-8.5,19.9-13.1-3.4-5-3.8-10.9-1-15,3.2-4.6,10.1-5.8,16.3-2.5,3.6-8.1,7.3-16.1,10.9-24.2Z"/>
        <g>
          <path class="cls-19" d="M1101.6,522.6c5.8-4.7,6.8-4.5,7.2-5.7,1.9-6.5-21.9-32.5-30.9-27-5.7,3.5-6.4,20,1.6,29.6,4.9,5.9,13.2,9.1,17.9,6.7,1-.5.9-.8,4.2-3.5Z"/>
          <path class="cls-19" d="M1105.4,511.1c2.4,1,4,3.2,4.1,5.5,0,2.4-1.8,4.5-4.4,5.2-.5,2.1-3,3.2-4.9,2.5-1.6-.6-2.6-2.2-2.4-3.9-2.1.9-4.5.7-6.5-.5-2.3-1.4-3.4-4-2.7-6.5-1.1-2.1-2.3-4.2-3.4-6.3-.9-.2-2.8-.7-4.5-2.2-2.9-2.5-3-5.8-3-6.4-.1-1-.8-7.8,1-8.2,1.4-.3,4.1,3.2,6.8,8.5,2-1.1,4.7-1,6.6.3,2.2,1.5,3.1,4.3,1.9,6.5,3.8,1.8,7.5,3.7,11.3,5.5Z"/>
        </g>
        <g>
          <path class="cls-19" d="M1074.1,498.3c1.1-4.1,1.7-4.3,1.5-5-1.2-3.6-20.8-7.5-23.2-2-1.5,3.5,3.6,11.3,10.5,13,4.2,1,9.1-.2,10.5-2.9.3-.6.1-.6.8-3Z"/>
          <path class="cls-19" d="M1072.1,491.8c1.5-.4,2.9.1,3.7,1.2.8,1.1.7,2.7-.3,3.8.5,1.1-.3,2.4-1.4,2.8-.9.3-1.9-.1-2.4-1-.7,1.1-1.9,1.8-3.2,1.9-1.5.1-2.9-.7-3.4-2-1.2-.6-2.4-1.2-3.7-1.8-.5.2-1.5.6-2.8.5-2.2-.2-3.3-1.7-3.5-1.9-.4-.4-2.9-3.3-2.2-4.1.6-.6,3,0,6,1.6.6-1.2,1.9-2,3.2-2,1.5,0,2.8.9,3,2.3,2.4-.4,4.7-.8,7.1-1.3Z"/>
        </g>
      </g>
      <g class="cls-56">
        <image width="106" height="81" transform="translate(1194 519)" xlink:href="cap1-2.png"/>
      </g>
      <g class="cls-80">
        <image width="105" height="81" transform="translate(1099 524)" xlink:href="cap1-3.png"/>
      </g>
      <image width="105" height="77" transform="translate(1173 489)" xlink:href="cap1-4.png"/>
      <g class="cls-56">
        <image width="105" height="80" transform="translate(1242 538)" xlink:href="cap1-5.png"/>
      </g>
      <g class="cls-56">
        <image width="104" height="86" transform="translate(1235 561)" xlink:href="cap1-6.png"/>
      </g>
      <g class="cls-56">
        <image width="104" height="86" transform="translate(1246 592)" xlink:href="cap1-7.png"/>
      </g>
      <g class="cls-56">
        <image width="103" height="86" transform="translate(1197 625)" xlink:href="cap1-8.png"/>
      </g>
      <g class="cls-56">
        <image width="95" height="82" transform="translate(1156 545)" xlink:href="cap1-9.png"/>
      </g>
      <g class="cls-56">
        <image width="95" height="83" transform="translate(1147 569)" xlink:href="cap1-10.png"/>
      </g>
      <g class="cls-56">
        <image width="109" height="86" transform="translate(1045 564)" xlink:href="cap1-11.png"/>
      </g>
      <image width="104" height="77" transform="translate(1127 507)" xlink:href="cap1-12.png"/>
      <image width="105" height="77" transform="translate(1104 494)" xlink:href="cap1-13.png"/>
      <image width="105" height="77" transform="translate(1128 474)" xlink:href="cap1-14.png"/>
      <g class="cls-56">
        <image width="96" height="83" transform="translate(998 608)" xlink:href="cap1-15.png"/>
      </g>
      <g class="cls-56">
        <image width="96" height="82" transform="translate(855 687)" xlink:href="cap1-16.png"/>
      </g>
      <g class="cls-56">
        <image width="95" height="82" transform="translate(893 636)" xlink:href="cap1-17.png"/>
      </g>
      <g class="cls-56">
        <image width="95" height="83" transform="translate(867 611)" xlink:href="cap1-18.png"/>
      </g>
      <image width="105" height="105" transform="translate(1039 480)" xlink:href="cap1-19.png"/>
      <image width="98" height="99" transform="translate(1069 484)" xlink:href="cap1-20.png"/>
      <image width="95" height="94" transform="translate(1046 469)" xlink:href="cap1-21.png"/>
      <image width="98" height="98" transform="translate(1041 510)" xlink:href="cap1-22.png"/>
      <image width="98" height="98" transform="translate(979 539)" xlink:href="cap1-23.png"/>
      <image width="98" height="98" transform="translate(1009 525)" xlink:href="cap1-24.png"/>
      <image width="98" height="98" transform="translate(996 534)" xlink:href="cap1-25.png"/>
      <image width="125" height="99" transform="translate(952 544)" xlink:href="cap1-26.png"/>
      <g class="cls-66">
        <image width="123" height="93" transform="translate(875 570)" xlink:href="cap1-27.png"/>
      </g>
      <g class="cls-66">
        <image width="92" height="92" transform="translate(934 557)" xlink:href="cap1-28.png"/>
      </g>
      <image width="117" height="112" transform="translate(787 579)" xlink:href="cap1-29.png"/>
      <image width="103" height="99" transform="translate(817 583)" xlink:href="cap1-30.png"/>
      <image width="96" height="92" transform="translate(766 605)" xlink:href="cap1-31.png"/>
      <image width="117" height="114" transform="translate(716 590)" xlink:href="cap1-32.png"/>
      <image width="103" height="99" transform="translate(694 611)" xlink:href="cap1-33.png"/>
      <image width="103" height="99" transform="translate(677 609)" xlink:href="cap1-34.png"/>
      <image width="96" height="89" transform="translate(668 629)" xlink:href="cap1-35.png"/>
      <image width="134" height="121" transform="translate(816 544)" xlink:href="cap1-36.png"/>
      <image width="136" height="120" transform="translate(544 599)" xlink:href="cap1-37.png"/>
      <image width="157" height="145" transform="translate(505 634)" xlink:href="cap1-38.png"/>
      <image width="123" height="131" transform="translate(940 675)" xlink:href="cap1-39.png"/>
      <image width="93" height="105" transform="translate(1299 567)" xlink:href="cap1-40.png"/>
      <image width="85" height="93" transform="translate(1286 546)" xlink:href="cap1-41.png"/>
      <image width="91" height="106" transform="translate(1281 576)" xlink:href="cap1-42.png"/>
      <image width="136" height="121" transform="translate(568 627)" xlink:href="cap1-43.png"/>
      <image width="124" height="92" transform="translate(622 637)" xlink:href="cap1-44.png"/>
      <image width="120" height="121" transform="translate(1124 628)" xlink:href="cap1-45.png"/>
      <image width="129" height="99" transform="translate(1218 627)" xlink:href="cap1-46.png"/>
      <image width="90" height="94" transform="translate(1260 617)" xlink:href="cap1-47.png"/>
      <image width="106" height="98" transform="translate(1117 666)" xlink:href="cap1-48.png"/>
      <image width="107" height="114" transform="translate(1054 676)" xlink:href="cap1-49.png"/>
      <image width="109" height="97" transform="translate(1031 699)" xlink:href="cap1-50.png"/>
    </g>
    <g>
      <path class="cls-9" d="M946.7,248.2c35.8-13.6,71.7-27.2,107.5-40.8,39.3,15.6,78.5,31.2,117.8,46.8-3.8,3.2-3.8,5.1-7.6,8.3l.3,21.6c3.2,1,6.4,1.9,9.6,2.9,4,1.1,6.4,3.1,6.1,4.3-.3,1.4-4.8,1.8-6.2,1.9-45.9,3.9-221.8,33.6-227.7,6.1-.1-.5-.3-1.5,0-2.8v-48.2Z"/>
      <path class="cls-23" d="M946.7,244.9c-114.3,27.8-228.6,55.5-343,83.3,5.7,3.5,11.4,6.9,17.1,10.4.4,2.1.7,4.7.7,7.7,0,3.6-.5,6.7-1,9,108.7-20.6,217.4-41.3,326.1-61.9v-48.5Z"/>
      <path class="cls-9" d="M946.7,299.2c-.2,59.2-.4,118.4-.6,177.6,72.8-.5,145.6-1,218.4-1.5-.2-58.3-.5-116.6-.7-174.9-72.3-.4-144.7-.8-217-1.2Z"/>
      <path class="cls-26" d="M946.7,299.2c-38.3,5.2-69.1,10.4-90.4,14.3-23.4,4.2-42,7.6-91.1,17-24.6,4.7-49.3,8.9-73.8,13.8-34.2,6.9-35.2,8-43.2,7.3-7.2-.6-14.7-2.5-19,2.3-2.9,3.2-2.9,7.8-1.8,21.6.6,7.8,1.5,18,2.9,30,105.5,24.2,211,48.3,316.4,72.5v-178.8Z"/>
      <path class="cls-54" d="M946.7,293.3v5.9c78.8.3,157.7.7,236.5,1-1.8-2.1-3.5-4.2-5.3-6.2-77.1-.2-154.2-.4-231.3-.7Z"/>
      <path class="cls-49" d="M944.5,245.8c0-1.4,0-2.8,0-4.2,20.9-7.4,41.8-14.8,62.8-22.1,13.5-4.7,26.9-9.3,40.4-14-.5-7.1,4.4-12.2,8-12.1,3.4,0,7.6,4.7,7.2,11.2,41.2,19,82.4,38.1,123.6,57.1-3.3,0-6.6.2-9.9.3l-119.9-51.6c-37.4,12.9-74.9,25.7-112.3,38.6"/>
      <path class="cls-45" d="M601.7,325.6c114.3-28,228.5-56,342.8-84.1,0,1.4,0,2.8,0,4.2-112.9,27.4-225.8,54.9-338.7,82.3-1.4-.8-2.7-1.6-4.1-2.5Z"/>
      <path class="cls-12" d="M1047.8,205.5c-128.1,30.9-256.1,61.8-384.2,92.7-13.4,7.4-26.7,14.8-40.1,22.1,107-26.3,214.1-52.5,321.1-78.8,34.4-12,68.8-24,103.2-36Z"/>
      <path class="cls-6" d="M605.4,417.8c8.3-4.3,16.6-8.7,25-13,105.5,24,210.9,48.1,316.4,72.1.3,7.6.6,15.3.9,22.9-114.1-27.3-228.2-54.7-342.3-82Z"/>
      <path class="cls-16" d="M1170,474.5c1,3.1,2.6,6.8,5.1,10.7,4.8,7.5,10.8,12.1,14.7,14.6-81,0-162,0-243,0v-23"/>
      <path class="cls-13" d="M946.7,299.2c0,10.7,0,21.5-.1,32.2,73,.6,146,1.3,219,1.9.8-10.6,1.6-21.2,2.4-31.8-73.8-.8-147.5-1.5-221.3-2.3Z"/>
      <path class="cls-39" d="M1161.6,300.3c.6,3.2,1.2,6.4,1.8,9.5v4.8c4.6.2,9.1.5,13.7.7-.5-2-1-4.1-1.4-6.1,1.4-3,2.9-6,4.3-8.9-6.1,0-12.2,0-18.3,0Z"/>
      <path class="cls-20" d="M1152.6,300.6c3-.1,6.1-.2,9.1-.3.6,3.2,1.2,6.4,1.8,9.5v4.8c-3.6.4-7.2.8-10.9,1.1v-6.1l-3.1-4.5c1-1.5,2-3,3.1-4.5Z"/>
      <path class="cls-39" d="M1109.1,301.2c.6,3.2,1.2,6.4,1.8,9.5v4.8c4.6.2,9.1.5,13.7.7-.5-2-1-4.1-1.4-6.1,1.4-3,2.9-6,4.3-8.9-6.1,0-12.2,0-18.3,0Z"/>
      <path class="cls-20" d="M1100,301.5c3-.1,6.1-.2,9.1-.3.6,3.2,1.2,6.4,1.8,9.5v4.8c-3.6.4-7.2.8-10.9,1.1v-6.1c-1-1.5-2-3-3.1-4.5,1-1.5,2-3,3.1-4.5Z"/>
      <path class="cls-39" d="M1015.8,301.6c.6,3.2,1.2,6.4,1.8,9.5v4.8c4.6.2,9.1.5,13.7.7-.5-2-1-4.1-1.4-6.1,1.4-3,2.9-6,4.3-8.9-6.1,0-12.2,0-18.3,0Z"/>
      <path class="cls-20" d="M1006.8,302c3-.1,6.1-.2,9.1-.3.6,3.2,1.2,6.4,1.8,9.5v4.8c-3.6.4-7.2.8-10.9,1.1v-6.1c-1-1.5-2-3-3.1-4.5,1-1.5,2-3,3.1-4.5Z"/>
      <path class="cls-39" d="M971.4,301.9c.6,3.2,1.2,6.4,1.8,9.5v4.8c4.6.2,9.1.5,13.7.7-.5-2-1-4.1-1.4-6.1,1.4-3,2.9-6,4.3-8.9-6.1,0-12.2,0-18.3,0Z"/>
      <path class="cls-20" d="M962.3,302.2c3-.1,6.1-.2,9.1-.3.6,3.2,1.2,6.4,1.8,9.5v4.8c-3.6.4-7.2.8-10.9,1.1v-6.1c-1-1.5-2-3-3.1-4.5,1-1.5,2-3,3.1-4.5Z"/>
      <path class="cls-13" d="M1008.8,408.7c.2,22.7.5,45.3.7,68,32.4-.7,64.8-1.4,97.2-2.2-.5-21.5-1.1-42.9-1.6-64.4-32.1-.5-64.3-1-96.4-1.5Z"/>
      <g>
        <path class="cls-7" d="M1038.7,277.4h-20.4c0-6.6,0-13.2,0-19.9h20.8c-.2,6.6-.4,13.2-.6,19.9Z"/>
        <path class="cls-7" d="M1062.4,277.4h-18.3c0-6.8,0-13.6,0-20.4,6.1,0,12.1.2,18.2.2,0,6.7,0,13.4,0,20.1Z"/>
        <path class="cls-7" d="M1012.7,277.4h-16.2c0-6.6.1-13.3.2-19.9,5.4,0,10.7,0,16.1,0,0,6.6,0,13.2,0,19.9Z"/>
        <path class="cls-7" d="M987.3,277.4h-17.9c0-6.6,0-13.2,0-19.9h17.9c0,6.6,0,13.2,0,19.9Z"/>
      </g>
      <path class="cls-42" d="M981.7,277.4h-12.3c0-4.8-.1-9.6-.2-14.4h11.5c.3,4.8.6,9.6.9,14.4Z"/>
      <path class="cls-42" d="M1003.1,277.4h-6.7c0-4.8.1-9.6.2-14.4,2,0,4,0,6,0,.2,4.8.3,9.6.5,14.4Z"/>
      <path class="cls-42" d="M1028.9,277.4h-10.6c0-4.8,0-9.6,0-14.4h9.7c.3,4.8.5,9.6.8,14.4Z"/>
      <path class="cls-42" d="M1053.1,277.4h-9c0-5,.1-10,.2-14.9,3.1.1,6.1.2,9.2.4-.1,4.9-.3,9.7-.4,14.6Z"/>
      <path class="cls-31" d="M940.4,299.2c-.4,2.1,0,35.3,0,35.3-104.2,13-208.3,26-312.5,39,0-3.6-.1-7.1-.2-10.7,104.2-21.2,208.4-42.4,312.7-63.6Z"/>
      <path class="cls-31" d="M928.6,395.4c0,13.9.1,28,.4,42.4.2,12.2.5,24.2.9,36-37.7-8.3-75.5-16.6-113.2-24.8,0-20.1,0-40.2.1-60.4,37.3,2.3,74.6,4.5,111.8,6.8Z"/>
      <path class="cls-27" d="M819.7,346.5h14.3c0,39.8.2,79.5.3,119.3-4.8-1.2-9.6-2.3-14.4-3.5,0-38.6-.1-77.2-.2-115.8Z"/>
      <path class="cls-27" d="M874.5,338.5l16.8,1.1c.2,47,.4,94.1.6,141.1-5.8-1.6-11.6-3.1-17.4-4.7v-137.5Z"/>
      <path class="cls-7" d="M775.1,316.5c-10.3,2-20.7,4-31,6,.4-6.8.8-13.5,1.2-20.3,10.1-2,20.1-4,30.2-6,0,6.8-.2,13.5-.3,20.3Z"/>
      <path class="cls-47" d="M746.9,257"/>
      <path class="cls-40" d="M901.7,326.4"/>
      <path class="cls-31" d="M800.8,387.6c0,8.8,0,17.7.2,26.8.2,10.6.5,21.1.9,31.3-37.5-8.5-74.9-17.1-112.4-25.6-.2-13.2-.4-26.3-.7-39.5,37.3,2.4,74.6,4.8,112,7.1Z"/>
      <path class="cls-31" d="M675.6,379.7c.2,5.3.3,10.6.4,16.1.1,6.9.2,13.8.2,20.5-17-4.2-33.9-8.4-50.9-12.6,0-9-.1-17.9-.2-26.9,9.9.9,20.1,1.6,30.6,2.2,6.7.4,13.3.6,19.8.8Z"/>
      <path class="cls-15" d="M623.3,369.8c1.9,0,3.9,0,5.8,0,.5,14,1,28.1,1.5,42.1-1.8-.3-3.6-.7-5.4-1-.6-13.7-1.3-27.4-1.9-41Z"/>
      <path class="cls-27" d="M651.6,366.7l8,.3c-.1,17.7-.2,35.3-.3,53-2.6-.5-5.2-1.1-7.8-1.6,0-17.2.1-34.5.2-51.7Z"/>
      <path class="cls-27" d="M683.9,362.8c3.2,0,6.5,0,9.7,0,0,21.9,0,43.8,0,65.7-3.2-.7-6.5-1.3-9.7-2,0-21.2,0-42.4,0-63.7Z"/>
      <path class="cls-27" d="M723.9,355.7l11.3.5c0,27.2,0,54.4,0,81.7-3.8-.7-7.6-1.4-11.4-2.2,0-26.7,0-53.3,0-80Z"/>
      <path class="cls-27" d="M765.9,351.2c4.6-.1,9.2-.3,13.9-.4.2,33.3.5,66.6.7,99.9-4.9-1.1-9.8-2.1-14.7-3.2,0-32.1,0-64.2.1-96.2Z"/>
      <path class="cls-72" d="M946.7,293.3v5.9c-110.1,21.7-220.3,43.5-330.4,65.2v-9.6c110.1-20.5,220.3-41,330.4-61.4Z"/>
      <g>
        <path class="cls-8" d="M626.2,362.1c-3.5.2-6.9.5-10.4.7,0-1.6,0-3.1.1-4.7,3.4-.7,6.8-1.4,10.2-2.1,0,2,0,4,0,6Z"/>
        <path class="cls-51" d="M615.8,362.8c3.5-.2,6.9-.5,10.4-.7,0,2.6,0,5.2,0,7.7-2.5,0-5,0-7.4,0v-3.1c-1-1.3-2-2.6-3-4Z"/>
        <path class="cls-41" d="M626.2,356.1h4.8v4.4c1,1.4,2,2.7,3,4.1,0,.7,0,1.4,0,2.1,0,1.1,0,2.1,0,3.2-2.5,0-5,0-7.5,0,0-4.6,0-9.2-.1-13.8Z"/>
      </g>
      <path class="cls-53" d="M656.2,357.8c-3.5.2-6.9.4-10.4.7,0-1.9,0-3.8,0-5.7,3.4-.8,6.8-1.6,10.3-2.3,0,2.5,0,4.9,0,7.4Z"/>
      <path class="cls-14" d="M645.9,358.5c3.5-.2,6.9-.4,10.4-.7,0,2.9,0,5.8,0,8.7-2.5.1-4.9.3-7.4.4v-3.7c-1-1.6-2-3.2-3-4.8Z"/>
      <path class="cls-4" d="M656.2,350.4h4.8v5.2c1.2,1.8,2.5,3.6,3.7,5.4v5.4c-2.8,0-5.6.1-8.4.2,0-5.4,0-10.8,0-16.1Z"/>
      <path class="cls-53" d="M689.9,352.1c-4.5.3-9,.5-13.4.8.2-2.1.3-4.2.5-6.3,4.3-1.1,8.5-2.1,12.8-3.2,0,2.9,0,5.8.1,8.7Z"/>
      <path class="cls-14" d="M676.5,352.9c4.6-.3,9.2-.6,13.8-.9-.1,3.4-.2,6.9-.3,10.3-3.2.2-6.4.4-9.5.6v-4.4c-1.3-1.9-2.6-3.7-3.9-5.6Z"/>
      <path class="cls-4" d="M689.8,343.4h6.1v6.2l4.1,6.2v7c-3.4-.1-6.7-.3-10.1-.4,0-6.3,0-12.6-.1-18.9Z"/>
      <path class="cls-53" d="M730.6,344c-4.4.4-8.8.8-13.2,1.2.2-2.2.3-4.4.5-6.6,4.3-1.1,8.6-2.3,12.9-3.4,0,3,0,5.9-.1,8.9Z"/>
      <path class="cls-14" d="M717.4,345.2c4.4-.4,8.8-.8,13.2-1.2,0,3.9-.2,7.8-.3,11.7-3,0-6,0-9,0v-4.6c-1.3-2-2.6-3.9-3.9-5.9Z"/>
      <path class="cls-4" d="M730.7,335.2h6.1v6.5l4.1,6.5c0,1,.2,2,.2,3,0,1.5,0,3,0,4.3-3.6,0-7.2.1-10.8.2.1-6.8.3-13.7.4-20.5Z"/>
      <path class="cls-53" d="M775.2,338.5c-5.2.3-10.3.6-15.5.9.1-2.7.2-5.4.3-8.1,5.1-1,10.1-1.9,15.2-2.9,0,3.4,0,6.7,0,10.1Z"/>
      <path class="cls-14" d="M759.7,339.5c5.2-.3,10.3-.6,15.5-.9v12c-3.7.2-7.3.4-11,.5v-5.1c-1.5-2.2-3-4.3-4.5-6.5Z"/>
      <path class="cls-4" d="M775.2,328.4h7.1v7.2c.6,1.7,1.1,3.5,1.7,5.2,0,1.6,0,3.2,0,4.8,0,1.9,0,3.7,0,5.5-3-.2-6-.4-9-.5,0-7.4,0-14.7,0-22.1Z"/>
      <path class="cls-53" d="M827.1,331.8c-5.9.5-11.9.9-17.8,1.4,0-3.4,0-6.8,0-10.1,5.9-1,11.8-1.9,17.7-2.9,0,3.9,0,7.7.1,11.6Z"/>
      <path class="cls-14" d="M809.9,333c5.7-.4,11.5-.8,17.2-1.2,0,5,.1,9.9.2,14.9-4.1,0-8.3-.1-12.4-.2v-5.9c-1.7-2.5-3.3-5-5-7.6Z"/>
      <path class="cls-4" d="M826.9,319.5c2.6-.3,5.1-.7,7.7-1,0,3.4.1,6.7.2,10.1l5.2,8.3v9.5c-4.2.1-8.5.2-12.7.3-.1-9.1-.2-18.1-.4-27.2Z"/>
      <path class="cls-53" d="M885,321.9c-7.5.4-14.9.7-22.4,1.1,0-3.3,0-6.6,0-9.8,7.6-1.8,15.1-3.7,22.7-5.5,0,4.8-.1,9.5-.2,14.3Z"/>
      <path class="cls-14" d="M862.6,323c7.5-.4,14.9-.7,22.4-1.1-.1,5.8-.2,11.5-.3,17.3-5.2,0-10.3,0-15.5,0v-7.1c-2.2-3-4.4-6-6.6-9.1Z"/>
      <path class="cls-4" d="M885.2,307.6c2.4,0,4.8.2,7.3.2-.2,2.7-.4,5.4-.6,8.1v23c-2.4,0-4.8.2-7.2.3.2-10.5.3-21,.5-31.6Z"/>
      <path class="cls-7" d="M1134.4,277.5c-7.3-.1-14.6-.2-21.9-.3v-21.2h22.4c-.1,7.2-.3,14.3-.4,21.5Z"/>
      <path class="cls-7" d="M1159.7,277.4c-6.5,0-13-.1-19.6-.2,0-7.1.2-14.1.2-21.2h19.4c0,7.1,0,14.3,0,21.4Z"/>
      <path class="cls-7" d="M1106.7,277.4c-5.9,0-11.8,0-17.7,0,0-7,0-14,.1-20.9,5.9,0,11.7,0,17.6,0,0,7,0,14,0,21Z"/>
      <path class="cls-7" d="M1085.2,277.4h-18.2v-19.9c6-.1,12-.2,17.9-.3,0,6.7.2,13.5.2,20.2Z"/>
      <path class="cls-42" d="M1079.6,277.5c-4.2,0-8.4,0-12.6-.1,0-4.7,0-9.4,0-14.1,3.9-.1,7.9-.2,11.8-.4.2,4.9.5,9.7.7,14.6Z"/>
      <path class="cls-42" d="M1100.8,277.2c-3.9,0-7.9,0-11.8.1.2-4.9.4-9.7.6-14.6h10.7c.2,4.8.4,9.7.5,14.5Z"/>
      <path class="cls-42" d="M1126.8,277.2c-3.5,0-7.1,0-10.6,0v-14.2h9.8c.3,4.8.6,9.5.9,14.3Z"/>
      <path class="cls-42" d="M1151.1,277.4c-3.6,0-7.3-.1-10.9-.2,0-4.7.1-9.5.2-14.2,3.6.1,7.2.2,10.8.4v14.1Z"/>
      <path class="cls-7" d="M664.9,339.7c-10.3,2-20.7,4-31,6,.4-6.8.8-13.5,1.2-20.3,10.1-2,20.1-4,30.2-6,0,6.8-.2,13.5-.3,20.3Z"/>
      <path class="cls-7" d="M704.1,331c-10.3,2-20.7,4-31,6,.4-6.8.8-13.5,1.2-20.3,10.1-2,20.1-4,30.2-6,0,6.8-.2,13.5-.3,20.3Z"/>
      <path class="cls-7" d="M739.4,324c-10.3,2-20.7,4-31,6,.4-6.8.8-13.5,1.2-20.3,10.1-2,20.1-4,30.2-6,0,6.8-.2,13.5-.3,20.3Z"/>
      <path class="cls-7" d="M813.3,308.8c-10.3,2-20.7,4-31,6,.4-6.8.8-13.5,1.2-20.3,10.1-2,20.1-4,30.2-6,0,6.8-.2,13.5-.3,20.3Z"/>
      <path class="cls-7" d="M849.6,301.6c-10.3,2-20.7,4-31,6,.4-6.8.8-13.5,1.2-20.3,10.1-2,20.1-4,30.2-6,0,6.8-.2,13.5-.3,20.3Z"/>
      <path class="cls-7" d="M888.7,293.2c-10.3,2-20.7,4-31,6,.4-6.8.8-13.5,1.2-20.3,10.1-2,20.1-4,30.2-6,0,6.8-.2,13.5-.3,20.3Z"/>
      <path class="cls-7" d="M925,284.5c-10.3,2-20.7,4-31,6,.4-6.8.8-13.5,1.2-20.3,10.1-2,20.1-4,30.2-6,0,6.8-.2,13.5-.3,20.3Z"/>
      <g class="cls-62">
        <image width="101" height="245" transform="translate(1003 268)" xlink:href="cap1-51.png"/>
      </g>
      <g>
        <path class="cls-20" d="M1050.8,301.7c3-.1,6.1-.2,9.1-.3.6,3.2,1.2,6.4,1.8,9.5v4.8c-3.6.4-7.2.8-10.9,1.1v-6.1c-1-1.5-2-3-3.1-4.5,1-1.5,2-3,3.1-4.5Z"/>
        <g>
          <path class="cls-39" d="M1059.9,301.4c.6,3.2,1.2,6.4,1.8,9.5v4.8c4.6.2,9.1.5,13.7.7-.5-2-1-4.1-1.4-6.1,1.4-3,2.9-6,4.3-8.9-6.1,0-12.2,0-18.3,0Z"/>
          <g>
            <path class="cls-71" d="M1054.8,316.8c1.7-.6,4-1.2,6.8-1.5,3.4-.3,6.3.2,8.3.7v134.5l-14.4-1.7c-.2-44-.4-88.1-.6-132.1Z"/>
            <path class="cls-5" d="M1055,448.3c5.1,0,10.2,0,15.3,0-.6,12.2-.7,21.2-.4,24.1.1.9.4,1.9,1.1,2.8,1.1,1.3,2.6,1.6,3.6,1.7-3.8,0-7.6,0-11.4-.1-3.9-.1-7.2,0-9.6,0-3.1.1-4.7.1-4.8-.3,0-.4,1.1-1.1,6.5-3-.1-8.4-.2-16.8-.3-25.2Z"/>
          </g>
        </g>
      </g>
      <g class="cls-62">
        <image width="101" height="246" transform="translate(1105 264)" xlink:href="cap1-52.png"/>
      </g>
      <g>
        <path class="cls-71" d="M1104.7,317.2c1.7-.6,4-1.2,6.8-1.4,3.4-.3,6.3.2,8.3.7v133.7l-14.4-1.7c-.2-43.8-.4-87.5-.6-131.3Z"/>
        <path class="cls-5" d="M1104.9,447.9c5.1,0,10.2,0,15.3,0-.6,12.1-.7,21.1-.4,24,.1.8.4,1.9,1.1,2.8,1.1,1.3,2.6,1.6,3.6,1.7-3.8,0-7.6,0-11.4-.1-3.9-.1-7.2,0-9.6,0-3,.1-4.6.2-4.8-.3-.1-.4.8-1.2,6-3.3,0-8.2.1-16.4.2-24.6Z"/>
      </g>
      <g class="cls-62">
        <image width="101" height="246" transform="translate(912 265)" xlink:href="cap1-53.png"/>
      </g>
      <g>
        <path class="cls-71" d="M1156.6,316c1.7-.6,4-1.2,6.8-1.4,3.4-.3,6.3.2,8.3.7v132.5l-14.4-1.7c-.2-43.4-.4-86.7-.6-130.1Z"/>
        <path class="cls-5" d="M1156.8,445.5c5.1,0,10.2,0,15.3,0-.7,15.6-.6,21.5-.4,23.8,0,.9.4,3.1.2,6,0,1.1-.2,1.7-.3,3,0,2.1.2,3.7.4,4.9-2.5-2.5-5.1-5.1-7.6-7.6-2.1.2-3.9.2-5.4.3-.5,0-.7,0-3.9,0-3.2,0-4.8,0-4.9-.3-.2-.5.9-1.6,6.9-5-.1-8.3-.3-16.6-.4-24.8Z"/>
      </g>
      <g class="cls-62">
        <image width="101" height="245" transform="translate(957 260)" xlink:href="cap1-54.png"/>
      </g>
      <g>
        <path class="cls-71" d="M1010.7,316.8c1.7-.6,4-1.2,6.8-1.5,3.4-.3,6.3.2,8.3.7v134.5l-14.4-1.7c-.2-44-.4-88.1-.6-132.1Z"/>
        <path class="cls-5" d="M1010.9,448.3c5.1,0,10.2,0,15.3,0-.6,12.2-.7,21.2-.4,24.1.1.9.4,1.9,1.1,2.8,1.1,1.3,2.6,1.6,3.6,1.7-3.8,0-7.6,0-11.4-.1-3.9-.1-7.2,0-9.6,0-2.8.1-4.6.3-4.8-.3-.2-.7,2.3-2,5.1-3.3.4-8.3.7-16.5,1.1-24.8Z"/>
      </g>
      <g class="cls-62">
        <image width="101" height="246" transform="translate(1050 261)" xlink:href="cap1-55.png"/>
      </g>
      <g>
        <path class="cls-71" d="M966.2,316.8c1.7-.6,4-1.2,6.8-1.5,3.4-.3,6.3.2,8.3.7v134.5l-14.4-1.7c-.2-44-.4-88.1-.6-132.1Z"/>
        <path class="cls-5" d="M966.4,448.3c5.1,0,10.2,0,15.3,0-.6,12.2-.7,21.2-.4,24.1.1.9.4,1.9,1.1,2.8,1.1,1.3,2.6,1.6,3.6,1.7-3.8,0-7.6,0-11.4-.1-3.9-.1-7.2,0-9.6,0-2.8.1-4.6.3-4.8-.3-.2-.7,2.3-2,5.1-3.3.4-8.3.7-16.5,1.1-24.8Z"/>
      </g>
      <g class="cls-55">
        <image width="80" height="194" transform="translate(1128 280)" xlink:href="cap1-56.png"/>
      </g>
      <g class="cls-55">
        <image width="80" height="193" transform="translate(1074 284)" xlink:href="cap1-57.png"/>
      </g>
      <g class="cls-55">
        <image width="80" height="194" transform="translate(1025 286)" xlink:href="cap1-58.png"/>
      </g>
      <g class="cls-55">
        <image width="79" height="194" transform="translate(982 288)" xlink:href="cap1-59.png"/>
      </g>
      <g class="cls-55">
        <image width="79" height="194" transform="translate(938 286)" xlink:href="cap1-60.png"/>
      </g>
      <g class="cls-55">
        <image width="81" height="103" transform="translate(1126 408)" xlink:href="cap1-61.png"/>
      </g>
      <g class="cls-55">
        <image width="80" height="102" transform="translate(1074 411)" xlink:href="cap1-62.png"/>
      </g>
      <g class="cls-55">
        <image width="80" height="101" transform="translate(1025 412)" xlink:href="cap1-63.png"/>
      </g>
      <g class="cls-55">
        <image width="80" height="98" transform="translate(980 415)" xlink:href="cap1-64.png"/>
      </g>
      <g class="cls-55">
        <image width="81" height="99" transform="translate(937 414)" xlink:href="cap1-65.png"/>
      </g>
      <image width="274" height="84" transform="translate(922 243)" xlink:href="cap1-66.png"/>
      <g class="cls-55">
        <image width="281" height="80" transform="translate(920 449)" xlink:href="cap1-67.png"/>
      </g>
      <g class="cls-55">
        <image width="260" height="114" transform="translate(922 176)" xlink:href="cap1-68.png"/>
      </g>
      <g class="cls-76">
        <image width="173" height="110" transform="translate(908 174)" xlink:href="cap1-69.png"/>
      </g>
      <image width="78" height="79" transform="translate(1016 161)" xlink:href="cap1-70.png"/>
      <g class="cls-76">
        <image width="187" height="125" transform="translate(1028 174)" xlink:href="cap1-71.png"/>
      </g>
      <g class="cls-62">
        <image width="80" height="209" transform="translate(839 303)" xlink:href="cap1-72.png"/>
      </g>
      <g class="cls-62">
        <image width="80" height="187" transform="translate(785 312)" xlink:href="cap1-73.png"/>
      </g>
      <g class="cls-62">
        <image width="79" height="171" transform="translate(730 314)" xlink:href="cap1-74.png"/>
      </g>
      <g class="cls-59">
        <image width="80" height="153" transform="translate(687 320)" xlink:href="cap1-75.png"/>
      </g>
      <g class="cls-73">
        <image width="78" height="138" transform="translate(647 326)" xlink:href="cap1-76.png"/>
      </g>
      <g class="cls-74">
        <image width="78" height="125" transform="translate(614 330)" xlink:href="cap1-77.png"/>
      </g>
      <path class="cls-11" d="M594,380.5c-1.4-2.8-.5-5.9,2.4-8,3.2-2.2,8.1-2.8,12.3-1.3,1.7-1.3,4.3-1.5,5.7-.7,1.3.8,1.2,2.1,1.1,2.3,2.8-1.9,6.6-1.9,8.5-.7,1.6,1,1.5,2.7,1.4,3,3.2-1,6.7-.6,8.7,1,1.5,1.1,1.7,2.5,1.7,3.1,2.5-.1,4.7,1.1,5.1,2.6.3,1.1-.4,2.3-1.7,3.1.2,0,4.7,2.3,4.4,6.1-.2,3.1-3.5,4.9-3.9,5.1-2.5.3-5.1.6-7.6.9-.4.2-4.8,2.2-9.8.8-4.6-1.2-6.1-4.2-6.4-4.7-1.7,2-4.9,3-7.7,2.4-3.2-.6-4.4-3-4.5-3.2-3.1,1.1-6.6.5-8-1.1-1.4-1.6-.3-3.4-.2-3.6-.3-.1-2.8-1.4-3-3.6-.2-1.9,1.3-3.2,1.6-3.4Z"/>
      <g class="cls-84">
        <image width="150" height="107" transform="translate(1141 435)" xlink:href="cap1-78.png"/>
      </g>
      <path class="cls-35" d="M1261.3,460.2c-.5.3-5,2.7-9.9.4-5.7-2.8-6.4-9.4-6.5-9.7-8.4,7.4-19.8,7.4-26.6,1.1-7.2-6.7-5.9-17.4-5.8-18.4-3.6,1.2-7.4-.2-9.2-3.2-2-3.4-.5-7.2-.3-7.6-1.6,1.7-3.9,2.3-5.8,1.4-2.4-1.1-3.7-4.5-2.4-7.6-.5,0-6.6-.6-9.5-6.1-2.5-4.8-1.5-11.2,2.7-15.5-5-5.2-6.8-12.9-4.8-19.8,2.9-9.8,11.9-12.7,12.6-13,.8-1.4,3.1-5,7.5-6.8,2.1-.9,4.1-1.1,5.4-1.1.8-6.7,4.9-12.2,10.6-14,5.9-2,10.9.9,11.9,1.4-2.4-5-1.5-10.8,2-14,3.9-3.6,9-2.3,9.5-2.2.2-1,1.6-9.7,8.9-13.3,3-1.5,5.8-1.6,7.5-1.4.5-.9,2.6-4.6,7.1-6.1,4.3-1.5,7.9,0,8.9.4.1-.2,3.6-4.5,8.9-3.6,4.9.8,7,5.4,7.1,5.8.5-.4,4.3-3.3,9.2-2.2,5.3,1.2,7.6,5.9,7.8,6.5,4,.5,7.4,3.1,8.9,6.8,1.4,3.7.3,7,0,7.9,2.6-3,6.4-4.2,9.5-2.9,2.4,1,3.7,3.1,4.1,4,.5-.3,4.1-2.6,7.8-1.1,3.9,1.6,6.3,6.8,5.1,12.3,9.3,2.6,15.1,11.2,14.3,19.4-.8,8.3-8,12.8-8.9,13.3.9,1.9,2,5.2,2,9.4,0,7.9-4.2,13.2-5.4,14.8.9,1.9,2.7,6.2,2.4,11.9-.4,6.8-3.5,11.4-4.8,13,3.3,3.1,4.3,8,2.7,11.9-1.8,4.5-6.3,5.6-6.8,5.8-1,1.6-4,6-9.5,7.9-9.2,3.2-17-3-17.7-3.6-2,3.7-7,11.8-16.7,16.9-15.9,8.5-31.5,2.2-34,1.1Z"/>
      <path class="cls-21" d="M1237.1,373.4c-2.9-4-3.4-9.3-1.4-13.7,2.3-4.8,7.4-7.6,12.6-6.8,1.2-2.8,3.9-4,5.8-3.2,1.8.7,2.3,3,2.4,3.2,2.1-4.1,6.2-5.6,8.9-4.3,2.2,1.1,2.9,3.7,3.1,4.3,3-2.8,7-3.5,9.9-1.8,2.2,1.3,3.1,3.4,3.4,4.3,2.7-1.2,5.6-.1,6.8,2.2.9,1.7.7,3.8-.3,5.6.3,0,6.2,1.9,7.8,8.1,1.3,5.1-1.3,9.2-1.7,9.7-2.6,1.4-5.2,2.9-7.8,4.3-.4.5-4.1,5.3-10.2,5-5.5-.2-8.7-4.4-9.2-5-.8,3.9-3.8,6.7-7.1,6.8-3.8.2-6.3-3.1-6.5-3.4-2.8,3-6.9,3.3-9.2,1.2-2.3-2-2.1-5.4-2-5.8-.4-.1-3.7-1.1-5.1-4.7-1.2-2.9-.2-5.6,0-6.1Z"/>
      <path class="cls-21" d="M1205.8,443.3c-4.3-2-7.2-6.5-7.3-11.4-.1-5.4,3.1-10.4,8-12.4-.2-3.1,1.6-5.5,3.6-5.8,1.9-.2,3.4,1.4,3.6,1.7,0-4.6,2.9-8,5.8-8.3,2.4-.2,4.2,1.8,4.6,2.3,1.4-4,4.6-6.6,7.9-6.5,2.5,0,4.3,1.5,4.9,2.1,1.8-2.4,4.9-2.9,7-1.5,1.5,1,2.4,3,2.2,5.1.3,0,6.3-1.5,10.5,3.2,3.4,3.8,2.9,8.7,2.9,9.4-1.6,2.6-3.3,5.2-4.9,7.7,0,.6-1.2,6.7-6.7,9.6-5,2.6-9.7.5-10.4.2,1,3.8-.3,7.8-3.2,9.6-3.3,2.1-6.9.4-7.2.3-1.1,4-4.6,6.3-7.5,5.7-2.9-.6-4.2-3.7-4.4-4-.4.1-3.8.9-6.6-1.6-2.3-2-2.7-4.8-2.7-5.4Z"/>
      <path class="cls-21" d="M1292.4,397.5c-1.7-4.7-.8-10,2.4-13.5,3.5-3.9,9.1-5,13.9-2.7,1.9-2.3,4.8-2.7,6.4-1.3,1.5,1.3,1.4,3.6,1.4,3.8,3.1-3.2,7.4-3.5,9.7-1.4,1.8,1.7,1.8,4.5,1.7,5.1,3.6-1.8,7.6-1.2,9.9,1.3,1.7,1.9,2,4.2,2.1,5.2,2.9-.3,5.4,1.6,5.9,4.2.4,1.9-.4,3.9-1.9,5.2.2.2,5.4,3.7,5.3,10.2-.1,5.3-3.8,8.4-4.3,8.8-2.9.6-5.8,1.2-8.7,1.7-.5.4-5.3,3.8-11.2,1.7-5.2-1.9-7.2-6.9-7.4-7.6-1.8,3.5-5.5,5.2-8.7,4.4-3.7-1-5.1-4.9-5.3-5.2-3.5,2-7.4,1-9.1-1.6-1.6-2.6-.5-5.8-.4-6.1-.4-.2-3.2-2.2-3.6-6-.3-3.2,1.3-5.4,1.7-5.9Z"/>
      <path class="cls-21" d="M1241,325.2c-3.6-4-4.3-9.3-1.7-13.7,2.9-4.8,9.2-7.6,15.6-6.8,1.5-2.8,4.8-4,7.2-3.2,2.2.7,2.9,3,3,3.2,2.6-4.1,7.6-5.6,11-4.3,2.7,1.1,3.6,3.7,3.8,4.3,3.7-2.8,8.6-3.5,12.3-1.8,2.7,1.3,3.8,3.4,4.2,4.3,3.3-1.2,7-.1,8.5,2.2,1.1,1.7.9,3.8-.4,5.6.3,0,7.7,1.9,9.7,8.1,1.6,5.1-1.7,9.2-2.1,9.7-3.2,1.4-6.5,2.9-9.7,4.3-.4.5-5,5.3-12.7,5-6.9-.2-10.9-4.4-11.4-5-1,3.9-4.7,6.7-8.9,6.8-4.8.2-7.8-3.1-8-3.4-3.5,3-8.5,3.3-11.4,1.2-2.8-2-2.6-5.4-2.5-5.8-.5-.1-4.6-1.1-6.3-4.7-1.4-2.9-.3-5.6,0-6.1Z"/>
      <path class="cls-21" d="M1193.1,409.7c-6.1-2-10.7-7.5-11.8-14.1-1.2-7.2,2.1-14.4,8.2-17.8-.9-4.1,1-7.6,3.7-8.3,2.5-.6,4.7,1.4,5,1.7-.8-6.2,2.3-11.2,6.1-12,3.1-.6,5.9,1.8,6.5,2.3,1-5.5,4.7-9.5,9.1-10,3.3-.4,5.9,1.3,6.9,2,2-3.5,5.9-4.7,8.9-3.1,2.2,1.1,3.7,3.7,3.9,6.5.3-.1,8-3,14.5,2.6,5.3,4.6,5.5,11.3,5.6,12.2-1.7,3.7-3.4,7.4-5,11.2,0,.8-.3,9.2-7,13.9-6.1,4.2-12.6,2.2-13.6,1.9,2.1,5,1,10.5-2.4,13.4-3.9,3.3-9,1.6-9.4,1.5-.7,5.6-4.8,9.2-8.8,8.8-3.9-.3-6.3-4.3-6.5-4.7-.5.2-4.8,1.8-9-1.1-3.5-2.3-4.4-6-4.6-6.8Z"/>
      <path class="cls-21" d="M1279.1,346.9c-1.4-5.9.5-12.1,4.9-15.8,4.8-4.1,11.9-4.4,17.4-.8,2.6-2.5,6.2-2.4,8-.5,1.7,1.8,1.2,4.5,1.2,4.9,4.3-3.3,9.6-2.9,12,0,2,2.3,1.5,5.7,1.4,6.4,4.7-1.5,9.5-.1,12,3.3,1.9,2.5,1.9,5.4,1.8,6.6,3.6.1,6.4,2.9,6.7,6,.2,2.3-1,4.6-3,6,.3.2,6.1,5.4,5,13.1-.9,6.3-5.8,9.4-6.5,9.8-3.6.2-7.2.4-10.8.6-.6.3-7.1,3.7-13.9,0-6.1-3.2-7.8-9.6-8-10.5-2.7,3.9-7.4,5.3-11.3,3.7-4.4-1.8-5.6-6.8-5.7-7.2-4.5,1.8-9.2,0-10.9-3.6-1.6-3.4.2-7,.4-7.4-.4-.3-3.7-3.2-3.6-7.9,0-3.9,2.4-6.3,2.9-6.8Z"/>
      <image width="90" height="83" transform="translate(1018 454)" xlink:href="cap1-79.png"/>
      <image width="86" height="86" transform="translate(1042 457)" xlink:href="cap1-80.png"/>
      <g class="cls-80">
        <image width="90" height="140" transform="translate(1233 390)" xlink:href="cap1-81.png"/>
      </g>
      <g class="cls-83">
        <image width="127" height="133" transform="translate(1195 399)" xlink:href="cap1-82.png"/>
      </g>
      <g class="cls-67">
        <image width="202" height="215" transform="translate(1217 258)" xlink:href="cap1-83.png"/>
      </g>
      <image width="95" height="96" transform="translate(1166 385)" xlink:href="cap1-84.png"/>
      <g>
        <image width="96" height="96" transform="translate(1233 271)" xlink:href="cap1-85.png"/>
        <image width="96" height="95" transform="translate(1227 286)" xlink:href="cap1-86.png"/>
        <image width="96" height="96" transform="translate(1212 271)" xlink:href="cap1-87.png"/>
      </g>
      <image width="88" height="88" transform="translate(1254 395)" xlink:href="cap1-88.png"/>
      <image width="96" height="96" transform="translate(1239 327)" xlink:href="cap1-89.png"/>
      <image width="96" height="96" transform="translate(1220 321)" xlink:href="cap1-90.png"/>
      <image width="370" height="145" transform="translate(622 198)" xlink:href="cap1-91.png"/>
      <g class="cls-67">
        <image width="171" height="171" transform="translate(535 277)" xlink:href="cap1-92.png"/>
      </g>
      <image width="83" height="81" transform="translate(554 364)" xlink:href="cap1-93.png"/>
      <path class="cls-22" d="M1250.7,479"/>
      <g>
        <image width="96" height="96" transform="translate(1185 337)" xlink:href="cap1-94.png"/>
        <image width="96" height="96" transform="translate(1170 346)" xlink:href="cap1-95.png"/>
        <g class="cls-83">
          <image width="96" height="96" transform="translate(1183 354)" xlink:href="cap1-96.png"/>
        </g>
      </g>
      <g class="cls-85">
        <g class="cls-78">
          <g class="cls-81">
            <use transform="translate(3469.9 274.4) rotate(76.2) scale(.3 .3) skewX(-5.5)" xlink:href="#image"/>
          </g>
        </g>
      </g>
      <path class="cls-33" d="M1239.9,483.8c.6-1.3,2.2-4.3,5.5-6.2,5.9-3.4,12-.6,12.7-.2,1.2-2.8,3-8,2-14.3-1.6-9.9-9.5-18.2-20.2-21.4,1.3-.3,5.7-1.4,9-5.7,2.2-2.9,2.9-5.9,3.1-7.5.5,1.2,2,4,5,5.9,1.8,1.1,3.6,1.5,4.7,1.7.1-2.4.3-4.8.4-7.3l-11.1-42.1c1.9,2.4,4.8,3.5,7.4,2.8,2.1-.6,3.3-2.1,3.7-2.8.7,3.9,1.3,7.7,2,11.6,0,.9.3,1.6.6,1.6.3,0,.7-.5.9-1.3,1.1-1.2,2.7-3.3,3.9-6.2.9-2.2,1.3-4.2,1.4-5.7.3.3,2.1,1.9,4.8,1.8,2.1-.1,3.5-1.4,4-1.8-1.3,4.2-2.6,9.9-2.9,16.8-.2,4.9.2,9.3.8,12.8,1.6-2.4,5.1-6.7,10.9-9.6,4-2,7.6-2.6,10.1-2.9,1.3,5,2.7,10,4,15-1.7-1-4.9-2.5-8.2-1.6-5.6,1.5-9.9,9.2-8.9,18.7-.5,4.6-1.1,15.7,4.4,27.6,4,8.5,9.4,13.8,12.7,16.6.7-.4,4.4-2.1,8.6-.4,2.7,1.1,4.2,3,4.9,4,1.3,2.9,2.7,5.7,4,8.6l-94.3,4.3c0-.3-.8-6.7,3.9-10.8,4.5-3.9,9.9-2.2,10.3-2.1Z"/>
      <image width="112" height="164" transform="translate(1226 365)" xlink:href="cap1-97.png"/>
      <g class="cls-64">
        <image width="121" height="134" transform="translate(1190 402)" xlink:href="cap1-98.png"/>
      </g>
    </g>
    <g>
      <path class="cls-11" d="M550.3,336.8c-3.1-2.4-3.6-5.6-1.2-8.1,2.6-2.8,8.2-4.3,13.9-3.8,1.3-1.6,4.3-2.3,6.4-1.8,1.9.5,2.5,1.8,2.5,2,2.4-2.4,6.8-3.2,9.7-2.4,2.4.7,3.1,2.3,3.3,2.6,3.3-1.6,7.6-1.9,10.8-.8,2.3.8,3.3,2.1,3.6,2.6,2.9-.6,6.1,0,7.4,1.4.9,1,.7,2.3-.5,3.3.3,0,6.7,1.3,8.4,5,1.3,3-1.6,5.4-2,5.7-2.9.8-5.7,1.6-8.6,2.4-.4.3-4.5,3-11.2,2.8-6-.3-9.4-2.8-9.9-3.2-.9,2.3-4.3,3.9-7.9,3.9-4.2,0-6.8-2-7-2.2-3.1,1.7-7.5,1.8-10,.5-2.4-1.2-2.2-3.2-2.1-3.5-.4,0-4-.7-5.5-2.9-1.2-1.8-.1-3.3.1-3.6Z"/>
      <path class="cls-52" d="M444,376.1c-2.3-5.1-.8-10.7,4-14.4,5.2-4.1,13.5-5.1,20.3-2.4,2.8-2.4,7.1-2.7,9.4-1.2,2.1,1.4,1.9,3.9,1.9,4.2,4.7-3.4,10.9-3.5,14.1-1.2,2.6,1.9,2.4,4.9,2.4,5.5,5.3-1.8,11.1-1,14.4,1.7,2.5,2.1,2.8,4.6,2.8,5.6,4.2-.2,7.8,1.9,8.5,4.7.5,2-.6,4.2-2.9,5.6.3.2,7.8,4.2,7.3,11.1-.4,5.7-5.8,8.9-6.5,9.3-4.2.5-8.4,1.1-12.7,1.6-.7.4-7.9,3.9-16.3,1.5-7.6-2.2-10.2-7.7-10.5-8.5-2.8,3.7-8.1,5.4-12.8,4.4-5.4-1.2-7.3-5.4-7.5-5.8-5.1,2-10.9.9-13.2-2.1-2.3-2.8-.6-6.2-.4-6.6-.5-.3-4.6-2.5-5-6.6-.3-3.4,2.1-5.8,2.6-6.2Z"/>
      <path class="cls-52" d="M426.3,321.4c-1.9-6.4,1.1-13,7.6-16.8,7.2-4.2,17.4-4.4,25.3-.3,3.9-2.6,9.2-2.4,11.7-.2,2.4,2,1.6,4.9,1.5,5.2,6.4-3.5,14-2.8,17.4.4,2.8,2.6,2.1,6.1,1.9,6.9,6.8-1.5,13.8.2,17.3,3.9,2.6,2.8,2.5,5.9,2.4,7.1,5.2.3,9.2,3.3,9.5,6.7.2,2.5-1.6,4.9-4.5,6.3.4.3,8.7,6,6.9,14.3-1.5,6.8-8.7,9.9-9.7,10.3-5.3,0-10.5.2-15.8.3-.9.3-10.4,3.7-20.2-.4-8.8-3.7-11-10.5-11.3-11.5-4.1,4.1-10.9,5.5-16.5,3.6-6.4-2.1-7.9-7.5-8.1-7.9-6.6,1.8-13.4-.4-15.8-4.2-2.3-3.7.5-7.6.8-8-.6-.4-5.2-3.6-4.9-8.6.2-4.1,3.7-6.7,4.4-7.2Z"/>
      <g class="cls-67">
        <image width="175" height="167" transform="translate(482 252)" xlink:href="cap1-99.png"/>
      </g>
      <image width="192" height="197" transform="translate(390 246)" xlink:href="cap1-100.png"/>
      <g class="cls-67">
        <image width="192" height="196" transform="translate(375 327)" xlink:href="cap1-101.png"/>
      </g>
      <g>
        <path class="cls-30" d="M565.4,417c-.5.2-4.5,1.5-8.7,0-5-1.7-5.5-5.7-5.5-5.9-7.5,4.2-17.5,4-23.3.2-6.1-4.1-4.8-10.4-4.7-11-3.2.6-6.5-.3-8-2.1-1.7-2.1-.3-4.3-.2-4.5-1.4,1-3.5,1.3-5.1.7-2.1-.7-3.1-2.7-1.9-4.5-.4,0-5.8-.5-8.2-3.8-2.1-2.9-1.1-6.7,2.7-9.1-4.2-3.2-5.7-7.7-3.8-11.8,2.7-5.7,10.7-7.3,11.3-7.4.7-.8,2.8-2.9,6.7-3.9,1.9-.5,3.6-.6,4.8-.5.8-3.9,4.6-7.1,9.5-8.1,5.2-1,9.6.7,10.4,1.1-2-3-1.1-6.4,2.1-8.3,3.5-2,8-1.2,8.4-1.1.2-.6,1.6-5.7,8-7.7,2.6-.8,5.1-.8,6.6-.7.4-.5,2.4-2.7,6.4-3.5,3.8-.8,6.9.1,7.8.4.1-.1,3.2-2.6,7.8-2,4.3.6,6,3.3,6.2,3.5.5-.2,3.8-1.9,8.1-1.1,4.6.8,6.5,3.6,6.7,4,3.5.4,6.5,2,7.6,4.2,1.1,2.2.1,4.2-.2,4.7,2.4-1.7,5.7-2.3,8.4-1.5,2.1.6,3.2,1.9,3.5,2.4.4-.2,3.7-1.5,6.9-.5,3.4,1,5.4,4.1,4.2,7.4,8.1,1.7,13,6.9,12.2,11.7-.9,4.9-7.3,7.4-8,7.7.7,1.2,1.7,3.1,1.6,5.6-.2,4.6-3.9,7.8-5.1,8.6.8,1.1,2.3,3.7,1.9,7.1-.5,4-3.3,6.7-4.4,7.6,2.8,1.9,3.6,4.8,2.2,7.1-1.7,2.6-5.6,3.2-6.1,3.3-.9.9-3.6,3.5-8.5,4.5-8.1,1.7-14.9-2.1-15.5-2.5-1.8,2.2-6.4,6.8-15,9.7-14.1,4.7-27.7.7-29.9,0Z"/>
        <path class="cls-11" d="M545.9,365.3c-2.5-2.4-2.8-5.6-.9-8.1,2.1-2.8,6.6-4.4,11.2-3.8,1.1-1.6,3.5-2.3,5.1-1.8,1.5.5,2,1.8,2,2,1.9-2.4,5.5-3.2,7.8-2.4,1.9.7,2.5,2.3,2.6,2.6,2.7-1.6,6.2-1.9,8.7-.9,1.9.8,2.6,2.1,2.9,2.6,2.4-.6,4.9,0,5.9,1.4.7,1,.6,2.3-.4,3.3.2,0,5.4,1.2,6.7,4.9,1.1,3-1.3,5.4-1.7,5.7-2.3.8-4.6,1.6-7,2.4-.3.3-3.7,3.1-9.1,2.8-4.9-.2-7.6-2.8-8-3.2-.8,2.3-3.5,3.9-6.4,3.9-3.4,0-5.4-1.9-5.6-2.1-2.5,1.7-6.1,1.8-8.1.6-2-1.2-1.7-3.2-1.7-3.4-.4,0-3.2-.7-4.4-2.9-1-1.8,0-3.3.1-3.6Z"/>
        <path class="cls-11" d="M517.1,406c-3.8-1.3-6.2-4-6.2-6.9,0-3.2,2.9-6.1,7.3-7.2-.1-1.8,1.5-3.2,3.3-3.3,1.7-.1,2.9.9,3.1,1,.1-2.7,2.7-4.7,5.3-4.8,2.1,0,3.7,1.2,4,1.4,1.3-2.3,4.1-3.8,7-3.7,2.2,0,3.7,1,4.3,1.3,1.7-1.4,4.4-1.6,6.1-.8,1.3.6,2,1.8,1.8,3,.2,0,5.6-.8,9.2,2.1,2.9,2.3,2.4,5.2,2.3,5.6-1.5,1.5-3,3-4.5,4.5,0,.4-1.2,3.9-6.1,5.5-4.4,1.4-8.5.1-9.1,0,.8,2.3-.5,4.6-3,5.6-2.9,1.2-6.1.1-6.3,0-1.1,2.4-4.1,3.7-6.7,3.2-2.5-.4-3.6-2.3-3.8-2.5-.4,0-3.3.4-5.8-1-2-1.2-2.3-2.9-2.3-3.2Z"/>
        <path class="cls-11" d="M506.6,385.9c-5.3-1.3-9.3-4.7-10.1-8.6-.9-4.3,2.1-8.5,7.5-10.4-.7-2.4,1.1-4.5,3.4-4.8,2.2-.3,4.1.9,4.3,1.1-.6-3.7,2.2-6.6,5.6-7,2.8-.3,5.2,1.2,5.7,1.5,1-3.3,4.3-5.5,8.2-5.8,2.9-.2,5.1.9,6,1.3,1.8-2,5.3-2.7,7.8-1.7,1.9.7,3.1,2.2,3.3,3.9.3,0,7.1-1.6,12.6,1.8,4.5,2.8,4.6,6.8,4.6,7.3-1.5,2.2-3.1,4.3-4.6,6.5,0,.5-.4,5.4-6.4,8.1-5.4,2.4-11.1,1.1-12,.9,1.7,3,.7,6.2-2.4,7.9-3.5,1.9-7.9.8-8.3.7-.7,3.3-4.4,5.3-7.9,5.1-3.4-.3-5.4-2.7-5.6-2.9-.5.1-4.2,1-7.8-.8-3-1.4-3.8-3.6-3.9-4.1Z"/>
        <path class="cls-11" d="M583.3,350.4c-1.1-3.5.6-7.2,4.6-9.3,4.3-2.3,10.5-2.4,15.3-.2,2.4-1.4,5.5-1.3,7.1-.1,1.4,1.1,1,2.7.9,2.9,3.8-1.9,8.4-1.5,10.5.2,1.7,1.4,1.2,3.4,1.1,3.8,4.1-.8,8.3,0,10.4,2.2,1.6,1.5,1.5,3.3,1.5,3.9,3.1.2,5.5,1.8,5.7,3.7.1,1.4-.9,2.7-2.7,3.5.2.1,5.3,3.3,4.2,7.9-.9,3.7-5.3,5.5-5.9,5.7-3.2,0-6.4,0-9.5.1-.6.2-6.3,2.1-12.2-.2-5.3-2-6.6-5.8-6.8-6.3-2.5,2.2-6.6,3-9.9,2-3.8-1.2-4.8-4.1-4.9-4.4-4,1-8.1-.2-9.5-2.3-1.4-2,.3-4.2.5-4.4-.3-.2-3.1-2-3-4.7.1-2.3,2.2-3.7,2.6-3.9Z"/>
        <g class="cls-67">
          <image width="171" height="171" transform="translate(452 308)" xlink:href="cap1-102.png"/>
        </g>
        <g class="cls-67">
          <image width="172" height="170" transform="translate(489 278)" xlink:href="cap1-103.png"/>
        </g>
        <g class="cls-85">
          <g class="cls-63">
            <g class="cls-58">
              <use transform="translate(2747.7 316) rotate(73.6) scale(.2 .2) skewX(-10)" xlink:href="#image"/>
            </g>
          </g>
        </g>
        <path class="cls-48" d="M546.2,430.6c.6-.8,2-2.5,4.9-3.6,5.2-1.9,10.5-.1,11.1.1,1.1-1.6,2.8-4.7,2.1-8.4-1.2-5.9-8-10.9-17.3-13,1.2-.1,5-.7,8-3.2,2-1.7,2.7-3.5,2.9-4.4.5.7,1.7,2.4,4.3,3.6,1.6.7,3.1,1,4.1,1.1.2-1.4.3-2.9.5-4.3l-8.9-25.1c1.7,1.5,4.2,2.1,6.4,1.8,1.8-.3,2.9-1.2,3.3-1.6.5,2.3,1,4.6,1.5,6.9,0,.6.2.9.5,1,.3,0,.6-.3.8-.7,1-.7,2.5-1.9,3.6-3.6.8-1.3,1.2-2.5,1.4-3.4.3.2,1.8,1.2,4.2,1.1,1.9,0,3.1-.7,3.5-1-1.2,2.5-2.5,5.8-2.8,9.9-.3,2.9,0,5.5.4,7.6,1.5-1.4,4.6-3.9,9.7-5.5,3.5-1.1,6.7-1.4,8.9-1.5,1.1,3,2.2,6,3.3,8.9-1.4-.6-4.2-1.6-7.2-1.1-5,.8-8.9,5.3-8.2,10.9-.5,2.7-1.3,9.2,3.3,16.4,3.3,5.1,8,8.3,10.9,10.1.7-.2,3.9-1.2,7.6,0,2.3.7,3.6,1.9,4.2,2.4,1.1,1.7,2.3,3.4,3.4,5.1l-82.8.8c0-.2-.6-4,3.6-6.3,4-2.2,8.7-1.1,9-1Z"/>
        <g class="cls-64">
          <image width="116" height="113" transform="translate(497 362)" xlink:href="cap1-104.png"/>
        </g>
      </g>
    </g>
    <g>
      <path class="cls-28" d="M396.8,442.5c-.8.3-7.4,2.7-14.4,0-8.2-3.1-9.1-10.4-9.1-10.7-12.4,7.6-29,7.3-38.6.3-10.2-7.4-8-18.9-7.8-19.9-5.3,1.2-10.8-.5-13.2-3.8-2.8-3.7-.5-7.8-.2-8.1-2.4,1.8-5.8,2.3-8.5,1.4-3.4-1.3-5.2-5-3.2-8.2-.7,0-9.6-.9-13.6-6.9-3.5-5.2-1.8-12.1,4.5-16.6-7-5.8-9.5-14.1-6.3-21.4,4.5-10.4,17.7-13.3,18.7-13.5,1.2-1.5,4.6-5.3,11.1-7.1,3.1-.9,6-1,7.9-1,1.4-7.1,7.6-12.9,15.8-14.7,8.6-1.9,15.8,1.3,17.3,1.9-3.3-5.4-1.8-11.7,3.4-15,5.7-3.7,13.2-2.2,13.9-2,.3-1.1,2.7-10.4,13.3-14,4.4-1.5,8.5-1.5,10.9-1.3.7-.9,4-4.8,10.6-6.3,6.3-1.4,11.5.2,12.8.7.2-.2,5.4-4.7,13-3.6,7.1,1,10,6,10.2,6.4.8-.5,6.3-3.4,13.4-2,7.6,1.5,10.8,6.6,11.2,7.2,5.8.7,10.7,3.6,12.6,7.6,1.9,4,.2,7.5-.3,8.5,3.9-3.2,9.5-4.2,13.9-2.8,3.5,1.2,5.2,3.5,5.8,4.4.7-.3,6.1-2.7,11.4-.9,5.6,1.9,9,7.5,7,13.4,13.4,3.1,21.5,12.5,20.1,21.3-1.4,8.9-12.1,13.5-13.3,14,1.2,2.1,2.8,5.6,2.7,10.1-.3,8.4-6.5,14.1-8.4,15.7,1.3,2,3.7,6.7,3.1,12.9-.8,7.3-5.5,12.1-7.3,13.8,4.6,3.5,6,8.7,3.6,12.9-2.8,4.7-9.3,5.8-10.1,6-1.5,1.7-6,6.3-14.1,8.2-13.4,3.2-24.6-3.8-25.6-4.5-3,3.9-10.6,12.4-24.8,17.6-23.4,8.6-45.8,1.3-49.5,0Z"/>
      <path class="cls-52" d="M364.5,348.5c-4.1-4.4-4.7-10.1-1.5-14.8,3.5-5.1,11-7.9,18.5-6.9,1.8-3,5.7-4.2,8.5-3.3,2.6.9,3.3,3.3,3.4,3.6,3.2-4.3,9.1-5.8,13-4.3,3.2,1.2,4.1,4.1,4.3,4.7,4.4-2.9,10.2-3.5,14.4-1.6,3.1,1.4,4.4,3.8,4.8,4.8,3.9-1.2,8.2,0,9.8,2.5,1.2,1.8.9,4.1-.7,6,.4,0,9,2.2,11.1,9,1.7,5.5-2.2,9.8-2.8,10.4-3.8,1.5-7.7,2.9-11.5,4.4-.5.5-6.1,5.6-15,5.1-8-.4-12.6-5.1-13.2-5.7-1.3,4.1-5.7,7-10.6,7.1-5.6,0-9-3.5-9.3-3.9-4.2,3.1-10.1,3.3-13.4,1-3.2-2.2-2.8-5.9-2.8-6.3-.6-.1-5.4-1.3-7.3-5.2-1.6-3.2-.1-6,.2-6.6Z"/>
      <path class="cls-52" d="M316.7,422.5c-6.2-2.3-10.3-7.2-10.3-12.5,0-5.8,4.8-11.1,12-13-.2-3.3,2.5-5.9,5.5-6.1,2.8-.2,4.9,1.7,5.1,1.9.2-5,4.5-8.5,8.8-8.7,3.5-.1,6.1,2.1,6.7,2.6,2.1-4.2,6.8-6.9,11.7-6.8,3.6.1,6.1,1.7,7.1,2.4,2.7-2.5,7.2-3,10.2-1.4,2.2,1.2,3.3,3.3,3,5.5.4,0,9.2-1.4,15.2,3.8,4.9,4.2,4,9.5,3.9,10.2-2.5,2.7-5,5.4-7.4,8.2-.2.7-1.9,7.2-10.1,10.1-7.3,2.6-14.1.2-15-.1,1.4,4.1-.8,8.3-5,10.2-4.8,2.2-10,.2-10.5,0-1.8,4.3-6.8,6.6-11.1,5.9-4.2-.7-6-4.1-6.2-4.5-.6,0-5.5.8-9.5-1.9-3.3-2.2-3.8-5.3-3.8-5.9Z"/>
      <path class="cls-52" d="M371.7,296.8c-5.1-4.4-5.9-10.1-2-14.8,4.3-5.1,13.6-7.9,22.9-6.8,2.2-3,7.1-4.2,10.5-3.2,3.2.9,4.1,3.3,4.2,3.6,4-4.3,11.3-5.8,16.1-4.3,3.9,1.2,5.1,4.1,5.4,4.8,5.5-2.9,12.7-3.5,17.9-1.5,3.9,1.4,5.5,3.8,6,4.8,4.9-1.1,10.1.1,12.2,2.6,1.5,1.8,1.2,4.1-.8,6,.5,0,11.2,2.3,13.9,9,2.2,5.5-2.7,9.8-3.4,10.4-4.8,1.4-9.5,2.9-14.3,4.3-.7.5-7.5,5.5-18.6,5-10-.5-15.6-5.1-16.4-5.8-1.6,4.1-7.1,7-13.1,7.1-6.9,0-11.2-3.6-11.6-3.9-5.1,3.1-12.5,3.2-16.6.9-4-2.2-3.6-5.9-3.5-6.3-.7-.1-6.7-1.4-9.1-5.2-2-3.2-.2-6,.2-6.6Z"/>
      <path class="cls-52" d="M299.4,385.9c-8.8-2.4-15.3-8.5-16.7-15.5-1.5-7.8,3.5-15.4,12.5-18.9-1.1-4.4,1.8-8.2,5.6-8.8,3.6-.6,6.8,1.7,7.2,2-1-6.7,3.7-12,9.3-12.7,4.6-.5,8.5,2.1,9.4,2.7,1.7-5.9,7.2-10.1,13.6-10.5,4.7-.3,8.5,1.6,9.9,2.4,3-3.7,8.7-4.8,13-3.1,3.2,1.3,5.2,4.1,5.4,7.1.5-.1,11.8-2.9,20.9,3.3,7.5,5.1,7.7,12.3,7.7,13.3-2.6,3.9-5.1,7.9-7.7,11.8,0,.9-.7,9.9-10.7,14.7-9,4.3-18.4,1.9-19.8,1.5,2.9,5.4,1.1,11.3-3.9,14.3-5.8,3.5-13.1,1.5-13.8,1.3-1.2,6-7.3,9.7-13.1,9.2-5.7-.5-9-4.8-9.3-5.3-.8.2-7,1.7-13-1.4-4.9-2.6-6.3-6.6-6.5-7.5Z"/>
      <path class="cls-43" d="M155.7,551.7c-1.1.5-10.2,4.3-19.8,0-11.3-5-12.5-16.3-12.5-16.8-17.1,12.1-40,11.5-53.2.4-14-11.7-11.1-29.9-10.8-31.4-7.3,1.8-14.8-.8-18.3-6-3.9-5.9-.6-12.3-.3-12.8-3.3,2.9-8,3.7-11.7,2.1-4.7-2-7.1-7.8-4.4-12.9-1,0-13.3-1.4-18.8-10.9-4.9-8.2-2.5-19.1,6.1-26.1-9.7-9.1-13.1-22.2-8.7-33.8,6.2-16.4,24.4-21,25.8-21.3,1.7-2.3,6.4-8.3,15.3-11.2,4.3-1.4,8.3-1.6,11-1.5,1.9-11.3,10.4-20.4,21.8-23.2,11.8-3,21.8,2,23.8,3.1-4.6-8.6-2.4-18.4,4.7-23.7,7.9-5.9,18.2-3.4,19.2-3.2.4-1.7,3.7-16.3,18.3-22.1,6-2.4,11.7-2.3,15.1-2,1-1.5,5.5-7.6,14.6-10,8.7-2.3,15.8.3,17.7,1.1.3-.3,7.4-7.4,17.9-5.6,9.8,1.6,13.8,9.5,14.1,10.1,1.1-.7,8.7-5.3,18.5-3.2,10.5,2.3,14.9,10.4,15.4,11.4,8,1.1,14.8,5.7,17.4,12.1,2.6,6.3.3,11.9-.4,13.4,5.4-5,13.1-6.7,19.2-4.4,4.8,1.8,7.2,5.5,8,6.9,1-.5,8.4-4.2,15.7-1.4,7.7,2.9,12.4,11.9,9.7,21.1,18.4,4.9,29.7,19.7,27.8,33.6-2,14.1-16.7,21.3-18.3,22.1,1.7,3.3,3.9,8.9,3.7,16-.4,13.3-8.9,22.2-11.6,24.7,1.8,3.2,5.2,10.6,4.2,20.3-1.1,11.5-7.6,19.1-10.1,21.7,6.4,5.5,8.3,13.7,4.9,20.3-3.9,7.5-12.9,9.2-13.9,9.4-2,2.6-8.2,9.9-19.4,12.9-18.5,5-34-6-35.3-7-4.2,6.2-14.6,19.6-34.2,27.8-32.2,13.5-63.2,2-68.2,0Z"/>
      <path class="cls-1" d="M111.2,403.4c-5.7-6.9-6.5-16-2.1-23.3,4.8-8.1,15.1-12.5,25.5-10.9,2.5-4.7,7.9-6.6,11.7-5.2,3.5,1.3,4.5,5.2,4.6,5.6,4.4-6.8,12.6-9.2,17.9-6.9,4.3,1.9,5.7,6.5,5.9,7.5,6.1-4.6,14.1-5.6,19.9-2.5,4.3,2.2,6,6,6.6,7.5,5.4-1.8,11.3.1,13.5,4,1.7,2.9,1.3,6.5-.9,9.4.5.1,12.4,3.5,15.3,14.1,2.4,8.7-3.1,15.5-3.8,16.4-5.3,2.3-10.6,4.6-15.9,6.9-.7.8-8.4,8.8-20.7,8-11.1-.7-17.3-8-18.2-9-1.8,6.5-7.9,11.1-14.6,11.2-7.7.1-12.4-5.6-12.8-6.1-5.7,4.9-13.9,5.2-18.5,1.6-4.5-3.5-3.9-9.2-3.8-9.9-.8-.2-7.4-2.1-10-8.2-2.2-5-.2-9.5.3-10.4Z"/>
      <path class="cls-1" d="M45.3,520.1c-8.6-3.6-14.2-11.3-14.2-19.6,0-9.2,6.6-17.5,16.6-20.5-.3-5.2,3.4-9.2,7.5-9.6,3.8-.3,6.7,2.6,7,3,.3-7.9,6.1-13.5,12.1-13.7,4.8-.2,8.4,3.3,9.2,4.1,2.9-6.7,9.4-10.9,16.1-10.7,5,.2,8.5,2.7,9.8,3.8,3.8-3.9,9.9-4.7,14-2.2,3,1.8,4.6,5.2,4.2,8.7.5-.1,12.7-2.2,20.9,6,6.7,6.7,5.5,15,5.3,16.1-3.4,4.3-6.8,8.6-10.3,12.9-.2,1-2.7,11.3-13.9,15.9-10.1,4.1-19.4.3-20.7-.2,1.9,6.5-1,13.2-6.9,16.1-6.7,3.4-13.8.4-14.5,0-2.4,6.7-9.4,10.5-15.4,9.3-5.7-1.2-8.3-6.5-8.6-7.1-.8.2-7.6,1.3-13.1-3-4.6-3.5-5.2-8.3-5.3-9.3Z"/>
      <path class="cls-1" d="M220.9,447c-3.2-8-1.1-16.9,5.5-22.8,7.2-6.4,18.5-8,28-3.8,3.9-3.8,9.7-4.3,12.9-1.9,3,2.2,2.7,6.1,2.6,6.6,6.5-5.3,15-5.5,19.4-1.9,3.5,3,3.3,7.7,3.3,8.7,7.3-2.8,15.3-1.7,19.9,2.7,3.4,3.3,3.8,7.3,3.9,8.9,5.8-.4,10.8,3,11.7,7.3.7,3.2-.9,6.6-3.9,8.8.5.3,10.7,6.6,10.1,17.5-.5,8.9-7.9,14-9,14.7-5.8.8-11.6,1.7-17.5,2.5-1,.6-10.9,6.2-22.4,2.3-10.4-3.5-14-12.1-14.5-13.3-3.8,5.8-11.2,8.6-17.7,6.9-7.4-1.9-10.1-8.5-10.3-9.1-7.1,3.2-15,1.3-18.2-3.3-3.2-4.5-.8-9.8-.5-10.4-.7-.4-6.4-3.9-7-10.4-.5-5.4,2.9-9.1,3.6-9.8Z"/>
      <path class="cls-1" d="M121.2,321.9c-7.1-6.9-8.2-16-2.8-23.3,5.9-8,18.7-12.4,31.6-10.8,3.1-4.7,9.8-6.6,14.5-5.1,4.4,1.4,5.6,5.2,5.8,5.6,5.5-6.8,15.6-9.1,22.2-6.7,5.4,1.9,7.1,6.5,7.4,7.5,7.5-4.6,17.5-5.5,24.6-2.4,5.3,2.3,7.5,6,8.3,7.5,6.7-1.8,14,.2,16.8,4.1,2.1,2.9,1.6,6.5-1.1,9.4.7.1,15.4,3.6,19.1,14.2,3,8.7-3.7,15.4-4.7,16.4-6.6,2.3-13.1,4.5-19.7,6.8-.9.8-10.3,8.7-25.6,7.9-13.8-.8-21.5-8.1-22.6-9.1-2.2,6.5-9.7,11-18.1,11.1-9.5,0-15.4-5.7-15.9-6.2-7.1,4.9-17.2,5.1-22.9,1.5-5.6-3.5-4.9-9.3-4.8-9.9-1-.2-9.2-2.1-12.5-8.3-2.7-5.1-.3-9.5.3-10.4Z"/>
      <path class="cls-1" d="M21.5,462.5c-12.1-3.8-21.1-13.3-23-24.5-2.1-12.3,4.8-24.3,17.2-29.8-1.6-7,2.4-12.9,7.8-13.9,4.9-.9,9.4,2.6,9.9,3.1-1.4-10.6,5-18.9,12.8-20,6.3-.9,11.8,3.3,13,4.3,2.3-9.3,9.9-15.9,18.7-16.5,6.5-.4,11.7,2.5,13.7,3.8,4.1-5.8,12-7.6,17.9-4.8,4.3,2.1,7.2,6.4,7.5,11.2.7-.2,16.3-4.6,28.8,5.2,10.3,8.1,10.6,19.4,10.6,20.9-3.5,6.2-7.1,12.4-10.6,18.6,0,1.4-1,15.6-14.7,23.2-12.4,6.8-25.4,3-27.3,2.4,4,8.5,1.6,17.8-5.4,22.6-8,5.4-18.1,2.3-19,2-1.7,9.4-10,15.3-18.1,14.5-7.8-.8-12.4-7.6-12.9-8.4-1,.3-9.7,2.7-17.9-2.3-6.8-4.1-8.6-10.4-9-11.8Z"/>
      <path class="cls-1" d="M196.5,360.7c-2.6-10.1,1.5-20.5,10.4-26.5,9.9-6.7,24-6.9,34.9-.5,5.4-4,12.6-3.7,16.1-.4,3.3,3.1,2.3,7.7,2.1,8.3,8.8-5.4,19.3-4.4,24,.6,3.9,4.1,2.8,9.7,2.6,10.9,9.4-2.3,19,.3,23.8,6.2,3.6,4.4,3.5,9.3,3.3,11.3,7.2.4,12.7,5.2,13.1,10.6.3,3.9-2.2,7.8-6.3,10,.5.4,12.1,9.5,9.5,22.5-2.1,10.7-12,15.6-13.4,16.3-7.3.1-14.5.3-21.8.4-1.3.6-14.3,5.9-27.8-.6-12.2-5.8-15.2-16.6-15.6-18.2-5.6,6.4-15,8.6-22.7,5.7-8.8-3.3-10.9-11.8-11.1-12.5-9.2,2.8-18.5-.6-21.7-6.6-3.1-5.8.7-11.9,1.1-12.6-.8-.6-7.2-5.7-6.8-13.6.3-6.5,5-10.5,6-11.3Z"/>
      <image width="197" height="178" transform="translate(312 202)" xlink:href="cap1-105.png"/>
      <image width="201" height="186" transform="translate(310 254)" xlink:href="cap1-106.png"/>
      <g class="cls-67">
        <image width="237" height="232" transform="translate(150 277)" xlink:href="cap1-107.png"/>
      </g>
      <g class="cls-67">
        <image width="237" height="232" transform="translate(-53 321)" xlink:href="cap1-108.png"/>
      </g>
      <g class="cls-67">
        <image width="181" height="181" transform="translate(137 428)" xlink:href="cap1-109.png"/>
      </g>
      <g class="cls-67">
        <image width="215" height="191" transform="translate(63 213)" xlink:href="cap1-110.png"/>
      </g>
      <g class="cls-67">
        <image width="206" height="194" transform="translate(56 308)" xlink:href="cap1-111.png"/>
      </g>
      <image width="229" height="230" transform="translate(35 32)" xlink:href="cap1-112.png"/>
      <g class="cls-67">
        <image width="242" height="226" transform="translate(296 174)" xlink:href="cap1-113.png"/>
      </g>
      <path class="cls-22" d="M231.3,369.7"/>
      <g class="cls-85">
        <g class="cls-60">
          <g class="cls-61">
            <use transform="translate(2643.9 246.3) rotate(75.5) scale(.3 .3) skewX(-6.7)" xlink:href="#image"/>
          </g>
        </g>
      </g>
      <path class="cls-32" d="M364.9,467.1c.9-1.4,3.3-4.5,8.2-6.5,8.6-3.5,17.4-.2,18.5.2,1.9-2.9,4.6-8.5,3.4-15.3-2-10.7-13.2-19.9-28.7-23.6,1.9-.3,8.3-1.3,13.2-5.8,3.3-3.1,4.4-6.3,4.8-7.9.7,1.3,2.7,4.3,7.1,6.5,2.6,1.3,5.1,1.8,6.7,2,.3-2.6.5-5.2.8-7.8l-14.8-45.6c2.7,2.6,6.9,3.9,10.7,3.2,3-.6,4.8-2.2,5.5-2.8.8,4.2,1.7,8.3,2.5,12.5-.1,1,.4,1.7.8,1.8.4,0,1-.5,1.3-1.3,1.7-1.3,4.1-3.4,5.9-6.5,1.4-2.4,2-4.5,2.2-6.1.5.4,3.1,2.2,6.9,2.1,3.1,0,5.2-1.3,5.8-1.8-2,4.5-4.1,10.6-4.7,18-.4,5.3,0,10,.7,13.8,2.4-2.5,7.6-7,16.1-10,5.9-2,11.2-2.6,14.7-2.7,1.8,5.4,3.6,10.8,5.4,16.2-2.4-1.1-7-2.8-11.9-2-8.2,1.5-14.7,9.6-13.6,19.8-.9,5-2.2,16.8,5.5,29.8,5.5,9.3,13.2,15.2,18,18.3,1.1-.4,6.5-2.1,12.5-.1,3.9,1.3,6,3.4,6.9,4.4,1.9,3.1,3.7,6.2,5.6,9.3l-137.2,1.5c0-.3-1-7.2,6-11.4,6.6-4,14.4-2,15-1.9Z"/>
      <g class="cls-64">
        <image width="121" height="149" transform="translate(315 378)" xlink:href="cap1-114.png"/>
      </g>
      <image width="120" height="172" transform="translate(371 341)" xlink:href="cap1-115.png"/>
      <g class="cls-84">
        <image width="150" height="100" transform="translate(274 433)" xlink:href="cap1-116.png"/>
      </g>
      <g class="cls-67">
        <image width="221" height="246" transform="translate(336 41)" xlink:href="cap1-117.png"/>
      </g>
      <g class="cls-85">
        <g class="cls-79">
          <g class="cls-77">
            <use transform="translate(2412.9 282.6) rotate(73.4) scale(.5 .4) skewX(-10.3)" xlink:href="#image"/>
          </g>
        </g>
      </g>
      <path class="cls-24" d="M246.7,364.3c-1.4.6-13.4,5.6-26,.1-14.9-6.5-16.4-21.3-16.5-21.9-22.5,15.7-52.6,14.9-70,.6-18.5-15.2-14.5-38.9-14.2-40.9-9.6,2.4-19.5-1-24-7.8-5.1-7.7-.9-16-.5-16.7-4.3,3.7-10.5,4.8-15.3,2.8-6.2-2.6-9.4-10.2-5.8-16.9-1.3-.1-17.5-1.9-24.8-14.2-6.4-10.7-3.3-24.9,8.1-34-12.8-11.9-17.2-28.9-11.4-44,8.1-21.4,32.1-27.3,34-27.8,2.2-3,8.4-10.8,20.1-14.6,5.7-1.8,10.9-2.1,14.4-2,2.5-14.7,13.7-26.5,28.6-30.3,15.6-3.9,28.7,2.6,31.3,4-6.1-11.2-3.2-24,6.2-30.9,10.4-7.6,23.9-4.4,25.2-4.1.5-2.2,4.9-21.3,24.1-28.8,7.9-3.1,15.3-3.1,19.8-2.7,1.3-1.9,7.2-9.9,19.2-13,11.4-3,20.8.4,23.3,1.4.4-.4,9.7-9.6,23.5-7.3,12.9,2.1,18.1,12.4,18.5,13.2,1.5-.9,11.4-6.9,24.4-4.1,13.8,3,19.6,13.5,20.3,14.8,10.6,1.4,19.4,7.4,22.9,15.7,3.4,8.2.4,15.5-.5,17.5,7.1-6.5,17.2-8.7,25.3-5.7,6.4,2.4,9.5,7.2,10.5,9,1.3-.7,11-5.5,20.7-1.8,10.2,3.8,16.3,15.5,12.7,27.5,24.2,6.4,39.1,25.7,36.5,43.8-2.6,18.3-21.9,27.8-24.1,28.8,2.2,4.3,5.1,11.6,4.8,20.8-.5,17.3-11.8,28.9-15.2,32.2,2.3,4.2,6.8,13.8,5.6,26.4-1.4,14.9-10,24.8-13.3,28.3,8.4,7.2,11,17.9,6.5,26.4-5.1,9.8-16.9,12-18.3,12.3-2.7,3.4-10.8,12.9-25.6,16.8-24.4,6.5-44.7-7.9-46.4-9.2-5.5,8-19.2,25.5-45,36.2-42.4,17.6-83.1,2.6-89.8,0Z"/>
      <path class="cls-25" d="M102.5,149.2c-7.5-8.9-8.5-20.8-2.8-30.3,6.3-10.5,19.9-16.3,33.6-14.2,3.3-6.1,10.4-8.6,15.4-6.8,4.7,1.7,5.9,6.7,6.1,7.3,5.8-8.8,16.5-12,23.6-8.9,5.7,2.5,7.5,8.4,7.8,9.7,8-6,18.5-7.2,26.1-3.3,5.6,2.9,7.9,7.8,8.7,9.8,7.1-2.4,14.8.2,17.8,5.2,2.2,3.7,1.7,8.5-1.2,12.3.7.2,16.3,4.6,20.2,18.4,3.2,11.3-4,20.1-5.1,21.3-7,3-13.9,6-20.9,9-1,1.1-11,11.4-27.2,10.4-14.6-.9-22.8-10.4-23.9-11.8-2.3,8.5-10.4,14.5-19.2,14.6-10.1.2-16.3-7.3-16.8-7.9-7.5,6.4-18.2,6.7-24.3,2.1-5.9-4.5-5.1-12-5-12.9-1.1-.3-9.7-2.7-13.2-10.7-2.9-6.6-.2-12.3.4-13.5Z"/>
      <path class="cls-25" d="M234.5,234.1c-11.3-4.8-18.6-14.7-18.7-25.6,0-11.9,8.7-22.7,21.8-26.7-.4-6.8,4.5-12,9.9-12.5,5-.4,8.8,3.4,9.3,3.9.4-10.3,8.1-17.6,15.9-17.8,6.4-.2,11.1,4.3,12.1,5.3,3.8-8.7,12.4-14.2,21.1-13.9,6.5.2,11.1,3.5,12.9,5,5-5.1,13.1-6.1,18.4-2.9,3.9,2.4,6,6.8,5.5,11.4.7-.1,16.8-2.8,27.6,7.8,8.8,8.7,7.3,19.5,7,21-4.5,5.6-9,11.2-13.5,16.7-.3,1.3-3.5,14.7-18.3,20.7-13.3,5.3-25.5.4-27.3-.3,2.5,8.5-1.4,17.1-9,21-8.8,4.4-18.2.5-19,0-3.2,8.8-12.4,13.6-20.2,12.1-7.6-1.5-11-8.4-11.3-9.2-1.1.2-10,1.7-17.3-3.9-6-4.6-6.8-10.8-6.9-12.1Z"/>
      <path class="cls-25" d="M320.1,277.2c-4.4-10.9-1.5-22.9,7.5-30.8,9.9-8.7,25.3-10.8,38.3-5.2,5.3-5.2,13.3-5.8,17.7-2.6,4,3,3.6,8.2,3.6,8.9,8.8-7.2,20.5-7.5,26.5-2.6,4.8,4,4.6,10.4,4.5,11.8,10-3.8,20.9-2.2,27.1,3.7,4.6,4.4,5.3,9.9,5.4,12,7.9-.5,14.7,4.1,16,9.9.9,4.3-1.2,8.9-5.4,11.9.6.4,14.7,8.9,13.8,23.6-.7,12.1-10.9,18.9-12.3,19.8-7.9,1.1-15.9,2.2-23.8,3.4-1.3.8-14.8,8.4-30.6,3.1-14.2-4.8-19.2-16.4-19.8-18-5.2,7.8-15.2,11.6-24.1,9.4-10.1-2.5-13.8-11.5-14.1-12.4-9.7,4.3-20.4,1.8-24.9-4.4-4.3-6-1-13.3-.7-14.1-1-.6-8.7-5.3-9.5-14.1-.6-7.3,4-12.3,4.9-13.3Z"/>
      <path class="cls-25" d="M217.2,80.7c-9.3-9-10.7-20.8-3.7-30.3,7.8-10.4,24.6-16.2,41.6-14,4-6.1,12.9-8.6,19.1-6.7,5.8,1.8,7.4,6.8,7.6,7.4,7.2-8.8,20.5-11.9,29.2-8.8,7.1,2.5,9.3,8.5,9.8,9.8,9.9-5.9,23-7.1,32.4-3.1,7,3,9.9,7.9,10.9,9.8,8.9-2.4,18.4.2,22.2,5.3,2.8,3.8,2.1,8.5-1.4,12.3.9.2,20.3,4.7,25.1,18.5,4,11.4-4.9,20.1-6.1,21.3-8.6,3-17.3,5.9-25.9,8.9-1.2,1-13.6,11.4-33.7,10.3-18.1-1-28.3-10.5-29.8-11.9-2.8,8.5-12.8,14.4-23.8,14.5-12.6.1-20.3-7.4-21-8-9.3,6.3-22.6,6.6-30.2,1.9-7.3-4.5-6.5-12.1-6.3-12.9-1.3-.3-12.1-2.8-16.4-10.8-3.6-6.6-.4-12.3.4-13.5Z"/>
      <path class="cls-25" d="M84.4,296.5c-8-14.3-7.8-31.3.3-43.3,9-13.2,26.1-18.2,42.5-12,4.7-7.8,13.7-9.7,19.6-5.8,5.4,3.6,6.4,10.9,6.5,11.7,8.2-11,21.5-12.9,29.7-7,6.6,4.9,8,13.6,8.3,15.6,10.5-6.5,23.4-5.8,32.1,1.6,6.5,5.4,8.7,12.9,9.4,15.8,9-1.7,18,3.7,21,11.6,2.2,5.8,1,12.3-3,17,.8.4,19.2,10.3,22.2,30.7,2.5,16.7-7.4,27.4-8.7,28.8-8.8,2.6-17.6,5.1-26.4,7.7-1.3,1.2-14.8,13.5-34.3,8.2-17.6-4.8-26.4-20-27.6-22.2-3.9,11.4-14.4,17.8-25.1,16-12.3-2.1-18.9-14.1-19.5-15.1-9.9,7.2-23,5.1-29.7-2.8-6.6-7.7-4.8-18.1-4.6-19.3-1.2-.6-11.4-6.2-14.7-18.2-2.7-9.9,1.2-17.4,2.1-18.9Z"/>
      <path class="cls-25" d="M304.7,124c-3.4-13.2,1.9-26.7,13.7-34.6,13-8.7,31.6-9,45.9-.6,7.1-5.3,16.6-4.8,21.2-.5,4.3,4,3,10.1,2.8,10.8,11.5-7.1,25.4-5.8,31.6.8,5.1,5.3,3.7,12.6,3.4,14.2,12.4-3,25,.4,31.4,8.1,4.7,5.7,4.6,12.1,4.4,14.7,9.4.6,16.7,6.8,17.2,13.8.4,5.1-2.9,10.1-8.2,13,.7.5,15.9,12.4,12.5,29.3-2.8,13.9-15.8,20.3-17.6,21.2-9.5.2-19.1.4-28.6.5-1.7.7-18.8,7.7-36.6-.7-16-7.6-19.9-21.6-20.5-23.7-7.4,8.3-19.8,11.2-29.9,7.4-11.5-4.3-14.4-15.3-14.6-16.3-12.1,3.6-24.4-.8-28.6-8.6-4.1-7.6.9-15.5,1.5-16.4-1-.8-9.4-7.4-8.9-17.7.4-8.5,6.6-13.7,7.9-14.7Z"/>
      <g class="cls-67">
        <image width="264" height="285" transform="translate(213 -39)" xlink:href="cap1-118.png"/>
      </g>
      <image width="222" height="235" transform="translate(178 95)" xlink:href="cap1-119.png"/>
      <g class="cls-67">
        <image width="271" height="270" transform="translate(27 176)" xlink:href="cap1-120.png"/>
      </g>
      <path class="cls-36" d="M111.8,588.6c1.3-2.2,4.6-7.1,11.3-10.2,11.9-5.5,24.1-.3,25.5.3,2.6-4.6,6.4-13.5,4.7-24.1-2.7-16.9-18.2-31.3-39.5-37.2,2.7-.4,11.5-2,18.2-9.1,4.6-4.8,6.1-9.9,6.6-12.5,1,2.1,3.8,6.8,9.8,10.2,3.6,2,7,2.8,9.3,3.1.4-4.1.8-8.2,1.1-12.3l-20.4-71.8c3.8,4.2,9.5,6.1,14.7,5.1,4.2-.9,6.7-3.4,7.6-4.5,1.1,6.6,2.3,13.2,3.4,19.7-.2,1.6.5,2.7,1.1,2.8.6,0,1.4-.8,1.8-2.1,2.3-2,5.6-5.4,8.1-10.3,1.9-3.7,2.7-7.1,3.1-9.6.7.6,4.2,3.4,9.5,3.3,4.3-.1,7.1-2.1,8-2.8-2.8,7-5.6,16.7-6.5,28.3-.6,8.4,0,15.7,1,21.7,3.3-3.9,10.4-11.1,22.3-15.8,8.1-3.2,15.4-4.1,20.3-4.3,2.5,8.5,5,17,7.4,25.6-3.3-1.8-9.6-4.5-16.4-3.1-11.3,2.3-20.3,15.1-18.7,31.3-1.2,7.8-3,26.5,7.6,46.9,7.6,14.6,18.2,23.9,24.8,28.8,1.5-.6,9-3.3,17.3-.2,5.3,2,8.3,5.4,9.6,7,2.6,4.9,5.1,9.8,7.7,14.7l-189.2,2.3c0-.5-1.4-11.3,8.3-18,9.1-6.3,19.8-3.2,20.6-3Z"/>
      <image width="156" height="233" transform="translate(127 410)" xlink:href="cap1-121.png"/>
      <g class="cls-57">
        <g class="cls-65">
          <g class="cls-68">
            <use transform="translate(2644.2 -47.6) rotate(74.7) scale(.7 .7) skewX(-8.1)" xlink:href="#image"/>
          </g>
        </g>
      </g>
      <path class="cls-38" d="M221.3,765c15.6,1.2,31.1,2.8,46.8,3.1,13.5.3,27.1,1,40.6.2,11.8-.7,23.5-3.5,35.4-3.1,1.8,0,3.6.2,5.4.5-8.1-20.2-18.4-51.9-25.9-97.1-12.9-78.1-9.7-150.2-7.6-180.4-1.2-62.2,11.3-112.1,26.3-121.7,9-5.7,17.2,4.3,21.5,11-2.8-32.7-5.6-65.4-8.5-98.1-6.4,1.1-16.1,5-26.9,17.8-15.8,18.8-25.5,46.8-30.1,62.1-1-23-1.4-51.3-.1-83.6,1.7-45,6-82.3,10-109.6-1.2,2.6-5.1,10.5-10.7,11.3-7,.9-11.5-9.8-12.4-11.9-.6,9.7-1.9,22.9-4.6,37.3-3.5,19.1-8.1,32.3-11.2,40.3-.5,5.1-1.7,8.4-2.4,8.2-.8-.2-1.7-4.5-1.3-10.6-1.2-25.3-2.3-50.6-3.5-75.9-1.2,4.1-4.7,14.1-10.2,17.7-6.9,4.5-14.3-2.9-19.1-18.6l23.1,275.7c-.7,15.8-1.4,31.6-2.1,47.4-1,9.8-1.7,20.4-2,31.6-.4,16.2,0,31.1,1.1,44.5-1,11.1-1.8,23-2.2,35.6-.4,13.5-.4,26.2,0,38.2-1.7,8.6-3.4,17.2-5.1,25.9-6,30.8-11.5,61.2-16.5,91.1-2,1.6-5.1,4.1-8.9,7-1.9,1.4-3.6,2.6-5.1,3.7,2.1.1,4.2.3,6.4.4Z"/>
      <path class="cls-17" d="M262.4,762.2c4.9,1,9.8,2.3,14.7,2.7,4.2.3,8.5.8,12.8.1,3.7-.6,7.4-2.9,11.1-2.6.6,0,1.1.2,1.7.4-2.5-17.2-5.8-44-8.1-82.3-4.1-66.2-3-127.3-2.4-152.9-.4-52.7,3.5-95.1,8.3-103.1,2.8-4.9,5.4,3.7,6.8,9.3-.9-27.7-1.8-55.5-2.7-83.2-2,1-5.1,4.2-8.5,15.1-5,15.9-8,39.7-9.5,52.6-.3-19.5-.4-43.5,0-70.9.5-38.1,1.9-69.8,3.1-92.9-.4,2.2-1.6,8.9-3.4,9.5-2.2.8-3.6-8.3-3.9-10.1-.2,8.2-.6,19.4-1.4,31.7-1.1,16.2-2.5,27.4-3.5,34.2-.2,4.3-.5,7.1-.8,6.9-.3-.2-.5-3.8-.4-9-.4-21.4-.7-42.9-1.1-64.3-.4,3.4-1.5,12-3.2,15-2.2,3.8-4.5-2.4-6-15.8l7.3,233.7c-.2,13.4-.4,26.8-.7,40.2-.3,8.3-.5,17.3-.6,26.8-.1,13.7,0,26.4.3,37.7-.3,9.4-.6,19.5-.7,30.2-.1,11.4-.1,22.3,0,32.3-.5,7.3-1.1,14.6-1.6,21.9-1.9,26.1-3.6,51.9-5.2,77.3-.6,1.4-1.6,3.5-2.8,5.9-.6,1.2-1.1,2.2-1.6,3.1.7.1,1.3.2,2,.4Z"/>
    </g>
  </g>
</svg>