<?xml version="1.0" encoding="UTF-8"?>
<svg id="Capa_1" data-name="Capa 1" xmlns="http://www.w3.org/2000/svg" version="1.1" xmlns:xlink="http://www.w3.org/1999/xlink" viewBox="0 0 768 1366">
  <defs>
    <style>
      .cls-1 {
        fill: #0c0805;
      }

      .cls-1, .cls-2, .cls-3, .cls-4, .cls-5, .cls-6, .cls-7, .cls-8, .cls-9, .cls-10 {
        stroke-width: 0px;
      }

      .cls-2 {
        fill: #423328;
      }

      .cls-3 {
        fill: #0c0c0c;
      }

      .cls-4 {
        fill: #050505;
      }

      .cls-11 {
        fill: #8da9bf;
        stroke: #7e9daa;
      }

      .cls-11, .cls-12 {
        stroke-miterlimit: 10;
      }

      .cls-5 {
        fill: #231305;
      }

      .cls-6 {
        fill: #6292b2;
      }

      .cls-7 {
        fill: #a87e5a;
      }

      .cls-8 {
        fill: #fff;
      }

      .cls-9 {
        fill: #a84e11;
      }

      .cls-12 {
        fill: none;
        stroke: #842020;
      }

      .cls-10 {
        fill: #fffefd;
      }
    </style>
  </defs>
  <g>
    <path class="cls-9" d="M233.1,244.9c19.2-10.6,41.3-5.9,49.4,10.7,8.1,16.5-.8,38.5-19.9,49.2s-41.3,5.9-49.4-10.7.8-38.5,19.9-49.2Z"/>
    <path class="cls-9" d="M491.8,924.3c-2.5-20.6,11.7-39.6,31.8-42.4,20.1-2.8,38.4,11.7,41,32.3,2.5,20.6-11.7,39.6-31.8,42.4-20.1,2.8-38.4-11.7-41-32.3Z"/>
    <g>
      <path class="cls-9" d="M239.1,279.6c18.2-9.5,49.1-25.6,88.3-22.6,31.7,2.4,32,14.4,61.6,18.5,57.7,8.1,77.4-34.5,117.8-24.4,30.5,7.7,27.2,34,77.1,89.1,58.1,64.2,82.1,49.9,103.9,93.2,24.7,49.1-4.7,69.8,17.4,153,16.3,61.1,36.4,65.8,32.4,99.3-4.7,38.8-33,42.8-93.2,113.4-51.2,59.9-49.5,79-93.2,113.4-31.2,24.5-54,42.4-84.6,41.2-49.8-2-64.1-52.1-112.5-48.9-28.9,1.9-27.9,20.1-66.3,28-37.2,7.7-91.5,1.6-108.9-30.4-11.4-21,1.8-37-14.2-62.5-9.1-14.5-16.5-14.2-32.3-31.9-15.3-17.2-25.1-36.3-29.9-49.4-18.9-52.5,19.1-79.4-.4-118.5-12.2-24.5-31.2-22-43.6-54.9-2.3-6.2-4.7-18-9.5-41.6-6.2-30.8-9.3-46.2-8.5-51,3-19.1,15.6-21.5,61.2-66.3,18.7-18.3,29.9-29.5,43-47.3,16.4-22.4,15.4-27.9,27.7-44.7,23-31.5,51.5-46.7,66.9-54.8Z"/>
      <path class="cls-9" d="M83.4,638.7c17.4-9.6,38.8-2.5,47.9,15.9,9.1,18.4,2.4,41.2-15,50.8-17.4,9.6-38.8,2.5-47.9-15.9-9.1-18.4-2.4-41.2,15-50.8Z"/>
      <path class="cls-9" d="M113.9,375.6c17.4-9.6,38.8-2.5,47.9,15.9,9.1,18.4,2.4,41.2-15,50.8-17.4,9.6-38.8,2.5-47.9-15.9s-2.4-41.2,15-50.8Z"/>
      <path class="cls-9" d="M87.1,601.5c10.2-5.7,22.7-1.5,28.1,9.3,5.3,10.8,1.4,24.1-8.8,29.8-10.2,5.7-22.7,1.5-28.1-9.3-5.3-10.8-1.4-24.1,8.8-29.8Z"/>
      <path class="cls-9" d="M98.8,703.5c19.8-11,42.1-7,49.9,8.9,7.8,15.9-1.8,37.7-21.6,48.6-19.8,11-42.1,7-49.9-8.9-7.8-15.9,1.8-37.7,21.6-48.6Z"/>
      <path class="cls-9" d="M120.4,753c15-8.3,33.4-2.2,41.3,13.7,7.8,15.9,2,35.5-12.9,43.8s-33.4,2.2-41.3-13.7c-7.8-15.9-2-35.5,12.9-43.8Z"/>
      <path class="cls-9" d="M147.3,787.9c13.2-7.3,32,3.2,42,23.6,10,20.3,7.5,42.8-5.7,50.1s-32-3.2-42-23.6c-10-20.3-7.5-42.8,5.7-50.1Z"/>
      <path class="cls-9" d="M178.8,840.8c15.6-8.6,35.5-.7,44.6,17.7,9.1,18.4,3.8,40.4-11.7,49-15.6,8.6-35.5.7-44.6-17.7-9.1-18.4-3.8-40.4,11.7-49Z"/>
      <path class="cls-9" d="M239.6,874.4c18-10,40.1-2.6,49.5,16.5,9.4,19.1,2.5,42.6-15.5,52.6-18,10-40.1,2.6-49.5-16.5-9.4-19.1-2.5-42.6,15.5-52.6Z"/>
      <path class="cls-9" d="M293.5,888.5c14.4-8,33.4.5,42.5,18.9,9.1,18.4,4.8,39.8-9.6,47.8-14.4,8-33.4-.5-42.5-18.9-9.1-18.4-4.8-39.8,9.6-47.8Z"/>
      <path class="cls-9" d="M25.7,530.1c21.6-12,48.2-3.1,59.4,19.8,11.3,22.9,2.9,51.1-18.6,63.1-21.6,12-48.2,3.1-59.4-19.8-11.3-22.9-2.9-51.1,18.6-63.1Z"/>
      <path class="cls-9" d="M56.5,539.3c-18.6,10.3-41.5,2.7-51.2-17-9.7-19.7-2.5-44,16-54.3,18.6-10.3,41.5-2.7,51.2,17,9.7,19.7,2.5,44-16,54.3Z"/>
      <path class="cls-9" d="M69.6,411.9c22.7-12.6,49.3-6.4,59.3,13.9,10,20.3-.3,47.1-23,59.7-22.7,12.6-49.3,6.4-59.3-13.9-10-20.3.3-47.1,23-59.7Z"/>
      <path class="cls-9" d="M159.7,306.1c21-11.6,45.6-5.6,55,13.4s0,44-20.9,55.6c-21,11.6-45.6,5.6-55-13.4-9.4-19.1,0-44,20.9-55.6Z"/>
      <path class="cls-9" d="M198.8,290.2c13.8-7.6,30.8-2,38,12.6,7.2,14.6,1.9,32.7-11.9,40.3-13.8,7.6-30.8,2-38-12.6-7.2-14.6-1.9-32.7,11.9-40.3Z"/>
      <path class="cls-9" d="M283.3,237.5c15-8.3,33.4-2.2,41.3,13.7,7.8,15.9,2,35.5-12.9,43.8-15,8.3-33.4,2.2-41.3-13.7s-2-35.5,12.9-43.8Z"/>
      <path class="cls-9" d="M328.8,212.2c21-11.6,46.8-3,57.8,19.2s2.9,49.7-18.1,61.3c-21,11.6-46.8,3-57.8-19.2-11-22.2-2.9-49.7,18.1-61.3Z"/>
      <path class="cls-9" d="M379.6,239.7c15.6-8.6,34.8-2.3,42.9,14.3,8.1,16.5,2.1,36.9-13.4,45.6-15.6,8.6-34.8,2.3-42.9-14.3-8.1-16.5-2.1-36.9,13.4-45.6Z"/>
      <path class="cls-9" d="M431.1,243.3c16.8-9.3,37.2-2.9,45.7,14.2,8.5,17.2,1.7,38.6-15,47.9-16.8,9.3-37.2,2.9-45.7-14.2-8.5-17.2-1.7-38.6,15-47.9Z"/>
      <path class="cls-9" d="M478.9,222.6c23.9-13.3,53.5-3.5,66,21.9,12.5,25.4,3.3,56.8-20.7,70.1-23.9,13.3-53.5,3.5-66-21.9-12.5-25.4-3.3-56.8,20.7-70.1Z"/>
      <path class="cls-9" d="M540.1,279.5c14.4-8,32.1-2.1,39.6,13.2,7.5,15.3,2,34.1-12.4,42.1-14.4,8-32.1,2.1-39.6-13.2-7.5-15.3-2-34.1,12.4-42.1Z"/>
      <path class="cls-9" d="M576.6,300.3c19.8-11,43.4-4.4,52.8,14.7,9.4,19.1,1,43.4-18.8,54.4-19.8,11-43.4,4.4-52.8-14.7-9.4-19.1-1-43.4,18.8-54.4Z"/>
      <path class="cls-9" d="M612.5,353.6c15.6-8.6,34.8-2.3,42.9,14.3,8.1,16.5,2.1,36.9-13.4,45.6-15.6,8.6-34.8,2.3-42.9-14.3-8.1-16.5-2.1-36.9,13.4-45.6Z"/>
      <path class="cls-9" d="M668,399c20.4-11.3,45.5-3,56.1,18.7,10.6,21.6,2.8,48.3-17.6,59.6-20.4,11.3-45.5,3-56.1-18.7-10.6-21.6-2.8-48.3,17.6-59.6Z"/>
      <path class="cls-9" d="M669.1,460c17.4-9.6,38.8-2.5,47.9,15.9s2.4,41.2-15,50.8c-17.4,9.6-38.8,2.5-47.9-15.9-9.1-18.4-2.4-41.2,15-50.8Z"/>
      <path class="cls-9" d="M672.3,519.7c14.4-8,32.1-2.1,39.6,13.2,7.5,15.3,2,34.1-12.4,42.1s-32.1,2.1-39.6-13.2-2-34.1,12.4-42.1Z"/>
      <path class="cls-9" d="M706,568.5c18.6-10.3,41.5-2.7,51.2,17,9.7,19.7,2.5,44-16,54.3s-41.5,2.7-51.2-17c-9.7-19.7-2.5-44,16-54.3Z"/>
      <path class="cls-9" d="M693.8,622.1c16.2-9,36.9-.8,46.3,18.3,9.4,19.1,3.9,41.8-12.3,50.8-16.2,9-36.9.8-46.3-18.3-9.4-19.1-3.9-41.8,12.3-50.8Z"/>
      <path class="cls-9" d="M706.8,679.4c19.2-10.6,43.8-.7,55.1,22.2,11.3,22.9,4.9,50.1-14.3,60.7s-43.8.7-55.1-22.2c-11.3-22.9-4.9-50.1,14.3-60.7Z"/>
      <path class="cls-9" d="M663.5,706.4c15-8.3,36,3,46.9,25.2,11,22.2,7.7,47-7.2,55.3-15,8.3-36-3-46.9-25.2-11-22.2-7.7-47,7.2-55.3Z"/>
      <path class="cls-9" d="M624.8,745.5c17.4-9.6,38.8-2.5,47.9,15.9,9.1,18.4,2.4,41.2-15,50.8-17.4,9.6-38.8,2.5-47.9-15.9-9.1-18.4-2.4-41.2,15-50.8Z"/>
      <path class="cls-9" d="M599.2,786.1c19.2-10.6,42.8-2.8,52.8,17.6,10,20.3,2.6,45.4-16.5,56.1-19.2,10.6-42.8,2.8-52.8-17.6-10-20.3-2.6-45.4,16.5-56.1Z"/>
      <path class="cls-9" d="M59.5,587.5c27.5-15.3,59.3-8.6,70.8,14.9,11.6,23.5-1.3,55-28.9,70.3-27.5,15.3-59.3,8.6-70.8-14.9-11.6-23.5,1.3-55,28.9-70.3Z"/>
      <path class="cls-9" d="M374.9,849.1c22.1-12.3,49.5-3.2,61.1,20.3,11.6,23.5,3,52.6-19.1,64.9-22.1,12.3-49.5,3.2-61.1-20.3-11.6-23.5-3-52.6,19.1-64.9Z"/>
      <path class="cls-9" d="M338.6,904.4c11.4-6.3,24.1-4.2,28.5,4.7,4.4,8.9-1.3,21.2-12.7,27.6-11.4,6.3-24.1,4.2-28.5-4.7-4.4-8.9,1.3-21.2,12.7-27.6Z"/>
      <path class="cls-9" d="M445.2,862.9c25.7-14.3,55.5-7.9,66.5,14.4,11,22.2-1,51.9-26.8,66.2-25.7,14.3-55.5,7.9-66.5-14.4-11-22.2,1-51.9,26.8-66.2Z"/>
      <path class="cls-9" d="M581.4,834c20.4-11.3,45.5-3,56.1,18.7s2.8,48.3-17.6,59.6c-20.4,11.3-45.5,3-56.1-18.7-10.6-21.6-2.8-48.3,17.6-59.6Z"/>
    </g>
  </g>
  <g>
    <path class="cls-7" d="M131,637.8c-3.3-12.2-30.9-122.6,36.7-219.9,48.4-69.7,126.1-104.4,200.6-98,97.6,8.3,187.3,86.7,205.5,188.1,10.2,57-5,105.4-14.7,129.8,10,2.2,32.2,8.7,44,29.1,21.7,37.3-1.9,102.2-44,119.2-27,10.9-53.1-1.2-61.2-5.3-12.9,15.3-36,38.8-71,55.6-24.8,12-47.3,16.6-63.6,18.5-.9,3-2.9,11.3,0,21.2,2.6,8.6,7.5,13.8,9.8,15.9,16.2,6.5,44.2,20.5,68.5,50.3,11.5,14.1,19.2,28.1,24.5,39.7,8,25.3,23.5,62.6,53.8,98,13.4,15.7,27,27.8,39.1,37.1,13,16.2,33,37.3,61.2,55.6,19.9,13,38.6,21.2,53.8,26.5,9.1,4.3,22.5,9.2,39.1,10.6,26.7,2.3,47.7-5.5,58.7-10.6-2.1,10-7.4,29.2-22,47.7-18.1,22.9-39.8,31.5-48.9,34.4-5.6.8-10.3,4.9-12.2,10.6-2.9,8.5,2.2,15.5,2.4,15.9,3.2,5.7,7.5,14.7,9.8,26.5,1.5,7.6,2.3,12.6,0,15.9-4.2,5.9-17,4.6-31.8-2.6-57.9-23.3-95.6-55-117.4-76.8-32.6-32.6-52.5-65.7-83.2-116.6-21.9-36.4-38.1-67.9-48.9-90.1,5.7,38,11.4,76,17.1,113.9,14.1,6.8,50.2,26.7,75.8,71.5,29.3,51.3,26.1,102.1,24.5,117.9H162.8c3.8-28.3,10.3-62.2,22-99.4,10.5-33.2,22.6-61.6,34.3-84.8,4.1-8.4,9.3-21.8,9.8-38.4,1-36-21.4-45.3-29.4-86.1-8.8-44.9,10-82.3,12.2-90.1,6.3-22.2,22.8-33.6,31.8-42.4,20.2-19.8,40.6-30.3,53.8-35.8,2.5-8,4.7-19.4,0-29.1-7.1-14.6-25.6-16.7-46.5-21.2-18.7-4-44.7-11.3-75.8-25.2-22.4-14.1-33.9-31.6-39.1-41.1-16.6-29.9-15.5-60.1-14.7-80.8.9-23.7,5.7-42.9,9.8-55.6Z"/>
    <path class="cls-7" d="M226.4,1129.4c-10.3,18.2-21.1,31.2-29.4,39.7-6.8,7.1-23.6,23.6-41.7,27.4-1.2.3-1.9.3-2.3.4-15.5,1.2-28.4-18.9-32.1-25.2-9.9-16.4-22.1-41-29.1-72.9-13.1-60,0-110.1,7.3-132.5,25.3-50.3,50.6-100.7,75.8-151,9.2-9.3,13.1-8.8,14.7-7.9,6.7,3.6,1.1,28.6-.6,36.1,9.1-18,13.9-17.8,15.3-17.5,6,1.4,9.6,19.8,4.9,34.4-1.9,6-5,10.4-7.3,13.2,6.8-11.7,15.2-18,19.6-15.9,5.1,2.4,5.6,16.9,0,26.5-3.8,6.4-9.5,9.2-12.2,10.3,7.3-3.3,14.5-3.3,17.1.3,3.2,4.3.7,15.5-9.8,23.8-5.7,43.3-11.4,86.6-17.1,129.8,9,26.9,17.9,53.9,26.9,80.8Z"/>
  </g>
  <g>
    <g>
      <path class="cls-10" d="M389.6,639.7c-1.2,2.4-21.4,43.4-56.1,46.3-30.6,2.5-58.9-25.6-65.1-68.5,2.5-3.4,27.1-35.7,62.6-32.9,26.6,2.2,49.2,23.6,58.6,55h0Z"/>
      <path class="cls-10" d="M203.9,614.6c.4,33.3-13.4,60.4-27.3,64.7-16,4.8-41.2-19.1-42.8-63.3,1.8-7.6,5.8-19.7,14.6-26.1,15.1-11.1,39.7-3.1,55.5,24.8h0Z"/>
      <path class="cls-5" d="M282.7,630.2c.2-6.1,1.3-16.3,7.3-26,12.6-20.2,41.9-31,66.1-18.2,20,10.6,33.4,35.8,27.2,61-5.8,23.8-27,39-47.6,39.2-26.3.3-50.7-23.6-53-56.1Z"/>
      <path class="cls-5" d="M141.5,623.6c4.6-23.7,25-41.5,40.3-38,21.3,4.7,31.5,50.3,17.1,75.2-5.9,10.3-16.4,17.7-26.9,17.4-19.2-.4-36.2-27.2-30.7-54.4v-.3Z"/>
      <path class="cls-3" d="M262.7,622.1c2.2-5.6,17-42.6,48.4-53.9,31.4-11.6,66.5,7.7,83.2,48.7l35.6,8.2c-12.2,7-24.7,14-36.9,21-.9-3.1-13.4-49.6-52.9-59.5-27.7-6.7-57.5,6.9-77.2,35.6h-.2Z"/>
      <path class="cls-3" d="M202.4,608.4c-8.4-24.8-27.6-38.6-46-34.3-15.7,3.5-25.4,18.9-28,23-5,0-9.7-.4-14.7-.5l21.2,13.7c3.2-5.6,8.7-14.5,18-19.5,16.1-8.8,36-2,49.5,17.3v.3Z"/>
    </g>
    <path class="cls-1" d="M372.6,645.6c-4,19.6-21.6,32.2-39.3,28.1-17.7-4.1-28.8-23.3-24.7-42.9,4-19.6,21.6-32.2,39.3-28.1,17.7,4.1,28.8,23.3,24.7,42.9Z"/>
    <path class="cls-1" d="M151.2,621.5c3.1-16.3,18.5-28.1,30.3-25.4,16.5,3.6,24.8,35.2,14.4,52-4.2,7-12.2,12.1-20.1,11.6-14.9-.8-28.3-19.6-24.5-38.1h0Z"/>
    <path class="cls-8" d="M339,620.1c-2.1,10.2-11.4,16.8-20.8,14.6-9.4-2.2-15.3-12.2-13.2-22.5,2.1-10.2,11.4-16.8,20.8-14.6s15.3,12.2,13.2,22.5Z"/>
    <path class="cls-8" d="M344.9,642.7c-1.4,6.6-7.7,10.7-14.2,9.2s-10.6-8-9.3-14.6,7.7-10.7,14.2-9.2,10.6,8,9.3,14.6Z"/>
    <path class="cls-8" d="M196.4,619.6c-2.1,10.2-11.4,16.8-20.8,14.6-9.4-2.2-15.3-12.2-13.2-22.5,2.1-10.2,11.4-16.8,20.8-14.6s15.3,12.2,13.2,22.5Z"/>
    <path class="cls-8" d="M180.3,642c-1.4,6.6-7.7,10.7-14.2,9.2-6.5-1.5-10.6-8-9.3-14.6,1.4-6.6,7.7-10.7,14.2-9.2,6.5,1.5,10.6,8,9.3,14.6Z"/>
  </g>
  <path class="cls-12" d="M214.7,743.7c.6.8,4.3,7.7,12.1,8.8,6.5.8,12.7-2.7,16.1-8.8,2.2,1.5,9.6,6.1,19.9,4.6,11.8-1.9,18.6-11.5,19.9-13.4"/>
  <path class="cls-4" d="M270.4,892.5c3-1.1,7.3-2.7,12.2-5.2,8-4,12.1-6.1,14.7-10.4,1.2-1.9,3.7-6.9,2.4-15.6,8.6.3,17.5.3,26.9,0,13-.4,25.3-1.3,36.7-2.6,2.2,10.7,6.4,15.6,9.8,18.2,5.7,4.3,12.9,4.7,14.7,10.4.7,2.2.2,4.2,0,5.2-2.3,10.3-5.7,41.8,2.4,62.3,1.6,4,4.4,9.6,9.8,15.6,3.3,16.5,6.5,32.9,9.8,49.4,5.6,11.5,8.3,21.4,9.8,28.6.9,4.4,1,6.1,2.4,15.6,2.4,15.6,3.3,18.4,4.9,28.6,4.8,30.2,7.2,45.3,7.3,57.1,0,2.3,0,6.4,2.4,10.4,3.6,5.9,9.5,6.6,17.1,10.4,4.4,2.2,10.6,6,17.1,13-87.3.9-174.5,1.7-261.8,2.6,2.6-4.9,6.1-12,9.8-20.8,3.2-7.8,7.9-19.1,9.8-28.6,2.7-13.8-1.3-20.2-7.3-46.8-5.4-23.9-1.9-17.3-9.8-59.7-5.1-27.4-7.1-33.1-4.9-44.2,2.4-12.2,7.9-20.2,17.1-33.8,10.6-15.6,16.6-19,31.8-39,6.5-8.5,11.5-15.9,14.7-20.8Z"/>
  <g>
    <path class="cls-11" d="M203.2,1207.2c99.4,2.2,198.6,4.4,298,6.6,5.8,9.4,11.7,18.7,17.5,28.1,9.5,16,13.1,29.6,14.7,39,.7,4.4,1.3,9.8,2.4,20.8,1.1,10.8,1.9,19.8,2.4,26,0,.2.7,2,2.4,2.6,1.1.4,2.1.1,2.4,0v15.6c-31.7,3.4-63.9,7.3-96.7,11.6-30.8,4.1-61,8.4-90.6,13v-48.9c-2.6,15.2-5.4,30.5-8,45.7-30.4-2.4-61.1-5.1-92.3-8.1-34.4-3.3-68.2-6.9-101.4-10.8.8-6.1,1.6-12.1,2.4-18.2.5,0,4.4.5,7.3-2.6,1.9-2,2.3-4.3,2.4-5.2,1.2-9.1,2.7-18.6,4.9-28.6,7.6-35,19.8-64,31.9-86.6Z"/>
    <path class="cls-6" d="M511.2,1225.1c-107.4-1-214.8-2.2-321.9-3.2,4-5.4,8-10.8,12-16.2,98,1,196,2.2,293.7,3.2,5.4,5.4,10.8,10.8,16.2,16.2Z"/>
  </g>
  <polygon class="cls-6" points="156.7 1330.2 350.2 1354.1 348 1367.3 154.2 1348.4 156.7 1330.2"/>
  <polygon class="cls-6" points="546.1 1328.4 352.8 1355.1 355.3 1368.3 548.7 1346.5 546.1 1328.4"/>
  <g>
    <path class="cls-9" d="M401.6,504.5c-10.1,5.6-21.9,3-26.4-5.8-4.5-8.8,0-20.5,10-26.1s21.9-3,26.4,5.8c4.5,8.8,0,20.5-10,26.1Z"/>
    <g>
      <path class="cls-9" d="M469.6,348.8c-19.7-7.5-25.9-28.2-35.2-40.7-20.3-27.5-62.4-25.4-105.2-23.4-72.5,3.5-134.6,28.4-179.3,52.7,5.6,31.6-4.5,42.9,7.5,65.6,12.2,23.1,24.7,15.5,56.5,49.8,27.2,29.4,25.8,43.4,42.1,47.6,21.6,5.5,31.6-17.1,62.4-12.7,15.8,2.3,16.1,8.7,33,10,20.9,1.7,37.1-6.8,46.7-11.8,8.1-4.2,23.1-12.3,34.9-28.9,6.3-8.9,5.7-11.8,14.2-23.7,6.7-9.4,12.5-15.3,22.3-25,23.7-23.7,30.4-24.9,31.8-35.1.3-2.3-1.2-9.5-4.4-23.4-6.7,1.6-16.7,2.9-27.1-1Z"/>
      <path class="cls-9" d="M463.4,435.3c-9.1,5.1-20.6,1.2-25.7-8.6-5.1-9.8-1.8-21.9,7.3-27,9.1-5.1,20.6-1.2,25.7,8.6,5.1,9.8,1.8,21.9-7.3,27Z"/>
      <path class="cls-9" d="M481.4,349.2c7.2,7.1,18.1,9.1,27.1,4.1,1.5-.9,2.9-1.9,4.2-3.1-10.4-.3-20.8-.7-31.3-1.1Z"/>
      <path class="cls-9" d="M513.4,350.3c-7.8-.2-15.6-.5-23.4-.8-8.3,6-11,17.8-6,27.6,5.4,10.5,17.7,14.6,27.4,9.2,9.7-5.4,13.3-18.3,7.8-28.8-1.5-2.9-3.6-5.3-5.9-7.2Z"/>
      <path class="cls-9" d="M486.5,416.1c-11.9,6.7-26.2,3.3-31.7-7.6-5.6-10.8-.4-25,11.5-31.7s26.2-3.3,31.7,7.6c5.6,10.8.4,25-11.5,31.7Z"/>
      <path class="cls-9" d="M439.9,472.1c-11,6.1-24.2,2.9-29.4-7.3-5.2-10.2-.6-23.4,10.4-29.5,11-6.1,24.2-2.9,29.4,7.3s.6,23.4-10.4,29.5Z"/>
      <path class="cls-9" d="M419.3,480.4c-7.2,4-16.3,1-20.4-6.8s-1.4-17.4,5.8-21.4c7.2-4,16.3-1,20.4,6.8,4,7.8,1.4,17.4-5.8,21.4Z"/>
      <path class="cls-9" d="M375,508.2c-7.9,4.4-17.8,1.1-22.1-7.4-4.4-8.5-1.5-18.9,6.3-23.3,7.9-4.4,17.8-1.1,22.1,7.4s1.5,18.9-6.3,23.3Z"/>
      <path class="cls-9" d="M351.1,521.6c-11,6.1-24.9,1.5-31-10.4-6.1-11.9-2.1-26.4,8.9-32.6,11-6.1,24.9-1.5,31,10.4s2.1,26.4-8.9,32.6Z"/>
      <path class="cls-9" d="M323.7,506.8c-8.2,4.6-18.5,1.1-23-7.7s-1.6-19.6,6.6-24.2,18.5-1.1,23,7.7c4.5,8.8,1.6,19.6-6.6,24.2Z"/>
      <path class="cls-9" d="M296.3,504.8c-8.8,4.9-19.8,1.5-24.5-7.7s-1.4-20.5,7.4-25.4c8.8-4.9,19.8-1.5,24.5,7.7,4.7,9.1,1.4,20.5-7.4,25.4Z"/>
      <path class="cls-9" d="M271.1,515.7c-12.6,7-28.4,1.7-35.4-11.8-7-13.5-2.4-30.2,10.1-37.2,12.6-7,28.4-1.7,35.4,11.8,7,13.5,2.4,30.2-10.1,37.2Z"/>
      <path class="cls-9" d="M237.8,485.3c-7.5,4.2-17.1,1-21.2-7.1-4.2-8.1-1.5-18.1,6.1-22.3,7.5-4.2,17.1-1,21.2,7.1,4.2,8.1,1.5,18.1-6.1,22.3Z"/>
      <path class="cls-9" d="M218.2,474.1c-10.4,5.8-23,2.2-28.3-7.9-5.2-10.2-1.1-23.1,9.3-28.9s23-2.2,28.3,7.9c5.2,10.2,1.1,23.1-9.3,28.9Z"/>
      <path class="cls-9" d="M198.4,445.7c-8.2,4.6-18.5,1.1-23-7.7s-1.6-19.6,6.6-24.2c8.2-4.6,18.5-1.1,23,7.7,4.5,8.8,1.6,19.6-6.6,24.2Z"/>
      <path class="cls-9" d="M168.3,421.4c-10.7,6-24.2,1.5-30.1-10.1-5.9-11.5-2.1-25.7,8.6-31.6s24.2-1.5,30.1,10.1c5.9,11.5,2.1,25.7-8.6,31.6Z"/>
      <path class="cls-9" d="M167,389c-9.1,5.1-20.6,1.2-25.7-8.6-5.1-9.8-1.8-21.9,7.3-27,9.1-5.1,20.6-1.2,25.7,8.6,5.1,9.8,1.8,21.9-7.3,27Z"/>
      <path class="cls-9" d="M142,337.1c-1.2,4.1-.9,8.8,1.2,13.1,4.2,8.1,13.7,11.3,21.2,7.1,6.6-3.7,9.5-11.7,7.4-19.1-9.9-.2-19.9-.6-29.8-1.1Z"/>
    </g>
  </g>
  <g>
    <path class="cls-9" d="M478.1,621.2c-8.6-4.9-13.1-15.8-9.9-24.3,3.1-8.5,12.6-11.4,21.3-6.4,8.6,4.9,13.1,15.8,9.9,24.3-3.1,8.5-12.6,11.4-21.3,6.4Z"/>
    <g>
      <path class="cls-9" d="M609.1,589.5c-5.4-19.9,4.2-36.3,7.2-50.6,6.6-31.4-16.2-64-39.3-97.1-39.2-56.1-86.4-92-124.2-114.3-16.7,21.9-28.8,20.1-36.8,42.2-8.1,22.5,3,28.4-2,72.7-4.3,38-13.7,44.6-7.9,60,7.6,20.3,26.7,15.8,39.7,42.9,6.7,13.9,2.9,17.7,10.7,31.9,9.7,17.6,23.2,25.9,31.2,30.8,6.8,4.1,19.4,11.7,35.7,11.9,8.8.1,10.2-1.9,21.9-1.8,9.3.1,15.9,1.6,26.9,4,26.8,5.9,31,10.5,37.9,6,1.6-1,5.3-6.2,12.3-16.4-4.5-4.5-10.4-11.8-13.3-22.3Z"/>
      <path class="cls-9" d="M552.5,632.4c-7.8-4.5-11.3-15.8-7.8-25.3s12.6-13.5,20.4-9c7.8,4.5,11.3,15.8,7.8,25.3-3.5,9.5-12.6,13.5-20.4,9Z"/>
      <path class="cls-9" d="M614.8,599.2c-.7,9.7,3.6,19.5,11.3,23.9,1.3.8,2.7,1.3,4,1.7-5.1-8.5-10.2-17-15.3-25.6Z"/>
      <path class="cls-9" d="M630.6,625.4c-3.8-6.4-7.7-12.7-11.5-19.1-7.9-3.3-16.7,1.1-20.1,10.5-3.7,10.1,0,22.2,8.4,27,8.3,4.8,18.1.5,21.9-9.7,1-2.8,1.5-5.8,1.4-8.7Z"/>
      <path class="cls-9" d="M576.1,640.3c-10.2-5.9-15.4-19.1-11.6-29.6,3.8-10.5,15.3-14.2,25.5-8.3,10.2,5.9,15.4,19.1,11.6,29.6s-15.3,14.2-25.5,8.3Z"/>
      <path class="cls-9" d="M517.7,633.9c-9.4-5.4-14.1-17.7-10.5-27.5,3.6-9.8,14.2-13.4,23.6-7.9,9.4,5.4,14.1,17.7,10.5,27.5-3.6,9.8-14.2,13.4-23.6,7.9Z"/>
      <path class="cls-9" d="M502,622c-6.2-3.6-9-12.5-6.2-20,2.8-7.5,10-10.7,16.2-7.2,6.2,3.6,9,12.5,6.2,20-2.8,7.5-10,10.7-16.2,7.2Z"/>
      <path class="cls-9" d="M462.1,602c-6.7-3.9-9.7-13.6-6.7-21.8,3-8.2,10.9-11.7,17.6-7.8,6.7,3.9,9.7,13.6,6.7,21.8-3,8.2-10.9,11.7-17.6,7.8Z"/>
      <path class="cls-9" d="M441.6,590.2c-9.4-5.4-13.6-19.1-9.4-30.5s15.3-16.3,24.7-10.9c9.4,5.4,13.6,19.1,9.4,30.5-4.2,11.4-15.3,16.3-24.7,10.9Z"/>
      <path class="cls-9" d="M436.8,560.2c-7-4-10.1-14.2-7-22.7,3.1-8.5,11.3-12.1,18.3-8.1s10.1,14.2,7,22.7c-3.1,8.5-11.3,12.1-18.3,8.1Z"/>
      <path class="cls-9" d="M424,537.1c-7.5-4.3-11-15-7.8-23.8,3.2-8.8,12-12.5,19.5-8.1,7.5,4.3,11,15,7.8,23.8s-12,12.5-19.5,8.1Z"/>
      <path class="cls-9" d="M404.4,523c-10.8-6.2-15.6-21.8-10.8-34.9,4.8-13.1,17.4-18.6,28.2-12.5,10.8,6.2,15.6,21.8,10.8,34.9-4.8,13.1-17.4,18.6-28.2,12.5Z"/>
      <path class="cls-9" d="M406.2,479.6c-6.5-3.7-9.4-13.1-6.5-20.9,2.9-7.8,10.5-11.2,16.9-7.5,6.5,3.7,9.4,13.1,6.5,20.9s-10.5,11.2-16.9,7.5Z"/>
      <path class="cls-9" d="M403.1,457.7c-8.9-5.1-13.2-17.2-9.5-27,3.6-9.8,13.7-13.6,22.6-8.5,8.9,5.1,13.2,17.2,9.5,27-3.6,9.8-13.7,13.6-22.6,8.5Z"/>
      <path class="cls-9" d="M410.5,426.2c-7-4-10.1-14.2-7-22.7,3.1-8.5,11.3-12.1,18.3-8.1,7,4,10.1,14.2,7,22.7-3.1,8.5-11.3,12.1-18.3,8.1Z"/>
      <path class="cls-9" d="M410.2,388.7c-9.2-5.3-13.3-18.5-9.2-29.6s14.8-15.9,24-10.6c9.2,5.3,13.3,18.5,9.2,29.6s-14.8,15.9-24,10.6Z"/>
      <path class="cls-9" d="M429.5,369.7c-7.8-4.5-11.3-15.8-7.8-25.3,3.5-9.5,12.6-13.5,20.4-9,7.8,4.5,11.3,15.8,7.8,25.3-3.5,9.5-12.6,13.5-20.4,9Z"/>
      <path class="cls-9" d="M448.9,321.1c-3.2,1.3-6,4.1-7.4,8.2-2.9,7.8,0,17.2,6.5,20.9,5.6,3.2,12.1,1.1,15.6-4.7-4.9-8.1-9.8-16.2-14.6-24.4Z"/>
    </g>
  </g>
  <path class="cls-2" d="M297,550.3c-.8,1.4-1.6,2.8-2.4,4.2,14.7.1,29.9.5,45.4,1,14.2.5,28.1,1.2,41.6,2,1.7.2,3.4.5,5.3.8,4.1.8,7.6,2,10.5,3.2-2.2-1.5-5-3.1-8.5-4.4-1.6-.6-3.1-1.1-4.5-1.5-14.8-1.3-30.1-2.5-45.8-3.4-14.2-.9-28.1-1.5-41.6-2Z"/>
  <path class="cls-2" d="M199.2,550.6c.8,1.4,1.6,2.8,2.4,4.2-14.7.1-29.9.5-45.4,1-14.2.5-28.1,1.2-41.6,2-1.7.2-3.4.5-5.3.8-4.1.8-7.6,2-10.5,3.2,2.2-1.5,5-3.1,8.5-4.4,1.6-.6,3.1-1.1,4.5-1.5,14.8-1.3,30.1-2.5,45.8-3.4,14.2-.9,28.1-1.5,41.6-2Z"/>
  <g>
    <path class="cls-9" d="M150.4,568.8c6.2-3.4,9.4-11,7.2-16.9-2.3-5.9-9.1-7.9-15.3-4.5-6.2,3.4-9.4,11-7.2,16.9s9.1,7.9,15.3,4.5Z"/>
    <g>
      <path class="cls-9" d="M55.9,546.8c3.9-13.8-3-25.2-5.2-35.2-4.8-21.9,11.7-44.5,28.3-67.5,28.3-39,62.2-64,89.6-79.5,12.1,15.3,20.8,14,26.5,29.4,5.8,15.6-2.2,19.7,1.4,50.6,3.1,26.5,9.9,31,5.7,41.7-5.5,14.1-19.3,11-28.6,29.8-4.8,9.7-2.1,12.3-7.7,22.2-7,12.3-16.7,18-22.5,21.4-4.9,2.9-14,8.1-25.8,8.3-6.3,0-7.4-1.3-15.8-1.2-6.7,0-11.5,1.1-19.4,2.8-19.3,4.1-22.3,7.3-27.3,4.2-1.2-.7-3.8-4.3-8.8-11.4,3.2-3.1,7.5-8.2,9.6-15.5Z"/>
      <path class="cls-9" d="M96.8,576.6c5.6-3.1,8.1-11,5.6-17.6-2.5-6.6-9.1-9.4-14.7-6.3-5.6,3.1-8.1,11-5.6,17.6,2.5,6.6,9.1,9.4,14.7,6.3Z"/>
      <path class="cls-9" d="M51.8,553.5c.5,6.8-2.6,13.6-8.1,16.6-1,.5-1.9.9-2.9,1.2,3.7-5.9,7.4-11.8,11-17.8Z"/>
      <path class="cls-9" d="M40.5,571.8c2.8-4.4,5.5-8.9,8.3-13.3,5.7-2.3,12,.7,14.5,7.3,2.7,7,0,15.5-6,18.8-6,3.3-13.1.3-15.8-6.7-.7-2-1.1-4-1-6.1Z"/>
      <path class="cls-9" d="M79.7,582.1c7.4-4.1,11.1-13.3,8.3-20.6-2.8-7.3-11-9.9-18.4-5.8-7.4,4.1-11.1,13.3-8.3,20.6s11,9.9,18.4,5.8Z"/>
      <path class="cls-9" d="M121.8,577.7c6.8-3.8,10.2-12.3,7.6-19.2s-10.2-9.3-17-5.5c-6.8,3.8-10.2,12.3-7.6,19.2,2.6,6.8,10.2,9.3,17,5.5Z"/>
      <path class="cls-9" d="M133.2,569.4c4.5-2.5,6.5-8.7,4.5-13.9s-7.2-7.5-11.7-5c-4.5,2.5-6.5,8.7-4.5,13.9s7.2,7.5,11.7,5Z"/>
      <path class="cls-9" d="M161.9,555.5c4.9-2.7,7-9.5,4.9-15.2-2.2-5.7-7.9-8.1-12.7-5.4-4.9,2.7-7,9.5-4.9,15.2,2.2,5.7,7.9,8.1,12.7,5.4Z"/>
      <path class="cls-9" d="M176.6,547.3c6.8-3.8,9.8-13.3,6.8-21.2-3-8-11-11.4-17.8-7.6-6.8,3.8-9.8,13.3-6.8,21.2,3,8,11,11.4,17.8,7.6Z"/>
      <path class="cls-9" d="M180.2,526.4c5-2.8,7.3-9.9,5.1-15.8-2.3-5.9-8.2-8.4-13.2-5.6-5,2.8-7.3,9.9-5.1,15.8,2.3,5.9,8.2,8.4,13.2,5.6Z"/>
      <path class="cls-9" d="M189.4,510.3c5.4-3,7.9-10.4,5.6-16.6s-8.6-8.7-14.1-5.7c-5.4,3-7.9,10.4-5.6,16.6,2.3,6.1,8.6,8.7,14.1,5.7Z"/>
      <path class="cls-9" d="M203.5,500.5c7.8-4.3,11.2-15.2,7.8-24.3-3.5-9.1-12.6-13-20.3-8.7-7.8,4.3-11.2,15.2-7.8,24.3,3.5,9.1,12.6,13,20.3,8.7Z"/>
      <path class="cls-9" d="M202.2,470.3c4.7-2.6,6.7-9.1,4.7-14.6-2.1-5.5-7.5-7.8-12.2-5.2-4.7,2.6-6.7,9.1-4.7,14.6,2.1,5.5,7.5,7.8,12.2,5.2Z"/>
      <path class="cls-9" d="M204.5,455.1c6.4-3.5,9.5-12,6.9-18.8-2.6-6.8-9.9-9.5-16.3-5.9-6.4,3.5-9.5,12-6.9,18.8s9.9,9.5,16.3,5.9Z"/>
      <path class="cls-9" d="M199.1,433.1c5-2.8,7.3-9.9,5.1-15.8-2.3-5.9-8.2-8.4-13.2-5.6-5,2.8-7.3,9.9-5.1,15.8,2.3,5.9,8.2,8.4,13.2,5.6Z"/>
      <path class="cls-9" d="M199.3,407.1c6.6-3.7,9.6-12.9,6.6-20.6s-10.7-11-17.3-7.4c-6.6,3.7-9.6,12.9-6.6,20.6s10.7,11,17.3,7.4Z"/>
      <path class="cls-9" d="M185.4,393.9c5.6-3.1,8.1-11,5.6-17.6s-9.1-9.4-14.7-6.3c-5.6,3.1-8.1,11-5.6,17.6,2.5,6.6,9.1,9.4,14.7,6.3Z"/>
      <path class="cls-9" d="M171.4,360c2.3.9,4.3,2.9,5.4,5.7,2.1,5.5,0,12-4.7,14.6-4.1,2.2-8.7.8-11.2-3.2,3.6-5.6,7.1-11.3,10.5-17Z"/>
    </g>
  </g>
  <image width="188" height="195" transform="translate(273 635)" xlink:href="chivigg-1.png"/>
  <image width="141" height="156" transform="translate(80 643)" xlink:href="chivigg-2.png"/>
  <g>
    <path class="cls-9" d="M544.3,782.1c-8.6-4.9-13.1-15.8-9.9-24.3,3.1-8.5,12.6-11.4,21.3-6.4,8.6,4.9,13.1,15.8,9.9,24.3-3.1,8.5-12.6,11.4-21.3,6.4Z"/>
    <g>
      <path class="cls-9" d="M675.4,750.4c-5.4-19.9,4.2-36.3,7.2-50.6,6.6-31.4-16.2-64-39.3-97.1-39.2-56.1-86.4-92-124.2-114.3-16.7,21.9-28.8,20.1-36.8,42.2-8.1,22.5,3,28.4-2,72.7-4.3,38-13.7,44.6-7.9,60,7.6,20.3,26.7,15.8,39.7,42.9,6.7,13.9,2.9,17.7,10.7,31.9,9.7,17.6,23.2,25.9,31.2,30.8,6.8,4.1,19.4,11.7,35.7,11.9,8.8.1,10.2-1.9,21.9-1.8,9.3.1,15.9,1.6,26.9,4,26.8,5.9,31,10.5,37.9,6,1.6-1,5.3-6.2,12.3-16.4-4.5-4.5-10.4-11.8-13.3-22.3Z"/>
      <path class="cls-9" d="M618.7,793.3c-7.8-4.5-11.3-15.8-7.8-25.3,3.5-9.5,12.6-13.5,20.4-9,7.8,4.5,11.3,15.8,7.8,25.3-3.5,9.5-12.6,13.5-20.4,9Z"/>
      <path class="cls-9" d="M681.1,760.1c-.7,9.7,3.6,19.5,11.3,23.9,1.3.8,2.7,1.3,4,1.7-5.1-8.5-10.2-17-15.3-25.6Z"/>
      <path class="cls-9" d="M696.8,786.3c-3.8-6.4-7.7-12.7-11.5-19.1-7.9-3.3-16.7,1.1-20.1,10.5-3.7,10.1,0,22.2,8.4,27,8.3,4.8,18.1.5,21.9-9.7,1-2.8,1.5-5.8,1.4-8.7Z"/>
      <path class="cls-9" d="M642.4,801.1c-10.2-5.9-15.4-19.1-11.6-29.6s15.3-14.2,25.5-8.3c10.2,5.9,15.4,19.1,11.6,29.6-3.8,10.5-15.3,14.2-25.5,8.3Z"/>
      <path class="cls-9" d="M583.9,794.8c-9.4-5.4-14.1-17.7-10.5-27.5,3.6-9.8,14.2-13.4,23.6-7.9,9.4,5.4,14.1,17.7,10.5,27.5-3.6,9.8-14.2,13.4-23.6,7.9Z"/>
      <path class="cls-9" d="M568.2,782.9c-6.2-3.6-9-12.5-6.2-20,2.8-7.5,10-10.7,16.2-7.2,6.2,3.6,9,12.5,6.2,20s-10,10.7-16.2,7.2Z"/>
      <path class="cls-9" d="M528.4,762.9c-6.7-3.9-9.7-13.6-6.7-21.8,3-8.2,10.9-11.7,17.6-7.8,6.7,3.9,9.7,13.6,6.7,21.8s-10.9,11.7-17.6,7.8Z"/>
      <path class="cls-9" d="M507.9,751.1c-9.4-5.4-13.6-19.1-9.4-30.5,4.2-11.4,15.3-16.3,24.7-10.9,9.4,5.4,13.6,19.1,9.4,30.5-4.2,11.4-15.3,16.3-24.7,10.9Z"/>
      <path class="cls-9" d="M503,721.1c-7-4-10.1-14.2-7-22.7,3.1-8.5,11.3-12.1,18.3-8.1,7,4,10.1,14.2,7,22.7-3.1,8.5-11.3,12.1-18.3,8.1Z"/>
      <path class="cls-9" d="M490.3,698c-7.5-4.3-11-15-7.8-23.8,3.2-8.8,12-12.5,19.5-8.1,7.5,4.3,11,15,7.8,23.8-3.2,8.8-12,12.5-19.5,8.1Z"/>
      <path class="cls-9" d="M470.7,683.9c-10.8-6.2-15.6-21.8-10.8-34.9,4.8-13.1,17.4-18.6,28.2-12.5,10.8,6.2,15.6,21.8,10.8,34.9-4.8,13.1-17.4,18.6-28.2,12.5Z"/>
      <path class="cls-9" d="M472.5,640.5c-6.5-3.7-9.4-13.1-6.5-20.9,2.9-7.8,10.5-11.2,16.9-7.5,6.5,3.7,9.4,13.1,6.5,20.9s-10.5,11.2-16.9,7.5Z"/>
      <path class="cls-9" d="M469.3,618.6c-8.9-5.1-13.2-17.2-9.5-27,3.6-9.8,13.7-13.6,22.6-8.5,8.9,5.1,13.2,17.2,9.5,27-3.6,9.8-13.7,13.6-22.6,8.5Z"/>
      <path class="cls-9" d="M476.8,587c-7-4-10.1-14.2-7-22.7,3.1-8.5,11.3-12.1,18.3-8.1,7,4,10.1,14.2,7,22.7-3.1,8.5-11.3,12.1-18.3,8.1Z"/>
      <path class="cls-9" d="M476.4,549.6c-9.2-5.3-13.3-18.5-9.2-29.6s14.8-15.9,24-10.6,13.3,18.5,9.2,29.6c-4.1,11.1-14.8,15.9-24,10.6Z"/>
      <path class="cls-9" d="M495.8,530.6c-7.8-4.5-11.3-15.8-7.8-25.3,3.5-9.5,12.6-13.5,20.4-9,7.8,4.5,11.3,15.8,7.8,25.3s-12.6,13.5-20.4,9Z"/>
      <path class="cls-9" d="M515.2,482c-3.2,1.3-6,4.1-7.4,8.2-2.9,7.8,0,17.2,6.5,20.9,5.6,3.2,12.1,1.1,15.6-4.7-4.9-8.1-9.8-16.2-14.6-24.4Z"/>
    </g>
  </g>
  <path class="cls-12" d="M214.7,746.5c.6.8,4.3,7.7,12.1,8.8,6.5.8,12.7-2.7,16.1-8.8,2.2,1.5,9.6,6.1,19.9,4.6,11.8-1.9,18.6-11.5,19.9-13.4"/>
  <path class="cls-12" d="M214.5,744.7c.6.8,4.3,7.7,12.1,8.8,6.5.8,12.7-2.7,16.1-8.8,2.2,1.5,9.6,6.1,19.9,4.6,11.8-1.9,18.6-11.5,19.9-13.4"/>
</svg>