<?xml version="1.0" encoding="UTF-8"?>
<svg id="Capa_1" data-name="Capa 1" xmlns="http://www.w3.org/2000/svg" version="1.1" viewBox="0 0 1366 768">
  <defs>
    <style>
      .cls-1 {
        fill: #79c679;
        stroke-width: 0px;
      }

      .cls-2 {
        opacity: .5;
      }
    </style>
  </defs>
  <g class="cls-2">
    <path class="cls-1" d="M109,768c-25.9-5.2-63.2-17-78-47-26.5-54,51-103.5,54-202,2.8-91.2-61.8-112.8-68-208-3.5-54.5,12.9-119.2,70-194,20.2-22.2,54.6-54.9,105-78,95.4-43.7,166.8-14.5,419,13,209,22.8,248.8,17,280,10,82.6-18.5,98.4-43.8,182-49,31.5-2,168.8-10.6,225,72,10,14.7,15.2,28.9,18,39,32.7,95,22.9,158.9,6,201-27.4,68.3-80.8,96.9-70,145,9.4,41.7,54.8,43.9,75,93,17.7,43,3.2,90.7-14,127-7.1,13.4-20.7,34.8-45,49-91.2,53.3-199.6-72.6-378-75-96-1.3-72.1,35-215,52-161.5,19.2-224.6-23.4-377-2-84.8,11.9-150.6,37.1-189,54Z"/>
  </g>
</svg>