<?xml version="1.0" encoding="UTF-8"?>
<svg id="Capa_1" data-name="Capa 1" xmlns="http://www.w3.org/2000/svg" version="1.1" xmlns:xlink="http://www.w3.org/1999/xlink" viewBox="0 0 1920 1080">
  <defs>
    <style>
      .cls-1 {
        fill: #5f844e;
      }

      .cls-1, .cls-2 {
        stroke-width: 0px;
      }

      .cls-2 {
        fill: #136817;
      }
    </style>
  </defs>
  <g>
    <ellipse class="cls-1" cx="960.4" cy="540.3" rx="362.4" ry="349"/>
    <image width="687" height="641" transform="translate(616.8 217.3)" xlink:href="inicio-1.png"/>
  </g>
  <g>
    <path class="cls-2" d="M755.7,617.9c0-13.9,2.6-125.3,7.8-135,2.4-4.4,6.5-7.3,11.1-7.3,7.2,0,13.5,6.5,13.5,15.1s-1.5,15.7-2.2,23c-2.6,27.4-3.9,75-3.9,102.5s-26.2,19.2-26.2,1.8Z"/>
    <path class="cls-2" d="M889.6,492.8c0,17.6-2.7,36.3-3.9,53.9-1.4,22.2-2.9,44.2-4.1,66.4-.7,21.4-20.3,28.2-31.2,9.9-9.5-15.5-21.6-47.6-25.2-56.7,1,16.5,1.2,33.5,1.2,50.2s-22.6,20.2-25,6.1c-2-4-4.3-119.6-4.3-131.7s6-15.7,13.1-15.7,11.1,6.1,15.2,11.9c9.4,14.3,23.2,68.4,32.3,88.8.9-13.5,4.4-86.3,7.5-91.6,6.8-12.1,24.3-7.9,24.3,8.3Z"/>
    <path class="cls-2" d="M899.3,617.9c0-13.9,2.6-125.3,7.8-135,2.4-4.4,6.5-7.3,11.1-7.3,7.2,0,13.5,6.5,13.5,15.1s-1.5,15.7-2.2,23c-2.6,27.4-3.9,75-3.9,102.5s-26.2,19.2-26.2,1.8Z"/>
    <path class="cls-2" d="M1039.6,591.3c0,25.8-26.2,41-44.4,41-62.3,0-64.5-111.8-24.3-145.4,14.1-11.7,34.7-13.3,48.7,1.2,10.2,10.7,15.8,27.8,15.8,44.4s-13.5,19.4-20.4,12.9c-4.9-4.6-6-14.1-8-22.8-4.9-22.4-21.6-14.3-29.6,1.2-5.4,10.7-8,24.8-8,35.1,0,15.3,3.2,38.3,18.7,43.8,8.9,3.2,19.2.2,24.5-11.7,3.4-7.1,4.1-15.5,13.8-15.5s13.3,6.9,13.3,15.7Z"/>
    <path class="cls-2" d="M1051.9,617.9c0-13.9,2.6-125.3,7.8-135,2.4-4.4,6.5-7.3,11.1-7.3,7.2,0,13.5,6.5,13.5,15.1s-1.5,15.7-2.2,23c-2.6,27.4-3.9,75-3.9,102.5s-26.2,19.2-26.2,1.8Z"/>
    <path class="cls-2" d="M1170.9,489.8c27.1,29.5,28.3,95.8,1.2,128.1-6.8,8.1-15.3,13.5-25.9,13.5-37.6,0-51.4-40.7-51.4-79.3s7-46.8,20.6-62.1c15.5-17.5,39.3-18.2,55.5-.2ZM1158.5,525.1c-7.5-19.4-21.6-19.8-30.5.2-3.9,8.9-5.3,19.6-5.3,29.4,0,14.5,4.8,43.6,21.1,43.6,26.2,0,20.9-56.7,14.6-73.2Z"/>
  </g>
</svg>