<?xml version="1.0" encoding="UTF-8"?>
<svg id="Capa_1" data-name="Capa 1" xmlns="http://www.w3.org/2000/svg" version="1.1" viewBox="0 0 1366 768">
  <defs>
    <style>
      .cls-1 {
        fill: #000;
        stroke-width: 0px;
      }

      .cls-2 {
        fill: #f2e9cc;
        stroke: #000;
        stroke-miterlimit: 10;
      }
    </style>
  </defs>
  <rect class="cls-2" x="256.5" y="309.5" width="822" height="193.5" rx="12" ry="12"/>
  <g>
    <path class="cls-1" d="M309.5,354.1c0,3.7,1.3,5.2,2.7,5.2s1.6-.3,2.2-.8l.2,2c-.5.4-1.4.9-2.6.9-2.4,0-3.9-3.1-3.9-7.6s1.4-8.1,3.7-8.1,3.3,4.3,3.3,7.1,0,1,0,1.3h-5.5ZM313.7,352.1c0-1.7-.4-4.5-2-4.5s-2.1,2.6-2.2,4.5h4.2Z"/>
    <path class="cls-1" d="M316.9,350.1c0-1.6,0-2.8,0-4.1h1.3v2.5h.1c.4-1.4,1.3-2.8,2.6-2.8s2.8,1.2,2.8,6.4v9h-1.4v-8.7c0-2.4-.5-4.5-1.8-4.5s-1.7,1.3-1.9,2.8c0,.3,0,.8,0,1.3v9.1h-1.4v-11Z"/>
    <path class="cls-1" d="M336,357c0,1.6,0,2.9,0,4.1h-1.3v-2.5h-.1c-.4,1.2-1.2,2.8-2.6,2.8s-2.7-1.3-2.7-6.6v-8.8h1.4v8.4c0,2.9.5,4.8,1.8,4.8s1.6-1.3,1.9-2.5c0-.4.1-.9.1-1.4v-9.3h1.4v11Z"/>
    <path class="cls-1" d="M338.4,350.1c0-1.6,0-2.8,0-4.1h1.3v2.5h.1c.4-1.4,1.3-2.8,2.6-2.8s2.8,1.2,2.8,6.4v9h-1.4v-8.7c0-2.4-.5-4.5-1.8-4.5s-1.7,1.3-1.9,2.8c0,.3,0,.8,0,1.3v9.1h-1.4v-11Z"/>
    <path class="cls-1" d="M350.9,351c0-1.9,0-3.5,0-4.9h1.3v2.6h0c.6-1.8,1.5-2.9,2.8-2.9,1.9,0,3.3,3.1,3.3,7.7s-1.7,8.1-3.6,8.1-2-.9-2.4-2.4h0v8.2h-1.4v-16.4ZM352.3,355c0,.4,0,.8,0,1.1.3,1.9,1.1,3.2,2.1,3.2,1.5,0,2.4-2.4,2.4-5.8s-.8-5.6-2.3-5.6-1.9,1.3-2.2,3.4c0,.3,0,.7,0,1.1v2.6Z"/>
    <path class="cls-1" d="M364.5,361.2v-1.9h-.2c-.4,1.2-1.3,2.2-2.4,2.2-1.6,0-2.4-2.2-2.4-4.3,0-3.7,1.7-5.6,4.7-5.6v-.3c0-1.2-.2-3.5-1.8-3.5s-1.5.4-2.1,1.1l-.3-1.8c.7-.8,1.6-1.3,2.6-1.3,2.4,0,3,3.2,3,6.2v5.6c0,1.3,0,2.6.1,3.6h-1.3ZM364.3,353.4c-1.6,0-3.3.5-3.3,3.4s.6,2.6,1.4,2.6,1.7-1.2,1.9-2.5c0-.3,0-.6,0-.9v-2.6Z"/>
    <path class="cls-1" d="M367.8,358.3c.4.5,1.2,1.1,1.9,1.1,1,0,1.5-1,1.5-2.2s-.4-2-1.5-2.8c-1.4-1-2.1-2.5-2.1-4.3s1-4.4,2.7-4.4,1.5.4,1.9.9l-.4,2c-.3-.4-.9-.9-1.6-.9s-1.3.9-1.3,2.1.5,1.8,1.5,2.6c1.4,1,2.1,2.3,2.1,4.6s-1.1,4.5-2.9,4.5-1.7-.4-2.2-1l.4-2.1Z"/>
    <path class="cls-1" d="M378.8,361.2v-1.9h-.2c-.4,1.2-1.3,2.2-2.4,2.2-1.6,0-2.4-2.2-2.4-4.3,0-3.7,1.7-5.6,4.7-5.6v-.3c0-1.2-.2-3.5-1.8-3.5s-1.5.4-2.1,1.1l-.3-1.8c.7-.8,1.6-1.3,2.6-1.3,2.4,0,3,3.2,3,6.2v5.6c0,1.3,0,2.6.1,3.6h-1.3ZM378.6,353.4c-1.6,0-3.3.5-3.3,3.4s.6,2.6,1.4,2.6,1.7-1.2,1.9-2.5c0-.3,0-.6,0-.9v-2.6Z"/>
    <path class="cls-1" d="M389.1,339v18.3c0,1.3,0,2.9,0,3.9h-1.3v-2.6h0c-.4,1.7-1.4,3-2.7,3-1.9,0-3.4-3.1-3.4-7.7,0-5,1.6-8.1,3.5-8.1s2,1.1,2.4,2.3h0v-9h1.4ZM387.7,352.2c0-.3,0-.8,0-1.2-.2-1.7-1-3.2-2.1-3.2s-2.4,2.5-2.4,5.8.8,5.6,2.3,5.6,1.8-1.2,2.1-3.3c0-.4,0-.7,0-1.2v-2.6Z"/>
    <path class="cls-1" d="M398.6,353.5c0,5.6-2,8-3.9,8s-3.8-3-3.8-7.8,1.7-8,3.9-8,3.8,3.2,3.8,7.8ZM392.4,353.6c0,3.3,1,5.8,2.4,5.8s2.4-2.5,2.4-5.9-.7-5.8-2.4-5.8-2.4,3-2.4,5.9Z"/>
    <path class="cls-1" d="M403.9,339h1.4v22.2h-1.4v-22.2Z"/>
    <path class="cls-1" d="M408.5,354.1c0,3.7,1.3,5.2,2.7,5.2s1.6-.3,2.2-.8l.2,2c-.5.4-1.4.9-2.6.9-2.4,0-3.9-3.1-3.9-7.6s1.4-8.1,3.7-8.1,3.3,4.3,3.3,7.1,0,1,0,1.3h-5.5ZM412.7,352.1c0-1.7-.4-4.5-2-4.5s-2.1,2.6-2.2,4.5h4.2Z"/>
    <path class="cls-1" d="M414,365.5c.7,0,1.2-.4,1.6-1.2.4-.9.5-2.1.5-5.7v-12.6h1.4v13.7c0,2.9-.2,4.8-.9,6.2-.6,1.2-1.7,1.7-2.4,1.7v-2.2ZM417.7,341.8c0,.9-.3,1.7-.9,1.7s-.9-.8-.9-1.7.4-1.7.9-1.7.9.7.9,1.7Z"/>
    <path class="cls-1" d="M424.2,361.2v-1.9h-.2c-.4,1.2-1.3,2.2-2.4,2.2-1.6,0-2.4-2.2-2.4-4.3,0-3.7,1.7-5.6,4.7-5.6v-.3c0-1.2-.2-3.5-1.8-3.5s-1.5.4-2.1,1.1l-.3-1.8c.7-.8,1.6-1.3,2.6-1.3,2.4,0,3,3.2,3,6.2v5.6c0,1.3,0,2.6.1,3.6h-1.3ZM424,353.4c-1.6,0-3.3.5-3.3,3.4s.6,2.6,1.4,2.6,1.7-1.2,1.9-2.5c0-.3,0-.6,0-.9v-2.6Z"/>
    <path class="cls-1" d="M427.7,350.1c0-1.6,0-2.8,0-4.1h1.3v2.5h.1c.4-1.4,1.3-2.8,2.6-2.8s2.8,1.2,2.8,6.4v9h-1.4v-8.7c0-2.4-.5-4.5-1.8-4.5s-1.7,1.3-1.9,2.8c0,.3,0,.8,0,1.3v9.1h-1.4v-11Z"/>
    <path class="cls-1" d="M443.9,353.5c0,5.6-2,8-3.9,8s-3.8-3-3.8-7.8,1.7-8,3.9-8,3.8,3.2,3.8,7.8ZM437.6,353.6c0,3.3,1,5.8,2.4,5.8s2.4-2.5,2.4-5.9-.7-5.8-2.4-5.8-2.4,3-2.4,5.9Z"/>
    <path class="cls-1" d="M444.4,365c.4-1.8.8-5.2,1-7.5l1.6-.3c-.4,2.6-1.1,6.1-1.5,7.6l-1,.2Z"/>
    <path class="cls-1" d="M452.1,339h1.4v22.2h-1.4v-22.2Z"/>
    <path class="cls-1" d="M460.3,361.2v-1.9h-.2c-.4,1.2-1.3,2.2-2.4,2.2-1.6,0-2.4-2.2-2.4-4.3,0-3.7,1.7-5.6,4.7-5.6v-.3c0-1.2-.2-3.5-1.8-3.5s-1.5.4-2.1,1.1l-.3-1.8c.7-.8,1.6-1.3,2.6-1.3,2.4,0,3,3.2,3,6.2v5.6c0,1.3,0,2.6.1,3.6h-1.3ZM460.1,353.4c-1.6,0-3.3.5-3.3,3.4s.6,2.6,1.4,2.6,1.7-1.2,1.9-2.5c0-.3,0-.6,0-.9v-2.6Z"/>
    <path class="cls-1" d="M463.6,358.3c.4.5,1.2,1.1,1.9,1.1,1,0,1.5-1,1.5-2.2s-.4-2-1.5-2.8c-1.4-1-2.1-2.5-2.1-4.3s1-4.4,2.7-4.4,1.5.4,1.9.9l-.4,2c-.3-.4-.9-.9-1.6-.9s-1.3.9-1.3,2.1.5,1.8,1.5,2.6c1.4,1,2.1,2.3,2.1,4.6s-1.1,4.5-2.9,4.5-1.7-.4-2.2-1l.4-2.1Z"/>
    <path class="cls-1" d="M473.7,351c0-1.9,0-3.5,0-4.9h1.3v2.6h0c.6-1.8,1.5-2.9,2.8-2.9,1.9,0,3.3,3.1,3.3,7.7s-1.7,8.1-3.6,8.1-2-.9-2.4-2.4h0v8.2h-1.4v-16.4ZM475.2,355c0,.4,0,.8,0,1.1.3,1.9,1.1,3.2,2.1,3.2,1.5,0,2.4-2.4,2.4-5.8s-.8-5.6-2.3-5.6-1.9,1.3-2.2,3.4c0,.3,0,.7,0,1.1v2.6Z"/>
    <path class="cls-1" d="M484.6,341.8c0,.9-.3,1.7-.9,1.7s-.9-.7-.9-1.7.4-1.7.9-1.7.9.7.9,1.7ZM483,361.2v-15.1h1.4v15.1h-1.4Z"/>
    <path class="cls-1" d="M486.8,350.8c0-1.8,0-3.3,0-4.7h1.3v3h.1c.4-2,1.2-3.3,2.2-3.3s.3,0,.4,0v2.6c-.1,0-.3,0-.5,0-1,0-1.7,1.5-1.9,3.5,0,.4,0,.8,0,1.3v8.1h-1.4v-10.4Z"/>
    <path class="cls-1" d="M496.4,361.2v-1.9h-.2c-.4,1.2-1.3,2.2-2.4,2.2-1.6,0-2.4-2.2-2.4-4.3,0-3.7,1.7-5.6,4.7-5.6v-.3c0-1.2-.2-3.5-1.8-3.5s-1.5.4-2.1,1.1l-.3-1.8c.7-.8,1.6-1.3,2.6-1.3,2.4,0,3,3.2,3,6.2v5.6c0,1.3,0,2.6.1,3.6h-1.3ZM496.2,353.4c-1.6,0-3.3.5-3.3,3.4s.6,2.6,1.4,2.6,1.7-1.2,1.9-2.5c0-.3,0-.6,0-.9v-2.6Z"/>
    <path class="cls-1" d="M499.9,350.1c0-1.6,0-2.8,0-4.1h1.3v2.4h.1c.4-1.4,1.2-2.8,2.5-2.8s1.9,1.2,2.2,3h0c.2-.8.6-1.5.9-2,.5-.7,1-1.1,1.7-1.1s2.6,1.3,2.6,6.6v8.9h-1.4v-8.5c0-2.9-.6-4.6-1.7-4.6s-1.4,1.2-1.7,2.5c0,.4-.1.9-.1,1.4v9.3h-1.4v-9.1c0-2.4-.6-4.1-1.6-4.1s-1.5,1.4-1.8,2.7c0,.4-.1.9-.1,1.3v9.1h-1.4v-11Z"/>
    <path class="cls-1" d="M515.1,341.8c0,.9-.3,1.7-.9,1.7s-.9-.7-.9-1.7.4-1.7.9-1.7.9.7.9,1.7ZM513.5,361.2v-15.1h1.4v15.1h-1.4Z"/>
    <path class="cls-1" d="M524.1,339v18.3c0,1.3,0,2.9,0,3.9h-1.3v-2.6h0c-.4,1.7-1.4,3-2.7,3-1.9,0-3.4-3.1-3.4-7.7,0-5,1.6-8.1,3.5-8.1s2,1.1,2.4,2.3h0v-9h1.4ZM522.7,352.2c0-.3,0-.8,0-1.2-.2-1.7-1-3.2-2.1-3.2s-2.4,2.5-2.4,5.8.8,5.6,2.3,5.6,1.8-1.2,2.1-3.3c0-.4,0-.7,0-1.2v-2.6Z"/>
    <path class="cls-1" d="M527.3,354.1c0,3.7,1.3,5.2,2.7,5.2s1.6-.3,2.2-.8l.2,2c-.5.4-1.4.9-2.6.9-2.4,0-3.9-3.1-3.9-7.6s1.4-8.1,3.7-8.1,3.3,4.3,3.3,7.1,0,1,0,1.3h-5.5ZM531.5,352.1c0-1.7-.4-4.5-2-4.5s-2.1,2.6-2.2,4.5h4.2Z"/>
    <path class="cls-1" d="M534.5,358.3c.4.5,1.2,1.1,1.9,1.1,1,0,1.5-1,1.5-2.2s-.4-2-1.5-2.8c-1.4-1-2.1-2.5-2.1-4.3s1-4.4,2.7-4.4,1.5.4,1.9.9l-.4,2c-.3-.4-.9-.9-1.6-.9s-1.3.9-1.3,2.1.5,1.8,1.5,2.6c1.4,1,2.1,2.3,2.1,4.6s-1.1,4.5-2.9,4.5-1.7-.4-2.2-1l.4-2.1Z"/>
    <path class="cls-1" d="M550.2,360.6c-.4.4-1.2.9-2.3.9-2.4,0-3.9-3.1-3.9-7.7s1.7-8,4.2-8,1.6.4,2,.8l-.3,2.1c-.3-.4-.9-.7-1.7-.7-1.8,0-2.8,2.6-2.8,5.7s1.2,5.6,2.7,5.6,1.4-.4,1.8-.7l.2,2.1Z"/>
    <path class="cls-1" d="M558.9,353.5c0,5.6-2,8-3.9,8s-3.8-3-3.8-7.8,1.7-8,3.9-8,3.8,3.2,3.8,7.8ZM552.7,353.6c0,3.3,1,5.8,2.4,5.8s2.4-2.5,2.4-5.9-.7-5.8-2.4-5.8-2.4,3-2.4,5.9Z"/>
    <path class="cls-1" d="M560.8,339h1.4v22.2h-1.4v-22.2Z"/>
    <path class="cls-1" d="M571.7,353.5c0,5.6-2,8-3.9,8s-3.8-3-3.8-7.8,1.7-8,3.9-8,3.8,3.2,3.8,7.8ZM565.5,353.6c0,3.3,1,5.8,2.4,5.8s2.4-2.5,2.4-5.9-.7-5.8-2.4-5.8-2.4,3-2.4,5.9Z"/>
    <path class="cls-1" d="M573.3,358.3c.4.5,1.2,1.1,1.9,1.1,1,0,1.5-1,1.5-2.2s-.4-2-1.5-2.8c-1.4-1-2.1-2.5-2.1-4.3s1-4.4,2.7-4.4,1.5.4,1.9.9l-.4,2c-.3-.4-.9-.9-1.6-.9s-1.3.9-1.3,2.1.5,1.8,1.5,2.6c1.4,1,2.1,2.3,2.1,4.6s-1.1,4.5-2.9,4.5-1.7-.4-2.2-1l.4-2.1Z"/>
    <path class="cls-1" d="M584.4,361.2v-1.9h-.2c-.4,1.2-1.3,2.2-2.4,2.2-1.6,0-2.4-2.2-2.4-4.3,0-3.7,1.7-5.6,4.7-5.6v-.3c0-1.2-.2-3.5-1.8-3.5s-1.5.4-2.1,1.1l-.3-1.8c.7-.8,1.6-1.3,2.6-1.3,2.4,0,3,3.2,3,6.2v5.6c0,1.3,0,2.6.1,3.6h-1.3ZM584.2,353.4c-1.6,0-3.3.5-3.3,3.4s.6,2.6,1.4,2.6,1.7-1.2,1.9-2.5c0-.3,0-.6,0-.9v-2.6Z"/>
    <path class="cls-1" d="M587.9,339h1.4v22.2h-1.4v-22.2Z"/>
    <path class="cls-1" d="M592.5,354.1c0,3.7,1.3,5.2,2.7,5.2s1.6-.3,2.2-.8l.2,2c-.5.4-1.4.9-2.6.9-2.4,0-3.9-3.1-3.9-7.6s1.4-8.1,3.7-8.1,3.3,4.3,3.3,7.1,0,1,0,1.3h-5.5ZM596.7,352.1c0-1.7-.4-4.5-2-4.5s-2.1,2.6-2.2,4.5h4.2Z"/>
    <path class="cls-1" d="M599.7,358.3c.4.5,1.2,1.1,1.9,1.1,1,0,1.5-1,1.5-2.2s-.4-2-1.5-2.8c-1.4-1-2.1-2.5-2.1-4.3s1-4.4,2.7-4.4,1.5.4,1.9.9l-.4,2c-.3-.4-.9-.9-1.6-.9s-1.3.9-1.3,2.1.5,1.8,1.5,2.6c1.4,1,2.1,2.3,2.1,4.6s-1.1,4.5-2.9,4.5-1.7-.4-2.2-1l.4-2.1Z"/>
    <path class="cls-1" d="M609.6,358.3c.4.5,1.2,1.1,1.9,1.1,1,0,1.5-1,1.5-2.2s-.4-2-1.5-2.8c-1.4-1-2.1-2.5-2.1-4.3s1-4.4,2.7-4.4,1.5.4,1.9.9l-.4,2c-.3-.4-.9-.9-1.6-.9s-1.3.9-1.3,2.1.5,1.8,1.5,2.6c1.4,1,2.1,2.3,2.1,4.6s-1.1,4.5-2.9,4.5-1.7-.4-2.2-1l.4-2.1Z"/>
    <path class="cls-1" d="M617,354.1c0,3.7,1.3,5.2,2.7,5.2s1.6-.3,2.2-.8l.2,2c-.5.4-1.4.9-2.6.9-2.4,0-3.9-3.1-3.9-7.6s1.4-8.1,3.7-8.1,3.3,4.3,3.3,7.1,0,1,0,1.3h-5.5ZM621.2,352.1c0-1.7-.4-4.5-2-4.5s-2.1,2.6-2.2,4.5h4.2Z"/>
    <path class="cls-1" d="M632.2,361.2v-1.9h-.2c-.4,1.2-1.3,2.2-2.4,2.2-1.6,0-2.4-2.2-2.4-4.3,0-3.7,1.7-5.6,4.7-5.6v-.3c0-1.2-.2-3.5-1.8-3.5s-1.5.4-2.1,1.1l-.3-1.8c.7-.8,1.6-1.3,2.6-1.3,2.4,0,3,3.2,3,6.2v5.6c0,1.3,0,2.6.1,3.6h-1.3ZM632,353.4c-1.6,0-3.3.5-3.3,3.4s.6,2.6,1.4,2.6,1.7-1.2,1.9-2.5c0-.3,0-.6,0-.9v-2.6Z"/>
    <path class="cls-1" d="M635.7,339h1.4v22.2h-1.4v-22.2Z"/>
    <path class="cls-1" d="M638.7,359.6l3.6-8.9c.3-.8.7-1.5,1-2.3h0c0,0-4.3,0-4.3,0v-2.2h6v1.7s-3.5,8.8-3.5,8.8c-.3.8-.7,1.6-1,2.4h0c0,0,4.6,0,4.6,0v2.2h-6.4v-1.6Z"/>
    <path class="cls-1" d="M650.9,361.2v-1.9h-.2c-.4,1.2-1.3,2.2-2.4,2.2-1.6,0-2.4-2.2-2.4-4.3,0-3.7,1.7-5.6,4.7-5.6v-.3c0-1.2-.2-3.5-1.8-3.5s-1.5.4-2.1,1.1l-.3-1.8c.7-.8,1.6-1.3,2.6-1.3,2.4,0,3,3.2,3,6.2v5.6c0,1.3,0,2.6.1,3.6h-1.3ZM650.7,353.4c-1.6,0-3.3.5-3.3,3.4s.6,2.6,1.4,2.6,1.7-1.2,1.9-2.5c0-.3,0-.6,0-.9v-2.6Z"/>
    <path class="cls-1" d="M654.3,361.2c0-1,0-2.6,0-3.9v-18.3h1.4v9.5h0c.5-1.7,1.4-2.8,2.7-2.8,2,0,3.3,3.1,3.3,7.7,0,5.4-1.8,8.1-3.5,8.1s-2.1-.8-2.6-2.8h0v2.5h-1.3ZM655.8,355.1c0,.3,0,.7,0,1,.3,1.9,1.1,3.2,2.1,3.2,1.5,0,2.4-2.3,2.4-5.8s-.8-5.6-2.3-5.6-1.9,1.3-2.2,3.4c0,.3,0,.7,0,1.1v2.7Z"/>
    <path class="cls-1" d="M668,361.2v-1.9h-.2c-.4,1.2-1.3,2.2-2.4,2.2-1.6,0-2.4-2.2-2.4-4.3,0-3.7,1.7-5.6,4.7-5.6v-.3c0-1.2-.2-3.5-1.8-3.5s-1.5.4-2.1,1.1l-.3-1.8c.7-.8,1.6-1.3,2.6-1.3,2.4,0,3,3.2,3,6.2v5.6c0,1.3,0,2.6.1,3.6h-1.3ZM667.8,353.4c-1.6,0-3.3.5-3.3,3.4s.6,2.6,1.4,2.6,1.7-1.2,1.9-2.5c0-.3,0-.6,0-.9v-2.6Z"/>
    <path class="cls-1" d="M671.5,350.1c0-1.6,0-2.8,0-4.1h1.3v2.5h.1c.4-1.4,1.3-2.8,2.6-2.8s2.8,1.2,2.8,6.4v9h-1.4v-8.7c0-2.4-.5-4.5-1.8-4.5s-1.7,1.3-1.9,2.8c0,.3,0,.8,0,1.3v9.1h-1.4v-11Z"/>
    <path class="cls-1" d="M684,339h1.4v9.4h0c.2-.8.6-1.5,1-1.9.4-.5.9-.8,1.5-.8,1.1,0,2.8,1.2,2.8,6.5v9h-1.4v-8.7c0-2.4-.5-4.5-1.8-4.5s-1.7,1.2-1.9,2.7c0,.4,0,.8,0,1.3v9.1h-1.4v-22.2Z"/>
    <path class="cls-1" d="M697.4,361.2v-1.9h-.2c-.4,1.2-1.3,2.2-2.4,2.2-1.6,0-2.4-2.2-2.4-4.3,0-3.7,1.7-5.6,4.7-5.6v-.3c0-1.2-.2-3.5-1.8-3.5s-1.5.4-2.1,1.1l-.3-1.8c.7-.8,1.6-1.3,2.6-1.3,2.4,0,3,3.2,3,6.2v5.6c0,1.3,0,2.6.1,3.6h-1.3ZM697.2,353.4c-1.6,0-3.3.5-3.3,3.4s.6,2.6,1.4,2.6,1.7-1.2,1.9-2.5c0-.3,0-.6,0-.9v-2.6Z"/>
    <path class="cls-1" d="M706.5,360.6c-.4.4-1.2.9-2.3.9-2.4,0-3.9-3.1-3.9-7.7s1.7-8,4.2-8,1.6.4,2,.8l-.3,2.1c-.3-.4-.9-.7-1.7-.7-1.8,0-2.8,2.6-2.8,5.7s1.2,5.6,2.7,5.6,1.4-.4,1.8-.7l.2,2.1Z"/>
    <path class="cls-1" d="M709.8,341.8c0,.9-.3,1.7-.9,1.7s-.9-.7-.9-1.7.4-1.7.9-1.7.9.7.9,1.7ZM708.2,361.2v-15.1h1.4v15.1h-1.4Z"/>
    <path class="cls-1" d="M716.4,361.2v-1.9h-.2c-.4,1.2-1.3,2.2-2.4,2.2-1.6,0-2.4-2.2-2.4-4.3,0-3.7,1.7-5.6,4.7-5.6v-.3c0-1.2-.2-3.5-1.8-3.5s-1.5.4-2.1,1.1l-.3-1.8c.7-.8,1.6-1.3,2.6-1.3,2.4,0,3,3.2,3,6.2v5.6c0,1.3,0,2.6.1,3.6h-1.3ZM716.2,353.4c-1.6,0-3.3.5-3.3,3.4s.6,2.6,1.4,2.6,1.7-1.2,1.9-2.5c0-.3,0-.6,0-.9v-2.6Z"/>
    <path class="cls-1" d="M724.1,354.1c0,3.7,1.3,5.2,2.7,5.2s1.6-.3,2.2-.8l.2,2c-.5.4-1.4.9-2.6.9-2.4,0-3.9-3.1-3.9-7.6s1.4-8.1,3.7-8.1,3.3,4.3,3.3,7.1,0,1,0,1.3h-5.5ZM728.3,352.1c0-1.7-.4-4.5-2-4.5s-2.1,2.6-2.2,4.5h4.2Z"/>
    <path class="cls-1" d="M731.5,339h1.4v22.2h-1.4v-22.2Z"/>
    <path class="cls-1" d="M744.4,360.6c-.4.4-1.2.9-2.3.9-2.4,0-3.9-3.1-3.9-7.7s1.7-8,4.2-8,1.6.4,2,.8l-.3,2.1c-.3-.4-.9-.7-1.7-.7-1.8,0-2.8,2.6-2.8,5.7s1.2,5.6,2.7,5.6,1.4-.4,1.8-.7l.2,2.1Z"/>
    <path class="cls-1" d="M747.7,341.8c0,.9-.3,1.7-.9,1.7s-.9-.7-.9-1.7.4-1.7.9-1.7.9.7.9,1.7ZM746.1,361.2v-15.1h1.4v15.1h-1.4Z"/>
    <path class="cls-1" d="M750.7,354.1c0,3.7,1.3,5.2,2.7,5.2s1.6-.3,2.2-.8l.2,2c-.5.4-1.4.9-2.6.9-2.4,0-3.9-3.1-3.9-7.6s1.4-8.1,3.7-8.1,3.3,4.3,3.3,7.1,0,1,0,1.3h-5.5ZM754.9,352.1c0-1.7-.4-4.5-2-4.5s-2.1,2.6-2.2,4.5h4.2Z"/>
    <path class="cls-1" d="M758.1,339h1.4v22.2h-1.4v-22.2Z"/>
    <path class="cls-1" d="M769.1,353.5c0,5.6-2,8-3.9,8s-3.8-3-3.8-7.8,1.7-8,3.9-8,3.8,3.2,3.8,7.8ZM762.8,353.6c0,3.3,1,5.8,2.4,5.8s2.4-2.5,2.4-5.9-.7-5.8-2.4-5.8-2.4,3-2.4,5.9Z"/>
    <path class="cls-1" d="M769.5,365c.4-1.8.8-5.2,1-7.5l1.6-.3c-.4,2.6-1.1,6.1-1.5,7.6l-1,.2Z"/>
    <path class="cls-1" d="M779,341.7v4.3h2.1v2.1h-2.1v8.1c0,1.9.3,2.9,1.1,2.9s.7,0,.8-.2v2.1c-.2.2-.7.4-1.2.4s-1.2-.4-1.5-1.2c-.4-.8-.6-2.2-.6-3.9v-8.2h-1.2v-2.1h1.2v-3.6l1.4-.7Z"/>
    <path class="cls-1" d="M783.4,354.1c0,3.7,1.3,5.2,2.7,5.2s1.6-.3,2.2-.8l.2,2c-.5.4-1.4.9-2.6.9-2.4,0-3.9-3.1-3.9-7.6s1.4-8.1,3.7-8.1,3.3,4.3,3.3,7.1,0,1,0,1.3h-5.5ZM787.6,352.1c0-1.7-.4-4.5-2-4.5s-2.1,2.6-2.2,4.5h4.2Z"/>
    <path class="cls-1" d="M790.8,350.1c0-1.6,0-2.8,0-4.1h1.3v2.4h.1c.4-1.4,1.2-2.8,2.5-2.8s1.9,1.2,2.2,3h0c.2-.8.6-1.5.9-2,.5-.7,1-1.1,1.7-1.1s2.6,1.3,2.6,6.6v8.9h-1.4v-8.5c0-2.9-.6-4.6-1.7-4.6s-1.4,1.2-1.7,2.5c0,.4-.1.9-.1,1.4v9.3h-1.4v-9.1c0-2.4-.6-4.1-1.6-4.1s-1.5,1.4-1.8,2.7c0,.4-.1.9-.1,1.3v9.1h-1.4v-11Z"/>
    <path class="cls-1" d="M804.4,351c0-1.9,0-3.5,0-4.9h1.3v2.6h0c.6-1.8,1.5-2.9,2.8-2.9,1.9,0,3.3,3.1,3.3,7.7s-1.7,8.1-3.6,8.1-2-.9-2.4-2.4h0v8.2h-1.4v-16.4ZM805.8,355c0,.4,0,.8,0,1.1.3,1.9,1.1,3.2,2.1,3.2,1.5,0,2.4-2.4,2.4-5.8s-.8-5.6-2.3-5.6-1.9,1.3-2.2,3.4c0,.3,0,.7,0,1.1v2.6Z"/>
    <path class="cls-1" d="M813.6,339h1.4v22.2h-1.4v-22.2Z"/>
    <path class="cls-1" d="M824.6,353.5c0,5.6-2,8-3.9,8s-3.8-3-3.8-7.8,1.7-8,3.9-8,3.8,3.2,3.8,7.8ZM818.4,353.6c0,3.3,1,5.8,2.4,5.8s2.4-2.5,2.4-5.9-.7-5.8-2.4-5.8-2.4,3-2.4,5.9Z"/>
    <path class="cls-1" d="M826.2,358.3c.4.5,1.2,1.1,1.9,1.1,1,0,1.5-1,1.5-2.2s-.4-2-1.5-2.8c-1.4-1-2.1-2.5-2.1-4.3s1-4.4,2.7-4.4,1.5.4,1.9.9l-.4,2c-.3-.4-.9-.9-1.6-.9s-1.3.9-1.3,2.1.5,1.8,1.5,2.6c1.4,1,2.1,2.3,2.1,4.6s-1.1,4.5-2.9,4.5-1.7-.4-2.2-1l.4-2.1Z"/>
    <path class="cls-1" d="M836.1,358.3c.4.5,1.2,1.1,1.9,1.1,1,0,1.5-1,1.5-2.2s-.4-2-1.5-2.8c-1.4-1-2.1-2.5-2.1-4.3s1-4.4,2.7-4.4,1.5.4,1.9.9l-.4,2c-.3-.4-.9-.9-1.6-.9s-1.3.9-1.3,2.1.5,1.8,1.5,2.6c1.4,1,2.1,2.3,2.1,4.6s-1.1,4.5-2.9,4.5-1.7-.4-2.2-1l.4-2.1Z"/>
    <path class="cls-1" d="M847.1,361.2v-1.9h-.2c-.4,1.2-1.3,2.2-2.4,2.2-1.6,0-2.4-2.2-2.4-4.3,0-3.7,1.7-5.6,4.7-5.6v-.3c0-1.2-.2-3.5-1.8-3.5s-1.5.4-2.1,1.1l-.3-1.8c.7-.8,1.6-1.3,2.6-1.3,2.4,0,3,3.2,3,6.2v5.6c0,1.3,0,2.6.1,3.6h-1.3ZM846.9,353.4c-1.6,0-3.3.5-3.3,3.4s.6,2.6,1.4,2.6,1.7-1.2,1.9-2.5c0-.3,0-.6,0-.9v-2.6Z"/>
    <path class="cls-1" d="M857.4,346.1c0,1.1,0,2.3,0,4.1v8.8c0,3.5-.4,5.6-1.1,6.9-.8,1.4-1.9,1.8-2.9,1.8s-2-.4-2.6-1.2l.4-2.1c.5.6,1.3,1.2,2.3,1.2,1.5,0,2.5-1.5,2.5-5.3v-1.7h0c-.4,1.4-1.3,2.5-2.5,2.5-2,0-3.4-3.2-3.4-7.4s1.7-8,3.6-8,2.1,1.4,2.5,2.6h0v-2.3h1.3ZM855.9,352c0-.5,0-.9,0-1.2-.3-1.6-1-2.9-2-2.9s-2.3,2.2-2.3,5.7.8,5.4,2.3,5.4,1.7-1.1,2-2.8c0-.5.1-1,.1-1.5v-2.7Z"/>
    <path class="cls-1" d="M859.6,350.8c0-1.8,0-3.3,0-4.7h1.3v3h.1c.4-2,1.2-3.3,2.2-3.3s.3,0,.4,0v2.6c-.1,0-.3,0-.5,0-1,0-1.7,1.5-1.9,3.5,0,.4,0,.8,0,1.3v8.1h-1.4v-10.4Z"/>
    <path class="cls-1" d="M869.3,361.2v-1.9h-.2c-.4,1.2-1.3,2.2-2.4,2.2-1.6,0-2.4-2.2-2.4-4.3,0-3.7,1.7-5.6,4.7-5.6v-.3c0-1.2-.2-3.5-1.8-3.5s-1.5.4-2.1,1.1l-.3-1.8c.7-.8,1.6-1.3,2.6-1.3,2.4,0,3,3.2,3,6.2v5.6c0,1.3,0,2.6.1,3.6h-1.3ZM869,353.4c-1.6,0-3.3.5-3.3,3.4s.6,2.6,1.4,2.6,1.7-1.2,1.9-2.5c0-.3,0-.6,0-.9v-2.6Z"/>
    <path class="cls-1" d="M879.6,339v18.3c0,1.3,0,2.9,0,3.9h-1.3v-2.6h0c-.4,1.7-1.4,3-2.7,3-1.9,0-3.4-3.1-3.4-7.7,0-5,1.6-8.1,3.5-8.1s2,1.1,2.4,2.3h0v-9h1.4ZM878.1,352.2c0-.3,0-.8,0-1.2-.2-1.7-1-3.2-2.1-3.2s-2.4,2.5-2.4,5.8.8,5.6,2.3,5.6,1.8-1.2,2.1-3.3c0-.4,0-.7,0-1.2v-2.6Z"/>
    <path class="cls-1" d="M889.1,353.5c0,5.6-2,8-3.9,8s-3.8-3-3.8-7.8,1.7-8,3.9-8,3.8,3.2,3.8,7.8ZM882.8,353.6c0,3.3,1,5.8,2.4,5.8s2.4-2.5,2.4-5.9-.7-5.8-2.4-5.8-2.4,3-2.4,5.9Z"/>
    <path class="cls-1" d="M890.7,358.3c.4.5,1.2,1.1,1.9,1.1,1,0,1.5-1,1.5-2.2s-.4-2-1.5-2.8c-1.4-1-2.1-2.5-2.1-4.3s1-4.4,2.7-4.4,1.5.4,1.9.9l-.4,2c-.3-.4-.9-.9-1.6-.9s-1.3.9-1.3,2.1.5,1.8,1.5,2.6c1.4,1,2.1,2.3,2.1,4.6s-1.1,4.5-2.9,4.5-1.7-.4-2.2-1l.4-2.1Z"/>
    <path class="cls-1" d="M901.3,346.1l1.7,8.9c.2,1,.4,2.2.5,3.1h0c.1-.9.3-2.1.5-3.2l1.6-8.9h1.5l-2.1,10.8c-1,5.2-1.7,7.8-2.7,9.5-.7,1.2-1.4,1.7-1.8,1.8l-.4-2.3c.4-.2.8-.7,1.3-1.3.4-.6.9-1.7,1.2-3.1,0-.3.1-.5.1-.7s0-.4,0-.7l-2.9-13.9h1.6Z"/>
    <path class="cls-1" d="M919.1,353.5c0,5.6-2,8-3.9,8s-3.8-3-3.8-7.8,1.7-8,3.9-8,3.8,3.2,3.8,7.8ZM912.8,353.6c0,3.3,1,5.8,2.4,5.8s2.4-2.5,2.4-5.9-.7-5.8-2.4-5.8-2.4,3-2.4,5.9Z"/>
    <path class="cls-1" d="M920.8,361.2c0-1,0-2.6,0-3.9v-18.3h1.4v9.5h0c.5-1.7,1.4-2.8,2.7-2.8,2,0,3.3,3.1,3.3,7.7,0,5.4-1.8,8.1-3.5,8.1s-2.1-.8-2.6-2.8h0v2.5h-1.3ZM922.3,355.1c0,.3,0,.7,0,1,.3,1.9,1.1,3.2,2.1,3.2,1.5,0,2.4-2.3,2.4-5.8s-.8-5.6-2.3-5.6-1.9,1.3-2.2,3.4c0,.3,0,.7,0,1.1v2.7Z"/>
    <path class="cls-1" d="M930.9,354.1c0,3.7,1.3,5.2,2.7,5.2s1.6-.3,2.2-.8l.2,2c-.5.4-1.4.9-2.6.9-2.4,0-3.9-3.1-3.9-7.6s1.4-8.1,3.7-8.1,3.3,4.3,3.3,7.1,0,1,0,1.3h-5.5ZM935.1,352.1c0-1.7-.4-4.5-2-4.5s-2.1,2.6-2.2,4.5h4.2Z"/>
    <path class="cls-1" d="M938.3,339h1.4v22.2h-1.4v-22.2Z"/>
    <path class="cls-1" d="M943.8,341.8c0,.9-.3,1.7-.9,1.7s-.9-.7-.9-1.7.4-1.7.9-1.7.9.7.9,1.7ZM942.2,361.2v-15.1h1.4v15.1h-1.4Z"/>
    <path class="cls-1" d="M945.8,358.3c.4.5,1.2,1.1,1.9,1.1,1,0,1.5-1,1.5-2.2s-.4-2-1.5-2.8c-1.4-1-2.1-2.5-2.1-4.3s1-4.4,2.7-4.4,1.5.4,1.9.9l-.4,2c-.3-.4-.9-.9-1.6-.9s-1.3.9-1.3,2.1.5,1.8,1.5,2.6c1.4,1,2.1,2.3,2.1,4.6s-1.1,4.5-2.9,4.5-1.7-.4-2.2-1l.4-2.1Z"/>
    <path class="cls-1" d="M958,360.6c-.4.4-1.2.9-2.3.9-2.4,0-3.9-3.1-3.9-7.7s1.7-8,4.2-8,1.6.4,2,.8l-.3,2.1c-.3-.4-.9-.7-1.7-.7-1.8,0-2.8,2.6-2.8,5.7s1.2,5.6,2.7,5.6,1.4-.4,1.8-.7l.2,2.1Z"/>
    <path class="cls-1" d="M966.8,353.5c0,5.6-2,8-3.9,8s-3.8-3-3.8-7.8,1.7-8,3.9-8,3.8,3.2,3.8,7.8ZM960.5,353.6c0,3.3,1,5.8,2.4,5.8s2.4-2.5,2.4-5.9-.7-5.8-2.4-5.8-2.4,3-2.4,5.9Z"/>
    <path class="cls-1" d="M968.4,358.3c.4.5,1.2,1.1,1.9,1.1,1,0,1.5-1,1.5-2.2s-.4-2-1.5-2.8c-1.4-1-2.1-2.5-2.1-4.3s1-4.4,2.7-4.4,1.5.4,1.9.9l-.4,2c-.3-.4-.9-.9-1.6-.9s-1.3.9-1.3,2.1.5,1.8,1.5,2.6c1.4,1,2.1,2.3,2.1,4.6s-1.1,4.5-2.9,4.5-1.7-.4-2.2-1l.4-2.1Z"/>
    <path class="cls-1" d="M978.3,358.3c.4.5,1.2,1.1,1.9,1.1,1,0,1.5-1,1.5-2.2s-.4-2-1.5-2.8c-1.4-1-2.1-2.5-2.1-4.3s1-4.4,2.7-4.4,1.5.4,1.9.9l-.4,2c-.3-.4-.9-.9-1.6-.9s-1.3.9-1.3,2.1.5,1.8,1.5,2.6c1.4,1,2.1,2.3,2.1,4.6s-1.1,4.5-2.9,4.5-1.7-.4-2.2-1l.4-2.1Z"/>
    <path class="cls-1" d="M985.7,354.1c0,3.7,1.3,5.2,2.7,5.2s1.6-.3,2.2-.8l.2,2c-.5.4-1.4.9-2.6.9-2.4,0-3.9-3.1-3.9-7.6s1.4-8.1,3.7-8.1,3.3,4.3,3.3,7.1,0,1,0,1.3h-5.5ZM989.9,352.1c0-1.7-.4-4.5-2-4.5s-2.1,2.6-2.2,4.5h4.2Z"/>
    <path class="cls-1" d="M309.5,391.6c0,3.7,1.3,5.2,2.7,5.2s1.6-.3,2.2-.8l.2,2c-.5.4-1.4.9-2.6.9-2.4,0-3.9-3.1-3.9-7.6s1.4-8.1,3.7-8.1,3.3,4.3,3.3,7.1,0,1,0,1.3h-5.5ZM313.7,389.6c0-1.7-.4-4.5-2-4.5s-2.1,2.6-2.2,4.5h4.2Z"/>
    <path class="cls-1" d="M316.9,376.5h1.4v22.2h-1.4v-22.2Z"/>
    <path class="cls-1" d="M321.5,391.6c0,3.7,1.3,5.2,2.7,5.2s1.6-.3,2.2-.8l.2,2c-.5.4-1.4.9-2.6.9-2.4,0-3.9-3.1-3.9-7.6s1.4-8.1,3.7-8.1,3.3,4.3,3.3,7.1,0,1,0,1.3h-5.5ZM325.7,389.6c0-1.7-.4-4.5-2-4.5s-2.1,2.6-2.2,4.5h4.2Z"/>
    <path class="cls-1" d="M329.4,383.5l1.5,8.5c.3,1.4.5,2.6.6,3.9h0c.2-1.2.4-2.5.7-3.9l1.5-8.5h1.5l-3.1,15.1h-1.4l-3-15.1h1.5Z"/>
    <path class="cls-1" d="M341,398.6v-1.9h-.2c-.4,1.2-1.3,2.2-2.4,2.2-1.6,0-2.4-2.2-2.4-4.3,0-3.7,1.7-5.6,4.7-5.6v-.3c0-1.2-.2-3.5-1.8-3.5s-1.5.4-2.1,1.1l-.3-1.8c.7-.8,1.6-1.3,2.6-1.3,2.4,0,3,3.2,3,6.2v5.6c0,1.3,0,2.6.1,3.6h-1.3ZM340.8,390.9c-1.6,0-3.3.5-3.3,3.4s.6,2.6,1.4,2.6,1.7-1.2,1.9-2.5c0-.3,0-.6,0-.9v-2.6Z"/>
    <path class="cls-1" d="M344.4,398.6c0-1,0-2.6,0-3.9v-18.3h1.4v9.5h0c.5-1.7,1.4-2.8,2.7-2.8,2,0,3.3,3.1,3.3,7.7,0,5.4-1.8,8.1-3.5,8.1s-2.1-.8-2.6-2.8h0v2.5h-1.3ZM345.9,392.6c0,.3,0,.7,0,1,.3,1.9,1.1,3.2,2.1,3.2,1.5,0,2.4-2.3,2.4-5.8s-.8-5.6-2.3-5.6-1.9,1.3-2.2,3.4c0,.3,0,.7,0,1.1v2.7Z"/>
    <path class="cls-1" d="M358.2,398.6v-1.9h-.2c-.4,1.2-1.3,2.2-2.4,2.2-1.6,0-2.4-2.2-2.4-4.3,0-3.7,1.7-5.6,4.7-5.6v-.3c0-1.2-.2-3.5-1.8-3.5s-1.5.4-2.1,1.1l-.3-1.8c.7-.8,1.6-1.3,2.6-1.3,2.4,0,3,3.2,3,6.2v5.6c0,1.3,0,2.6.1,3.6h-1.3ZM357.9,390.9c-1.6,0-3.3.5-3.3,3.4s.6,2.6,1.4,2.6,1.7-1.2,1.9-2.5c0-.3,0-.6,0-.9v-2.6Z"/>
    <path class="cls-1" d="M361.6,387.6c0-1.6,0-2.8,0-4.1h1.3v2.5h.1c.4-1.4,1.3-2.8,2.6-2.8s2.8,1.2,2.8,6.4v9h-1.4v-8.7c0-2.4-.5-4.5-1.8-4.5s-1.7,1.3-1.9,2.8c0,.3,0,.8,0,1.3v9.1h-1.4v-11Z"/>
    <path class="cls-1" d="M379.8,398.1c-.4.4-1.2.9-2.3.9-2.4,0-3.9-3.1-3.9-7.7s1.7-8,4.2-8,1.6.4,2,.8l-.3,2.1c-.3-.4-.9-.7-1.7-.7-1.8,0-2.8,2.6-2.8,5.7s1.2,5.6,2.7,5.6,1.4-.4,1.8-.7l.2,2.1Z"/>
    <path class="cls-1" d="M388.5,390.9c0,5.6-2,8-3.9,8s-3.8-3-3.8-7.8,1.7-8,3.9-8,3.8,3.2,3.8,7.8ZM382.2,391.1c0,3.3,1,5.8,2.4,5.8s2.4-2.5,2.4-5.9-.7-5.8-2.4-5.8-2.4,3-2.4,5.9Z"/>
    <path class="cls-1" d="M390.3,387.6c0-1.6,0-2.8,0-4.1h1.3v2.4h.1c.4-1.4,1.2-2.8,2.5-2.8s1.9,1.2,2.2,3h0c.2-.8.6-1.5.9-2,.5-.7,1-1.1,1.7-1.1s2.6,1.3,2.6,6.6v8.9h-1.4v-8.5c0-2.9-.6-4.6-1.7-4.6s-1.4,1.2-1.7,2.5c0,.4-.1.9-.1,1.4v9.3h-1.4v-9c0-2.4-.6-4.1-1.6-4.1s-1.5,1.4-1.8,2.7c0,.4-.1.9-.1,1.3v9.1h-1.4v-11Z"/>
    <path class="cls-1" d="M411,390.9c0,5.6-2,8-3.9,8s-3.8-3-3.8-7.8,1.7-8,3.9-8,3.8,3.2,3.8,7.8ZM404.8,391.1c0,3.3,1,5.8,2.4,5.8s2.4-2.5,2.4-5.9-.7-5.8-2.4-5.8-2.4,3-2.4,5.9Z"/>
    <path class="cls-1" d="M416.3,376.5h1.4v22.2h-1.4v-22.2Z"/>
    <path class="cls-1" d="M424.5,398.6v-1.9h-.2c-.4,1.2-1.3,2.2-2.4,2.2-1.6,0-2.4-2.2-2.4-4.3,0-3.7,1.7-5.6,4.7-5.6v-.3c0-1.2-.2-3.5-1.8-3.5s-1.5.4-2.1,1.1l-.3-1.8c.7-.8,1.6-1.3,2.6-1.3,2.4,0,3,3.2,3,6.2v5.6c0,1.3,0,2.6.1,3.6h-1.3ZM424.3,390.9c-1.6,0-3.3.5-3.3,3.4s.6,2.6,1.4,2.6,1.7-1.2,1.9-2.5c0-.3,0-.6,0-.9v-2.6Z"/>
    <path class="cls-1" d="M428,387.6c0-1.6,0-2.8,0-4.1h1.3v2.5h.1c.4-1.4,1.3-2.8,2.6-2.8s2.8,1.2,2.8,6.4v9h-1.4v-8.7c0-2.4-.5-4.5-1.8-4.5s-1.7,1.3-1.9,2.8c0,.3,0,.8,0,1.3v9.1h-1.4v-11Z"/>
    <path class="cls-1" d="M436.1,397l3.6-8.9c.3-.8.7-1.5,1-2.3h0c0,0-4.3,0-4.3,0v-2.2h6v1.7s-3.5,8.8-3.5,8.8c-.3.8-.7,1.6-1,2.4h0c0,0,4.6,0,4.6,0v2.2h-6.4v-1.6Z"/>
    <path class="cls-1" d="M448.4,398.6v-1.9h-.2c-.4,1.2-1.3,2.2-2.4,2.2-1.6,0-2.4-2.2-2.4-4.3,0-3.7,1.7-5.6,4.7-5.6v-.3c0-1.2-.2-3.5-1.8-3.5s-1.5.4-2.1,1.1l-.3-1.8c.7-.8,1.6-1.3,2.6-1.3,2.4,0,3,3.2,3,6.2v5.6c0,1.3,0,2.6.1,3.6h-1.3ZM448.2,390.9c-1.6,0-3.3.5-3.3,3.4s.6,2.6,1.4,2.6,1.7-1.2,1.9-2.5c0-.3,0-.6,0-.9v-2.6Z"/>
    <path class="cls-1" d="M451.7,395.8c.4.5,1.2,1.1,1.9,1.1,1,0,1.5-1,1.5-2.2s-.4-2-1.5-2.8c-1.4-1-2.1-2.5-2.1-4.3s1-4.4,2.7-4.4,1.5.4,1.9.9l-.4,2c-.3-.4-.9-.9-1.6-.9s-1.3.9-1.3,2.1.5,1.8,1.5,2.6c1.4,1,2.1,2.3,2.1,4.6s-1.1,4.5-2.9,4.5-1.7-.4-2.2-1l.4-2.1Z"/>
    <path class="cls-1" d="M461.8,376.5h1.4v9.4h0c.2-.8.6-1.5,1-1.9.4-.5.9-.8,1.5-.8,1.1,0,2.8,1.2,2.8,6.5v9h-1.4v-8.7c0-2.4-.5-4.5-1.8-4.5s-1.7,1.2-1.9,2.7c0,.4,0,.8,0,1.3v9.1h-1.4v-22.2Z"/>
    <path class="cls-1" d="M475.2,398.6v-1.9h-.2c-.4,1.2-1.3,2.2-2.4,2.2-1.6,0-2.4-2.2-2.4-4.3,0-3.7,1.7-5.6,4.7-5.6v-.3c0-1.2-.2-3.5-1.8-3.5s-1.5.4-2.1,1.1l-.3-1.8c.7-.8,1.6-1.3,2.6-1.3,2.4,0,3,3.2,3,6.2v5.6c0,1.3,0,2.6.1,3.6h-1.3ZM475,390.9c-1.6,0-3.3.5-3.3,3.4s.6,2.6,1.4,2.6,1.7-1.2,1.9-2.5c0-.3,0-.6,0-.9v-2.6Z"/>
    <path class="cls-1" d="M484.3,398.1c-.4.4-1.2.9-2.3.9-2.4,0-3.9-3.1-3.9-7.7s1.7-8,4.2-8,1.6.4,2,.8l-.3,2.1c-.3-.4-.9-.7-1.7-.7-1.8,0-2.8,2.6-2.8,5.7s1.2,5.6,2.7,5.6,1.4-.4,1.8-.7l.2,2.1Z"/>
    <path class="cls-1" d="M487.6,379.3c0,.9-.3,1.7-.9,1.7s-.9-.7-.9-1.7.4-1.7.9-1.7.9.7.9,1.7ZM486,398.6v-15.1h1.4v15.1h-1.4Z"/>
    <path class="cls-1" d="M494.1,398.6v-1.9h-.2c-.4,1.2-1.3,2.2-2.4,2.2-1.6,0-2.4-2.2-2.4-4.3,0-3.7,1.7-5.6,4.7-5.6v-.3c0-1.2-.2-3.5-1.8-3.5s-1.5.4-2.1,1.1l-.3-1.8c.7-.8,1.6-1.3,2.6-1.3,2.4,0,3,3.2,3,6.2v5.6c0,1.3,0,2.6.1,3.6h-1.3ZM493.9,390.9c-1.6,0-3.3.5-3.3,3.4s.6,2.6,1.4,2.6,1.7-1.2,1.9-2.5c0-.3,0-.6,0-.9v-2.6Z"/>
    <path class="cls-1" d="M501.1,376.5h1.4v22.2h-1.4v-22.2Z"/>
    <path class="cls-1" d="M512.1,390.9c0,5.6-2,8-3.9,8s-3.8-3-3.8-7.8,1.7-8,3.9-8,3.8,3.2,3.8,7.8ZM505.8,391.1c0,3.3,1,5.8,2.4,5.8s2.4-2.5,2.4-5.9-.7-5.8-2.4-5.8-2.4,3-2.4,5.9Z"/>
    <path class="cls-1" d="M513.7,395.8c.4.5,1.2,1.1,1.9,1.1,1,0,1.5-1,1.5-2.2s-.4-2-1.5-2.8c-1.4-1-2.1-2.5-2.1-4.3s1-4.4,2.7-4.4,1.5.4,1.9.9l-.4,2c-.3-.4-.9-.9-1.6-.9s-1.3.9-1.3,2.1.5,1.8,1.5,2.6c1.4,1,2.1,2.3,2.1,4.6s-1.1,4.5-2.9,4.5-1.7-.4-2.2-1l.4-2.1Z"/>
    <path class="cls-1" d="M530.6,376.5v18.3c0,1.3,0,2.9,0,3.9h-1.3v-2.6h0c-.4,1.7-1.4,3-2.7,3-1.9,0-3.4-3.1-3.4-7.7,0-5,1.6-8.1,3.5-8.1s2,1.1,2.4,2.3h0v-9h1.4ZM529.2,389.7c0-.3,0-.8,0-1.2-.2-1.7-1-3.2-2.1-3.2s-2.4,2.5-2.4,5.8.8,5.6,2.3,5.6,1.8-1.2,2.1-3.3c0-.4,0-.7,0-1.2v-2.6Z"/>
    <path class="cls-1" d="M534.6,379.3c0,.9-.3,1.7-.9,1.7s-.9-.7-.9-1.7.4-1.7.9-1.7.9.7.9,1.7ZM533,398.6v-15.1h1.4v15.1h-1.4Z"/>
    <path class="cls-1" d="M543.9,390.9c0,5.6-2,8-3.9,8s-3.8-3-3.8-7.8,1.7-8,3.9-8,3.8,3.2,3.8,7.8ZM537.7,391.1c0,3.3,1,5.8,2.4,5.8s2.4-2.5,2.4-5.9-.7-5.8-2.4-5.8-2.4,3-2.4,5.9Z"/>
    <path class="cls-1" d="M545.5,395.8c.4.5,1.2,1.1,1.9,1.1,1,0,1.5-1,1.5-2.2s-.4-2-1.5-2.8c-1.4-1-2.1-2.5-2.1-4.3s1-4.4,2.7-4.4,1.5.4,1.9.9l-.4,2c-.3-.4-.9-.9-1.6-.9s-1.3.9-1.3,2.1.5,1.8,1.5,2.6c1.4,1,2.1,2.3,2.1,4.6s-1.1,4.5-2.9,4.5-1.7-.4-2.2-1l.4-2.1Z"/>
    <path class="cls-1" d="M553,391.6c0,3.7,1.3,5.2,2.7,5.2s1.6-.3,2.2-.8l.2,2c-.5.4-1.4.9-2.6.9-2.4,0-3.9-3.1-3.9-7.6s1.4-8.1,3.7-8.1,3.3,4.3,3.3,7.1,0,1,0,1.3h-5.5ZM557.2,389.6c0-1.7-.4-4.5-2-4.5s-2.1,2.6-2.2,4.5h4.2Z"/>
    <path class="cls-1" d="M560.2,395.8c.4.5,1.2,1.1,1.9,1.1,1,0,1.5-1,1.5-2.2s-.4-2-1.5-2.8c-1.4-1-2.1-2.5-2.1-4.3s1-4.4,2.7-4.4,1.5.4,1.9.9l-.4,2c-.3-.4-.9-.9-1.6-.9s-1.3.9-1.3,2.1.5,1.8,1.5,2.6c1.4,1,2.1,2.3,2.1,4.6s-1.1,4.5-2.9,4.5-1.7-.4-2.2-1l.4-2.1Z"/>
    <path class="cls-1" d="M566.3,397c0-1.2.4-2,1-2s1,.8,1,2-.4,2-1,2-1-.8-1-2Z"/>
    <path class="cls-1" d="M573.5,388.4c0-1.9,0-3.5,0-4.9h1.3v2.6h0c.6-1.8,1.5-2.9,2.8-2.9,1.9,0,3.3,3.1,3.3,7.7s-1.7,8.1-3.6,8.1-2-.9-2.4-2.4h0v8.2h-1.4v-16.4ZM574.9,392.5c0,.4,0,.8,0,1.1.3,1.9,1.1,3.2,2.1,3.2,1.5,0,2.4-2.4,2.4-5.8s-.8-5.6-2.3-5.6-1.9,1.3-2.2,3.4c0,.3,0,.7,0,1.1v2.6Z"/>
    <path class="cls-1" d="M583.5,391.6c0,3.7,1.3,5.2,2.7,5.2s1.6-.3,2.2-.8l.2,2c-.5.4-1.4.9-2.6.9-2.4,0-3.9-3.1-3.9-7.6s1.4-8.1,3.7-8.1,3.3,4.3,3.3,7.1,0,1,0,1.3h-5.5ZM587.7,389.6c0-1.7-.4-4.5-2-4.5s-2.1,2.6-2.2,4.5h4.2Z"/>
    <path class="cls-1" d="M590.9,388.2c0-1.8,0-3.3,0-4.7h1.3v3h.1c.4-2,1.2-3.3,2.2-3.3s.3,0,.4,0v2.6c-.1,0-.3,0-.5,0-1,0-1.7,1.5-1.9,3.5,0,.4,0,.8,0,1.3v8.1h-1.4v-10.4Z"/>
    <path class="cls-1" d="M603.2,390.9c0,5.6-2,8-3.9,8s-3.8-3-3.8-7.8,1.7-8,3.9-8,3.8,3.2,3.8,7.8ZM596.9,391.1c0,3.3,1,5.8,2.4,5.8s2.4-2.5,2.4-5.9-.7-5.8-2.4-5.8-2.4,3-2.4,5.9Z"/>
    <path class="cls-1" d="M609.3,391.6c0,3.7,1.3,5.2,2.7,5.2s1.6-.3,2.2-.8l.2,2c-.5.4-1.4.9-2.6.9-2.4,0-3.9-3.1-3.9-7.6s1.4-8.1,3.7-8.1,3.3,4.3,3.3,7.1,0,1,0,1.3h-5.5ZM613.5,389.6c0-1.7-.4-4.5-2-4.5s-2.1,2.6-2.2,4.5h4.2Z"/>
    <path class="cls-1" d="M616.6,376.5h1.4v22.2h-1.4v-22.2Z"/>
    <path class="cls-1" d="M625.7,379.2v4.3h2.1v2.1h-2.1v8.1c0,1.9.3,2.9,1.1,2.9s.7,0,.8-.2v2.1c-.2.2-.7.4-1.2.4s-1.2-.4-1.5-1.2c-.4-.8-.6-2.2-.6-3.9v-8.2h-1.2v-2.1h1.2v-3.6l1.4-.7Z"/>
    <path class="cls-1" d="M630.9,379.3c0,.9-.3,1.7-.9,1.7s-.9-.7-.9-1.7.4-1.7.9-1.7.9.7.9,1.7ZM629.3,398.6v-15.1h1.4v15.1h-1.4Z"/>
    <path class="cls-1" d="M633.9,391.6c0,3.7,1.3,5.2,2.7,5.2s1.6-.3,2.2-.8l.2,2c-.5.4-1.4.9-2.6.9-2.4,0-3.9-3.1-3.9-7.6s1.4-8.1,3.7-8.1,3.3,4.3,3.3,7.1,0,1,0,1.3h-5.5ZM638.1,389.6c0-1.7-.4-4.5-2-4.5s-2.1,2.6-2.2,4.5h4.2Z"/>
    <path class="cls-1" d="M641.3,387.6c0-1.6,0-2.8,0-4.1h1.3v2.4h.1c.4-1.4,1.2-2.8,2.5-2.8s1.9,1.2,2.2,3h0c.2-.8.6-1.5.9-2,.5-.7,1-1.1,1.7-1.1s2.6,1.3,2.6,6.6v8.9h-1.4v-8.5c0-2.9-.6-4.6-1.7-4.6s-1.4,1.2-1.7,2.5c0,.4-.1.9-.1,1.4v9.3h-1.4v-9c0-2.4-.6-4.1-1.6-4.1s-1.5,1.4-1.8,2.7c0,.4-.1.9-.1,1.3v9.1h-1.4v-11Z"/>
    <path class="cls-1" d="M654.9,388.4c0-1.9,0-3.5,0-4.9h1.3v2.6h0c.6-1.8,1.5-2.9,2.8-2.9,1.9,0,3.3,3.1,3.3,7.7s-1.7,8.1-3.6,8.1-2-.9-2.4-2.4h0v8.2h-1.4v-16.4ZM656.3,392.5c0,.4,0,.8,0,1.1.3,1.9,1.1,3.2,2.1,3.2,1.5,0,2.4-2.4,2.4-5.8s-.8-5.6-2.3-5.6-1.9,1.3-2.2,3.4c0,.3,0,.7,0,1.1v2.6Z"/>
    <path class="cls-1" d="M671.3,390.9c0,5.6-2,8-3.9,8s-3.8-3-3.8-7.8,1.7-8,3.9-8,3.8,3.2,3.8,7.8ZM665,391.1c0,3.3,1,5.8,2.4,5.8s2.4-2.5,2.4-5.9-.7-5.8-2.4-5.8-2.4,3-2.4,5.9Z"/>
    <path class="cls-1" d="M676.6,388.4c0-1.9,0-3.5,0-4.9h1.3v2.6h0c.6-1.8,1.5-2.9,2.8-2.9,1.9,0,3.3,3.1,3.3,7.7s-1.7,8.1-3.6,8.1-2-.9-2.4-2.4h0v8.2h-1.4v-16.4ZM678,392.5c0,.4,0,.8,0,1.1.3,1.9,1.1,3.2,2.1,3.2,1.5,0,2.4-2.4,2.4-5.8s-.8-5.6-2.3-5.6-1.9,1.3-2.2,3.4c0,.3,0,.7,0,1.1v2.6Z"/>
    <path class="cls-1" d="M690.2,398.6v-1.9h-.2c-.4,1.2-1.3,2.2-2.4,2.2-1.6,0-2.4-2.2-2.4-4.3,0-3.7,1.7-5.6,4.7-5.6v-.3c0-1.2-.2-3.5-1.8-3.5s-1.5.4-2.1,1.1l-.3-1.8c.7-.8,1.6-1.3,2.6-1.3,2.4,0,3,3.2,3,6.2v5.6c0,1.3,0,2.6.1,3.6h-1.3ZM690,390.9c-1.6,0-3.3.5-3.3,3.4s.6,2.6,1.4,2.6,1.7-1.2,1.9-2.5c0-.3,0-.6,0-.9v-2.6Z"/>
    <path class="cls-1" d="M693.5,395.8c.4.5,1.2,1.1,1.9,1.1,1,0,1.5-1,1.5-2.2s-.4-2-1.5-2.8c-1.4-1-2.1-2.5-2.1-4.3s1-4.4,2.7-4.4,1.5.4,1.9.9l-.4,2c-.3-.4-.9-.9-1.6-.9s-1.3.9-1.3,2.1.5,1.8,1.5,2.6c1.4,1,2.1,2.3,2.1,4.6s-1.1,4.5-2.9,4.5-1.7-.4-2.2-1l.4-2.1Z"/>
    <path class="cls-1" d="M707.3,390.9c0,5.6-2,8-3.9,8s-3.8-3-3.8-7.8,1.7-8,3.9-8,3.8,3.2,3.8,7.8ZM701,391.1c0,3.3,1,5.8,2.4,5.8s2.4-2.5,2.4-5.9-.7-5.8-2.4-5.8-2.4,3-2.4,5.9Z"/>
    <path class="cls-1" d="M707.8,402.5c.4-1.8.8-5.2,1-7.5l1.6-.3c-.4,2.6-1.1,6.1-1.5,7.6l-1,.2Z"/>
    <path class="cls-1" d="M716.1,383.5l1.7,8.9c.2,1,.4,2.2.5,3.1h0c.1-.9.3-2.1.5-3.2l1.6-8.9h1.5l-2.2,10.8c-1,5.2-1.7,7.8-2.7,9.5-.7,1.2-1.4,1.7-1.8,1.8l-.4-2.3c.4-.2.8-.7,1.3-1.3.4-.6.9-1.7,1.2-3.1,0-.3.1-.5.1-.7s0-.4,0-.7l-2.9-13.9h1.6Z"/>
    <path class="cls-1" d="M727.5,391.6c0,3.7,1.3,5.2,2.7,5.2s1.6-.3,2.2-.8l.2,2c-.5.4-1.4.9-2.6.9-2.4,0-3.9-3.1-3.9-7.6s1.4-8.1,3.7-8.1,3.3,4.3,3.3,7.1,0,1,0,1.3h-5.5ZM731.7,389.6c0-1.7-.4-4.5-2-4.5s-2.1,2.6-2.2,4.5h4.2Z"/>
    <path class="cls-1" d="M734.8,376.5h1.4v22.2h-1.4v-22.2Z"/>
    <path class="cls-1" d="M742.1,387.6c0-1.6,0-2.8,0-4.1h1.3v2.5h.1c.4-1.4,1.3-2.8,2.6-2.8s2.8,1.2,2.8,6.4v9h-1.4v-8.7c0-2.4-.5-4.5-1.8-4.5s-1.7,1.3-1.9,2.8c0,.3,0,.8,0,1.3v9.1h-1.4v-11Z"/>
    <path class="cls-1" d="M752.8,379.3c0,.9-.3,1.7-.9,1.7s-.9-.7-.9-1.7.4-1.7.9-1.7.9.7.9,1.7ZM751.2,398.6v-15.1h1.4v15.1h-1.4Z"/>
    <path class="cls-1" d="M755,376.5h1.4v22.2h-1.4v-22.2Z"/>
    <path class="cls-1" d="M766,390.9c0,5.6-2,8-3.9,8s-3.8-3-3.8-7.8,1.7-8,3.9-8,3.8,3.2,3.8,7.8ZM759.7,391.1c0,3.3,1,5.8,2.4,5.8s2.4-2.5,2.4-5.9-.7-5.8-2.4-5.8-2.4,3-2.4,5.9Z"/>
    <path class="cls-1" d="M776.9,398.1c-.4.4-1.2.9-2.3.9-2.4,0-3.9-3.1-3.9-7.7s1.7-8,4.2-8,1.6.4,2,.8l-.3,2.1c-.3-.4-.9-.7-1.7-.7-1.8,0-2.8,2.6-2.8,5.7s1.2,5.6,2.7,5.6,1.4-.4,1.8-.7l.2,2.1Z"/>
    <path class="cls-1" d="M782.9,398.6v-1.9h-.2c-.4,1.2-1.3,2.2-2.4,2.2-1.6,0-2.4-2.2-2.4-4.3,0-3.7,1.7-5.6,4.7-5.6v-.3c0-1.2-.2-3.5-1.8-3.5s-1.5.4-2.1,1.1l-.3-1.8c.7-.8,1.6-1.3,2.6-1.3,2.4,0,3,3.2,3,6.2v5.6c0,1.3,0,2.6.1,3.6h-1.3ZM782.7,390.9c-1.6,0-3.3.5-3.3,3.4s.6,2.6,1.4,2.6,1.7-1.2,1.9-2.5c0-.3,0-.6,0-.9v-2.6Z"/>
    <path class="cls-1" d="M786.4,387.6c0-1.6,0-2.8,0-4.1h1.3v2.4h.1c.4-1.4,1.2-2.8,2.5-2.8s1.9,1.2,2.2,3h0c.2-.8.6-1.5.9-2,.5-.7,1-1.1,1.7-1.1s2.6,1.3,2.6,6.6v8.9h-1.4v-8.5c0-2.9-.6-4.6-1.7-4.6s-1.4,1.2-1.7,2.5c0,.4-.1.9-.1,1.4v9.3h-1.4v-9c0-2.4-.6-4.1-1.6-4.1s-1.5,1.4-1.8,2.7c0,.4-.1.9-.1,1.3v9.1h-1.4v-11Z"/>
    <path class="cls-1" d="M799.9,398.6c0-1,0-2.6,0-3.9v-18.3h1.4v9.5h0c.5-1.7,1.4-2.8,2.7-2.8,2,0,3.3,3.1,3.3,7.7,0,5.4-1.8,8.1-3.5,8.1s-2.1-.8-2.6-2.8h0v2.5h-1.3ZM801.4,392.6c0,.3,0,.7,0,1,.3,1.9,1.1,3.2,2.1,3.2,1.5,0,2.4-2.3,2.4-5.8s-.8-5.6-2.3-5.6-1.9,1.3-2.2,3.4c0,.3,0,.7,0,1.1v2.7Z"/>
    <path class="cls-1" d="M810.9,379.3c0,.9-.3,1.7-.9,1.7s-.9-.7-.9-1.7.4-1.7.9-1.7.9.7.9,1.7ZM809.3,398.6v-15.1h1.4v15.1h-1.4Z"/>
    <path class="cls-1" d="M820.2,390.9c0,5.6-2,8-3.9,8s-3.8-3-3.8-7.8,1.7-8,3.9-8,3.8,3.2,3.8,7.8ZM813.9,391.1c0,3.3,1,5.8,2.4,5.8s2.4-2.5,2.4-5.9-.7-5.8-2.4-5.8-2.4,3-2.4,5.9Z"/>
    <path class="cls-1" d="M825.3,395.8c.4.5,1.2,1.1,1.9,1.1,1,0,1.5-1,1.5-2.2s-.4-2-1.5-2.8c-1.4-1-2.1-2.5-2.1-4.3s1-4.4,2.7-4.4,1.5.4,1.9.9l-.4,2c-.3-.4-.9-.9-1.6-.9s-1.3.9-1.3,2.1.5,1.8,1.5,2.6c1.4,1,2.1,2.3,2.1,4.6s-1.1,4.5-2.9,4.5-1.7-.4-2.2-1l.4-2.1Z"/>
    <path class="cls-1" d="M838.5,394.5c0,1.6,0,2.9,0,4.1h-1.3v-2.5h-.1c-.4,1.2-1.2,2.8-2.6,2.8s-2.7-1.3-2.7-6.6v-8.8h1.4v8.4c0,2.9.5,4.8,1.8,4.8s1.6-1.3,1.9-2.5c0-.4.1-.9.1-1.4v-9.3h1.4v11Z"/>
    <path class="cls-1" d="M850,398.1c-.4.4-1.2.9-2.3.9-2.4,0-3.9-3.1-3.9-7.7s1.7-8,4.2-8,1.6.4,2,.8l-.3,2.1c-.3-.4-.9-.7-1.7-.7-1.8,0-2.8,2.6-2.8,5.7s1.2,5.6,2.7,5.6,1.4-.4,1.8-.7l.2,2.1Z"/>
    <path class="cls-1" d="M858.3,394.5c0,1.6,0,2.9,0,4.1h-1.3v-2.5h-.1c-.4,1.2-1.2,2.8-2.6,2.8s-2.7-1.3-2.7-6.6v-8.8h1.4v8.4c0,2.9.5,4.8,1.8,4.8s1.6-1.3,1.9-2.5c0-.4.1-.9.1-1.4v-9.3h1.4v11Z"/>
    <path class="cls-1" d="M860.6,388.2c0-1.8,0-3.3,0-4.7h1.3v3h.1c.4-2,1.2-3.3,2.2-3.3s.3,0,.4,0v2.6c-.1,0-.3,0-.5,0-1,0-1.7,1.5-1.9,3.5,0,.4,0,.8,0,1.3v8.1h-1.4v-10.4Z"/>
    <path class="cls-1" d="M865.8,395.8c.4.5,1.2,1.1,1.9,1.1,1,0,1.5-1,1.5-2.2s-.4-2-1.5-2.8c-1.4-1-2.1-2.5-2.1-4.3s1-4.4,2.7-4.4,1.5.4,1.9.9l-.4,2c-.3-.4-.9-.9-1.6-.9s-1.3.9-1.3,2.1.5,1.8,1.5,2.6c1.4,1,2.1,2.3,2.1,4.6s-1.1,4.5-2.9,4.5-1.7-.4-2.2-1l.4-2.1Z"/>
    <path class="cls-1" d="M879.6,390.9c0,5.6-2,8-3.9,8s-3.8-3-3.8-7.8,1.7-8,3.9-8,3.8,3.2,3.8,7.8ZM873.3,391.1c0,3.3,1,5.8,2.4,5.8s2.4-2.5,2.4-5.9-.7-5.8-2.4-5.8-2.4,3-2.4,5.9Z"/>
    <path class="cls-1" d="M880.6,397c0-1.2.4-2,1-2s1,.8,1,2-.4,2-1,2-1-.8-1-2Z"/>
    <path class="cls-1" d="M887.8,376.5h1.4v22.2h-1.4v-22.2Z"/>
    <path class="cls-1" d="M896,398.6v-1.9h-.2c-.4,1.2-1.3,2.2-2.4,2.2-1.6,0-2.4-2.2-2.4-4.3,0-3.7,1.7-5.6,4.7-5.6v-.3c0-1.2-.2-3.5-1.8-3.5s-1.5.4-2.1,1.1l-.3-1.8c.7-.8,1.6-1.3,2.6-1.3,2.4,0,3,3.2,3,6.2v5.6c0,1.3,0,2.6.1,3.6h-1.3ZM895.8,390.9c-1.6,0-3.3.5-3.3,3.4s.6,2.6,1.4,2.6,1.7-1.2,1.9-2.5c0-.3,0-.6,0-.9v-2.6Z"/>
    <path class="cls-1" d="M899.3,395.8c.4.5,1.2,1.1,1.9,1.1,1,0,1.5-1,1.5-2.2s-.4-2-1.5-2.8c-1.4-1-2.1-2.5-2.1-4.3s1-4.4,2.7-4.4,1.5.4,1.9.9l-.4,2c-.3-.4-.9-.9-1.6-.9s-1.3.9-1.3,2.1.5,1.8,1.5,2.6c1.4,1,2.1,2.3,2.1,4.6s-1.1,4.5-2.9,4.5-1.7-.4-2.2-1l.4-2.1Z"/>
    <path class="cls-1" d="M913.8,398.6v-1.9h-.2c-.4,1.2-1.3,2.2-2.4,2.2-1.6,0-2.4-2.2-2.4-4.3,0-3.7,1.7-5.6,4.7-5.6v-.3c0-1.2-.2-3.5-1.8-3.5s-1.5.4-2.1,1.1l-.3-1.8c.7-.8,1.6-1.3,2.6-1.3,2.4,0,3,3.2,3,6.2v5.6c0,1.3,0,2.6.1,3.6h-1.3ZM913.6,390.9c-1.6,0-3.3.5-3.3,3.4s.6,2.6,1.4,2.6,1.7-1.2,1.9-2.5c0-.3,0-.6,0-.9v-2.6Z"/>
    <path class="cls-1" d="M917.3,388.2c0-1.8,0-3.3,0-4.7h1.3v3h.1c.4-2,1.2-3.3,2.2-3.3s.3,0,.4,0v2.6c-.1,0-.3,0-.5,0-1,0-1.7,1.5-1.9,3.5,0,.4,0,.8,0,1.3v8.1h-1.4v-10.4Z"/>
    <path class="cls-1" d="M923.2,391.6c0,3.7,1.3,5.2,2.7,5.2s1.6-.3,2.2-.8l.2,2c-.5.4-1.4.9-2.6.9-2.4,0-3.9-3.1-3.9-7.6s1.4-8.1,3.7-8.1,3.3,4.3,3.3,7.1,0,1,0,1.3h-5.5ZM927.4,389.6c0-1.7-.4-4.5-2-4.5s-2.1,2.6-2.2,4.5h4.2Z"/>
    <path class="cls-1" d="M930.6,387.6c0-1.6,0-2.8,0-4.1h1.3v2.5h.1c.4-1.4,1.3-2.8,2.6-2.8s2.8,1.2,2.8,6.4v9h-1.4v-8.7c0-2.4-.5-4.5-1.8-4.5s-1.7,1.3-1.9,2.8c0,.3,0,.8,0,1.3v9.1h-1.4v-11Z"/>
    <path class="cls-1" d="M944,398.6v-1.9h-.2c-.4,1.2-1.3,2.2-2.4,2.2-1.6,0-2.4-2.2-2.4-4.3,0-3.7,1.7-5.6,4.7-5.6v-.3c0-1.2-.2-3.5-1.8-3.5s-1.5.4-2.1,1.1l-.3-1.8c.7-.8,1.6-1.3,2.6-1.3,2.4,0,3,3.2,3,6.2v5.6c0,1.3,0,2.6.1,3.6h-1.3ZM943.8,390.9c-1.6,0-3.3.5-3.3,3.4s.6,2.6,1.4,2.6,1.7-1.2,1.9-2.5c0-.3,0-.6,0-.9v-2.6Z"/>
    <path class="cls-1" d="M947.3,395.8c.4.5,1.2,1.1,1.9,1.1,1,0,1.5-1,1.5-2.2s-.4-2-1.5-2.8c-1.4-1-2.1-2.5-2.1-4.3s1-4.4,2.7-4.4,1.5.4,1.9.9l-.4,2c-.3-.4-.9-.9-1.6-.9s-1.3.9-1.3,2.1.5,1.8,1.5,2.6c1.4,1,2.1,2.3,2.1,4.6s-1.1,4.5-2.9,4.5-1.7-.4-2.2-1l.4-2.1Z"/>
    <path class="cls-1" d="M964.2,376.5v18.3c0,1.3,0,2.9,0,3.9h-1.3v-2.6h0c-.4,1.7-1.4,3-2.7,3-1.9,0-3.4-3.1-3.4-7.7,0-5,1.6-8.1,3.5-8.1s2,1.1,2.4,2.3h0v-9h1.4ZM962.8,389.7c0-.3,0-.8,0-1.2-.2-1.7-1-3.2-2.1-3.2s-2.4,2.5-2.4,5.8.8,5.6,2.3,5.6,1.8-1.2,2.1-3.3c0-.4,0-.7,0-1.2v-2.6Z"/>
    <path class="cls-1" d="M967.4,391.6c0,3.7,1.3,5.2,2.7,5.2s1.6-.3,2.2-.8l.2,2c-.5.4-1.4.9-2.6.9-2.4,0-3.9-3.1-3.9-7.6s1.4-8.1,3.7-8.1,3.3,4.3,3.3,7.1,0,1,0,1.3h-5.5ZM971.6,389.6c0-1.7-.4-4.5-2-4.5s-2.1,2.6-2.2,4.5h4.2Z"/>
    <path class="cls-1" d="M974.8,376.5h1.4v22.2h-1.4v-22.2Z"/>
    <path class="cls-1" d="M988.9,376.5v18.3c0,1.3,0,2.9,0,3.9h-1.3v-2.6h0c-.4,1.7-1.4,3-2.7,3-1.9,0-3.4-3.1-3.4-7.7,0-5,1.6-8.1,3.5-8.1s2,1.1,2.4,2.3h0v-9h1.4ZM987.4,389.7c0-.3,0-.8,0-1.2-.2-1.7-1-3.2-2.1-3.2s-2.4,2.5-2.4,5.8.8,5.6,2.3,5.6,1.8-1.2,2.1-3.3c0-.4,0-.7,0-1.2v-2.6Z"/>
    <path class="cls-1" d="M992.1,391.6c0,3.7,1.3,5.2,2.7,5.2s1.6-.3,2.2-.8l.2,2c-.5.4-1.4.9-2.6.9-2.4,0-3.9-3.1-3.9-7.6s1.4-8.1,3.7-8.1,3.3,4.3,3.3,7.1,0,1,0,1.3h-5.5ZM996.3,389.6c0-1.7-.4-4.5-2-4.5s-2.1,2.6-2.2,4.5h4.2Z"/>
    <path class="cls-1" d="M999.2,395.8c.4.5,1.2,1.1,1.9,1.1,1,0,1.5-1,1.5-2.2s-.4-2-1.5-2.8c-1.4-1-2.1-2.5-2.1-4.3s1-4.4,2.7-4.4,1.5.4,1.9.9l-.4,2c-.3-.4-.9-.9-1.6-.9s-1.3.9-1.3,2.1.5,1.8,1.5,2.6c1.4,1,2.1,2.3,2.1,4.6s-1.1,4.5-2.9,4.5-1.7-.4-2.2-1l.4-2.1Z"/>
    <path class="cls-1" d="M1007.5,379.3c0,.9-.3,1.7-.9,1.7s-.9-.7-.9-1.7.4-1.7.9-1.7.9.7.9,1.7ZM1005.9,398.6v-15.1h1.4v15.1h-1.4Z"/>
    <path class="cls-1" d="M1010.5,391.6c0,3.7,1.3,5.2,2.7,5.2s1.6-.3,2.2-.8l.2,2c-.5.4-1.4.9-2.6.9-2.4,0-3.9-3.1-3.9-7.6s1.4-8.1,3.7-8.1,3.3,4.3,3.3,7.1,0,1,0,1.3h-5.5ZM1014.7,389.6c0-1.7-.4-4.5-2-4.5s-2.1,2.6-2.2,4.5h4.2Z"/>
    <path class="cls-1" d="M1017.9,388.2c0-1.8,0-3.3,0-4.7h1.3v3h.1c.4-2,1.2-3.3,2.2-3.3s.3,0,.4,0v2.6c-.1,0-.3,0-.5,0-1,0-1.7,1.5-1.9,3.5,0,.4,0,.8,0,1.3v8.1h-1.4v-10.4Z"/>
    <path class="cls-1" d="M1025.3,379.2v4.3h2.1v2.1h-2.1v8.1c0,1.9.3,2.9,1.1,2.9s.7,0,.8-.2v2.1c-.2.2-.7.4-1.2.4s-1.2-.4-1.5-1.2c-.4-.8-.6-2.2-.6-3.9v-8.2h-1.2v-2.1h1.2v-3.6l1.4-.7Z"/>
    <path class="cls-1" d="M1036,390.9c0,5.6-2,8-3.9,8s-3.8-3-3.8-7.8,1.7-8,3.9-8,3.8,3.2,3.8,7.8ZM1029.7,391.1c0,3.3,1,5.8,2.4,5.8s2.4-2.5,2.4-5.9-.7-5.8-2.4-5.8-2.4,3-2.4,5.9Z"/>
    <path class="cls-1" d="M308.5,433.3c.4.5,1.2,1.1,1.9,1.1,1,0,1.5-1,1.5-2.2s-.4-2-1.5-2.8c-1.4-1-2.1-2.5-2.1-4.3s1-4.4,2.7-4.4,1.5.4,1.9.9l-.4,2c-.3-.4-.9-.9-1.6-.9s-1.3.9-1.3,2.1.5,1.8,1.5,2.6c1.4,1,2.1,2.3,2.1,4.6s-1.1,4.5-2.9,4.5-1.7-.4-2.2-1l.4-2.1Z"/>
    <path class="cls-1" d="M316,429c0,3.7,1.3,5.2,2.7,5.2s1.6-.3,2.2-.8l.2,2c-.5.4-1.4.9-2.6.9-2.4,0-3.9-3.1-3.9-7.6s1.4-8.1,3.7-8.1,3.3,4.3,3.3,7.1,0,1,0,1.3h-5.5ZM320.2,427.1c0-1.7-.4-4.5-2-4.5s-2.1,2.6-2.2,4.5h4.2Z"/>
    <path class="cls-1" d="M323.3,425.9c0-1.9,0-3.5,0-4.9h1.3v2.6h0c.6-1.8,1.5-2.9,2.8-2.9,1.9,0,3.3,3.1,3.3,7.7s-1.7,8.1-3.6,8.1-2-.9-2.4-2.4h0v8.2h-1.4v-16.4ZM324.7,429.9c0,.4,0,.8,0,1.1.3,1.9,1.1,3.2,2.1,3.2,1.5,0,2.4-2.4,2.4-5.8s-.8-5.6-2.3-5.6-1.9,1.3-2.2,3.4c0,.3,0,.7,0,1.1v2.6Z"/>
    <path class="cls-1" d="M339.2,432c0,1.6,0,2.9,0,4.1h-1.3v-2.5h-.1c-.4,1.2-1.2,2.8-2.6,2.8s-2.7-1.3-2.7-6.6v-8.8h1.4v8.4c0,2.9.5,4.8,1.8,4.8s1.6-1.3,1.9-2.5c0-.4.1-.9.1-1.4v-9.3h1.4v11Z"/>
    <path class="cls-1" d="M341.6,413.9h1.4v22.2h-1.4v-22.2Z"/>
    <path class="cls-1" d="M347.2,416.6v4.3h2.1v2.1h-2.1v8.1c0,1.9.3,2.9,1.1,2.9s.7,0,.8-.2v2.1c-.2.2-.7.4-1.2.4s-1.2-.4-1.5-1.2c-.4-.8-.6-2.2-.6-3.9v-8.2h-1.2v-2.1h1.2v-3.6l1.4-.7Z"/>
    <path class="cls-1" d="M355.2,436.1v-1.9h-.2c-.4,1.2-1.3,2.2-2.4,2.2-1.6,0-2.4-2.2-2.4-4.3,0-3.7,1.7-5.6,4.7-5.6v-.3c0-1.2-.2-3.5-1.8-3.5s-1.5.4-2.1,1.1l-.3-1.8c.7-.8,1.6-1.3,2.6-1.3,2.4,0,3,3.2,3,6.2v5.6c0,1.3,0,2.6.1,3.6h-1.3ZM355,428.4c-1.6,0-3.3.5-3.3,3.4s.6,2.6,1.4,2.6,1.7-1.2,1.9-2.5c0-.3,0-.6,0-.9v-2.6Z"/>
    <path class="cls-1" d="M358.7,425.7c0-1.8,0-3.3,0-4.7h1.3v3h.1c.4-2,1.2-3.3,2.2-3.3s.3,0,.4,0v2.6c-.1,0-.3,0-.5,0-1,0-1.7,1.5-1.9,3.5,0,.4,0,.8,0,1.3v8.1h-1.4v-10.4Z"/>
    <path class="cls-1" d="M371,428.4c0,5.6-2,8-3.9,8s-3.8-3-3.8-7.8,1.7-8,3.9-8,3.8,3.2,3.8,7.8ZM364.7,428.6c0,3.3,1,5.8,2.4,5.8s2.4-2.5,2.4-5.9-.7-5.8-2.4-5.8-2.4,3-2.4,5.9Z"/>
    <path class="cls-1" d="M372.8,425.1c0-1.6,0-2.8,0-4.1h1.3v2.5h.1c.4-1.4,1.3-2.8,2.6-2.8s2.8,1.2,2.8,6.4v9h-1.4v-8.7c0-2.4-.5-4.5-1.8-4.5s-1.7,1.3-1.9,2.8c0,.3,0,.8,0,1.3v9.1h-1.4v-11Z"/>
    <path class="cls-1" d="M385.3,413.9h1.4v22.2h-1.4v-22.2Z"/>
    <path class="cls-1" d="M393.5,436.1v-1.9h-.2c-.4,1.2-1.3,2.2-2.4,2.2-1.6,0-2.4-2.2-2.4-4.3,0-3.7,1.7-5.6,4.7-5.6v-.3c0-1.2-.2-3.5-1.8-3.5s-1.5.4-2.1,1.1l-.3-1.8c.7-.8,1.6-1.3,2.6-1.3,2.4,0,3,3.2,3,6.2v5.6c0,1.3,0,2.6.1,3.6h-1.3ZM393.3,428.4c-1.6,0-3.3.5-3.3,3.4s.6,2.6,1.4,2.6,1.7-1.2,1.9-2.5c0-.3,0-.6,0-.9v-2.6Z"/>
    <path class="cls-1" d="M396.8,433.3c.4.5,1.2,1.1,1.9,1.1,1,0,1.5-1,1.5-2.2s-.4-2-1.5-2.8c-1.4-1-2.1-2.5-2.1-4.3s1-4.4,2.7-4.4,1.5.4,1.9.9l-.4,2c-.3-.4-.9-.9-1.6-.9s-1.3.9-1.3,2.1.5,1.8,1.5,2.6c1.4,1,2.1,2.3,2.1,4.6s-1.1,4.5-2.9,4.5-1.7-.4-2.2-1l.4-2.1Z"/>
    <path class="cls-1" d="M406.9,425.9c0-1.9,0-3.5,0-4.9h1.3v2.6h0c.6-1.8,1.5-2.9,2.8-2.9,1.9,0,3.3,3.1,3.3,7.7s-1.7,8.1-3.6,8.1-2-.9-2.4-2.4h0v8.2h-1.4v-16.4ZM408.3,429.9c0,.4,0,.8,0,1.1.3,1.9,1.1,3.2,2.1,3.2,1.5,0,2.4-2.4,2.4-5.8s-.8-5.6-2.3-5.6-1.9,1.3-2.2,3.4c0,.3,0,.7,0,1.1v2.6Z"/>
    <path class="cls-1" d="M417.8,416.7c0,.9-.3,1.7-.9,1.7s-.9-.7-.9-1.7.4-1.7.9-1.7.9.7.9,1.7ZM416.2,436.1v-15.1h1.4v15.1h-1.4Z"/>
    <path class="cls-1" d="M420,425.7c0-1.8,0-3.3,0-4.7h1.3v3h.1c.4-2,1.2-3.3,2.2-3.3s.3,0,.4,0v2.6c-.1,0-.3,0-.5,0-1,0-1.7,1.5-1.9,3.5,0,.4,0,.8,0,1.3v8.1h-1.4v-10.4Z"/>
    <path class="cls-1" d="M429.6,436.1v-1.9h-.2c-.4,1.2-1.3,2.2-2.4,2.2-1.6,0-2.4-2.2-2.4-4.3,0-3.7,1.7-5.6,4.7-5.6v-.3c0-1.2-.2-3.5-1.8-3.5s-1.5.4-2.1,1.1l-.3-1.8c.7-.8,1.6-1.3,2.6-1.3,2.4,0,3,3.2,3,6.2v5.6c0,1.3,0,2.6.1,3.6h-1.3ZM429.4,428.4c-1.6,0-3.3.5-3.3,3.4s.6,2.6,1.4,2.6,1.7-1.2,1.9-2.5c0-.3,0-.6,0-.9v-2.6ZM430.1,414.5l-2,4.5h-1l1.4-4.5h1.6Z"/>
    <path class="cls-1" d="M433.1,425.1c0-1.6,0-2.8,0-4.1h1.3v2.4h.1c.4-1.4,1.2-2.8,2.5-2.8s1.9,1.2,2.2,3h0c.2-.8.6-1.5.9-2,.5-.7,1-1.1,1.7-1.1s2.6,1.3,2.6,6.6v8.9h-1.4v-8.5c0-2.9-.6-4.6-1.7-4.6s-1.4,1.2-1.7,2.5c0,.4-.1.9-.1,1.4v9.3h-1.4v-9c0-2.4-.6-4.1-1.6-4.1s-1.5,1.4-1.8,2.7c0,.4-.1.9-.1,1.3v9.1h-1.4v-11Z"/>
    <path class="cls-1" d="M448.3,416.7c0,.9-.3,1.7-.9,1.7s-.9-.7-.9-1.7.4-1.7.9-1.7.9.7.9,1.7ZM446.7,436.1v-15.1h1.4v15.1h-1.4Z"/>
    <path class="cls-1" d="M457.3,413.9v18.3c0,1.3,0,2.9,0,3.9h-1.3v-2.6h0c-.4,1.7-1.4,3-2.7,3-1.9,0-3.4-3.1-3.4-7.7,0-5,1.6-8.1,3.5-8.1s2,1.1,2.4,2.3h0v-9h1.4ZM455.9,427.1c0-.3,0-.8,0-1.2-.2-1.7-1-3.2-2.1-3.2s-2.4,2.5-2.4,5.8.8,5.6,2.3,5.6,1.8-1.2,2.1-3.3c0-.4,0-.7,0-1.2v-2.6Z"/>
    <path class="cls-1" d="M460.5,429c0,3.7,1.3,5.2,2.7,5.2s1.6-.3,2.2-.8l.2,2c-.5.4-1.4.9-2.6.9-2.4,0-3.9-3.1-3.9-7.6s1.4-8.1,3.7-8.1,3.3,4.3,3.3,7.1,0,1,0,1.3h-5.5ZM464.7,427.1c0-1.7-.4-4.5-2-4.5s-2.1,2.6-2.2,4.5h4.2Z"/>
    <path class="cls-1" d="M467.7,433.3c.4.5,1.2,1.1,1.9,1.1,1,0,1.5-1,1.5-2.2s-.4-2-1.5-2.8c-1.4-1-2.1-2.5-2.1-4.3s1-4.4,2.7-4.4,1.5.4,1.9.9l-.4,2c-.3-.4-.9-.9-1.6-.9s-1.3.9-1.3,2.1.5,1.8,1.5,2.6c1.4,1,2.1,2.3,2.1,4.6s-1.1,4.5-2.9,4.5-1.7-.4-2.2-1l.4-2.1Z"/>
    <path class="cls-1" d="M473.2,439.9c.4-1.8.8-5.2,1-7.5l1.6-.3c-.4,2.6-1.1,6.1-1.5,7.6l-1,.2Z"/>
    <path class="cls-1" d="M480.9,413.9h1.4v22.2h-1.4v-22.2Z"/>
    <path class="cls-1" d="M491.9,428.4c0,5.6-2,8-3.9,8s-3.8-3-3.8-7.8,1.7-8,3.9-8,3.8,3.2,3.8,7.8ZM485.7,428.6c0,3.3,1,5.8,2.4,5.8s2.4-2.5,2.4-5.9-.7-5.8-2.4-5.8-2.4,3-2.4,5.9Z"/>
    <path class="cls-1" d="M493.5,433.3c.4.5,1.2,1.1,1.9,1.1,1,0,1.5-1,1.5-2.2s-.4-2-1.5-2.8c-1.4-1-2.1-2.5-2.1-4.3s1-4.4,2.7-4.4,1.5.4,1.9.9l-.4,2c-.3-.4-.9-.9-1.6-.9s-1.3.9-1.3,2.1.5,1.8,1.5,2.6c1.4,1,2.1,2.3,2.1,4.6s-1.1,4.5-2.9,4.5-1.7-.4-2.2-1l.4-2.1Z"/>
    <path class="cls-1" d="M505.4,416.6v4.3h2.1v2.1h-2.1v8.1c0,1.9.3,2.9,1.1,2.9s.7,0,.8-.2v2.1c-.2.2-.7.4-1.2.4s-1.2-.4-1.5-1.2c-.4-.8-.6-2.2-.6-3.9v-8.2h-1.2v-2.1h1.2v-3.6l1.4-.7Z"/>
    <path class="cls-1" d="M509.7,429c0,3.7,1.3,5.2,2.7,5.2s1.6-.3,2.2-.8l.2,2c-.5.4-1.4.9-2.6.9-2.4,0-3.9-3.1-3.9-7.6s1.4-8.1,3.7-8.1,3.3,4.3,3.3,7.1,0,1,0,1.3h-5.5ZM513.9,427.1c0-1.7-.4-4.5-2-4.5s-2.1,2.6-2.2,4.5h4.2Z"/>
    <path class="cls-1" d="M517.1,425.1c0-1.6,0-2.8,0-4.1h1.3v2.4h.1c.4-1.4,1.2-2.8,2.5-2.8s1.9,1.2,2.2,3h0c.2-.8.6-1.5.9-2,.5-.7,1-1.1,1.7-1.1s2.6,1.3,2.6,6.6v8.9h-1.4v-8.5c0-2.9-.6-4.6-1.7-4.6s-1.4,1.2-1.7,2.5c0,.4-.1.9-.1,1.4v9.3h-1.4v-9c0-2.4-.6-4.1-1.6-4.1s-1.5,1.4-1.8,2.7c0,.4-.1.9-.1,1.3v9.1h-1.4v-11Z"/>
    <path class="cls-1" d="M530.7,425.9c0-1.9,0-3.5,0-4.9h1.3v2.6h0c.6-1.8,1.5-2.9,2.8-2.9,1.9,0,3.3,3.1,3.3,7.7s-1.7,8.1-3.6,8.1-2-.9-2.4-2.4h0v8.2h-1.4v-16.4ZM532.1,429.9c0,.4,0,.8,0,1.1.3,1.9,1.1,3.2,2.1,3.2,1.5,0,2.4-2.4,2.4-5.8s-.8-5.6-2.3-5.6-1.9,1.3-2.2,3.4c0,.3,0,.7,0,1.1v2.6Z"/>
    <path class="cls-1" d="M540,413.9h1.4v22.2h-1.4v-22.2Z"/>
    <path class="cls-1" d="M551,428.4c0,5.6-2,8-3.9,8s-3.8-3-3.8-7.8,1.7-8,3.9-8,3.8,3.2,3.8,7.8ZM544.7,428.6c0,3.3,1,5.8,2.4,5.8s2.4-2.5,2.4-5.9-.7-5.8-2.4-5.8-2.4,3-2.4,5.9Z"/>
    <path class="cls-1" d="M552.6,433.3c.4.5,1.2,1.1,1.9,1.1,1,0,1.5-1,1.5-2.2s-.4-2-1.5-2.8c-1.4-1-2.1-2.5-2.1-4.3s1-4.4,2.7-4.4,1.5.4,1.9.9l-.4,2c-.3-.4-.9-.9-1.6-.9s-1.3.9-1.3,2.1.5,1.8,1.5,2.6c1.4,1,2.1,2.3,2.1,4.6s-1.1,4.5-2.9,4.5-1.7-.4-2.2-1l.4-2.1Z"/>
    <path class="cls-1" d="M562.5,433.3c.4.5,1.2,1.1,1.9,1.1,1,0,1.5-1,1.5-2.2s-.4-2-1.5-2.8c-1.4-1-2.1-2.5-2.1-4.3s1-4.4,2.7-4.4,1.5.4,1.9.9l-.4,2c-.3-.4-.9-.9-1.6-.9s-1.3.9-1.3,2.1.5,1.8,1.5,2.6c1.4,1,2.1,2.3,2.1,4.6s-1.1,4.5-2.9,4.5-1.7-.4-2.2-1l.4-2.1Z"/>
    <path class="cls-1" d="M569.9,429c0,3.7,1.3,5.2,2.7,5.2s1.6-.3,2.2-.8l.2,2c-.5.4-1.4.9-2.6.9-2.4,0-3.9-3.1-3.9-7.6s1.4-8.1,3.7-8.1,3.3,4.3,3.3,7.1,0,1,0,1.3h-5.5ZM574.1,427.1c0-1.7-.4-4.5-2-4.5s-2.1,2.6-2.2,4.5h4.2Z"/>
    <path class="cls-1" d="M587.6,413.9v18.3c0,1.3,0,2.9,0,3.9h-1.3v-2.6h0c-.4,1.7-1.4,3-2.7,3-1.9,0-3.4-3.1-3.4-7.7,0-5,1.6-8.1,3.5-8.1s2,1.1,2.4,2.3h0v-9h1.4ZM586.1,427.1c0-.3,0-.8,0-1.2-.2-1.7-1-3.2-2.1-3.2s-2.4,2.5-2.4,5.8.8,5.6,2.3,5.6,1.8-1.2,2.1-3.3c0-.4,0-.7,0-1.2v-2.6Z"/>
    <path class="cls-1" d="M590.7,429c0,3.7,1.3,5.2,2.7,5.2s1.6-.3,2.2-.8l.2,2c-.5.4-1.4.9-2.6.9-2.4,0-3.9-3.1-3.9-7.6s1.4-8.1,3.7-8.1,3.3,4.3,3.3,7.1,0,1,0,1.3h-5.5ZM594.9,427.1c0-1.7-.4-4.5-2-4.5s-2.1,2.6-2.2,4.5h4.2Z"/>
    <path class="cls-1" d="M598.1,425.7c0-1.8,0-3.3,0-4.7h1.3v3h.1c.4-2,1.2-3.3,2.2-3.3s.3,0,.4,0v2.6c-.1,0-.3,0-.5,0-1,0-1.7,1.5-1.9,3.5,0,.4,0,.8,0,1.3v8.1h-1.4v-10.4Z"/>
    <path class="cls-1" d="M603.5,425.7c0-1.8,0-3.3,0-4.7h1.3v3h.1c.4-2,1.2-3.3,2.2-3.3s.3,0,.4,0v2.6c-.1,0-.3,0-.5,0-1,0-1.7,1.5-1.9,3.5,0,.4,0,.8,0,1.3v8.1h-1.4v-10.4Z"/>
    <path class="cls-1" d="M615.4,432c0,1.6,0,2.9,0,4.1h-1.3v-2.5h-.1c-.4,1.2-1.2,2.8-2.6,2.8s-2.7-1.3-2.7-6.6v-8.8h1.4v8.4c0,2.9.5,4.8,1.8,4.8s1.6-1.3,1.9-2.5c0-.4.1-.9.1-1.4v-9.3h1.4v11Z"/>
    <path class="cls-1" d="M617.8,425.1c0-1.6,0-2.8,0-4.1h1.3v2.4h.1c.4-1.4,1.2-2.8,2.5-2.8s1.9,1.2,2.2,3h0c.2-.8.6-1.5.9-2,.5-.7,1-1.1,1.7-1.1s2.6,1.3,2.6,6.6v8.9h-1.4v-8.5c0-2.9-.6-4.6-1.7-4.6s-1.4,1.2-1.7,2.5c0,.4-.1.9-.1,1.4v9.3h-1.4v-9c0-2.4-.6-4.1-1.6-4.1s-1.5,1.4-1.8,2.7c0,.4-.1.9-.1,1.3v9.1h-1.4v-11Z"/>
    <path class="cls-1" d="M631.3,436.1c0-1,0-2.6,0-3.9v-18.3h1.4v9.5h0c.5-1.7,1.4-2.8,2.7-2.8,2,0,3.3,3.1,3.3,7.7,0,5.4-1.8,8.1-3.5,8.1s-2.1-.8-2.6-2.8h0v2.5h-1.3ZM632.8,430c0,.3,0,.7,0,1,.3,1.9,1.1,3.2,2.1,3.2,1.5,0,2.4-2.3,2.4-5.8s-.8-5.6-2.3-5.6-1.9,1.3-2.2,3.4c0,.3,0,.7,0,1.1v2.7Z"/>
    <path class="cls-1" d="M645,436.1v-1.9h-.2c-.4,1.2-1.3,2.2-2.4,2.2-1.6,0-2.4-2.2-2.4-4.3,0-3.7,1.7-5.6,4.7-5.6v-.3c0-1.2-.2-3.5-1.8-3.5s-1.5.4-2.1,1.1l-.3-1.8c.7-.8,1.6-1.3,2.6-1.3,2.4,0,3,3.2,3,6.2v5.6c0,1.3,0,2.6.1,3.6h-1.3ZM644.8,428.4c-1.6,0-3.3.5-3.3,3.4s.6,2.6,1.4,2.6,1.7-1.2,1.9-2.5c0-.3,0-.6,0-.9v-2.6Z"/>
    <path class="cls-1" d="M648.5,425.7c0-1.8,0-3.3,0-4.7h1.3v3h.1c.4-2,1.2-3.3,2.2-3.3s.3,0,.4,0v2.6c-.1,0-.3,0-.5,0-1,0-1.7,1.5-1.9,3.5,0,.4,0,.8,0,1.3v8.1h-1.4v-10.4Z"/>
    <path class="cls-1" d="M660.8,428.4c0,5.6-2,8-3.9,8s-3.8-3-3.8-7.8,1.7-8,3.9-8,3.8,3.2,3.8,7.8ZM654.6,428.6c0,3.3,1,5.8,2.4,5.8s2.4-2.5,2.4-5.9-.7-5.8-2.4-5.8-2.4,3-2.4,5.9Z"/>
    <path class="cls-1" d="M662.6,425.1c0-1.6,0-2.8,0-4.1h1.3v2.5h.1c.4-1.4,1.3-2.8,2.6-2.8s2.8,1.2,2.8,6.4v9h-1.4v-8.7c0-2.4-.5-4.5-1.8-4.5s-1.7,1.3-1.9,2.8c0,.3,0,.8,0,1.3v9.1h-1.4v-11Z"/>
    <path class="cls-1" d="M675.7,421l1.7,8.9c.2,1,.4,2.2.5,3.1h0c.1-.9.3-2.1.5-3.2l1.6-8.9h1.5l-2.1,10.8c-1,5.2-1.7,7.8-2.7,9.5-.7,1.2-1.4,1.7-1.8,1.8l-.4-2.3c.4-.2.8-.7,1.3-1.3.4-.6.9-1.7,1.2-3.1,0-.3.1-.5.1-.7s0-.4,0-.7l-2.9-13.9h1.6Z"/>
    <path class="cls-1" d="M686.3,413.9h1.4v22.2h-1.4v-22.2Z"/>
    <path class="cls-1" d="M697.2,428.4c0,5.6-2,8-3.9,8s-3.8-3-3.8-7.8,1.7-8,3.9-8,3.8,3.2,3.8,7.8ZM691,428.6c0,3.3,1,5.8,2.4,5.8s2.4-2.5,2.4-5.9-.7-5.8-2.4-5.8-2.4,3-2.4,5.9Z"/>
    <path class="cls-1" d="M698.9,433.3c.4.5,1.2,1.1,1.9,1.1,1,0,1.5-1,1.5-2.2s-.4-2-1.5-2.8c-1.4-1-2.1-2.5-2.1-4.3s1-4.4,2.7-4.4,1.5.4,1.9.9l-.4,2c-.3-.4-.9-.9-1.6-.9s-1.3.9-1.3,2.1.5,1.8,1.5,2.6c1.4,1,2.1,2.3,2.1,4.6s-1.1,4.5-2.9,4.5-1.7-.4-2.2-1l.4-2.1Z"/>
    <path class="cls-1" d="M716.1,428.4c0,5.6-2,8-3.9,8s-3.8-3-3.8-7.8,1.7-8,3.9-8,3.8,3.2,3.8,7.8ZM709.8,428.6c0,3.3,1,5.8,2.4,5.8s2.4-2.5,2.4-5.9-.7-5.8-2.4-5.8-2.4,3-2.4,5.9Z"/>
    <path class="cls-1" d="M717.8,436.1c0-1,0-2.6,0-3.9v-18.3h1.4v9.5h0c.5-1.7,1.4-2.8,2.7-2.8,2,0,3.3,3.1,3.3,7.7,0,5.4-1.8,8.1-3.5,8.1s-2.1-.8-2.6-2.8h0v2.5h-1.3ZM719.3,430c0,.3,0,.7,0,1,.3,1.9,1.1,3.2,2.1,3.2,1.5,0,2.4-2.3,2.4-5.8s-.8-5.6-2.3-5.6-1.9,1.3-2.2,3.4c0,.3,0,.7,0,1.1v2.7Z"/>
    <path class="cls-1" d="M728,429c0,3.7,1.3,5.2,2.7,5.2s1.6-.3,2.2-.8l.2,2c-.5.4-1.4.9-2.6.9-2.4,0-3.9-3.1-3.9-7.6s1.4-8.1,3.7-8.1,3.3,4.3,3.3,7.1,0,1,0,1.3h-5.5ZM732.2,427.1c0-1.7-.4-4.5-2-4.5s-2.1,2.6-2.2,4.5h4.2Z"/>
    <path class="cls-1" d="M735.4,413.9h1.4v22.2h-1.4v-22.2Z"/>
    <path class="cls-1" d="M740.8,416.7c0,.9-.3,1.7-.9,1.7s-.9-.7-.9-1.7.4-1.7.9-1.7.9.7.9,1.7ZM739.2,436.1v-15.1h1.4v15.1h-1.4Z"/>
    <path class="cls-1" d="M742.8,433.3c.4.5,1.2,1.1,1.9,1.1,1,0,1.5-1,1.5-2.2s-.4-2-1.5-2.8c-1.4-1-2.1-2.5-2.1-4.3s1-4.4,2.7-4.4,1.5.4,1.9.9l-.4,2c-.3-.4-.9-.9-1.6-.9s-1.3.9-1.3,2.1.5,1.8,1.5,2.6c1.4,1,2.1,2.3,2.1,4.6s-1.1,4.5-2.9,4.5-1.7-.4-2.2-1l.4-2.1Z"/>
    <path class="cls-1" d="M755.1,435.5c-.4.4-1.2.9-2.3.9-2.4,0-3.9-3.1-3.9-7.7s1.7-8,4.2-8,1.6.4,2,.8l-.3,2.1c-.3-.4-.9-.7-1.7-.7-1.8,0-2.8,2.6-2.8,5.7s1.2,5.6,2.7,5.6,1.4-.4,1.8-.7l.2,2.1Z"/>
    <path class="cls-1" d="M763.8,428.4c0,5.6-2,8-3.9,8s-3.8-3-3.8-7.8,1.7-8,3.9-8,3.8,3.2,3.8,7.8ZM757.5,428.6c0,3.3,1,5.8,2.4,5.8s2.4-2.5,2.4-5.9-.7-5.8-2.4-5.8-2.4,3-2.4,5.9Z"/>
    <path class="cls-1" d="M765.4,433.3c.4.5,1.2,1.1,1.9,1.1,1,0,1.5-1,1.5-2.2s-.4-2-1.5-2.8c-1.4-1-2.1-2.5-2.1-4.3s1-4.4,2.7-4.4,1.5.4,1.9.9l-.4,2c-.3-.4-.9-.9-1.6-.9s-1.3.9-1.3,2.1.5,1.8,1.5,2.6c1.4,1,2.1,2.3,2.1,4.6s-1.1,4.5-2.9,4.5-1.7-.4-2.2-1l.4-2.1Z"/>
    <path class="cls-1" d="M775.3,433.3c.4.5,1.2,1.1,1.9,1.1,1,0,1.5-1,1.5-2.2s-.4-2-1.5-2.8c-1.4-1-2.1-2.5-2.1-4.3s1-4.4,2.7-4.4,1.5.4,1.9.9l-.4,2c-.3-.4-.9-.9-1.6-.9s-1.3.9-1.3,2.1.5,1.8,1.5,2.6c1.4,1,2.1,2.3,2.1,4.6s-1.1,4.5-2.9,4.5-1.7-.4-2.2-1l.4-2.1Z"/>
    <path class="cls-1" d="M782.8,429c0,3.7,1.3,5.2,2.7,5.2s1.6-.3,2.2-.8l.2,2c-.5.4-1.4.9-2.6.9-2.4,0-3.9-3.1-3.9-7.6s1.4-8.1,3.7-8.1,3.3,4.3,3.3,7.1,0,1,0,1.3h-5.5ZM787,427.1c0-1.7-.4-4.5-2-4.5s-2.1,2.6-2.2,4.5h4.2Z"/>
    <path class="cls-1" d="M800.4,413.9v18.3c0,1.3,0,2.9,0,3.9h-1.3v-2.6h0c-.4,1.7-1.4,3-2.7,3-1.9,0-3.4-3.1-3.4-7.7,0-5,1.6-8.1,3.5-8.1s2,1.1,2.4,2.3h0v-9h1.4ZM799,427.1c0-.3,0-.8,0-1.2-.2-1.7-1-3.2-2.1-3.2s-2.4,2.5-2.4,5.8.8,5.6,2.3,5.6,1.8-1.2,2.1-3.3c0-.4,0-.7,0-1.2v-2.6Z"/>
    <path class="cls-1" d="M803.6,429c0,3.7,1.3,5.2,2.7,5.2s1.6-.3,2.2-.8l.2,2c-.5.4-1.4.9-2.6.9-2.4,0-3.9-3.1-3.9-7.6s1.4-8.1,3.7-8.1,3.3,4.3,3.3,7.1,0,1,0,1.3h-5.5ZM807.8,427.1c0-1.7-.4-4.5-2-4.5s-2.1,2.6-2.2,4.5h4.2Z"/>
    <path class="cls-1" d="M810.8,433.3c.4.5,1.2,1.1,1.9,1.1,1,0,1.5-1,1.5-2.2s-.4-2-1.5-2.8c-1.4-1-2.1-2.5-2.1-4.3s1-4.4,2.7-4.4,1.5.4,1.9.9l-.4,2c-.3-.4-.9-.9-1.6-.9s-1.3.9-1.3,2.1.5,1.8,1.5,2.6c1.4,1,2.1,2.3,2.1,4.6s-1.1,4.5-2.9,4.5-1.7-.4-2.2-1l.4-2.1Z"/>
    <path class="cls-1" d="M818,421l1.5,8.5c.3,1.4.5,2.6.6,3.9h0c.2-1.2.4-2.5.7-3.9l1.5-8.5h1.5l-3.1,15.1h-1.4l-3-15.1h1.5Z"/>
    <path class="cls-1" d="M829.5,436.1v-1.9h-.2c-.4,1.2-1.3,2.2-2.4,2.2-1.6,0-2.4-2.2-2.4-4.3,0-3.7,1.7-5.6,4.7-5.6v-.3c0-1.2-.2-3.5-1.8-3.5s-1.5.4-2.1,1.1l-.3-1.8c.7-.8,1.6-1.3,2.6-1.3,2.4,0,3,3.2,3,6.2v5.6c0,1.3,0,2.6.1,3.6h-1.3ZM829.3,428.4c-1.6,0-3.3.5-3.3,3.4s.6,2.6,1.4,2.6,1.7-1.2,1.9-2.5c0-.3,0-.6,0-.9v-2.6Z"/>
    <path class="cls-1" d="M833,425.1c0-1.6,0-2.8,0-4.1h1.3v2.5h.1c.4-1.4,1.3-2.8,2.6-2.8s2.8,1.2,2.8,6.4v9h-1.4v-8.7c0-2.4-.5-4.5-1.8-4.5s-1.7,1.3-1.9,2.8c0,.3,0,.8,0,1.3v9.1h-1.4v-11Z"/>
    <path class="cls-1" d="M842.9,429c0,3.7,1.3,5.2,2.7,5.2s1.6-.3,2.2-.8l.2,2c-.5.4-1.4.9-2.6.9-2.4,0-3.9-3.1-3.9-7.6s1.4-8.1,3.7-8.1,3.3,4.3,3.3,7.1,0,1,0,1.3h-5.5ZM847.1,427.1c0-1.7-.4-4.5-2-4.5s-2.1,2.6-2.2,4.5h4.2Z"/>
    <path class="cls-1" d="M855.9,435.5c-.4.4-1.2.9-2.3.9-2.4,0-3.9-3.1-3.9-7.7s1.7-8,4.2-8,1.6.4,2,.8l-.3,2.1c-.3-.4-.9-.7-1.7-.7-1.8,0-2.8,2.6-2.8,5.7s1.2,5.6,2.7,5.6,1.4-.4,1.8-.7l.2,2.1Z"/>
    <path class="cls-1" d="M859.1,416.7c0,.9-.3,1.7-.9,1.7s-.9-.7-.9-1.7.4-1.7.9-1.7.9.7.9,1.7ZM857.5,436.1v-15.1h1.4v15.1h-1.4Z"/>
    <path class="cls-1" d="M862.2,429c0,3.7,1.3,5.2,2.7,5.2s1.6-.3,2.2-.8l.2,2c-.5.4-1.4.9-2.6.9-2.4,0-3.9-3.1-3.9-7.6s1.4-8.1,3.7-8.1,3.3,4.3,3.3,7.1,0,1,0,1.3h-5.5ZM866.4,427.1c0-1.7-.4-4.5-2-4.5s-2.1,2.6-2.2,4.5h4.2Z"/>
    <path class="cls-1" d="M869.5,425.7c0-1.8,0-3.3,0-4.7h1.3v3h.1c.4-2,1.2-3.3,2.2-3.3s.3,0,.4,0v2.6c-.1,0-.3,0-.5,0-1,0-1.7,1.5-1.9,3.5,0,.4,0,.8,0,1.3v8.1h-1.4v-10.4Z"/>
    <path class="cls-1" d="M881.8,428.4c0,5.6-2,8-3.9,8s-3.8-3-3.8-7.8,1.7-8,3.9-8,3.8,3.2,3.8,7.8ZM875.6,428.6c0,3.3,1,5.8,2.4,5.8s2.4-2.5,2.4-5.9-.7-5.8-2.4-5.8-2.4,3-2.4,5.9Z"/>
    <path class="cls-1" d="M883.6,425.1c0-1.6,0-2.8,0-4.1h1.3v2.5h.1c.4-1.4,1.3-2.8,2.6-2.8s2.8,1.2,2.8,6.4v9h-1.4v-8.7c0-2.4-.5-4.5-1.8-4.5s-1.7,1.3-1.9,2.8c0,.3,0,.8,0,1.3v9.1h-1.4v-11Z"/>
    <path class="cls-1" d="M896.9,429c0,3.7,1.3,5.2,2.7,5.2s1.6-.3,2.2-.8l.2,2c-.5.4-1.4.9-2.6.9-2.4,0-3.9-3.1-3.9-7.6s1.4-8.1,3.7-8.1,3.3,4.3,3.3,7.1,0,1,0,1.3h-5.5ZM901.1,427.1c0-1.7-.4-4.5-2-4.5s-2.1,2.6-2.2,4.5h4.2Z"/>
    <path class="cls-1" d="M904.3,425.1c0-1.6,0-2.8,0-4.1h1.3v2.5h.1c.4-1.4,1.3-2.8,2.6-2.8s2.8,1.2,2.8,6.4v9h-1.4v-8.7c0-2.4-.5-4.5-1.8-4.5s-1.7,1.3-1.9,2.8c0,.3,0,.8,0,1.3v9.1h-1.4v-11Z"/>
    <path class="cls-1" d="M916.8,413.9h1.4v22.2h-1.4v-22.2Z"/>
    <path class="cls-1" d="M925,436.1v-1.9h-.2c-.4,1.2-1.3,2.2-2.4,2.2-1.6,0-2.4-2.2-2.4-4.3,0-3.7,1.7-5.6,4.7-5.6v-.3c0-1.2-.2-3.5-1.8-3.5s-1.5.4-2.1,1.1l-.3-1.8c.7-.8,1.6-1.3,2.6-1.3,2.4,0,3,3.2,3,6.2v5.6c0,1.3,0,2.6.1,3.6h-1.3ZM924.8,428.4c-1.6,0-3.3.5-3.3,3.4s.6,2.6,1.4,2.6,1.7-1.2,1.9-2.5c0-.3,0-.6,0-.9v-2.6Z"/>
    <path class="cls-1" d="M932,413.9h1.4v9.4h0c.2-.8.6-1.5,1-1.9.4-.5.9-.8,1.5-.8,1.1,0,2.8,1.2,2.8,6.5v9h-1.4v-8.7c0-2.4-.5-4.5-1.8-4.5s-1.7,1.2-1.9,2.7c0,.4,0,.8,0,1.3v9.1h-1.4v-22.2Z"/>
    <path class="cls-1" d="M942.6,416.7c0,.9-.3,1.7-.9,1.7s-.9-.7-.9-1.7.4-1.7.9-1.7.9.7.9,1.7ZM941,436.1v-15.1h1.4v15.1h-1.4Z"/>
    <path class="cls-1" d="M944.6,433.3c.4.5,1.2,1.1,1.9,1.1,1,0,1.5-1,1.5-2.2s-.4-2-1.5-2.8c-1.4-1-2.1-2.5-2.1-4.3s1-4.4,2.7-4.4,1.5.4,1.9.9l-.4,2c-.3-.4-.9-.9-1.6-.9s-1.3.9-1.3,2.1.5,1.8,1.5,2.6c1.4,1,2.1,2.3,2.1,4.6s-1.1,4.5-2.9,4.5-1.7-.4-2.2-1l.4-2.1Z"/>
    <path class="cls-1" d="M953,416.6v4.3h2.1v2.1h-2.1v8.1c0,1.9.3,2.9,1.1,2.9s.7,0,.8-.2v2.1c-.2.2-.7.4-1.2.4s-1.2-.4-1.5-1.2c-.4-.8-.6-2.2-.6-3.9v-8.2h-1.2v-2.1h1.2v-3.6l1.4-.7Z"/>
    <path class="cls-1" d="M963.7,428.4c0,5.6-2,8-3.9,8s-3.8-3-3.8-7.8,1.7-8,3.9-8,3.8,3.2,3.8,7.8ZM957.4,428.6c0,3.3,1,5.8,2.4,5.8s2.4-2.5,2.4-5.9-.7-5.8-2.4-5.8-2.4,3-2.4,5.9Z"/>
    <path class="cls-1" d="M965.5,425.7c0-1.8,0-3.3,0-4.7h1.3v3h.1c.4-2,1.2-3.3,2.2-3.3s.3,0,.4,0v2.6c-.1,0-.3,0-.5,0-1,0-1.7,1.5-1.9,3.5,0,.4,0,.8,0,1.3v8.1h-1.4v-10.4Z"/>
    <path class="cls-1" d="M972.5,416.7c0,.9-.3,1.7-.9,1.7s-.9-.7-.9-1.7.4-1.7.9-1.7.9.7.9,1.7ZM970.9,436.1v-15.1h1.4v15.1h-1.4Z"/>
    <path class="cls-1" d="M979.1,436.1v-1.9h-.2c-.4,1.2-1.3,2.2-2.4,2.2-1.6,0-2.4-2.2-2.4-4.3,0-3.7,1.7-5.6,4.7-5.6v-.3c0-1.2-.2-3.5-1.8-3.5s-1.5.4-2.1,1.1l-.3-1.8c.7-.8,1.6-1.3,2.6-1.3,2.4,0,3,3.2,3,6.2v5.6c0,1.3,0,2.6.1,3.6h-1.3ZM978.9,428.4c-1.6,0-3.3.5-3.3,3.4s.6,2.6,1.4,2.6,1.7-1.2,1.9-2.5c0-.3,0-.6,0-.9v-2.6Z"/>
    <path class="cls-1" d="M982.2,434.5c0-1.2.4-2,1-2s1,.8,1,2-.4,2-1,2-1-.8-1-2Z"/>
  </g>
</svg>