<?xml version="1.0" encoding="UTF-8"?>
<svg id="Capa_1" data-name="Capa 1" xmlns="http://www.w3.org/2000/svg" version="1.1" xmlns:xlink="http://www.w3.org/1999/xlink" viewBox="0 0 768 1366">
  <defs>
    <style>
      .cls-1 {
        fill: #c7e6ed;
      }

      .cls-1, .cls-2, .cls-3, .cls-4, .cls-5, .cls-6, .cls-7, .cls-8, .cls-9, .cls-10, .cls-11, .cls-12 {
        stroke-width: 0px;
      }

      .cls-2 {
        fill: #8f3625;
      }

      .cls-13, .cls-14 {
        stroke: #5b4b36;
      }

      .cls-13, .cls-14, .cls-15, .cls-16, .cls-17 {
        stroke-miterlimit: 10;
      }

      .cls-13, .cls-5 {
        fill: none;
      }

      .cls-3 {
        opacity: .3;
      }

      .cls-3, .cls-12 {
        fill: #f489a0;
      }

      .cls-4 {
        fill: #a12e34;
      }

      .cls-14, .cls-7 {
        fill: #5b4b36;
      }

      .cls-15 {
        stroke: #b78a58;
      }

      .cls-15, .cls-8, .cls-17 {
        fill: #bb8f50;
      }

      .cls-6 {
        fill: #a48d15;
      }

      .cls-18 {
        clip-path: url(#clippath);
      }

      .cls-16 {
        stroke: #000;
      }

      .cls-16, .cls-9 {
        fill: #1d150f;
      }

      .cls-10 {
        fill: #fff;
      }

      .cls-11 {
        fill: #161313;
      }

      .cls-17 {
        stroke: #d1a162;
      }
    </style>
    <clipPath id="clippath">
      <rect class="cls-5" x="-33.4" y="95" width="800.9" height="1271.1"/>
    </clipPath>
  </defs>
  <path class="cls-10" d="M112.4,273.2c86.7-130.1,227.1-197.7,363.4-172.8,121.9,22.2,258.5,121.6,286.9,279.2,17.4,96.5-12.4,178.3-28.7,215.4-22.6,51.5-59.5,81.4-77.1,97.3-41.4,37.4-82.2,57.1-109.4,67.5,11.2,13.3,22.3,26.6,33.5,39.9,14.3-12.4,28.7-24.8,43-37.2-9-13.5-8.5-31.5,0-42.5,10.5-13.6,31.8-15,45.4,0,19.9-10.3,41.6-8.1,55,5.3,17.5,17.6,13,46.6,12,53.2-4.9,31.6-26.9,50.5-47.8,69.1-25.7,22.8-62,56.1-107.6,101-32.7-31.9-65.3-63.8-98-95.7.3,0,.6.1.8.2.2,8,.4,16.1.6,24.1,15.9,10.3,50.5,35.8,75,84.3,26,51.4,26,99.6,25,119.6-4.7,30.2-9.4,60.4-14.1,90.5l97.6,181.1-564.6-2.5,98.6-195.8c-4.9-11.4-36.2-87.2-3.5-168.7,23-57.2,64.4-84.5,78.9-93.1,1.1-4,2.6-8.5,4.8-13.3,2.3-5.3,4.8-9.7,7.2-13.3-23.4,25.3-47.4,52.7-71.7,82.4-29,35.5-55.3,70.2-78.9,103.7-30.8,5.3-59.1-2.4-71.7-21.3-2.4-3.6-6.7-11.2-9.6-21.3-1.2-4.2-5.5-19.8-2.4-37.2,5.4-30.1,29.5-45.4,33.5-47.9,20.3-25.6,41.5-51.4,63.4-77.4,39.8-47.2,79.4-91.3,118.3-132.7-14.1-3.9-125.7-36.9-176.9-162.2-57.5-140.9,13.8-269.9,19.1-279.2Z"/>
  <g class="cls-18">
    <g>
      <g>
        <path class="cls-9" d="M430.7,744.6l-89.8-18.1c-136.1-27.4-230.1-157.4-209.1-288.9l13.9-86.8c21.1-131.5,149.6-216.8,285.7-189.4l89.8,18.1c136.1,27.4,230.1,157.4,209.1,288.9l-13.9,86.8c-21.1,131.5-149.6,216.8-285.7,189.4Z"/>
        <g>
          <ellipse class="cls-6" cx="168.4" cy="517.7" rx="9.6" ry="6.2" transform="translate(-370.9 591.6) rotate(-79.8)"/>
          <ellipse class="cls-6" cx="164.6" cy="536.1" rx="9.6" ry="6.2" transform="translate(-392.2 603.1) rotate(-79.8)"/>
          <ellipse class="cls-6" cx="160.7" cy="554.9" rx="9.6" ry="6.2" transform="translate(-413.8 614.7) rotate(-79.8)"/>
        </g>
        <path class="cls-8" d="M693.2,483.9c-30.2,146.2-171.4,236.3-315.4,201.1-144-35.2-236.2-182.3-206-328.5,30.2-146.2,171.4-236.3,315.4-201.1,144,35.2,236.2,182.3,206,328.5Z"/>
        <path class="cls-8" d="M207.4,437c4.2,29.3-8.8,54.5-29,56.2-20.2,1.8-40-20.6-44.2-49.9-4.2-29.3,8.8-54.5,29-56.2,20.2-1.8,40,20.6,44.2,49.9Z"/>
        <ellipse class="cls-8" cx="649.9" cy="568.6" rx="52.4" ry="37.6" transform="translate(-176.5 819.2) rotate(-58.1)"/>
        <path class="cls-12" d="M484.3,564c2.9,15.3-41.6,45.8-83.5,35.6-42-10.3-70.1-58.7-61.5-71,1.6-2.3,5.9-5.3,70.4,10.2,48.8,11.7,73.2,17.8,74.6,25.2Z"/>
        <path class="cls-10" d="M483.3,565.9c3.3,13.4-39.8,38.4-81.4,28.3-41.6-10.2-70.6-53-62.4-63.4,1.5-2,5.7-4.4,69.7,11,48.4,11.7,72.6,17.6,74.2,24.1Z"/>
        <path class="cls-3" d="M615.2,580.3c-6.3,30.4-36.9,48.7-68.3,41-31.5-7.7-51.9-38.5-45.6-68.9,6.3-30.4,36.9-48.7,68.3-41,31.5,7.7,51.9,38.5,45.6,68.9Z"/>
        <path class="cls-3" d="M336.2,508.6c-6.3,30.4-36.9,48.7-68.3,41-31.5-7.7-51.9-38.5-45.6-68.9,6.3-30.4,36.9-48.7,68.3-41,31.5,7.7,51.9,38.5,45.6,68.9Z"/>
        <path class="cls-16" d="M702.4,403.9c-15.8,20.4-57.7-3.5-254.1-51.6-199.2-48.8-247.2-46.5-253.5-72.4-12.2-50.7,145.3-168.2,295.4-130.7,148.8,37.2,243.1,214.9,212.2,254.8Z"/>
        <g>
          <ellipse class="cls-6" cx="604.4" cy="662.4" rx="9.6" ry="6.2" transform="translate(-154.7 1139.8) rotate(-79.8)"/>
          <ellipse class="cls-6" cx="600.6" cy="680.9" rx="9.6" ry="6.2" transform="translate(-176 1151.2) rotate(-79.8)"/>
          <ellipse class="cls-6" cx="596.7" cy="699.6" rx="9.6" ry="6.2" transform="translate(-197.6 1162.8) rotate(-79.8)"/>
        </g>
        <g>
          <path class="cls-11" d="M462.9,458.6c13-12.2,26-24.3,39.1-36.5,8.4-3.1,19.6-6.1,33-6.6,23.1-.9,41.2,6.2,51.6,11.3,16.5,7.7,33.3,15.4,50.4,23,8.1,3.6,16.2,7.1,24.2,10.6,8.4,2,16.8,4.1,25.1,6.1-6,3.9-13.2,7.9-21.7,11.3-16.6,6.6-31.5,8.2-42.2,8.3-3-6.9-7.5-15.5-14.4-24.1-11.8-14.7-24.8-22.3-32.9-26.2-9.7-3.7-22.3-7.4-37.3-8.9-11.3-1.2-21.5-.9-29.9,0-4.7,1.2-10.1,3.1-15.9,6.1-14.4,7.5-23.8,18.3-29.2,25.6Z"/>
          <path class="cls-11" d="M512.6,424.1c17.6,5.2,31.7,9.4,41.4,12.4,12.1,3.7,17.4,5.4,25.3,6.9,14.1,2.5,25.8,2.3,33.7,1.6,7.1-1,14.3-2.1,21.4-3.1-9.3-.7-23.5-2-40.8-5-11.7-2-17.8-3.5-27.7-5.4-12.5-2.4-30.6-5.5-53.4-7.4Z"/>
          <path class="cls-11" d="M515.1,418.2c-1.3-1.8-3-4.6-3.9-8.5-2.3-9.7,2.2-18,3.2-19.7-1.9,3.6-4.5,9.4-5.7,17.1-.8,5.1-.8,9.6-.5,13,2.3-.6,4.6-1.2,7-1.8Z"/>
          <path class="cls-11" d="M550.9,415.4c-.4-2-.8-4.5-.6-7.5.4-7.5,3.7-12.9,5.3-15.2-1.1,2.7-3.1,8.7-2,16,.5,3,1.3,5.5,2.2,7.3-1.6-.2-3.3-.4-4.9-.6Z"/>
          <path class="cls-11" d="M586.6,426.9c4.2-9.5,8.4-19,12.6-28.5-2,4.6-6.3,12.7-14.5,18.9-3.2,2.4-6.2,3.9-8.8,5,3.6,1.5,7.1,3.1,10.7,4.6Z"/>
          <path class="cls-11" d="M612.5,438.8c3.4-.3,7.9-1.1,12.9-3.1,7.8-3.2,13.3-8.1,16.4-11.4-.6,2.3-3,10.4-10.2,15.4-3.5,2.5-7,3.3-9.2,3.6-3.3-1.5-6.7-3-10-4.5Z"/>
        </g>
        <g>
          <path class="cls-11" d="M415.9,449.5c-7.1-17.1-14.2-34.1-21.2-51.2-6.4-6.7-15.5-14.7-27.5-21.4-20.7-11.6-40-13.7-51.6-13.9-18.1-.7-36.5-1.7-55-2.8-8.8-.5-17.6-1.1-26.3-1.8-8.4-2.1-16.9-4.1-25.3-6.2,3.9,6.3,8.9,13.3,15.3,20.4,12.5,13.8,25.5,22.1,35.2,27.2,5.4-4.8,12.9-10.5,22.6-15.1,16.5-7.8,31.4-8.6,40.4-8.3,10.3,1.2,23.2,3.7,37.5,9.3,10.8,4.2,19.9,9.2,27.3,14,3.8,3.3,8,7.5,12.1,12.9,10.2,13.5,14.5,27.6,16.5,36.7Z"/>
          <path class="cls-11" d="M384.3,395.2c-18.1-3.6-32.7-6.3-42.7-8.1-12.6-2.3-18-3.2-25.8-5.6-13.9-4.3-24.5-10-31.4-14.3-6.1-4.3-12.2-8.5-18.3-12.8,8.7,3.7,22.2,9.1,39.2,14.6,11.4,3.7,17.7,5.2,27.4,8,12.4,3.6,30.1,9.4,51.6,18.3Z"/>
          <path class="cls-11" d="M384.3,388.7c1.9-1,4.6-2.8,7-5.8,5.9-7.7,5.1-17.3,4.9-19.3.3,4.2.4,10.6-1.5,18.1-1.3,5-3.1,9-4.7,11.9-1.9-1.6-3.7-3.3-5.6-4.9Z"/>
          <path class="cls-11" d="M352.7,369.4c1.2-1.6,2.5-3.7,3.6-6.5,2.6-7,1.7-13.4,1.1-16.2,0,2.9-.6,9.3-4.5,15.4-1.6,2.5-3.4,4.3-4.9,5.6,1.6.6,3.1,1.2,4.7,1.7Z"/>
          <path class="cls-11" d="M315.6,363.1c0-10.6-.2-21.1-.3-31.7,0,5.1.7,14.4,5.7,23.8,1.9,3.6,4.1,6.5,6.1,8.6-3.8-.3-7.7-.6-11.5-.8Z"/>
          <path class="cls-11" d="M287.3,361.8c-3-1.8-6.8-4.7-10.6-8.9-5.9-6.6-8.9-13.5-10.5-18-.4,2.4-1.4,10.8,3.2,18.7,2.3,3.9,5,6.3,6.9,7.6,3.6.2,7.3.4,10.9.6Z"/>
        </g>
      </g>
      <rect class="cls-17" x="389" y="1028" width="153" height="544.7" rx="12" ry="12"/>
      <rect class="cls-8" x="239.6" y="1028" width="153" height="544.7" rx="12" ry="12"/>
      <rect class="cls-8" x="307.2" y="716.8" width="170.8" height="275.9" rx="12" ry="12"/>
      <ellipse class="cls-8" cx="390.8" cy="1028" rx="151.2" ry="169.8"/>
      <rect class="cls-8" x="349.9" y="660.2" width="84.8" height="138" rx="11.9" ry="11.9"/>
      <path class="cls-8" d="M358.9,1626.3l-108.7,8.8c-20.5,1.7-38.6-13.6-40.3-34l-2.1-24.9c-1.7-20.4,13.7-38.4,34.2-40l108.7-8.8c20.5-1.7,38.6,13.6,40.3,34l2.1,24.9c1.7,20.4-13.7,38.4-34.2,40Z"/>
      <path class="cls-8" d="M419.1,1627.5l108.7,8.8c20.5,1.7,38.6-13.6,40.3-34l2.1-24.9c1.7-20.4-13.7-38.4-34.2-40l-108.7-8.8c-20.5-1.7-38.6,13.6-40.3,34l-2.1,24.9c-1.7,20.4,13.7,38.4,34.2,40Z"/>
      <ellipse class="cls-15" cx="340.1" cy="818.5" rx="52.5" ry="46.9"/>
      <ellipse class="cls-15" cx="444.6" cy="817.7" rx="52.5" ry="46.9"/>
      <g>
        <path class="cls-7" d="M349.9,699.1v7.1c14.6,2.6,32.7,4.4,53.4,3.5,11.8-.5,22.5-1.8,32-3.5v-7.1c-8.6,1.6-18.1,2.9-28.5,3.5-22.1,1.4-41.5-.7-56.9-3.5Z"/>
        <path class="cls-7" d="M349.9,716.8v-10.6c9.1,3.4,23.6,7.5,41.8,7.7,19.1.1,34.3-4.2,43.6-7.7v10.6c-1.8,4.1-5.6,11.2-13,17.4-1.9,1.6-13.7,11.2-29.6,11.2-17.4,0-33.9-11.3-42.7-28.7Z"/>
      </g>
      <ellipse class="cls-2" cx="392.5" cy="730" rx="3.9" ry="9.4"/>
      <path class="cls-2" d="M397.5,784.9c-.6,3.9-2.2,9.3-3.9,9.2-.3,0-1.3-.2-2.7-4.7-1.7-5.8-1.3-10.6-.5-19.7,0,0,.6-7,2.2-20.2.4-3.9.7-6.2,1-6.2.4,0-.5,7.3.5,16.5,1.3,12.6,4.9,15.9,3.4,25.1Z"/>
      <path class="cls-7" d="M307.2,861.8c29.5-2.5,61.6-3.9,96.1-3.5,26.4.3,51.4,1.6,74.7,3.5v24.8c-19.9-5.1-45.2-9.7-74.7-10.6-39.2-1.2-72.2,4.5-96.1,10.6v-24.8Z"/>
      <path class="cls-13" d="M351.1,874c-.6,2.4-1.1,5.6-.3,9,.6,2.4,1.4,3.3,1.8,5.6.4,2.2.4,5.3-1.4,9.3"/>
      <path class="cls-13" d="M370.8,900.6c-.3-1.2-.6-3,.1-4.5.7-1.5,1.6-1.4,2-2.7.5-1.6-.6-2.8-1.4-6-.5-1.8-.6-3.4-.7-4.7-7.6,38.2-15.3,52.9-21.1,59-1.4,1.4-6.7,6.8-11.3,15.8-2.9,5.7-4.4,10.8-5.2,14"/>
      <line class="cls-13" x1="388.2" y1="871.1" x2="388.2" y2="880.3"/>
      <path class="cls-13" d="M397.6,874.5c-.5,1.6-.9,3.8,0,5.8.6,1.5,1.6,2,2.2,3,1,1.6,1.3,4.7-2.2,10.9"/>
      <path class="cls-13" d="M333.9,879.2c-.5,4.1-.1,7.3.4,9.6.8,3.9,2.1,5.7,1.8,8.9-.3,2.9-1.7,5.2-2.9,6.7"/>
      <path class="cls-13" d="M409.3,874.6c-.3,3.5,0,6.5.3,9,1.1,6.6,3.6,9.5,2.5,13.7-.7,2.7-2.4,4.5-3.6,5.6"/>
      <path class="cls-13" d="M424.6,875.6c-.1,1.4-.2,3.4.3,5.8.6,2.9,1.6,4.2,2.2,5.9.7,2.2.7,5.7-2.5,11.1"/>
      <path class="cls-13" d="M446.8,877.6c-.3,1.6-.7,4.1-.3,7.1.3,2.7,1,3.8,1.1,5.9,0,1.8-.2,4.5-2.2,7.8"/>
      <path class="cls-13" d="M468.2,882c.3,2.3.4,5.6-.7,9.3-.8,2.6-1.6,3.6-2.2,5.6-.7,2.5-1,6.4,1.4,12"/>
      <path class="cls-13" d="M433.3,889.3c.3-1.1.6-2.8-.1-4.4-.7-1.4-1.6-1.4-2-2.6-.5-1.6.6-2.7,1.4-5.7.5-1.7.6-3.3.7-4.5,4.3,30.3,14,44.6,22.5,52.1,2.5,2.2,7.1,5.8,15.2,13,9.2,8.2,16.3,15.3,21,20.1"/>
      <polygon class="cls-7" points="541.1 1380.5 396.1 1380.5 396.1 1422.4 542 1417.5 541.1 1380.5"/>
      <line class="cls-13" x1="478.8" y1="1416.4" x2="478.8" y2="1503.3"/>
      <polygon class="cls-14" points="456.5 1499 478.8 1510.7 501.1 1499 478.8 1487.2 456.5 1499"/>
      <path class="cls-13" d="M389,1502.5c51.4-1.6,102.8-3.2,154.2-4.8"/>
      <line class="cls-13" x1="477.7" y1="1511" x2="477.7" y2="1611.7"/>
      <path class="cls-7" d="M404,1597.5l149.6,12.2c7.7.6,13.5,7.4,12.9,15.1h0c-.6,7.7-7.4,13.4-15.1,12.8l-149.6-12.2c-7.7-.6-13.5-7.4-12.9-15.1h0c.6-7.7,7.4-13.4,15.1-12.8Z"/>
      <polygon class="cls-7" points="239.9 1397 389 1397 389 1438.9 239 1434 239.9 1397"/>
      <line class="cls-13" x1="302.2" y1="1432.9" x2="302.2" y2="1512.5"/>
      <polygon class="cls-14" points="324.5 1508.5 302.2 1519.3 279.9 1508.5 302.2 1497.7 324.5 1508.5"/>
      <path class="cls-13" d="M392,1511.7c-51.4-1.5-102.8-2.9-154.2-4.4"/>
      <line class="cls-13" x1="303.3" y1="1519.5" x2="303.3" y2="1611.7"/>
      <path class="cls-1" d="M264.6,941.7c11.2,6.5,60.9,33.7,133.3,30.8,61.7-2.5,102.4-25.2,114.8-32.8,3.3,7.7,6.6,15.4,9.8,23.1-14.1,2.9-28.1,5.7-42.2,8.6-1.3,17.9-3.2,36.8-6,56.7-3,21.4-6.7,41.5-10.7,60.1-3,22.9-6.6,46.5-10.7,70.7-4.3,25.3-9,49.7-13.9,73.3-4.2,38.1-6.4,82.5-3.9,131.9,3.5,69.5,15.4,129.3,28.5,176.9h-56.9c-8.3,1.2-16.6,2.4-24.9,3.5-17.8,1.2-35.6,2.4-53.4,3.5h-14.2c18.4-68.3,23.7-100.2,24.5-116.2,0-2.1.7-16.5,2.1-36.4.5-7.5,1.2-15.9,1.9-24.9,3.9-44.8,7-57.7,5.6-86-1-21.4-4-39.1-6-49.3-5.7-28.9-10.8-35.2-19.4-72.5-3.1-13.5-7.2-24.8-9.3-47.8-2.5-27.6-10.6-55.2-7.9-82.8,2.1-22.5,7.8-43.6-10.3-55-14.1-8.9-34.7-6.9-39.5-16.3-3.3-6.4,2.9-13.9,8.6-19.2Z"/>
      <path class="cls-1" d="M250.3,953.8c12.8,5.8,25.6,11.6,38.3,17.3-45.4,54.7-52,91.7-52.6,110-.2,6.1-.1,21.5,0,31.8.4,33.6.6,50.3,3,65.5,2.7,17.6,7.7,34.1,20.1,66.3,6.3,16.4,12.7,32.7,19,49.1-16.7,42-18,75.9-15.8,99.6,4.4,48.7,25.5,77.4,27.9,142.7.7,19.5-.5,35.5-1.6,46.2-19.2-20.1-45.7-42.5-82-63.1-8.4-4.7-16.7-9.1-24.9-13-4.1-5.5-10-12-18.5-18.6-16.3-12.7-34.5-19.4-46-22.8-4.6,2.4-9.4,5.1-14.3,8.1-9.3,5.7-17.2,11.4-23.8,16.7,31.5-62.7,52.5-111.4,66.1-144.9,8.8-21.6,17.3-44,33.8-76.6,24.8-49,31.6-49.9,40.2-73.3,4.2-11.3,6.2-21,7-29.9,2.7-31.2-7-89.4-7-89.4-1.1-13.5-1.2-31.1,2.5-51.1,5.9-32.1,18.9-56.2,28.5-70.7Z"/>
      <path class="cls-1" d="M517.1,939.6c-9.3,10.5-18.6,21-28,31.5,42.5,54.4,48.6,92,49.3,110,.3,7.1.2,23.2,0,35.4-.5,29.3-.8,44.5-3.6,63.7-3.8,26.5-10.2,46.1-16.3,64.6-6.7,20.4-13.6,37-19,49.1,16.7,42,18,75.9,15.8,99.6-4.4,48.7-25.5,77.4-27.9,142.7-.7,19.5.5,35.5,1.6,46.2,19.2-20.1,45.7-42.5,82-63.1,8.4-4.7,16.7-9.1,24.9-13,4.1-5.5,10-12,18.5-18.6,16.3-12.7,34.5-19.4,46-22.8,4.6,2.4,9.4,5.1,14.3,8.1,9.3,5.7,17.2,11.4,23.8,16.7-31.5-62.7-52.5-111.4-66.1-144.9-8.8-21.6-17.3-44-33.8-76.6-24.8-49-31.6-49.9-40.2-73.3,0,0-5.2-14.2-7-29.9-4.9-44.6,1.3-83.9,1.3-83.9,4.5-28.4.8-72.7-35.6-141.5Z"/>
      <g>
        <ellipse class="cls-7" cx="290.5" cy="979.2" rx="13.7" ry="9.6"/>
        <g>
          <path class="cls-7" d="M230.1,1162.2c1.2-8.5,2.6-21.5,2.1-37.5-.4-13-1.9-22.3-2.1-24.3-2.1-15.7,7.2-45.6,55-108-15.7,19.8-34.7,48.7-46,85.6-10.3,33.6-10.9,62.8-9,84.2Z"/>
          <path class="cls-7" d="M548.4,1162.2c-1.2-8.5-2.6-21.5-2.1-37.5.4-13,1.9-22.3,2.1-24.3,2.1-15.7-7.2-45.6-55-108,15.9,20.3,34.8,49.7,46,87.1,9.8,32.8,10.7,61.4,9,82.8Z"/>
          <path class="cls-7" d="M257.4,939.6c21.2,9.5,47.9,19.3,79.5,26,20,4.3,38.6,6.5,55,7.6,14.7-.9,31.5-2.9,49.7-6.9,30.8-6.8,56.2-17.1,75.5-26.7,2.4,4.7,4.7,9.4,7.1,14.1,1.2,2.4,2.4,4.7,3.6,7.1-46.4,12.6-92.7,25.3-139.1,37.9-46.1-12.6-92.3-25.3-138.4-37.9-.3-1.9-.4-4.3,0-7.1,1.1-7.2,5.1-12.1,7.1-14.1Z"/>
          <polygon class="cls-4" points="388.2 976.4 378.7 985.5 388.2 994.8 396.6 985.6 388.2 976.4"/>
          <line class="cls-13" x1="473.2" y1="976.4" x2="473.3" y2="1005.6"/>
          <line class="cls-13" x1="449.1" y1="982.8" x2="449.1" y2="1013.5"/>
          <line class="cls-13" x1="423.8" y1="989.5" x2="423.8" y2="1013.5"/>
          <line class="cls-13" x1="403.6" y1="994.8" x2="403.6" y2="1020.6"/>
          <line class="cls-13" x1="370.7" y1="994.8" x2="370.7" y2="1023.8"/>
          <line class="cls-13" x1="352.7" y1="989.5" x2="352.7" y2="1017.2"/>
          <line class="cls-13" x1="324.2" y1="982.8" x2="324.2" y2="1013.5"/>
          <line class="cls-13" x1="306.2" y1="976.4" x2="306.2" y2="1005.6"/>
          <ellipse class="cls-7" cx="493.4" cy="979.2" rx="13.7" ry="9.6"/>
        </g>
      </g>
      <path class="cls-7" d="M377.3,1596.4l-149.6,12.2c-7.7.6-13.5,7.4-12.9,15.1h0c.6,7.7,7.4,13.4,15.1,12.8l149.6-12.2c7.7-.6,13.5-7.4,12.9-15.1h0c-.6-7.7-7.4-13.4-15.1-12.8Z"/>
      <path class="cls-8" d="M86,1024.5h0c-16.3-13.9-18.2-38.6-4.2-54.9l205.4-238.2c14-16.2,38.8-18.1,55.2-4.2h0c16.3,13.9,18.2,38.6,4.2,54.9l-205.4,238.2c-14,16.2-38.8,18.1-55.2,4.2Z"/>
      <ellipse class="cls-8" cx="91.9" cy="962.6" rx="23.1" ry="26.5"/>
      <path class="cls-7" d="M300.8,836.9c-2.3,3.4-5.1,7-8.5,10.8-2.4,2.7-4.8,5-7.1,7.1-28.2-14.3-46.9-28.4-51-33.7-3.4-4.3-5.9-8.8-5.9-8.8-1.6-2.7-2.7-5.2-3.6-7.1,0,0,3.6-3.5,3.6-3.5,2.1-2.1,3.5-3.5,3.6-3.5,1.9-1.9,5.8-6.5,14.2-17.7,0,3,.5,7.3,1.8,12.3,0,0,.5,1.8,1.1,3.5,9.4,25.9,41.8,37.4,51.8,40.6Z"/>
      <path class="cls-2" d="M184,901.6c-2.3,4.4-4.8,11.3-2.9,12.6.3.2,1.6.9,6.6-2.6,6.4-4.5,9.6-9.7,15.9-19.7,0,0,4.7-7.6,13.3-22.4,2.5-4.3,4-6.9,3.7-7.1-.5-.3-5.1,7.9-13.4,16.5-11.3,11.7-17.7,12.2-23.2,22.7Z"/>
      <path class="cls-7" d="M269.5,871.5c-2.3,3.4-5.1,7-8.5,10.8-2.4,2.7-4.8,5-7.1,7.1-28.2-14.3-46.9-28.4-51-33.7-3.4-4.3-5.9-8.8-5.9-8.8-1.6-2.7-2.7-5.2-3.6-7.1,0,0,3.6-3.5,3.6-3.5,2.1-2.1,3.5-3.5,3.6-3.5,1.9-1.9,5.8-6.5,14.2-17.7,0,3,.5,7.3,1.8,12.3,0,0,.5,1.8,1.1,3.5,9.4,25.9,41.8,37.4,51.8,40.6Z"/>
      <ellipse class="cls-2" cx="223" cy="859.9" rx="12" ry="5.3" transform="translate(-634.9 629.4) rotate(-60.4)"/>
      <path class="cls-8" d="M595,897.9h0c16.1-14.3,22.4-33.3,14.1-42.4l-122.3-132.7c-8.3-9.1-28.3-4.8-44.4,9.4h0c-16.1,14.3-22.4,33.3-14.1,42.4l122.3,132.7c8.3,9.1,28.3,4.8,44.4-9.4Z"/>
      <ellipse class="cls-8" cx="649.3" cy="749.3" rx="23.1" ry="26.5"/>
      <path class="cls-7" d="M462.8,810.6c2.3,3.4,5.1,7,8.5,10.8,2.4,2.7,4.8,5,7.1,7.1,28.2-14.3,46.9-28.4,51-33.7,3.4-4.3,5.9-8.8,5.9-8.8,1.6-2.7,2.7-5.2,3.6-7.1,0,0-3.6-3.5-3.6-3.5-2.1-2.1-3.5-3.5-3.6-3.5-1.9-1.9-5.8-6.5-14.2-17.7,0,3-.5,7.3-1.8,12.3,0,0-.5,1.8-1.1,3.5-9.4,25.9-41.8,37.4-51.8,40.6Z"/>
      <path class="cls-7" d="M490,840.8c2.3,3.4,5.1,7,8.5,10.8,2.4,2.7,4.8,5,7.1,7.1,28.2-14.3,46.9-28.4,51-33.7,3.4-4.3,5.9-8.8,5.9-8.8,1.6-2.7,2.7-5.2,3.6-7.1,0,0-3.6-3.5-3.6-3.5-2.1-2.1-3.5-3.5-3.6-3.5-1.9-1.9-5.8-6.5-14.2-17.7,0,3-.5,7.3-1.8,12.3,0,0-.5,1.8-1.1,3.5-9.4,25.9-41.8,37.4-51.8,40.6Z"/>
      <path class="cls-8" d="M707.9,745.9h0c-12.9-17.6-30.4-24.7-38.8-15.7l-123.2,131.7c-8.4,9-4.7,30.8,8.3,48.4h0c12.9,17.6,30.4,24.7,38.8,15.7l123.2-131.7c8.4-9,4.7-30.8-8.3-48.4Z"/>
      <path class="cls-2" d="M575.5,875.3c2.3,4.4,4.8,11.3,2.9,12.6-.3.2-1.6.9-6.6-2.6-6.4-4.5-9.6-9.7-15.9-19.7,0,0-4.7-7.6-13.3-22.4-2.5-4.3-4-6.9-3.7-7.1.5-.3,5.1,7.9,13.4,16.5,11.3,11.7,17.7,12.2,23.2,22.7Z"/>
      <ellipse class="cls-2" cx="536.5" cy="833.7" rx="5.3" ry="12" transform="translate(-341.6 373.5) rotate(-29.6)"/>
      <path class="cls-1" d="M356.8,716.4l30.4,20.7c-8.3,12.1-18.4,30.5-23.4,54.8-1.8,8.6-2.6,16.5-2.9,23.7-.7,2.6-2.5,10.1.7,18.5,4.8,12.4,16.4,16.5,18.1,17h18.8c4.2,1,7.5.5,9.4,0,8.6-2.4,15-11.4,16.7-23,.3-9.2-.2-20.9-2.9-34.1-1.8-8.5-4.1-15.9-6.5-22.2-4.8-12.3-9.5-24.7-14.3-37,4.6-.7,12.4-2.6,20.3-8.1,5-3.5,8.5-7.3,10.9-10.4,4.1,11.6,13.2,31.3,32.6,48.1,7.6,6.5,15.1,11.2,21.7,14.6,1.1,1.7,22.3,34.5,6.6,63.6-5.2,9.6-12.7,15.7-18.3,19.3-5.4-.6-12.8-1.3-21.6-2-7-.6-12.9-1.1-20.3-1.5-7.4-.4-18.5-1-32.5-.8-5.9,0-15.4.3-27.1,1.4-11.1,1.1-26,3.1-43.5,7.5-4.4.6-11.3.8-18.6-2.1-23-9.2-25.7-40-25.9-42-1.6-21.6,10.8-37.2,14.2-41.1,5.8-1.5,14.2-4.5,22.4-10.9,0,0,2.9-2.4,5.8-5.2,18.1-17.5,25.8-37.6,29.1-49Z"/>
    </g>
  </g>
</svg>