<?xml version="1.0" encoding="UTF-8"?>
<svg id="Capa_1" data-name="Capa 1" xmlns="http://www.w3.org/2000/svg" version="1.1" viewBox="0 0 768 1366">
  <defs>
    <style>
      .cls-1 {
        fill: #d05e66;
      }

      .cls-1, .cls-2, .cls-3, .cls-4, .cls-5, .cls-6, .cls-7, .cls-8, .cls-9, .cls-10, .cls-11, .cls-12, .cls-13, .cls-14, .cls-15, .cls-16, .cls-17, .cls-18 {
        stroke-width: 0px;
      }

      .cls-2 {
        fill: #fffaf6;
      }

      .cls-3 {
        fill: #36312c;
      }

      .cls-4 {
        fill: #cda285;
      }

      .cls-19, .cls-20 {
        isolation: isolate;
      }

      .cls-5 {
        fill: #b69077;
      }

      .cls-6 {
        fill: #f4f2f3;
      }

      .cls-7 {
        fill: #fcc80c;
      }

      .cls-8 {
        fill: #1d1e1c;
      }

      .cls-9 {
        fill: none;
      }

      .cls-10 {
        fill: #a57149;
      }

      .cls-11 {
        fill: #5b4b36;
      }

      .cls-12 {
        fill: #ee7c78;
      }

      .cls-13 {
        fill: #e7f4f6;
      }

      .cls-14 {
        fill: #070a0f;
      }

      .cls-15 {
        fill: #f4eff3;
      }

      .cls-16 {
        fill: #009bd3;
      }

      .cls-20 {
        fill: #2b3a2b;
        font-family: Boba-Milky, 'Boba Milky';
        font-size: 90px;
      }

      .cls-17 {
        fill: #c2c0c1;
      }

      .cls-18 {
        fill: #030303;
      }
    </style>
  </defs>
  <g>
    <g>
      <g>
        <path class="cls-5" d="M341.2,563.9s5.1,54.4,7.9,67.9"/>
        <ellipse class="cls-4" cx="389" cy="481.1" rx="188.3" ry="180.7"/>
        <path class="cls-4" d="M538.1,528.7c.8,28.9,12.9,51.4,27.2,50.2,14.3-1.1,25.3-25.3,24.6-54.4-.8-28.9-12.9-51.4-27.2-50.2s-25.3,25.3-24.6,54.4Z"/>
        <line class="cls-9" x1="435.4" y1="545.7" x2="435.4" y2="543.5"/>
        <line class="cls-9" x1="520.1" y1="543.5" x2="520.1" y2="541.2"/>
        <g>
          <path class="cls-1" d="M388.5,592.6c11.1.4,20.1-.9,26.1-2.1,0,1.7,0,5.4-2.4,9.4-3,5.2-7.7,7.1-9,7.5s-6,2.8-12.6,2.4c-10.1-.4-17.4-6.2-20.1-8.6-5.8-5.1-6.6-7.3-6-8.6,1.1-3,10.9-.4,24.2,0h-.2Z"/>
          <path class="cls-2" d="M368.4,590.4c.8,1.1,9,11.6,22.3,10.9,12-.6,18.9-9.6,19.9-10.9-5.6,1.1-12.4,2.1-20.1,2.1s-16.1-.9-22.1-2.1Z"/>
          <path class="cls-12" d="M373.3,604.6s17.3-6,34.7,0c0,0-15.8,10.3-34.7,0Z"/>
        </g>
        <path class="cls-4" d="M188.4,533.4c.8,28.9,12.9,51.4,27.2,50.2s25.3-25.3,24.6-54.4c-.8-28.9-12.9-51.4-27.2-50.2-14.3,1.1-25.3,25.3-24.6,54.4Z"/>
        <path class="cls-3" d="M262.3,502.8s-31.1-36.2,54.4-44.6l-12.8,8.1c13.7-1.7,21-3.9,25.1-5.6,7.1-3.2,7.9-6.4,17.6-7.9,4.7-.7,9.4-.7,12.8-.7l-24.2,12.2c12.8-.6,21-1.7,26.3-2.8,7.9-1.7,8.8-2.8,21.8-6.2,9.2-2.4,13.9-3.6,20.3-3.7,10.9-.4,21.6,1.9,21.2,2.2-.2.2-3,0-4.9,0-6.8,0-16.7.7-31.1,5.2,5.6,0,13.9.2,23.6.9,14.4,1.1,16.5,2.4,24,2.1,9.4-.4,12.4-2.4,26.6-5.8,9-2.1,17.3-3.4,22.9-4.3,4.7.7,12,2.2,17.4,5.1,2.6,1.3,5.6,3.2,7.7,7.7,2.4,5.4,0,7.1.9,10.1,2.1,9.2,18.2,17.4,18.2,17.4h0c1.7-2.8,4.5-6,9.2-9.6,10.7-7.9,26.8-13.5,39-17.1-11.6-7.9-22.7-17.4-29.8-28.5-2.1-3.4-3.8-6.6-4.9-9.7,2.8.2,6,0,7.9-.7,2.3-.7,2.4-1.9.4-2.8-3.9-2.4-10.5-5.8-21.4-9-30.8-9-73.5-9.4-121.5-9.9-24.4-.2-48.9-.4-80.8,1.9-35.6,2.6-62.1,7.1-78.6,10.5-.6,6-5.3,10.7-9,13.7,0,0-10.3,8.1-31.5,14.8-7.7,2.4-11.6,3.7-12.8,3.9-.8,0-2.6.4-3.6,1.1-1.3.7-.2,1.7.9,2.4,8.3-1.1,16.3-2.4,24.6-3.6-3.2,2.8-6.4,6.9-6.6,11.8-.2,6.7,5.4,12,9.8,15.2,13.9,8.6,27.8,17.2,41.6,25.9l-.8.4Z"/>
        <path class="cls-8" d="M219.2,451.3s156.8-92,325-5.1c0,0,9.2-79.1-194.8-80.6,0,0-148.1,12.9-130,85.7h-.2Z"/>
        <g>
          <g>
            <g>
              <path class="cls-16" d="M142.3,312.4s98.6-129.9,169.9-139.8c71.3-9.9,171.6-39.9,303,127.8,0,0,118.7,281.9,72.9,293.9,0,0-123.6,43.1-129.6,102.2v1.9c-3.6,60,9.2,87.9-65.8,127.8l-48.4-33-3.6-141.9s57.4-27.2,78.9-84.5c0,0,54.4,24.6,61.7-43.3,0,0,14.6-66-37.5-41,2.1-8.2,3.9-21.6.6-36.9-8.4-38.2-42.8-54.2-47.1-56-68.8-.7-137.8-1.7-206.6-2.4,0,0-74.8-1.5-68.3,94.5,0,0-48.2-6.6-28.1,73.7,0,0,13.3,22.5,45,12.4,0,0,26.3,60.4,86.4,85.1l-3.6,136.6-43.9,36s-71.3-12-71.3-143.9c0,0,18.2-38-129.6-98,0,0-18.2-9.9,1.9-75.9,21-65,42-129.9,63-194.9h-.2Z"/>
              <polygon class="cls-7" points="208.3 710.9 324.4 714.4 325.9 677.7 207.3 673 208.3 710.9"/>
              <path class="cls-7" d="M304.7,642.3l-122.3-3c-13.1-8.6-26.1-17.4-39.2-26.1,42.9.9,85.9,2.1,128.6,3l32.6,26.1h.2Z"/>
              <path class="cls-7" d="M249.2,585.3l-169.7-.9s-11.8-4.5-9.8-26.8c2.3-22.3.4-12.2.4-12.2l123.2,2.2s1.3,30,45.9,19.9l9.9,18v-.2Z"/>
              <path class="cls-7" d="M79.3,507.1l111.4,2.2s0-26.2,30.2-29.2l-132.4-3-9.2,32.1v-2.1Z"/>
              <path class="cls-7" d="M101.2,437.2c41.4.7,82.7,1.3,124.1,2.1,1.3-5.1,3.6-11.2,7.3-18,6-10.9,13.1-17.8,18.2-21.9-45-.6-90-1.3-135-1.9l-14.6,39.9v-.2Z"/>
              <path class="cls-7" d="M144.5,308.5c77.4,26.2,154.9,52.5,232.3,78.7-26.3-70.7-52.3-141.3-78.6-211.8-16.9,8.4-35.3,19.1-54.4,32.8-45.8,32.6-77.8,70.1-99.6,100.3h.2Z"/>
              <path class="cls-7" d="M446.2,171.3c-22.5,72-45,144.1-67.5,216.1,78.2-29.6,156.2-59.2,234.4-88.8,0,0-86.8-115.5-167.1-127.3h.2Z"/>
              <path class="cls-7" d="M512.1,397.3c46.9-1.3,93.6-2.6,140.5-3.9l12,39.7c-40.7,2.1-81.2,4.1-121.9,6.2-2.3-5.4-5.3-11.6-9.4-18.2-7.1-11.2-15.2-18.7-21.2-23.8h0Z"/>
              <path class="cls-7" d="M545.8,476.2l131.5-5.1,10.1,33.7-104.3.4s-1.9-42-39.2-23.1l1.9-6Z"/>
              <path class="cls-7" d="M573,552.3l124.1.9s6.9,24-6,39.9l-185.5.9,14.1-27.7s38.4,14.1,53.3-14.1Z"/>
              <path class="cls-7" d="M489.2,614.9c49.7.7,99.4,1.5,148.9,2.1-6.4,2.8-13.3,6.6-20.6,11.1-7.3,4.5-13.9,9.2-19.3,13.7l-141.2-.6s29.4-20.4,32.3-26.2h0Z"/>
              <path class="cls-7" d="M441.6,684.6l120.4-.9s-5.8,12.4-4.1,36.9l-115.1-1.5-1.1-34.3v-.2Z"/>
            </g>
            <path class="cls-7" d="M229.1,788.7l92.4,2.1.9-35.4-106.1-3s7.5,26.4,12.9,36.5l-.2-.2Z"/>
          </g>
          <path class="cls-7" d="M442.7,760.4l112.9.9s-4.3,23.8-15,33.6c-32.4-.7-64.9-1.5-97.3-2.2-.2-10.9-.4-21.6-.6-32.4v.2Z"/>
        </g>
        <g>
          <path class="cls-6" d="M418.3,514.8s-6,55.5,32.8,54.4c0,0,33,.9,51.2-9.7,0,0-25.7-87.2-75.8-40.5l-2.1-10.3-6.4,6.2h.2Z"/>
          <path class="cls-17" d="M424.7,508.6s16.1-32.2,64.9-8.4c0,0,34.3,30.6,12.8,59.2,0,0-18.8-85.8-75.8-40.5l-2.1-10.3h.2Z"/>
          <path class="cls-18" d="M498.9,565.6s15-3.7,25.7-27.6c0,0-9.8-46.1-28.5-44.4l21,10.1s-23.8-35.6-87.8-18.2l-16.7,16.5,10.7-5.6-13.1,24,8.1-5.6,6.4-6.2s12.4-27.9,60.2-10.5c0,0,41.3,28.1,14.1,67.5h0Z"/>
          <path class="cls-18" d="M473.1,511.4s6.6,37.7-21.4,38.8c0,0-24.2,1.9-18.2-36.9,0,0,26.4-16.9,39.6-1.9h0Z"/>
          <path class="cls-10" d="M486.9,501.9s10.3,62-32.4,63c0,0-36.9,2.4-28.1-60.9,0,0,40.1-27.2,60.6-2.2v.2Z"/>
          <path class="cls-14" d="M432.7,526.6c1.5,16.9,13.1,28.1,25.9,25.3,12.8-2.8,21.8-18.9,20.3-35.8s-13.1-28.1-25.9-25.3-21.8,18.9-20.3,35.8Z"/>
          <path class="cls-14" d="M522.2,452.2c-13.3-.4-27.6,0-42.4,1.1-29.3,2.6-55.5,8.4-78.8,15.9,9.9-9.7,27-23.6,50.3-29.2,32.8-8.1,59.3,5.2,70.9,12.4v-.2Z"/>
          <path class="cls-14" d="M247.5,454.7c13.3-.4,27.6,0,42.4,1.1,29.3,2.6,55.5,8.4,78.8,15.9-9.9-9.7-27-23.6-50.3-29.2-32.8-8.1-59.3,5.2-70.9,12.4v-.2Z"/>
          <path class="cls-15" d="M451.5,517.4c.6,5.8,5.3,9.6,10.7,8.4,5.3-1.3,9.2-6.9,8.6-12.9-.6-5.8-5.3-9.6-10.7-8.4-5.3,1.3-9.2,6.9-8.6,12.9Z"/>
        </g>
        <path class="cls-5" d="M372.9,548.7s9.4-20.2,22.3,0"/>
        <g>
          <path class="cls-6" d="M361.9,513.1s6,55.5-32.8,54.4c0,0-33,.9-51.2-9.7,0,0,25.7-87.2,75.8-40.5l2.1-10.3,6.4,6.2h-.2Z"/>
          <path class="cls-17" d="M355.5,506.9s-16.1-32.2-64.9-8.4c0,0-34.3,30.6-12.8,59.2,0,0,18.8-85.8,75.8-40.5l2.1-10.3h-.2Z"/>
          <path class="cls-18" d="M281.2,563.9s-15-3.7-25.7-27.6c0,0,9.8-46.1,28.5-44.4l-21,10.1s23.8-35.6,87.8-18.2l16.7,16.5-10.7-5.6,13.1,24-8.1-5.6-6.4-6.2s-12.4-27.9-60.2-10.5c0,0-41.3,28.1-14.1,67.5h0Z"/>
          <path class="cls-18" d="M307.1,509.8s-6.6,37.7,21.4,38.8c0,0,24.2,1.9,18.2-36.9,0,0-26.4-16.9-39.6-1.9h0Z"/>
          <path class="cls-10" d="M293.2,500s-10.3,62,32.4,63c0,0,36.9,2.4,28.1-60.9,0,0-40.1-27.2-60.6-2.2v.2Z"/>
          <path class="cls-14" d="M347.4,524.9c-1.5,16.9-13.1,28.1-25.9,25.3s-21.8-18.9-20.3-35.8,13.1-28.1,25.9-25.3c12.8,2.8,21.8,18.9,20.3,35.8Z"/>
          <path class="cls-15" d="M328.7,515.6c-.6,5.8-5.3,9.6-10.7,8.4-5.3-1.3-9.2-6.9-8.6-12.9.6-5.8,5.3-9.6,10.7-8.4,5.3,1.3,9.2,6.9,8.6,12.9Z"/>
        </g>
        <path class="cls-4" d="M384.7,649.4h11.4c4,0,7.3,3.3,7.3,7.3v21.9c0,4-3.3,7.3-7.3,7.3h-11.4c-4,0-7.3-3.3-7.3-7.3v-21.9c0-4,3.3-7.3,7.3-7.3Z"/>
        <path class="cls-4" d="M417.4,813h0c12.4,0,22.5,10.1,22.5,22.5v73.3c0,12.4-10.1,22.5-22.5,22.5h0c-12.4,0-22.5-10.1-22.5-22.5v-73.3c0-12.4,10.1-22.5,22.5-22.5Z"/>
        <path class="cls-4" d="M417.4,896.2h0c12.4,0,22.5,10.1,22.5,22.5v84.9c0,12.4-10.1,22.5-22.5,22.5h0c-12.4,0-22.5-10.1-22.5-22.5v-84.9c0-12.4,10.1-22.5,22.5-22.5Z"/>
        <path class="cls-4" d="M364.9,809.1h0c12.4,0,22.5,10.1,22.5,22.5v73.3c0,12.4-10.1,22.5-22.5,22.5h0c-12.4,0-22.5-10.1-22.5-22.5v-73.3c0-12.4,10.1-22.5,22.5-22.5Z"/>
        <path class="cls-4" d="M364.9,892.5h0c12.4,0,22.5,10.1,22.5,22.5v84.9c0,12.4-10.1,22.5-22.5,22.5h0c-12.4,0-22.5-10.1-22.5-22.5v-84.9c0-12.4,10.1-22.5,22.5-22.5Z"/>
        <path class="cls-4" d="M375,667.6h33c12.4,0,22.5,10.1,22.5,22.5v50c0,12.4-10.1,22.5-22.5,22.5h-33c-12.4,0-22.5-10.1-22.5-22.5v-50c0-12.4,10.1-22.5,22.5-22.5Z"/>
        <ellipse class="cls-4" cx="389.6" cy="765" rx="53.3" ry="80.4"/>
        <g>
          <path class="cls-13" d="M388.1,782.7s-3.9-3-7.3.9l-12,99.9s20.8,29.8,38.3,0l-19.1-100.8h.2Z"/>
          <path class="cls-13" d="M398.6,834.2c3.6,5.4,8.4,11.8,15.2,18.2,14.4,13.7,30.2,20.6,40.3,24.2-1.3-7.9-2.8-16.1-4.7-24.7-.4-1.3-.6-2.2-.8-3.4-1.3-5.4-2.3-9.4-2.6-10.7-2.3-8.8-3.8-17.2-3.8-17.2.6-5.6.8-10.1.8-13.1v-17.1c-8.6-2.6-18.8-5.1-30.2-6.4-9.2-1.1-17.4-1.5-24.9-1.3l10.9,51.9-.2-.4Z"/>
          <path class="cls-13" d="M374.6,836.3c-4.9,5.4-10.5,11.2-17.3,17.2-11.4,9.9-22.7,17.1-32.3,22.5.2-5.4.6-11.1,1.1-17.1.9-10.1,2.3-17.6,2.6-19.9,1.5-9.4,3.9-25.5,7.1-55.3h24.2c4.7,0,11.4,0,19.9-.2-1.9,17.6-3.8,35.2-5.6,52.9l.2-.2Z"/>
          <path class="cls-13" d="M374.4,836.1l-5.6,47.8s-23.8,20.6-44.8,18.2c0,0-1.9-14.1.9-25.5,11.1-6.2,23.8-15,36.6-27,4.9-4.5,9.2-9.2,12.9-13.5h0Z"/>
          <path class="cls-13" d="M398.2,834c2.8,16.7,5.8,33.4,8.6,50,3.2,2.8,7.3,5.8,12.2,8.6,12,6.6,23.6,7.9,30.6,8.1,0,0,1.9-14.1-.9-25.5-11.3-6.2-24.2-15-37.1-27-2.3-2.1-4.3-4.1-4.3-4.1-3.8-3.7-6.9-7.1-9.4-9.9l.4-.2Z"/>
          <path class="cls-13" d="M365.2,811.7s-3.6,12.2-36.4,28.5"/>
          <path class="cls-13" d="M411,810.6s3.2,12.2,33,28.5"/>
        </g>
      </g>
      <path class="cls-4" d="M321.2,993.9h58.3c5,0,9,4,9,9v23.6c0,5-4,9-9,9h-58.3c-5,0-9-4-9-9v-23.6c0-5,4-9,9-9Z"/>
      <path class="cls-4" d="M402.9,993h58.3c5,0,9,4,9,9v23.6c0,5-4,9-9,9h-58.3c-5,0-9-4-9-9v-23.6c0-5,4-9,9-9Z"/>
    </g>
    <path class="cls-4" d="M435.7,667.3l43.5,43.5c8.4,8.4,8.4,22.1,0,30.5h0c-8.4,8.4-22.1,8.4-30.5,0l-43.5-43.5c-8.4-8.4-8.4-22.1,0-30.5h0c8.4-8.4,22.1-8.4,30.5,0Z"/>
    <path class="cls-4" d="M485.3,717.7l43.5,43.5c8.4,8.4,8.4,22.1,0,30.5h0c-8.4,8.4-22.1,8.4-30.5,0l-43.5-43.5c-8.4-8.4-8.4-22.1,0-30.5h0c8.4-8.4,22.1-8.4,30.5,0Z"/>
    <ellipse class="cls-4" cx="523.7" cy="758.3" rx="12.2" ry="12.2"/>
    <path class="cls-4" d="M378.8,700.4l-43.5,43.5c-8.4,8.4-22.1,8.4-30.5,0h0c-8.4-8.4-8.4-22.1,0-30.5l43.5-43.5c8.4-8.4,22.1-8.4,30.5,0h0c8.4,8.4,8.4,22.1,0,30.5Z"/>
    <path class="cls-4" d="M331.3,746.9l-43.5,43.5c-8.4,8.4-22.1,8.4-30.5,0h0c-8.4-8.4-8.4-22.1,0-30.5l43.5-43.5c8.4-8.4,22.1-8.4,30.5,0h0c8.4,8.4,8.4,22.1,0,30.5Z"/>
    <ellipse class="cls-4" cx="262.3" cy="757" rx="12.2" ry="12.2"/>
  </g>
  <g class="cls-19">
    <text class="cls-20" transform="translate(292.1 1129.8)"><tspan x="0" y="0">ORKO</tspan></text>
  </g>
  <path class="cls-11" d="M399.5,1019.7l69.1-.5c3.5,0,6.6,3.3,6.6,7.3h0c0,4-2.8,7.4-6.3,7.3l-69.1.5c-3.5,0-6.6-3.3-6.6-7.3h0c0-4,2.8-7.4,6.3-7.3Z"/>
  <path class="cls-11" d="M314.2,1019.1l69.1-.5c3.5,0,6.6,3.3,6.6,7.3h0c0,4-2.8,7.4-6.3,7.3l-69.1.5c-3.5,0-6.6-3.3-6.6-7.3h0c0-4,2.8-7.4,6.3-7.3Z"/>
</svg>