<?xml version="1.0" encoding="UTF-8"?>
<svg id="Capa_1" data-name="Capa 1" xmlns="http://www.w3.org/2000/svg" version="1.1" viewBox="0 0 768 1366">
  <defs>
    <style>
      .cls-1 {
        fill: #36312c;
      }

      .cls-1, .cls-2, .cls-3, .cls-4, .cls-5, .cls-6, .cls-7, .cls-8, .cls-9, .cls-10, .cls-11, .cls-12, .cls-13, .cls-14, .cls-15, .cls-16 {
        stroke-width: 0px;
      }

      .cls-2 {
        fill: #cda285;
      }

      .cls-3 {
        fill: #b69077;
      }

      .cls-4 {
        fill: #f4f2f3;
      }

      .cls-5 {
        fill: #fcc80c;
      }

      .cls-6 {
        fill: #1d1e1c;
      }

      .cls-7 {
        fill: none;
      }

      .cls-8 {
        fill: #a57149;
      }

      .cls-9 {
        fill: #e7f4f6;
      }

      .cls-10 {
        fill: #070a0f;
      }

      .cls-11 {
        fill: #f4eff3;
      }

      .cls-12 {
        fill: #009bd3;
      }

      .cls-13 {
        fill: #fff;
      }

      .cls-14 {
        fill: #c2c0c1;
      }

      .cls-15 {
        fill: #f489a0;
      }

      .cls-16 {
        fill: #030303;
      }
    </style>
  </defs>
  <g>
    <path class="cls-13" d="M746.3,676.4c-25.1-58.1-61.1-146.2-108.3-256.1-15.2-26.9-69.1-115.3-171.2-152.9-107.7-39.7-196.6,3.8-220.1,16.4-25.5,13.4-62.6,37.2-99.7,78.9-39.5,44.4-62.8,90.8-75.9,121.9-18.5,86-35.3,148.7-48.5,193.8-11.4,38.7-28,91.1-21,158.8,1.2,11.2,2.7,20.3,3.9,26.4l171.2,119c-1.9,15.7-7.8,76.8,23.6,136.5,25.4,48.2,60.8,68.4,74.3,75.1,11.6-14.6,23.5-30.4,35.5-47.3,8.6-12.1,16.6-24,24.2-35.7-4.8,72.6-9.7,145.2-14.5,217.8h0c4-.8,8.1-.1,11.9,1.8,6.5-2.3,13.4-2.5,20.8-1.6,5.8.7,11.7,1.8,17.5,2.9,1.5-.3,3-.3,4.5-.3,4.3-.4,8.5-.6,12.8-.7,1.1,0,2.2,0,3.4,0l-2.5-136.7h22.1l8.3,137.3c7,.1,13.9,0,20.8-.4,7-.5,14-1.7,20.9-2.2l-5.5-211c26.8,15.3,53.5,30.5,80.3,45.8,16.9-5.4,58.9-21.8,70.6-62.5,3.9-13.6,3.7-28.2,3.2-57.6-.4-27.7-2.6-50.6-4.6-66.6,50.7-52.3,101.3-104.6,152-156.9,3-6.9,6.9-17.3,9.3-30.7,8.8-48.7-10-91.5-19.4-113.2Z"/>
    <g>
      <g>
        <path class="cls-3" d="M335.1,834.4s9.9,71.1,14.1,88.7"/>
        <path class="cls-2" d="M596.7,700.9c7.6,131.6-81.9,246.9-199.8,257.5-117.9,10.6-219.7-87.4-227.3-219-7.6-131.6,81.9-246.9,199.8-257.5,117.9-10.6,219.7,87.4,227.3,219Z"/>
        <path class="cls-2" d="M555.7,767.7c3,38,18.5,66.5,34.7,63.5,16.1-2.9,26.8-36.1,23.8-74.1-3-38-18.5-66.5-34.7-63.5-16.1,2.9-26.8,36.1-23.8,74.1Z"/>
        <line class="cls-7" x1="440.4" y1="800.9" x2="440.2" y2="797.9"/>
        <line class="cls-7" x1="536.4" y1="789.2" x2="536.2" y2="786.2"/>
        <path class="cls-2" d="M159.7,809.6c3,38,18.5,66.5,34.7,63.5,16.1-2.9,26.8-36.1,23.8-74.1-3-38-18.5-66.5-34.7-63.5-16.1,2.9-26.8,36.1-23.8,74.1Z"/>
        <path class="cls-1" d="M240.9,762s-38.1-44.5,58.2-64.2l-13.8,11.8c15.5-3.6,23.5-7.3,28-10.1,7.8-4.8,8.4-9.1,19.4-12.1,5.2-1.4,10.6-2,14.4-2.2l-26.6,18.5c14.3-1.9,23.7-4.5,29.6-6.5,8.9-3,9.8-4.7,24.1-10.3,10.2-4,15.5-6.1,22.6-7,12.4-1.6,24.6.3,24.1.9-.2.3-3.5.4-5.6.6-7.6.5-18.9,2.7-35,10.2,6.4-.5,15.8-1.2,26.9-1.2,16.4,0,18.9,1.4,27.3.3,10.6-1.4,13.8-4.5,29.7-10.4,10-3.7,19.3-6.3,25.5-7.9,5.3.6,13.7,1.9,20.1,4.8,3,1.4,6.7,3.6,9.3,9.4,3.2,7,.7,9.3,1.8,13.3,3.1,11.9,22,21.2,22,21.2h0c1.7-3.9,4.6-8.4,9.7-13.5,11.6-11.4,29.4-20.5,42.9-26.4-13.8-9.2-27.1-20.6-35.9-34.4-2.7-4.2-4.7-8.3-6.3-12.3,3.3,0,6.7-.7,8.8-1.7,2.5-1.2,2.6-2.8.1-3.8-4.6-2.8-12.3-6.6-24.9-9.7-35.6-8.8-84.1-4.9-138.6-.7-27.7,2.2-55.6,4.4-91.5,10.8-40.1,7.1-69.9,15.8-88.3,21.8-.3,8-5.1,14.6-9.1,18.8,0,0-11.1,11.8-34.6,22.9-8.6,4.1-12.9,6.1-14.1,6.4-.8.2-2.9.8-3.9,1.7-1.3,1.2,0,2.3,1.2,3.1,9.2-2.4,18.4-4.8,27.6-7.2-3.3,4-6.8,9.7-6.6,16.2.2,8.9,7.1,15.4,12.3,19.1,16.4,9.9,32.7,19.9,49.1,29.8Z"/>
        <path class="cls-6" d="M188.1,698.3s170.6-137.5,367.9-39.8c0,0,4.3-105.1-227-86.4,0,0-166.9,32.1-140.9,126.2Z"/>
        <g>
          <g>
            <g>
              <path class="cls-12" d="M90.6,523.1s101.9-181.4,181.9-201.8c80-20.5,191.5-70.2,353.3,137.7,0,0,156,359.4,105.1,379.9,0,0-136.7,69.4-139,147.9,0,.8,0,1.6,0,2.4.4,79.4,17,115-64.8,175.4l-57.4-38.5-14.9-186.7s63-41.8,83-119.6c0,0,63.5,26.9,66.6-63.4,0,0,11.5-88.4-45.5-50.2,1.6-11,2.8-28.8-2.2-48.6-12.5-49.6-52.6-67-57.7-69.1-78.2,5.9-156.3,11.9-234.5,17.8,0,0-84.9,5.6-70.2,131.5,0,0-55.2-3.6-26.3,100.1,0,0,16.7,28.3,51.9,11.7,0,0,34.3,76.9,104.5,103.3l6.3,180.5-46.9,51.9s-81.6-8.5-91.7-182.4c0,0,17.8-51.9-154.4-115.9,0,0-21.5-11.3-3.7-100.3,18.9-87.8,37.7-175.6,56.6-263.4Z"/>
              <polygon class="cls-5" points="195.5 1041.8 327.6 1034.6 326.3 985.9 191.6 992 195.5 1041.8"/>
              <path class="cls-5" d="M299.6,941.4l-138.8,8.5c-15.4-10.1-30.9-20.3-46.3-30.4,48.7-3.1,97.4-6.1,146.2-9.2l39,31.1Z"/>
              <path class="cls-5" d="M232.5,871.9l-192.5,16s-13.8-4.7-13-34.3c.8-29.6-.5-16.2-.5-16.2l139.9-9.8s3.9,39.5,53.5,21.6l12.6,22.6Z"/>
              <path class="cls-5" d="M34,786.4l126.4-8.4s-1.9-34.6,32-41.6l-150.3,9.6-7.9,43.1-.2-2.6Z"/>
              <path class="cls-5" d="M53.5,692c47-3.4,93.9-6.7,140.9-10.1,1.2-6.8,3.2-15.3,6.9-24.5,6-14.9,13.6-24.9,19-30.9-51.1,3.8-102.1,7.5-153.2,11.3l-13.6,54.1Z"/>
              <path class="cls-5" d="M92.8,517.8c89.8,26.7,179.6,53.4,269.5,80.1-35-90.4-70.1-180.9-105.1-271.3-18.5,12.9-38.6,28.9-59.1,48.7-49.3,47.8-83,100.3-105.3,142.5Z"/>
              <path class="cls-5" d="M424.3,305.9c-20,97.3-40,194.5-60,291.8,86.3-47,172.7-94.1,259-141.1,0,0-107.1-143.4-199-150.7Z"/>
              <path class="cls-5" d="M516.2,597.3c53-6.5,105.9-13.1,158.9-19.6l16.6,51.1c-45.9,6.9-91.8,13.8-137.7,20.7-2.9-6.9-6.8-14.9-12-23-9-14-18.6-23.3-25.9-29.2Z"/>
              <path class="cls-5" d="M560.5,697.8l148.6-20.1,14.1,43.6-118.1,11s-5.3-55.1-46.2-26.3l1.6-8.2Z"/>
              <path class="cls-5" d="M597.1,795.5l140.7-11.4s9.7,31-3.8,53.2l-210.1,20.3,13.8-38.1s44.7,14.6,59.3-24.1Z"/>
              <path class="cls-5" d="M506.7,886.6c56.3-4.1,112.7-8.3,169-12.4-7,4.5-14.6,9.9-22.6,16.6-8,6.7-15,13.5-20.9,19.9l-160,13.8s31.8-29.9,34.6-37.9Z"/>
              <path class="cls-5" d="M458.1,983.4l136.4-13.6s-5.7,16.9-1.9,49l-130.7,9.8-3.8-45.2Z"/>
            </g>
            <path class="cls-5" d="M225.1,1142.1l104.9-6.8-1.7-46.9-120.6,6.8s10.5,34.1,17.4,46.8Z"/>
          </g>
          <path class="cls-5" d="M465.2,1083.1l128.1-10.2s-3.1,31.8-14.4,45.9c-36.8,2.3-73.7,4.7-110.5,7-1.1-14.2-2.1-28.5-3.2-42.7Z"/>
        </g>
        <path class="cls-3" d="M370,811.2s9-27.7,25.4-2.3"/>
        <g>
          <path class="cls-15" d="M440.2,868.7c4.4,10.2-18,42.4-45.8,44.9-27.9,2.5-53.7-25.4-50.5-36.2.6-2,2.8-5.2,45.6-9.2,32.4-3,48.6-4.5,50.8.5Z"/>
          <path class="cls-13" d="M439.6,866.2c4.1,4.9-19,22.1-46.6,24.5-27.6,2.5-52.4-10.4-48.9-15.9.7-1.1,2.9-2.7,45.3-6.6,32.1-3,48.2-4.4,50.2-2Z"/>
        </g>
      </g>
      <rect class="cls-2" x="414.3" y="1155.3" width="41.9" height="174.3" rx="7" ry="7"/>
      <rect class="cls-2" x="357.7" y="971.3" width="83" height="113" rx="12" ry="12"/>
      <ellipse class="cls-2" cx="398.7" cy="1074.1" rx="46" ry="69.6"/>
      <rect class="cls-2" x="368.3" y="919.2" width="63.3" height="105.4" rx="10.7" ry="10.7"/>
      <rect class="cls-2" x="344.9" y="1153.7" width="48.9" height="174.3" rx="8.2" ry="8.2"/>
      <g>
        <path class="cls-9" d="M397.8,1092.6s-4.3-3.5-7.8,1.1l-12.7,118.8s22.1,35.4,40.8,0l-20.3-120Z"/>
        <path class="cls-9" d="M409,1154c3.8,6.5,9,14,16.1,21.5,15.3,16.2,32,24.5,42.9,28.7-1.4-9.4-3-19.3-5.1-29.5-.3-1.5-.6-2.8-.8-4-1.4-6.4-2.5-11.2-2.8-12.7-2.4-10.5-4.1-20.5-4.1-20.5-1.3-7.7-1.6-11.8-3.6-19.6,0-.2-.7-2.6-1.4-5.3-2.9-10.1-7-20-10.7-27.8-5.1,1.4-10.6,2.7-16.3,3.8-9.2,1.8-17.9,2.9-25.8,3.5l11.6,61.8Z"/>
        <path class="cls-9" d="M383.5,1156.5c-5.1,6.5-11.2,13.5-18.4,20.4-12.1,11.8-24.1,20.4-34.3,26.6.5-13.3,1.7-28.1,4.2-44,4.2-27.4,11-50.7,17.8-69.5,5.2.8,10.7,1.6,16.4,2.2,7.1.7,13.9,1.2,20.4,1.5-2,21-4,41.9-6,62.9Z"/>
        <path class="cls-9" d="M383.2,1156.1l-5.9,56.9s-25.4,24.6-47.6,21.5c0,0-1.9-16.8.9-30.3,11.8-7.4,25.4-17.7,38.9-32,5.1-5.4,9.7-10.9,13.7-16.1Z"/>
        <path class="cls-9" d="M408.6,1153.8c3.1,19.8,6.2,39.7,9.3,59.5,3.4,3.3,7.7,7,13,10.2,12.9,7.8,25.1,9.4,32.6,9.6,0,0,1.9-16.8-.9-30.4-12-7.4-25.8-17.8-39.5-32.1-2.3-2.4-4.6-5-4.6-5-4-4.5-7.3-8.5-9.9-11.8Z"/>
        <path class="cls-9" d="M373.4,1127.3s-3.8,14.4-38.8,33.9"/>
        <path class="cls-9" d="M422.1,1126s3.5,14.4,35.1,33.9"/>
      </g>
      <g>
        <path class="cls-2" d="M305.5,1064.5l-12.9-20.7c-4.8-7.8-3-18.5,4-23.8l62.3-47.1c7-5.3,16.8-3.3,21.6,4.4l12.9,20.7c4.8,7.8,3,18.5-4,23.8l-62.3,47.1c-7,5.3-16.8,3.3-21.6-4.4Z"/>
        <path class="cls-2" d="M254.6,975.3l17.1-15.3c6.4-5.7,14.9-3.1,18.9,5.9l35.3,79.7c4,9,2,21.1-4.4,26.8l-17.1,15.3c-6.4,5.7-14.9,3.1-18.9-5.9l-35.3-79.7c-4-9-2-21.1,4.4-26.8Z"/>
      </g>
      <g>
        <path class="cls-2" d="M518.7,1035.6l-10.4,22.4c-3.9,8.4-13.3,11.7-20.9,7.4l-67.3-38c-7.6-4.3-10.6-14.7-6.7-23l10.4-22.4c3.9-8.4,13.3-11.7,20.9-7.4l67.3,38c7.6,4.3,10.6,14.7,6.7,23Z"/>
        <path class="cls-2" d="M469.6,1134.1l-17.8-13.3c-6.6-5-9.2-16.8-5.7-26.2l31.2-83.6c3.5-9.4,11.9-13.1,18.5-8.1l17.8,13.3c6.6,5,9.2,16.8,5.7,26.2l-31.2,83.6c-3.5,9.4-11.9,13.1-18.5,8.1Z"/>
      </g>
    </g>
  </g>
  <g>
    <path class="cls-4" d="M407.4,766.3s-.2,57.5,42.8,52.3c0,0,36.7-2.3,55.6-15.3,0,0-38.5-86.5-88.6-33.7l-3.5-10.3-6.3,7Z"/>
    <path class="cls-14" d="M413.8,759.3s14.2-34.7,71-15.2c0,0,41.6,27.8,21.1,59.2,0,0-30.7-86-88.6-33.7l-3.5-10.3Z"/>
    <path class="cls-16" d="M502.7,810.1s16.3-5.4,25.3-30.9c0,0-16.2-46.2-36.7-42.5l24.4,8.3s-30.5-34-99.3-9.7l-16.5,18.6,11.2-6.9-11.9,25.9,8.2-6.5,6.3-7s10.5-29.9,65.6-16.9c0,0,49,24.6,23.3,67.7Z"/>
    <path class="cls-16" d="M467.6,757.2s11.6,38-19.3,41.8c0,0-26.5,4.4-24.4-35.9,0,0,27.3-20,43.6-6Z"/>
    <path class="cls-8" d="M482.1,745.9s18.7,62.5-28.6,67.8c0,0-40.7,6.4-38.3-59.4,0,0,41.4-31.9,66.9-8.4Z"/>
    <path class="cls-10" d="M424.9,776.9c3.7,17.1,17.8,27.5,31.6,23.2,13.8-4.3,22-21.6,18.3-38.7-3.7-17.1-17.8-27.5-31.6-23.2-13.8,4.3-22,21.6-18.3,38.7Z"/>
    <path class="cls-10" d="M515.4,691.5c-14.8.9-30.5,2.6-46.9,5.5-32.1,5.6-60.7,14.4-85.5,24.3,9.9-10.9,27.3-27,52.4-35.2,35.6-11.6,66.2-.8,80,5.4Z"/>
    <path class="cls-10" d="M211.1,722.1c14.7-1.8,30.5-3,47.2-3.2,32.7-.4,62.6,3,89.1,8.2-12.1-8.9-32.8-21.4-59.2-24.9-37.4-4.9-65,11.4-77.2,19.9Z"/>
    <path class="cls-11" d="M444.5,765.5c1.3,6,7,9.3,12.8,7.5,5.8-1.8,9.4-8.1,8.1-14-1.3-6-7-9.3-12.8-7.5-5.8,1.8-9.4,8.1-8.1,14Z"/>
  </g>
  <g>
    <path class="cls-4" d="M344.6,770.3s13,56.3-30.2,59c0,0-36.4,4.4-57.9-4.8,0,0,18.3-91.8,79.2-49.2l1.1-10.8,7.8,5.7Z"/>
    <path class="cls-14" d="M336.8,764.6s-21.6-31.3-72.9-1.9c0,0-34.5,34.9-7.4,61.9,0,0,10.8-89.8,79.2-49.2l1.1-10.8Z"/>
    <path class="cls-16" d="M261.1,830.6s-17.2-2.3-31.7-25.6c0,0,5.5-48.2,26.4-48.4l-22,12.6s22.3-38.9,95.1-27.6l20.3,15.2-12.5-4.7,17.4,23.2-9.5-4.9-7.8-5.7s-17-27.3-68-4.6c0,0-42.4,33-7.7,70.6Z"/>
    <path class="cls-16" d="M283.6,772.4s-2.8,39.3,28.2,37.5c0,0,27-.5,15.8-39.6,0,0-31.2-14.6-44.1,2.1Z"/>
    <path class="cls-8" d="M266.9,764s-4.3,64.6,43.2,61.2c0,0,41.3-1.2,24.2-65.2,0,0-47.7-23.6-67.4,4Z"/>
    <path class="cls-10" d="M329.9,783.8c.2,17.4-11.3,30.2-25.8,28.5-14.5-1.7-26.3-17.1-26.6-34.5-.2-17.4,11.3-30.2,25.8-28.5,14.5,1.7,26.3,17.1,26.6,34.5Z"/>
    <path class="cls-11" d="M308.1,776.3c0,6.1-4.8,10.4-10.8,9.7-6.1-.7-11-6.2-11.1-12.3,0-6.1,4.8-10.4,10.8-9.7s11,6.2,11.1,12.3Z"/>
  </g>
</svg>