<?xml version="1.0" encoding="UTF-8"?>
<svg id="Capa_1" data-name="Capa 1" xmlns="http://www.w3.org/2000/svg" version="1.1" viewBox="0 0 1920 1080">
  <defs>
    <style>
      .cls-1 {
        fill: #61b12f;
      }

      .cls-1, .cls-2 {
        stroke-width: 0px;
      }

      .cls-3, .cls-4 {
        isolation: isolate;
      }

      .cls-5 {
        stroke: #221e20;
        stroke-miterlimit: 10;
        stroke-width: .8px;
      }

      .cls-5, .cls-2 {
        fill: #2d4999;
      }

      .cls-4 {
        fill: #12110b;
        font-family: BaskOldFace, 'Baskerville Old Face';
        font-size: 183.4px;
      }
    </style>
  </defs>
  <g class="cls-3">
    <text class="cls-4" transform="translate(555.9 857.8) scale(1.1 1)"><tspan x="0" y="0">Fansia</tspan></text>
  </g>
  <g>
    <path class="cls-5" d="M1346.8,627.9c20.8-10.8,86.9-47.7,111.6-119.2,29.5-85.4-11.9-185.2-105.3-247.9-61.5-26.2-132.5-61.6-207-109.3-87.3-56-155.5-113.9-207-163.9,0,0-314.3,527.1,230.3,720.4,0,0,124.5-220.8-93.4-397.5,0,0,252.1,71.8,270.8,317.4h.1Z"/>
    <path class="cls-1" d="M1372.5,686.3c16.7-22.2,58.6-71.7,135.5-102.7,93-37.5,177.8-24.1,205.8-18.6,16.9,1.1,38.4,1.1,63-2.7,39.3-6.1,69.3-19.2,88.3-29.4,0,0-256.1,388.1-532.8,249.4,0,0,267.5-59.4,277.7-113.9,0,0-104.1-18.8-237.2,17.9h-.1Z"/>
    <path class="cls-5" d="M1354.6,642.4c.8,60.8-23.3,104.5-46.7,148.1-9.7,18.2-42.6,76.5-109.9,134.3-31.9,27.5-62.3,46.8-85,59.9-41.3,22.1-100.4,46-174.8,59-105.6,18.5-247.5,15.1-392.7-72.8,0,0-209.6-126-220.9-351.5,0,0-31.1-372.6,397.3-474.8,0,0,39.4-4.7,71.6,12.9-8.7.2-18,.7-28,1.8-14.2,1.6-27.1,3.8-38.4,6.5,0,0-218.9,46-319.5,219-32.2,53.3-45.8,101.2-52,133.2-7.7,39.3-18.8,127.9,24,228.4,18.8,44.1,42.5,77.5,60.1,99.4,20.8,25.2,53.3,59,100.6,91,17.1,11.6,49.7,32.1,94.4,50.7,75.9,31.3,147.7,40.5,200.2,42.3,33.4-1,73.1-5.7,117.1-14.8,65.5-13.5,144.9-38.9,200.4-87.3,44.5-32.7,74.5-65.8,93.4-90.2,66.7-85.8,79.5-167.7,81.9-185.9,3.7-27,3.1-53.3,3.1-55.2-.7-28.2-4.6-52.1-8.8-70.6,13.3,23.5,31.9,64.4,32.6,116.6h.1Z"/>
    <polygon class="cls-2" points="1350.4 627.4 1371.2 609.9 1326.6 525.3 1350.4 627.4"/>
  </g>
</svg>