<?xml version="1.0" encoding="UTF-8"?>
<svg id="Capa_1" data-name="Capa 1" xmlns="http://www.w3.org/2000/svg" version="1.1" xmlns:xlink="http://www.w3.org/1999/xlink" viewBox="0 0 1920 1080">
  <defs>
    <style>
      .cls-1 {
        fill: #e3bc71;
      }

      .cls-1, .cls-2, .cls-3, .cls-4, .cls-5, .cls-6, .cls-7, .cls-8, .cls-9, .cls-10, .cls-11, .cls-12, .cls-13, .cls-14, .cls-15, .cls-16, .cls-17 {
        stroke-width: 0px;
      }

      .cls-2 {
        fill: #f5cf7e;
      }

      .cls-3 {
        fill: #d49f53;
      }

      .cls-4 {
        fill: #e6b24d;
      }

      .cls-5 {
        fill: #cd9445;
      }

      .cls-6 {
        fill: #a06928;
      }

      .cls-7 {
        fill: #efb255;
      }

      .cls-8 {
        fill: #ffd67c;
      }

      .cls-9 {
        fill: url(#Degradado_sin_nombre_39);
      }

      .cls-10 {
        fill: #ffe089;
      }

      .cls-11 {
        fill: #ffd880;
      }

      .cls-12 {
        fill: #fac55d;
      }

      .cls-13 {
        fill: #e1b461;
      }

      .cls-14 {
        fill: #de9c46;
      }

      .cls-15 {
        fill: #fdd782;
      }

      .cls-16 {
        fill: #ffecad;
      }

      .cls-17 {
        fill: #fadc9c;
      }
    </style>
    <linearGradient id="Degradado_sin_nombre_39" data-name="Degradado sin nombre 39" x1="964.4" y1="643.5" x2="953.9" y2="143.3" gradientUnits="userSpaceOnUse">
      <stop offset=".1" stop-color="#e7ffdb"/>
      <stop offset=".5" stop-color="#b3eacd"/>
      <stop offset="1" stop-color="#5096a0"/>
    </linearGradient>
  </defs>
  <g>
    <path class="cls-9" d="M0,729.2c12.4,1.4,164.7,0,164.7,0,97.6-87.7,195.2-175.3,292.8-263,40.7,33.2,81.4,66.5,122.1,99.7,84.1-72.9,168.1-145.8,252.2-218.6,125.4,110.4,250.7,220.9,376.1,331.3,50.7-41.8,101.4-83.5,152-125.3,67.4,57.1,134.7,114.2,202.1,171.3,118.4,4.7,236.7,9.4,355.1,14V0H0v729.2Z"/>
    <g>
      <path class="cls-14" d="M353.7,754c160.4-137,320.9-274.1,481.3-411.1,20.8,22,48.9,52.7,80.8,90.6,37.1,44,64.3,79.9,90.6,115.3,38.9,52.4,98,133.5,172.5,241.7-41.7-5.8-107.4-15.8-187.5-32.8-130.9-27.6-155-42.8-235.8-49.6-82-6.8-146.9,1.3-215.5,9.9-75.8,9.5-139.1,23.5-186.4,35.9Z"/>
      <path class="cls-15" d="M834.9,342.9l545.6,443.3s-161.7,17.6-201.7,4.3l-343.9-447.7Z"/>
      <path class="cls-3" d="M164.7,729.2l292.8-263,90.9,121.5-172.3,150.9s-109.2-34.3-211.4-9.4Z"/>
      <polygon class="cls-10" points="457.5 466.2 580.6 560.2 548.4 587.7 457.5 466.2"/>
      <path class="cls-1" d="M1227.8,662.1l132.1-108.8,133.7,185.4s-159,10.3-174.5-2.3l-91.4-74.2Z"/>
      <polygon class="cls-16" points="1359.9 553.2 1572.9 731.6 1493.6 738.6 1359.9 553.2"/>
    </g>
  </g>
  <g>
    <path class="cls-6" d="M0,982l519.1-94.4s-178.9,64,142.8,47.2c0,0,65.7-11.8,67.4,47.2,0,0,340.2,32,574.2,0,0,0,153.2-13.8,225.7,42.1,0,0,356.6,23.6,387.9,0,31.4-23.6,0-8.4,0-8.4v64.3H0v-98Z"/>
    <path class="cls-12" d="M1926.5,960.1c-55.3,6.3-117.5,10.1-185.4,9.1-105.8-1.6-198.8-14.7-275.8-31,0,0-197.1-1-264.6,15.5,0,0-482.8,4.8-523.3-21.3,0,0,48.2,10.5,47.8,36.8-.5,26.3,1.2,11.2,1.2,11.2,0,0,356.1,52.6,585.6,1.8,0,0,138.4-5.2,216,40.3,0,0,332,28.6,388.8,0,3.2-20.8,6.3-41.6,9.5-62.3Z"/>
    <path class="cls-4" d="M519.1,886s417.3-87.6,659.8-35.4c0,0,118.6,31.7,190.1,27.9,4-.2,7.9-.5,11.6-1,69.4-8.4,131.7-1.7,146.8,8.4,15.2,10.1,346.5,45.5,389.6,21.9v53.3c-35.8,4.8-73.8,8.4-114,10.2-125.9,5.6-236.9-8.4-327.9-28.1-28.3.7-56.8,1.4-85.5,2.3-61.9,1.9-123.2,4.4-183.6,7.3-331.1,6.1-468.4,1.1-493.2-9.5-1-.4-6.8-3-14.9-5.3-35.2-9.8-65.9-.3-77,2.8-64.6,17.6-153.3.9-157-18.3-1.8-9.3,16.2-21.3,22.1-25.3,13.3-8.9,26.4-10.8,32.9-11.3Z"/>
    <path class="cls-5" d="M0,863l735.4-120.5c-37.1,6-84,13.6-138.3,22.7-80.7,13.5-121.1,20.7-123.3,37.1-1.2,8.8,9,17.5,18,23.6l503,8.1c-64.5,3.9-163.1,11.6-282.9,27.9-115.3,15.7-188,30.9-302,51.7-96.2,17.6-236.1,41.7-409.8,66.8v-117.4Z"/>
    <path class="cls-13" d="M0,764.2s203.4,35.6,356.6-10.9c0,0,359.9-98,459.8-36.8,0,0,9.6,27.4-240,52.1,0,0-530.3,112.4-576.3,94.4v-98.9Z"/>
    <path class="cls-7" d="M0,727h168.5s124.6-42.1,211.8,11.6c0,0,12.9,29.6-114.8,41.7L0,790.6v-63.5Z"/>
    <path class="cls-8" d="M816.3,716.5s349.1,80.2,362.5,74.1c0,0,318.9,16.3,341.3,35.4,22.5,19.1,370.5,41.6,396.9,29.2v67.4c-249.3-12.5-352.9-25.3-389.6-36.5-4.3-1.3-16.6-5.3-34-8-29.8-4.6-49.4-1.3-103.8,3.4-11.9,1-30.5,2.6-53.6,4.1-54-12.7-112.6-24.1-175.6-33.1-96.7-13.8-186-19.3-265.6-20,0,0-343.5,1.4-403-6.5,0,0-108.2-45.3,142.4-63.6,0,0,171.1-26.1,182.2-45.8Z"/>
    <path class="cls-17" d="M1319.1,736.3l174.5,2.3,79.3-7,344.1,20.2v24.7s-572.2,2.8-597.9-40.2Z"/>
    <path class="cls-2" d="M1331.4,744.4l54.1,46.2s312.1,1.7,351.4,12.9c0,0,132.5,42,180.2,30.5v-57.5s-549-4.2-585.7-32.1Z"/>
    <path class="cls-11" d="M1262.9,795.5l114.1-12.2s441.8,7.1,540.1,50.7v21.1s-224,31.2-388.5-25.4c0,0-260.9-33.9-271.6-34.6"/>
    <path class="cls-11" d="M1562,724.6c22.2.9,355.1,14,355.1,14v13.2l-344.1-20.2-10.9-7Z"/>
  </g>
</svg>