<?xml version="1.0" encoding="UTF-8"?>
<svg id="Capa_1" data-name="Capa 1" xmlns="http://www.w3.org/2000/svg" version="1.1" xmlns:xlink="http://www.w3.org/1999/xlink" viewBox="0 0 768 1366">
  <defs>
    <style>
      .cls-1 {
        fill: #2d251c;
      }

      .cls-1, .cls-2, .cls-3, .cls-4 {
        stroke-miterlimit: 10;
      }

      .cls-1, .cls-3 {
        stroke: #3f3830;
      }

      .cls-5 {
        fill: #4c3627;
      }

      .cls-5, .cls-6, .cls-7, .cls-8, .cls-9, .cls-10, .cls-11, .cls-12, .cls-13, .cls-14, .cls-15 {
        stroke-width: 0px;
      }

      .cls-6 {
        fill: #f4f2f3;
      }

      .cls-7, .cls-4 {
        fill: none;
      }

      .cls-2 {
        stroke: #eac4a0;
      }

      .cls-2, .cls-14 {
        fill: #efcc9e;
      }

      .cls-8 {
        fill: #5b4935;
      }

      .cls-3 {
        fill: #281e12;
      }

      .cls-9 {
        fill: #070a0f;
      }

      .cls-16 {
        clip-path: url(#clippath);
      }

      .cls-10 {
        fill: #68553e;
      }

      .cls-4 {
        stroke: #d1505c;
      }

      .cls-11 {
        fill: #f4eff3;
      }

      .cls-12 {
        fill: #9fb9ed;
      }

      .cls-13 {
        fill: #c2c0c1;
      }

      .cls-15 {
        fill: #030303;
      }
    </style>
    <clipPath id="clippath">
      <rect class="cls-7" x="-7.5" y="109.5" width="768" height="1253"/>
    </clipPath>
  </defs>
  <g>
    <path class="cls-14" d="M101.6,491.7c3.2-27.7,13.3-76.4,50.8-123.3,86.5-108.1,239.4-106.9,262-106.4,12,.3,208.6,7.4,272.7,140.2,25.7,53.2,19.5,104.7,13.4,132.9-.9,26.6-1.8,53.2-2.7,79.8,31.6,18.9,46.7,53.9,37.4,87-9.1,32.8-40.2,57-77.5,60.4-17.7,15.6-112.2,96.1-259.4,94.3-133.2-1.7-219.9-69.8-240.6-87-6.9-2.3-52.7-18.8-69.5-62.8-14.9-38.9-1.3-83.8,34.8-113.6-7.1-33.8-14.3-67.7-21.4-101.5Z"/>
    <path class="cls-14" d="M92.5,1363.5c26-.3,52,1.2,78.1,2.4,8.5-.3,17.1-.2,25.6-.4,23.4-.6,46.8-1.9,70.1-2.5,23.2-.6,46.4-.2,69.6-.2h39.2l-3.4-80.7c16,1.6,32.1,3.2,48.1,4.8,6,23.5,13.7,49,23.5,75.8h32.3c47.1,0,93.9,1.6,140.9,3.9,12.3.6,24.7,1.1,37,1.6-2.8-7.6-5.9-15.4-9.1-23.2-11.9-28.7-24.7-54.5-37.4-77.4-14.3-124.1-28.5-248.2-42.8-372.3-32.1-8.1-64.2-16.1-96.3-24.2-2.2-6.3-4.5-12.5-6.7-18.8h-115.6c-3.8,6.3-7.6,12.5-11.4,18.8-21.4,9.7-42.8,19.3-64.2,29-14.3,6.4-28.5,12.9-42.8,19.3-23.4,29.7-47.1,63.5-69.5,101.5-55.9,94.7-85.4,184.3-101.6,256.2-.4,8.3-1.4,48.2,32.1,82.2,1.4,1.4,2.8,2.8,4.2,4.1ZM232.6,1021.1c-24.8,69.1-48.8,157.3-58.8,261.1,0,.8-.1,1.5-.2,2.3,0-5.5,0-11.1.2-16.8,2.8-105,32.6-189.9,58.8-246.6Z"/>
  </g>
  <path class="cls-3" d="M500,1195.1c3.3-4.9,8.5-11.9,16-19.3,15.5-15.3,31.5-23.4,42.8-29,6.8-3.4,16.3-7.7,28.3-11.6-9.2-80.1-18.4-160.2-27.6-240.3-32.1-8.1-64.2-16.1-96.3-24.2-2.2-6.3-4.5-12.5-6.7-18.8h-115.6c-3.8,6.3-7.6,12.5-11.4,18.8l-64.2,29c-14.3,6.4-28.5,12.9-42.8,19.3-23.4,29.7-47.1,63.5-69.5,101.5-45.5,77.2-73.6,150.9-91.1,214.5,17.7,1.3,35.8,2.4,54.3,3.3,19.5,1,38.6,1.7,57.3,2.2q18.2-73.3,54.5-220-36.3,146.7-54.5,220c85,.7,171.3-.2,258.9-2.8,12.4-.4,24.8-.8,37.2-1.2,15.7,3.4,27.9,2.2,30.4-2.8.5-1,.8-2.5,0-4.8.7-2.5,2.1-6.3,5.3-9.7,6.6-6.8,15.2-6.4,16-9.7.6-2.3-2.8-6.5-21.4-14.5Z"/>
  <path class="cls-2" d="M537.4,890.5c19,6,47,17.1,74.9,38.2,17,12.9,27.7,24.7,48.1,47.7,14.1,15.9,33,38.4,53.5,66.8,6.1,18.2,14.8,53.2,5.3,95.5-6,27.2-17.5,48.2-26.7,62-75.3,40.8-133.3,69-139,62-2.3-2.9,3-13,0-14.3-2-.9-4.6,3.4-10.7,4.8-6.5,1.4-14.9-1.1-16-4.8-1.6-5.3,12.2-11.4,10.7-14.3-2-4-28.4,5.4-32.1,0-3.8-5.6,20.3-21.6,16-28.6-3.1-5-17.6,0-21.4-4.8-2.8-3.7.5-13.1,26.7-38.2,16-17.5,32.1-35,48.1-52.5-3.7-15.6-7.3-31.5-10.7-47.7-12.5-59.7-21.1-117.2-26.7-171.8Z"/>
  <path class="cls-1" d="M714.5,1040.6c-21.8-28.9-41.8-51.6-56.9-67.8-21.8-23.4-33.1-35.3-51.2-48.4-29.6-21.4-59.4-32.6-79.6-38.7,6,55.4,15.2,113.7,28.4,174.3,3.6,16.4,7.4,32.6,11.4,48.4-2.9,3-5.7,5.9-8.6,8.9,1.9,13,8.4,44.1,37,72.5,18.4,18.3,38.8,28.3,51.7,33.5,14.1-7,29.2-14.7,45-22.8,9.8-14.1,22-35.4,28.4-62.9,10-42.9.8-78.4-5.7-96.8Z"/>
  <path class="cls-6" d="M458.6,589.6s-10.4,82.2,57.5,80.4c0,0,57.6,1.5,89.5-14.5,0,0-44.8-128.9-132.3-59.9l-3.6-15.3-11.1,9.2Z"/>
  <path class="cls-13" d="M469.7,580.3s28.2-47.7,113.4-12.4c0,0,60,45.3,22.4,87.6,0,0-32.6-127.1-132.3-59.9l-3.6-15.3Z"/>
  <path class="cls-15" d="M599.5,664.7s26.4-5.6,44.9-40.9c0,0-17.1-68.3-49.7-65.7l36.6,15.1s-41.6-52.7-153.3-27l-29,24.4,18.7-8.4-23.1,35.5,14-8.2,11.1-9.2s21.7-41.4,105.3-15.6c0,0,72,41.7,24.5,100Z"/>
  <path class="cls-15" d="M554.1,584.5s11.3,55.9-37.4,57.3c0,0-42.2,2.8-31.7-54.5,0,0,46.1-25,69.1-2.8Z"/>
  <path class="cls-5" d="M578.7,570.2s18.1,91.9-56.6,93.3c0,0-64.6,3.7-49.3-90.1,0,0,70.3-40.1,105.8-3.2Z"/>
  <path class="cls-9" d="M483.9,606.9c2.7,24.9,23,41.7,45.2,37.4,22.3-4.3,38.1-28,35.3-52.9-2.7-24.9-23-41.7-45.2-37.4-22.3,4.3-38.1,28-35.3,52.9Z"/>
  <path class="cls-10" d="M637.3,519.2c-22.5-5.6-46.7-10.4-72.6-14-50.6-7.1-97.7-8.2-139.9-6.2,20.5-10.3,55.1-24.1,96.7-23.7,59,.5,98.6,29.3,115.8,43.9Z"/>
  <path class="cls-10" d="M150.8,516.4c22.9-4.2,47.4-7.6,73.4-9.6,51-4,98.1-2.3,140,2.2-19.7-11.5-53.2-27.3-94.7-29.5-58.9-3-100.5,23.3-118.7,36.8Z"/>
  <path class="cls-11" d="M516.5,593.3c1,8.7,9.3,14.3,18.6,12.5,9.3-1.8,16.1-10.3,15.1-19-1-8.7-9.3-14.3-18.6-12.5-9.3,1.8-16.1,10.3-15.1,19Z"/>
  <path class="cls-6" d="M354.5,582.1s10.4,82.2-57.5,80.4c0,0-57.6,1.5-89.5-14.5,0,0,44.8-128.9,132.3-59.9l3.6-15.3,11.1,9.2Z"/>
  <path class="cls-13" d="M343.4,572.8s-28.2-47.7-113.4-12.4c0,0-60,45.3-22.4,87.6,0,0,32.6-127.1,132.3-59.9l3.6-15.3Z"/>
  <path class="cls-15" d="M213.6,657.3s-26.4-5.6-44.9-40.9c0,0,17.1-68.3,49.7-65.7l-36.6,15.1s41.6-52.7,153.3-27l29,24.4-18.7-8.4,23.1,35.5-14-8.2-11.1-9.2s-21.7-41.4-105.3-15.6c0,0-72,41.7-24.5,100Z"/>
  <path class="cls-15" d="M259,577s-11.3,55.9,37.4,57.3c0,0,42.2,2.8,31.7-54.5,0,0-46.1-25-69.1-2.8Z"/>
  <path class="cls-5" d="M234.4,562.8s-18.1,91.9,56.6,93.3c0,0,64.6,3.7,49.3-90.1,0,0-70.3-40.1-105.8-3.2Z"/>
  <path class="cls-9" d="M329.2,599.4c-2.7,24.9-23,41.7-45.2,37.4-22.3-4.3-38.1-28-35.3-52.9,2.7-24.9,23-41.7,45.2-37.4,22.3,4.3,38.1,28,35.3,52.9Z"/>
  <path class="cls-11" d="M296.6,585.8c-1,8.7-9.3,14.3-18.6,12.5-9.3-1.8-16.1-10.3-15.1-19,1-8.7,9.3-14.3,18.6-12.5,9.3,1.8,16.1,10.3,15.1,19Z"/>
  <path class="cls-11" d="M522.2,613.1c.7,5.4,4.9,9.1,9.6,8.1,4.6-1,7.8-6.2,7.2-11.6-.7-5.4-4.9-9.1-9.6-8.1-4.6,1-7.8,6.2-7.2,11.6Z"/>
  <path class="cls-11" d="M300.5,605.4c-.6,5.1-5.6,8.4-11.3,7.3-5.7-1.1-9.9-6.1-9.3-11.2.6-5.1,5.6-8.4,11.3-7.3,5.7,1.1,9.9,6.1,9.3,11.2Z"/>
  <path class="cls-4" d="M354.1,727c2.7,1.7,14.8,8.9,30.9,6.4,11.2-1.7,18.5-7.2,21.4-9.7,4.1,3.1,11.3,7.5,21.4,9.7,20.3,4.3,36.9-4.2,40.9-6.4"/>
  <path class="cls-10" d="M703.2,445.7c1.5,6.6,12.4,53.5,0,58-12.9,4.7-30.7-44.1-85.6-87-67.9-53.2-132.6-50.5-133.7-77.4-.8-19.8,33.4-40.8,64.2-43.5,30-2.7,51.4,12.4,74.9,29,61.2,43.2,76.2,103.4,80.2,120.9Z"/>
  <path class="cls-10" d="M111,448.1c-1.5,6.6-12.4,53.5,0,58,12.9,4.7,30.7-44.1,85.6-87,67.9-53.2,132.6-50.5,133.7-77.4.8-19.8-33.4-40.8-64.2-43.5-30-2.7-51.4,12.4-74.9,29-61.2,43.2-76.2,103.4-80.2,120.9Z"/>
  <path class="cls-10" d="M315.2,358.3c-15.4,19.6-44.4,24.9-64.9,11.8-20.5-13.1-24.7-39.6-9.3-59.3,15.4-19.6,44.4-24.9,64.9-11.8,20.5,13.1,24.7,39.6,9.3,59.3Z"/>
  <g>
    <g>
      <ellipse class="cls-8" cx="422.5" cy="245.1" rx="109.6" ry="99.1"/>
      <ellipse class="cls-8" cx="513.4" cy="278.9" rx="56.2" ry="55.6"/>
      <ellipse class="cls-8" cx="470.6" cy="351.5" rx="45.5" ry="41.1"/>
      <ellipse class="cls-8" cx="414.4" cy="368.4" rx="42.8" ry="38.7"/>
      <ellipse class="cls-8" cx="320.9" cy="274.1" rx="72.2" ry="65.3"/>
    </g>
    <ellipse class="cls-8" cx="363.6" cy="346.6" rx="50.8" ry="45.9"/>
    <ellipse class="cls-8" cx="446.5" cy="416.7" rx="37.4" ry="33.8"/>
    <ellipse class="cls-8" cx="566.9" cy="324.9" rx="40.1" ry="43.5"/>
    <ellipse class="cls-8" cx="254" cy="315.2" rx="48.1" ry="43.5"/>
  </g>
  <g class="cls-16">
    <path class="cls-12" d="M644,1339.6c-11.9-28.7-24.7-54.5-37.4-77.4-1.6-13.7-3.1-27.4-4.7-41.1-89.4-2.9-178.8-7.8-268.4-7.2-49.5.3-101.9,6.8-153.2,7-1.5,9.7-2.8,19.6-4,29.7,1.2,40.9-2.5,81.2,1.7,122.3,1.2,12.2-2.4,23.9-9.1,34,2.4,92.4,16.4,171.6,31.6,232.9,62.3,6.3,124.5,12.6,186.8,18.8-5.1-125.6-10.2-251.1-15.3-376.7,16,1.7,32,3.3,48,5,5.3,29.3,14.6,66,32,106,13.4,30.8,28.4,56.5,42.3,77.1-3.6,33.8-7.1,67.7-10.7,101.5,58.8,1.6,117.6,3.2,176.5,4.8,5.3-46.7,10.7-93.5,16-140.2-7.4-29.2-17.7-61.8-32.1-96.7Z"/>
  </g>
  <path class="cls-4" d="M352.4,727.2c2.7,1.7,14.8,8.9,30.9,6.4,11.2-1.7,18.5-7.2,21.4-9.7,4.1,3.1,11.3,7.5,21.4,9.7,20.3,4.3,36.9-4.2,40.9-6.4"/>
</svg>