<?xml version="1.0" encoding="UTF-8"?>
<svg id="Capa_3" data-name="Capa 3" xmlns="http://www.w3.org/2000/svg" version="1.1" viewBox="0 0 1920 1080">
  <defs>
    <style>
      .cls-1 {
        fill: #dc6667;
      }

      .cls-1, .cls-2, .cls-3, .cls-4, .cls-5, .cls-6, .cls-7 {
        stroke-width: 0px;
      }

      .cls-8 {
        opacity: .5;
      }

      .cls-2 {
        fill: #e13946;
      }

      .cls-3 {
        fill: #da8fa5;
      }

      .cls-4 {
        fill: #b23b28;
      }

      .cls-5 {
        fill: #dd5465;
      }

      .cls-6 {
        fill: #dc3a40;
      }

      .cls-7 {
        fill: #e44353;
      }
    </style>
  </defs>
  <g class="cls-8">
    <path class="cls-2" d="M1678,170.9v739c-36.5,18.9-76,38.4-118.7,58.2-36.8,17-73.2,32.9-108.7,47.8H499.2c-35.2-19-74.5-38.9-118.4-59.1-37.1-17.1-73.7-32.7-109-46.8V170.9c39.9-16.1,81.4-33.9,123.6-53.8,37.9-17.8,72.4-35.3,103.8-52.2h951.5c39.3,19.4,80.4,39.1,123.3,59,35,16.2,69.7,31.9,104.1,46.9Z"/>
    <polygon class="cls-7" points="582.7 241 1367.1 251.9 1367.1 877.1 582.7 866.1 582.7 241"/>
    <polygon class="cls-4" points="687.6 295.7 687.6 785.3 952.1 669.4 974.9 424.6 687.6 295.7"/>
    <polygon class="cls-5" points="1043.3 417 1280.4 305.5 1257.6 775.4 1043.3 666.1 1043.3 417"/>
    <polygon class="cls-6" points="783.4 295.7 1005.1 414.9 1256.5 295.7 783.4 295.7"/>
    <polygon class="cls-6" points="1214.5 797.8 995.8 677.3 741.5 795.1 1214.5 797.8"/>
    <polygon class="cls-3" points="1453.7 212.6 1567.7 192.9 1549.5 859.6 1453.7 846.5 1453.7 212.6"/>
    <polygon class="cls-3" points="361.6 212.6 475.6 192.9 457.3 859.6 361.6 846.5 361.6 212.6"/>
    <polygon class="cls-1" points="475.6 94.6 571.3 210.4 1378.5 210.4 1474.2 94.6 475.6 94.6"/>
    <polygon class="cls-1" points="1474.2 992.3 1375.5 877.1 568.4 881.8 475.6 998.2 1474.2 992.3"/>
  </g>
</svg>